<svg xmlns="http://www.w3.org/2000/svg" width="130.082" height="25.493" viewBox="0 0 130.082 25.493">
  <path id="シェイプ_7" data-name="シェイプ 7" d="M336.247,671.609a26.146,26.146,0,0,1-14.864,4.591,26.755,26.755,0,0,1-18.16-7c-.376-.343-.04-.813.412-.547a36.267,36.267,0,0,0,18.172,4.871,35.839,35.839,0,0,0,13.86-2.865C336.342,670.365,336.911,671.112,336.247,671.609Zm1.673-1.93c-.515-.664-3.4-.314-4.695-.158-.393.047-.457-.3-.1-.55,2.3-1.633,6.071-1.162,6.509-.615s-.114,4.37-2.272,6.192c-.332.28-.647.132-.5-.239.486-1.225,1.572-3.965,1.058-4.631Zm-4.6-12.242V655.85a.389.389,0,0,1,.4-.4h7.034a.394.394,0,0,1,.406.4v1.361a2.244,2.244,0,0,1-.529,1l-3.646,5.259a7.751,7.751,0,0,1,4.014.871.732.732,0,0,1,.374.62v1.693a.377.377,0,0,1-.519.361,8.036,8.036,0,0,0-7.432.015.376.376,0,0,1-.5-.368v-1.609a1.929,1.929,0,0,1,.263-1.091l4.224-6.123h-3.678a.393.393,0,0,1-.407-.4Zm-25.675,9.908H305.5a.4.4,0,0,1-.383-.366v-11.1a.406.406,0,0,1,.414-.4h1.994a.4.4,0,0,1,.389.373v1.45h.04a2.932,2.932,0,0,1,5.6,0,3.148,3.148,0,0,1,5.438-.842c.679.935.54,2.287.54,3.482v7.007a.4.4,0,0,1-.413.4h-2.139a.4.4,0,0,1-.384-.4V661.06a14.262,14.262,0,0,0-.061-2.079,1.118,1.118,0,0,0-1.258-.958,1.419,1.419,0,0,0-1.279.915,6.787,6.787,0,0,0-.2,2.125v5.886a.4.4,0,0,1-.413.4h-2.139a.4.4,0,0,1-.384-.4v-5.887c0-1.238.2-3.06-1.319-3.06-1.539,0-1.478,1.775-1.478,3.06v5.886a.406.406,0,0,1-.418.4Zm39.578-12.1c3.177,0,4.9,2.758,4.9,6.262,0,3.387-1.9,6.075-4.9,6.075-3.119,0-4.818-2.758-4.818-6.191,0-3.459,1.72-6.146,4.818-6.146Zm.019,2.267c-1.579,0-1.68,2.172-1.68,3.527s-.019,4.252,1.66,4.252c1.659,0,1.739-2.336,1.739-3.761a10.359,10.359,0,0,0-.32-2.944,1.342,1.342,0,0,0-1.4-1.075Zm9,9.833H354.1a.4.4,0,0,1-.384-.4V655.837a.407.407,0,0,1,.412-.362h1.986a.408.408,0,0,1,.381.311v1.7h.041a2.916,2.916,0,0,1,2.918-2.243,2.8,2.8,0,0,1,2.5,1.309,7.121,7.121,0,0,1,.56,3.457v6.987a.407.407,0,0,1-.41.349h-2.148a.4.4,0,0,1-.381-.349v-6.029c0-1.214.141-2.991-1.339-2.991a1.4,1.4,0,0,0-1.239.888,4.965,4.965,0,0,0-.343,2.1v5.979a.41.41,0,0,1-.417.4Zm-28.533-5.3a4.284,4.284,0,0,1-.4,2.295,1.739,1.739,0,0,1-1.486.983,1.353,1.353,0,0,1-1.3-1.569c0-1.843,1.635-2.172,3.184-2.172v.469Zm2.159,5.274a.439.439,0,0,1-.505.05,5.252,5.252,0,0,1-1.228-1.442A4.231,4.231,0,0,1,324.6,667.5a3.056,3.056,0,0,1-3.2-3.372,3.677,3.677,0,0,1,2.287-3.536,14.7,14.7,0,0,1,4.026-.749v-.281a2.792,2.792,0,0,0-.261-1.569,1.425,1.425,0,0,0-1.2-.563,1.633,1.633,0,0,0-1.715,1.3.457.457,0,0,1-.372.4l-2.076-.229a.381.381,0,0,1-.319-.457c.477-2.544,2.751-3.316,4.788-3.316a4.825,4.825,0,0,1,3.225,1.078c1.042.983.941,2.295.941,3.723v3.37a2.973,2.973,0,0,0,.808,2.005.41.41,0,0,1-.007.572c-.438.37-1.214,1.052-1.642,1.436Zm-30.231-5.274a4.283,4.283,0,0,1-.4,2.295,1.739,1.739,0,0,1-1.486.983,1.353,1.353,0,0,1-1.3-1.569c0-1.843,1.636-2.172,3.184-2.172v.469Zm2.16,5.274a.441.441,0,0,1-.507.05,5.224,5.224,0,0,1-1.227-1.442,4.231,4.231,0,0,1-3.531,1.573,3.056,3.056,0,0,1-3.2-3.372,3.676,3.676,0,0,1,2.287-3.536,14.7,14.7,0,0,1,4.026-.749v-.281a2.791,2.791,0,0,0-.26-1.569,1.426,1.426,0,0,0-1.2-.562,1.634,1.634,0,0,0-1.722,1.3.457.457,0,0,1-.372.4l-2.075-.229a.381.381,0,0,1-.32-.457c.477-2.544,2.751-3.316,4.788-3.316A4.822,4.822,0,0,1,301.7,656.2c1.042.983.942,2.295.942,3.723v3.37a2.972,2.972,0,0,0,.807,2.005.41.41,0,0,1-.007.572c-.437.37-1.214,1.052-1.642,1.436Zm103.6-1.895a3.043,3.043,0,0,1-1.683.457,10.336,10.336,0,0,1-3.171-.457,3.191,3.191,0,0,0-.583-.131c-.193,0-.258.131-.258.392v.654a.963.963,0,0,0,.129.457,1,1,0,0,0,.389.261,8.536,8.536,0,0,0,3.494.654,5.038,5.038,0,0,0,3.237-.981,3.087,3.087,0,0,0,1.229-2.615,3.006,3.006,0,0,0-.582-1.9,4.56,4.56,0,0,0-1.944-1.243l-1.812-.719a3.43,3.43,0,0,1-1.425-.784,1.243,1.243,0,0,1-.388-.981c0-.981.711-1.5,2.2-1.5a7.742,7.742,0,0,1,2.459.392c.26.065.457.13.518.13a.329.329,0,0,0,.324-.392v-.653a.963.963,0,0,0-.129-.457.6.6,0,0,0-.389-.262,9.156,9.156,0,0,0-2.912-.522,4.954,4.954,0,0,0-3.041.915,2.921,2.921,0,0,0-1.165,2.418,3.41,3.41,0,0,0,2.523,3.27l1.944.719a3.793,3.793,0,0,1,1.3.719,1.143,1.143,0,0,1,.324.915,1.442,1.442,0,0,1-.583,1.243h0Zm6.925-14.32a1.518,1.518,0,0,0-1.1-.392,1.361,1.361,0,0,0-1.036.392,1.336,1.336,0,0,0-.389.981,1.239,1.239,0,0,0,.389.981,1.563,1.563,0,0,0,2.071,0,1.337,1.337,0,0,0,.389-.981,1.211,1.211,0,0,0-.323-.981Zm-.389,4.447h-1.359a.386.386,0,0,0-.457.457v10.854a.386.386,0,0,0,.457.457h1.359a.386.386,0,0,0,.457-.457V656.005a.41.41,0,0,0-.457-.457Zm6.084,2.615a3.518,3.518,0,0,1,2.783-.98,5.95,5.95,0,0,1,1.877.261.949.949,0,0,0,.388.065c.194,0,.324-.13.324-.457V656.4a.763.763,0,0,0-.129-.457,1.433,1.433,0,0,0-.324-.262,11.331,11.331,0,0,0-2.459-.392,5.386,5.386,0,0,0-4.206,1.635,6.579,6.579,0,0,0-1.486,4.573,6.386,6.386,0,0,0,1.423,4.511,5.341,5.341,0,0,0,4.142,1.57,6.344,6.344,0,0,0,2.589-.457.6.6,0,0,0,.389-.262.858.858,0,0,0,.064-.457v-.653c0-.327-.129-.457-.324-.457a.7.7,0,0,0-.324.065,7.974,7.974,0,0,1-2.071.327,3.466,3.466,0,0,1-2.719-.98,4.574,4.574,0,0,1-.84-3.073V661.3a5.016,5.016,0,0,1,.906-3.139h0Zm-35.078,9.154h1.359a.386.386,0,0,0,.457-.457v-8.173a3.459,3.459,0,0,0-.841-2.55,3.251,3.251,0,0,0-2.459-.915,7.564,7.564,0,0,0-4.53,1.635,2.889,2.889,0,0,0-2.912-1.635,7.547,7.547,0,0,0-4.272,1.5l-.129-.719a.3.3,0,0,0-.194-.327.483.483,0,0,0-.324-.065h-1.036a.386.386,0,0,0-.457.457v10.854a.386.386,0,0,0,.457.457h1.359a.387.387,0,0,0,.457-.457V658.1a6.552,6.552,0,0,1,3.366-1.046,1.5,1.5,0,0,1,1.358.589,2.946,2.946,0,0,1,.457,1.7v7.519a.386.386,0,0,0,.457.457h1.359a.386.386,0,0,0,.457-.457V658.1a6.308,6.308,0,0,1,3.365-1.046,1.507,1.507,0,0,1,1.359.589,2.956,2.956,0,0,1,.457,1.7v7.519a.386.386,0,0,0,.457.457h0Zm12.3-11.311v8.7a6.044,6.044,0,0,1-3.3,1.111,1.9,1.9,0,0,1-1.553-.589,2.82,2.82,0,0,1-.457-1.829v-7.388a.388.388,0,0,0-.457-.457H388.1a.386.386,0,0,0-.457.457v8.108a3.629,3.629,0,0,0,.84,2.615,3.412,3.412,0,0,0,2.525.915,7.4,7.4,0,0,0,4.4-1.569l.129.784a.3.3,0,0,0,.194.327.592.592,0,0,0,.389.065h.971a.386.386,0,0,0,.457-.457V656.005a.387.387,0,0,0-.457-.457h-1.35a.432.432,0,0,0-.518.457h0Z" transform="translate(-293.31 -650.707)" fill-rule="evenodd"/>
</svg>
