<?xml version="1.0" encoding="utf-8"?>
<!-- Generator: Adobe Illustrator 25.4.1, SVG Export Plug-In . SVG Version: 6.00 Build 0)  -->
<svg version="1.1" id="レイヤー_1" xmlns="http://www.w3.org/2000/svg" xmlns:xlink="http://www.w3.org/1999/xlink" x="0px"
	 y="0px" viewBox="0 0 295 22.8" style="enable-background:new 0 0 295 22.8;" xml:space="preserve">
<g>
	<path id="パス_828" d="M11.8,15.3c0-0.1,0.1-0.2,0.2-0.2c0.1,0,0.2,0.1,0.2,0.2c0,0,0,0,0,0c0,0.1,0,0.4,0,0.6
		c-0.2,1.8-0.3,3.2-0.3,4.1c0,0.2-0.2,0.4-0.4,0.5c0,0,0,0-0.1,0H0c0.8-2.9,2.7-4.8,4.6-6.7c2-2.1,4-4.1,4-7.2
		c0-2.4-1.2-3.7-2.9-3.7c-1.5,0-2.9,1-2.9,2.3c0,0.4,0.2,0.7,0.6,0.7c0.1,0,0.1,0,0.2,0c0.7,0,1.2,0.5,1.3,1.1c0,0.1,0,0.1,0,0.2
		c0,0.9-0.7,1.5-1.6,1.5c0,0-0.1,0-0.1,0C2,8.8,1.2,8,1.2,7c0-0.1,0-0.1,0-0.2c0-2.4,2.2-4.6,5.3-4.6c3.3,0,5.3,1.7,5.3,4.8
		c0,3.4-2.9,5.4-5.7,7.3C4.4,15.2,3,16.5,1.8,18h8.7c0.7,0,0.7,0,0.8-0.6L11.8,15.3z"/>
	<path id="パス_829" d="M26.9,11c0,7.3-3.2,9.8-5.9,9.8c-3.3,0-5.9-2.9-5.9-8.7c0-7.4,3.2-9.9,5.9-9.9C24.3,2.2,26.9,5.1,26.9,11
		 M23.6,11.7c0-6.5-0.7-8.9-2.6-8.9s-2.6,2.7-2.6,8.7c0,6.4,0.7,8.8,2.6,8.8S23.6,17.6,23.6,11.7"/>
	<path id="パス_830" d="M41.2,15.3c0-0.1,0.1-0.2,0.2-0.2c0.1,0,0.2,0.1,0.2,0.2c0,0,0,0,0,0c0,0.1,0,0.4,0,0.6
		c-0.2,1.8-0.3,3.2-0.3,4.1c0,0.2-0.2,0.4-0.4,0.5c0,0,0,0-0.1,0H29.4c0.8-2.9,2.7-4.8,4.6-6.7c2-2.1,4-4.1,4-7.2
		c0-2.4-1.2-3.7-2.9-3.7c-1.5,0-2.9,1-2.9,2.3c0,0.4,0.2,0.7,0.6,0.7c0.1,0,0.1,0,0.2,0c0.7,0,1.2,0.5,1.3,1.1c0,0.1,0,0.1,0,0.2
		c0,0.9-0.7,1.5-1.6,1.5c0,0-0.1,0-0.1,0c-1,0-1.8-0.8-1.8-1.8c0-0.1,0-0.1,0-0.2c0-2.4,2.2-4.6,5.3-4.6c3.3,0,5.3,1.7,5.3,4.8
		c0,3.4-2.9,5.4-5.7,7.3c-1.7,0.9-3.1,2.2-4.3,3.7h8.7c0.7,0,0.7,0,0.8-0.6L41.2,15.3z"/>
	<path id="パス_831" d="M55.9,15.3c0-0.1,0.1-0.2,0.2-0.2c0.1,0,0.2,0.1,0.2,0.2c0,0,0,0,0,0c0,0.1,0,0.4,0,0.6
		c-0.2,1.8-0.3,3.2-0.3,4.1c0,0.2-0.2,0.4-0.4,0.5c0,0,0,0-0.1,0H44.1c0.8-2.9,2.7-4.8,4.6-6.7c2-2.1,4-4.1,4-7.2
		c0-2.4-1.2-3.7-2.9-3.7c-1.5,0-2.9,1-2.9,2.3c0,0.4,0.2,0.7,0.6,0.7c0.1,0,0.1,0,0.2,0c0.7,0,1.2,0.5,1.3,1.1c0,0.1,0,0.1,0,0.2
		c0,0.9-0.7,1.5-1.6,1.5c0,0-0.1,0-0.1,0c-1,0-1.8-0.8-1.8-1.8c0-0.1,0-0.1,0-0.2c0-2.4,2.2-4.6,5.3-4.6c3.3,0,5.3,1.7,5.3,4.8
		c0,3.4-2.9,5.4-5.7,7.3c-1.7,0.9-3.1,2.2-4.3,3.7h8.7c0.7,0,0.7,0,0.8-0.6L55.9,15.3z"/>
	<path id="パス_832" d="M73.5,4c0,0.3-0.2,0.5-0.7,0.6V9h2.9c1.4-2,1.7-2.1,1.9-2.1c0.2,0,0.5,0.1,1.4,0.9c1,0.9,1.2,1.1,1.2,1.3
		c0,0.3-0.1,0.4-0.6,0.4h-6.7v5.3H77c1.4-2,1.7-2.2,1.9-2.2s0.6,0.2,1.6,1.1s1.2,1.1,1.2,1.3s-0.1,0.3-0.5,0.3h-8.4l0.1,6.3
		c0,0.9-0.8,1.3-2.2,1.3c-0.9,0-1.1-0.1-1.1-0.9l0.1-6.7h-5.3c-1.8,0-3.6,0-5.4,0.2l-0.2-0.8c1.2,0.1,2.6,0.2,4.6,0.2V9.9
		c0-0.6,0-1.3-0.3-1.9l0.2-0.2c1.2,0.2,2.4,0.6,3.4,1.2h3V4h-3.6c-1.7,2.6-4.1,4.8-6.8,6.3l-0.2-0.2c2.2-2.4,3.8-5.3,4.8-8.4
		c0.2-0.5,0.3-1,0.3-1.5V0.1L64.4,0c3.3,0.9,4,1.3,4,1.7s-0.4,0.6-1.3,0.7c-0.2,0.4-0.5,0.8-0.7,1.2h9.4c1.4-2,1.7-2.2,1.9-2.2
		c0.3,0,0.7,0.3,1.5,1c0.9,0.8,1.1,1.1,1.1,1.3c0,0.3-0.1,0.4-0.6,0.4L73.5,4z M66.4,14.7h3.4V9.5H67c-0.1,0.2-0.4,0.3-0.6,0.4V14.7
		z"/>
	<path id="パス_833" d="M91.1,2.5v16c0,1.4,0.2,1.5,2.8,1.6c0.1,0,0.2,0.1,0.2,0.2c0,0.1-0.1,0.2-0.2,0.2l-1.3,0
		c-1.1,0-2-0.1-3-0.1c-0.9,0-1.8,0-2.9,0.1l-1.4,0c-0.1,0-0.2-0.1-0.2-0.2c0-0.1,0.1-0.2,0.2-0.2c2.6-0.1,2.8-0.1,2.8-1.6V6.6
		c0-0.3-0.1-0.4-0.4-0.4s-0.8,0.2-3.6,1.4c-0.1,0-0.2,0.1-0.3,0.1c-0.1,0-0.2-0.1-0.2-0.2c0,0,0,0,0,0c0-0.1,0.1-0.2,0.2-0.2
		c2.4-1,4.4-2.6,6-4.7L91.1,2.5z"/>
	<path id="パス_834" d="M108,15.3c0-0.1,0.1-0.2,0.2-0.2c0.1,0,0.2,0.1,0.2,0.2c0,0,0,0,0,0c0,0.1,0,0.4,0,0.6
		c-0.2,1.8-0.3,3.2-0.3,4.1c0,0.2-0.2,0.4-0.4,0.5c0,0,0,0-0.1,0H96.2c0.8-2.9,2.7-4.8,4.6-6.7c2-2.1,4-4.1,4-7.2
		c0-2.4-1.2-3.7-2.9-3.7c-1.5,0-2.9,1-2.9,2.3c0,0.4,0.2,0.7,0.6,0.7c0.1,0,0.1,0,0.2,0c0.7,0,1.2,0.5,1.3,1.1c0,0.1,0,0.1,0,0.2
		c0,0.9-0.7,1.5-1.6,1.5c0,0-0.1,0-0.1,0c-1,0-1.8-0.8-1.8-1.8c0-0.1,0-0.1,0-0.2c0-2.4,2.2-4.6,5.3-4.6c3.3,0,5.3,1.7,5.3,4.8
		c0,3.4-2.9,5.4-5.7,7.3c-1.7,0.9-3.1,2.2-4.3,3.7h8.7c0.7,0,0.7,0,0.8-0.6L108,15.3z"/>
	<path id="パス_835" d="M126.2,12.9h-7.4c-0.2,2.2-1.1,4.2-2.5,5.9c-1.3,1.6-3,2.9-4.8,3.8l-0.2-0.1c1.4-1.2,2.5-2.7,3.3-4.3
		c0.9-1.7,1.6-4.2,1.6-8.5V3c0.1-0.8,0-1.6-0.3-2.4l0.2-0.2c2.5,0.6,3.5,0.9,3.7,1.2h6.2c1-1.2,1.3-1.4,1.6-1.4
		c0.3,0,0.5,0.1,1.5,0.9c1.2,1,1.4,1.3,1.4,1.5c0,0.3-0.2,0.5-1,0.9v5.7l0.2,10.2c0,2.4-2.4,3.2-4,3.2c-0.3,0-0.3-0.1-0.5-0.6
		c-0.2-0.9-0.9-1.7-2.9-2.3v-0.3h0.9c0.8,0,1.6,0,2.4-0.1c0.6-0.1,0.8-0.2,0.8-1L126.2,12.9z M126.2,12.5V7.4H119v1.1
		c0,1.3-0.1,2.6-0.2,3.9L126.2,12.5z M119,7h7.2V2h-6.7c-0.1,0.1-0.3,0.2-0.5,0.3V7z"/>
	<path id="パス_836" d="M147.8,15.3c0-0.1,0.1-0.2,0.2-0.2c0.1,0,0.2,0.1,0.2,0.2c0,0,0,0,0,0c0,0.1,0,0.4,0,0.6
		c-0.2,1.8-0.3,3.2-0.3,4.1c0,0.2-0.2,0.4-0.4,0.5c0,0,0,0-0.1,0H136c0.8-2.9,2.7-4.8,4.6-6.7c2-2.1,4-4.1,4-7.2
		c0-2.4-1.2-3.7-2.9-3.7c-1.5,0-2.9,1-2.9,2.3c0,0.4,0.2,0.7,0.6,0.7c0.1,0,0.1,0,0.2,0c0.7,0,1.2,0.5,1.3,1.1c0,0.1,0,0.1,0,0.2
		c0,0.9-0.7,1.5-1.6,1.5c0,0-0.1,0-0.1,0c-1,0-1.8-0.8-1.8-1.8c0-0.1,0-0.1,0-0.2c0-2.4,2.2-4.6,5.3-4.6c3.3,0,5.3,1.7,5.3,4.8
		c0,3.4-2.9,5.4-5.7,7.3c-1.7,0.9-3.1,2.2-4.3,3.7h8.7c0.7,0,0.7,0,0.8-0.6L147.8,15.3z"/>
	<path id="パス_837" d="M163.1,15.5c0,3.4-2.5,5.3-6.1,5.3c-3.8,0-6.1-1.5-6.1-4.3c0-2.3,1.6-3.7,4.3-4.9c-1.7-1-3.3-2.2-3.3-4.6
		c0-3.2,2.3-4.8,5.3-4.8c2.7,0,5,1.4,5,3.9c0,2.2-2,3.5-3.3,4.1C161,11.3,163.1,12.5,163.1,15.5 M155.5,11.9
		c-1.4,1.1-2.3,2.8-2.2,4.7c0,1.8,0.8,3.8,3.7,3.8c1.7,0.1,3.1-1.1,3.3-2.8c0-0.2,0-0.3,0-0.5c0-2.7-2.1-3.7-4.1-4.9L155.5,11.9z
		 M154.5,5.4c0,2.5,1.9,3.5,4,4.5c1.1-1,1.7-2.4,1.6-3.8c0-1.8-0.7-3.4-2.9-3.4c-1.4-0.1-2.6,1-2.7,2.3
		C154.4,5.2,154.4,5.3,154.5,5.4"/>
	<path id="パス_838" d="M181.2,18.9h-8.8v2.3c0,0.8-0.8,1.2-2.2,1.2c-0.8,0-0.9-0.1-0.9-0.8l0.2-12.4V3.2c0-0.7-0.1-1.4-0.3-2
		l0.2-0.2c2.3,0.6,3.3,0.9,3.6,1.2h7.9c0.9-1.2,1.3-1.5,1.5-1.5c0.3,0,0.6,0.2,1.6,1c1.1,0.8,1.4,1.2,1.4,1.5c0,0.3-0.3,0.6-1,0.9
		v5.2l0.2,11.3c0,1.1-0.6,1.5-2.4,1.5c-0.8,0-0.9-0.1-0.9-0.7L181.2,18.9z M172.4,9.9h8.8V2.6h-8.2c-0.1,0.2-0.3,0.3-0.6,0.4V9.9z
		 M181.2,10.4h-8.8v8.1h8.8V10.4z"/>
	<path id="パス_839" d="M212.4,10.6c0,0.4-0.2,0.6-0.7,0.7v3h2.7c1.2-1.6,1.6-2.1,1.8-2.1s0.5,0.1,1.5,1s1.2,1.1,1.2,1.3
		s-0.1,0.3-0.5,0.3h-6.7v4c0,0.7,0.1,0.8,1.5,0.8c2.1,0,2.6-0.1,3.4-0.9c0.7-0.8,1.3-1.8,1.7-2.8l0.2,0.1c-0.1,0.8-0.2,1.7-0.2,2.6
		c0,0.3,0.1,0.7,0.3,0.9c0.3,0.3,0.5,0.6,0.5,1c0,0.6-0.3,1.2-0.9,1.4c-0.6,0.4-2,0.6-5.4,0.6c-3.6,0-4.2-0.5-4.1-2.7l0.1-5h-2.3
		c-0.2,2.3-1.2,4.4-3,5.9c-1.9,1.3-4,2-6.3,2.1l-0.1-0.2c1.9-0.5,3.6-1.6,4.8-3.1c1-1.4,1.5-3,1.6-4.7c-2.4,0-4.6,0-5.8,0.2
		l-0.2-0.8c1.4,0.1,3.5,0.2,6.1,0.2c0-0.3,0-0.6,0-0.9v-2.7c-0.7,0-1.3,0.1-1.8,0.1l-0.1-0.4c-1.5,0.9-3,1.6-4.7,2l-0.1-0.2
		c1.8-1,3.4-2.4,4.7-4c-0.2,0-0.3,0.1-0.5,0.1c-0.7,0-1.1-0.4-1.3-1.3c0-1.1-0.6-2.1-1.6-2.7l0.1-0.2c2.5,0.1,4.3,1,4.3,2.6v0.1
		c0.8-1.3,1.5-2.7,1.9-4.2h-2.4c-1.2,0-2.4,0.1-3.6,0.2L198.4,2c1.3,0.2,2.6,0.2,3.8,0.2h2.2c1-1.2,1.3-1.5,1.5-1.5
		c0.2,0,0.5,0.1,1.6,1.1c0.9,0.8,1.2,1.1,1.2,1.4c0,0.3-0.4,0.5-1.2,0.6c-1.1,2.5-2.9,4.7-5.2,6.2c1.3,0.1,3.1,0.1,5.3,0.1h2.2
		c1.1-1.5,1.6-2,1.8-2c0.2,0,0.4,0,1.4,0.9c1,0.8,1.2,1,1.2,1.2s-0.1,0.3-0.5,0.3L212.4,10.6z M208.8,14.3v-3.7h-1.5
		c0,0.4-0.3,0.6-0.7,0.7v2c0,0.3,0,0.7,0,1H208.8z M212.8,0.2c2.4,1.4,2.7,1.9,2.7,2.1c0,0.3-0.2,0.4-0.9,0.4h-0.3
		c-0.9,0.5-1.9,1-2.9,1.4c0.7,0.7,1.4,1.3,2.2,1.8c0.6-0.7,1.1-1.5,1.5-2.3c0.2-0.3,0.3-0.6,0.3-0.9l0.2-0.1
		c2.6,1.5,2.9,1.9,2.9,2.2c0,0.2-0.2,0.4-0.8,0.4c-0.1,0-0.3,0-0.4,0c-0.9,0.5-1.9,0.9-2.9,1.3c1.7,0.9,3.6,1.5,5.5,1.8v0.3
		c-1,0.5-1.8,1.4-2.2,2.4c-0.2,0.3-0.3,0.5-0.5,0.5c-0.3,0-0.5-0.1-0.7-0.2c-4.3-2.1-7.2-6.3-7.7-11.1l0.2-0.1
		c0.4,1.2,1.1,2.3,1.8,3.3c0.5-0.7,0.9-1.4,1.3-2.2c0.2-0.3,0.3-0.6,0.3-0.9L212.8,0.2z"/>
	<path id="パス_840" d="M222.4,22.5c4.1-1.6,6.8-5.6,6.6-10c0-0.5,0-1.1-0.2-1.6l0.2-0.1c3.4,0.8,3.9,0.9,3.9,1.4
		c0,0.2-0.2,0.5-0.9,0.6c-0.4,5.9-3.6,9.1-9.6,10L222.4,22.5z M240.4,9.3c1.1-1.3,1.4-1.4,1.6-1.4c0.2,0,0.4,0.1,1.6,1.2
		c1.1,1.1,1.3,1.4,1.3,1.6c0,0.6-0.2,0.7-1.9,0.7c-1,0.7-2.1,1.3-3.2,1.8l-0.2-0.2c0.5-1.1,0.9-2.2,1.2-3.3h-14.6
		c0,0.3,0.1,0.5,0.1,0.8c0,2.2-1,3.3-2.4,3.3c-0.8,0-1.4-0.6-1.5-1.3c0,0,0-0.1,0-0.1c0-0.7,0.4-1.4,1.1-1.6c1-0.5,1.6-1.5,1.6-2.6
		V7.8l0.2,0c0.3,0.5,0.6,1,0.8,1.5L240.4,9.3z M231.9,3.2V2.4c0.1-0.7,0-1.4-0.3-2.1l0.2-0.2c3.1,0.4,4.1,0.7,4.1,1.1
		c0,0.3-0.3,0.5-1,0.7v1.3h5.1c1.2-1.6,1.6-2.1,1.8-2.1s0.5,0.1,1.5,1s1.2,1.1,1.2,1.3s-0.1,0.3-0.5,0.3h-9.1v3h3.3
		c1.2-1.6,1.6-2.1,1.8-2.1s0.5,0.1,1.5,0.9c1,0.8,1.2,1.1,1.2,1.3s-0.1,0.3-0.5,0.3h-11.4c-2.5,0-4.7,0-5.9,0.2l-0.2-0.8
		c1.4,0.1,3.6,0.2,6.1,0.2h1.2v-3h-3.1c-2.5,0-4.7,0-5.9,0.2L222.7,3c1.4,0.1,3.6,0.2,6.1,0.2L231.9,3.2z M237.2,18.7
		c0,0.8,0,0.8,1.6,0.8c2,0,2.7-0.3,3.1-0.8c0.7-0.8,1.3-1.7,1.6-2.7l0.2,0c-0.1,0.8-0.2,1.5-0.2,2.3c0,0.3,0.1,0.7,0.3,0.9
		c0.3,0.3,0.5,0.7,0.4,1.2c0,0.6-0.3,1.1-0.8,1.4c-0.5,0.3-1.9,0.6-4.9,0.6c-3.9,0-4.6-0.4-4.5-2.9l0.1-4.1v-2.7
		c0.1-0.6,0-1.3-0.3-1.9l0.2-0.2c3.4,0.4,4.1,0.7,4.1,1.1c0,0.3-0.2,0.4-0.9,0.7L237.2,18.7z"/>
</g>
<g>
	<path id="パス_755" d="M254.8,7.9h-3.3v13.8c0,0.8-0.7,1.1-2.1,1.1c-0.6,0-0.7,0-0.7-0.7l0.2-12.9v-7c0-0.6,0-1.1-0.2-1.7
		l0.2-0.2c1.1,0.2,2.1,0.6,3.1,1.1h2.8c0.8-1.1,1.1-1.3,1.2-1.3c0.2,0,0.6,0.2,1.2,0.8c0.8,0.6,1,0.9,1,1.2s-0.2,0.5-0.8,0.7v1.8
		l0.1,3.4c0,0.9-0.9,1.2-1.9,1.2c-0.6,0-0.7-0.1-0.7-0.7L254.8,7.9z M251.5,4.3h3.3V1.9H252c-0.1,0.2-0.3,0.3-0.5,0.4L251.5,4.3z
		 M254.8,4.7h-3.3v2.7h3.3V4.7z M255.2,11c-0.7,0-1.4,0.1-2.2,0.1l-0.2-0.8c1.5,0.1,3.1,0.2,4.6,0.2h4.1c1.2-1.6,1.3-1.7,1.5-1.7
		c0.2,0,0.4,0.1,1.1,0.8c0.8,0.8,0.9,0.8,0.9,1.1c0,0.2-0.1,0.3-0.5,0.3h-2c0,0.3-0.2,0.5-0.7,0.6v3h0.4c1-1.5,1.2-1.8,1.5-1.8
		c0.2,0,0.5,0.1,1.1,0.8c0.3,0.2,0.6,0.5,0.8,0.8V7.9h-3.7v0.3c0,0.7-0.8,1-2,1c-0.6,0-0.7-0.2-0.7-0.7l0.1-3.9V2.1
		c0-0.5,0-1-0.2-1.5l0.2-0.2c1,0.3,2,0.6,2.9,1h2.9c0.9-1.2,1.3-1.4,1.5-1.4c0.2,0,0.5,0.1,1.5,0.9c0.8,0.6,1,0.9,1,1.2
		c0,0.2-0.2,0.5-0.8,0.7v5.5l0.2,12.2c0,1.7-1.4,2.3-3.3,2.3c-0.4,0-0.4,0-0.6-0.6c-0.2-0.8-0.7-1.6-2.4-2v-0.2c0.4,0,0.8,0,1.1,0
		c0.5,0,1,0,1.5-0.1c0.4-0.1,0.6-0.2,0.6-1V15c-0.1,0.1-0.3,0.1-0.4,0.1h-3.4l0.2,6.1c0,1.1-0.7,1.2-1.9,1.2c-0.8,0-0.9-0.1-0.9-0.7
		l0.1-6.7h-1.6c-0.1,1.3-0.5,2.6-1.1,3.8c-1.2,1.7-2.9,3-4.9,3.6l-0.1-0.2c1.3-0.9,2.3-2,3-3.4c0.5-1.2,0.7-2.5,0.7-3.7
		c-1.1,0-2.1,0.1-3.2,0.2l-0.2-0.8c1.2,0.1,2.3,0.2,3.4,0.2L255.2,11z M259.4,14.6V11h-0.9c-0.1,0.3-0.3,0.5-0.6,0.6v1.6
		c0,0.5,0,1,0,1.5L259.4,14.6z M262.1,4.3h3.7V1.9h-3.2c-0.1,0.2-0.3,0.3-0.5,0.4V4.3z M262.1,7.4h3.7V4.7h-3.7V7.4z"/>
	<path id="パス_756" d="M275.8,16.2c-0.1,0.6-0.7,0.9-1.6,0.9c-0.7,0-1.2,0-1.2-0.4c0-0.2,0.1-0.6,0.2-1.2l1.4-7.5l0.1-0.9
		c-0.7,0-1.5,0.1-2.2,0.1l-0.2-0.8c0.8,0.1,1.7,0.1,2.5,0.1l0.7-4.4c0.1-0.4,0.1-0.8,0.1-1.1c0-0.3,0-0.5-0.1-0.8l0.2-0.1
		c3,0.5,3.6,0.7,3.6,1.2c0,0.3-0.3,0.5-1,0.6l-0.8,4.8h1.3c0.7-1,1.1-1.4,1.3-1.4c0.3,0,0.7,0.3,1.5,0.9c0.9,0.7,1.1,1,1.1,1.2
		c0,0.2-0.1,0.4-1,0.8c-0.2,2.7-0.8,5.3-1.7,7.8c-0.1,0.3-0.2,0.6-0.3,0.8c1.3,0.8,2.2,1.9,2.2,2.8c0,0.9-0.4,1.5-1.3,1.5
		c-0.6,0-1-0.4-1.3-1.3c-0.2-0.5-0.4-0.9-0.7-1.3c-1.5,1.8-3.5,3.1-5.7,3.8l-0.1-0.2c2-1.3,3.5-3.1,4.4-5.2
		C276.6,16.7,276.2,16.4,275.8,16.2L275.8,16.2z M277.3,7.1l-1.4,8.5c0.5,0.1,1.1,0.2,1.6,0.3c0.2-0.5,0.4-1.1,0.6-1.7
		c0.6-2.3,0.9-4.7,1-7.1L277.3,7.1z M284.5,8.5c0.7-2.2,1.2-4.4,1.6-6.7c0.1-0.4,0.1-0.7,0.1-1.1c0-0.2,0-0.4,0-0.5l0.2-0.1
		c3,0.7,3.9,1,3.9,1.4c0,0.3-0.2,0.5-1,0.6c-1,2.2-2.1,4.3-3.4,6.4c1.9,0,3.8-0.1,5.7-0.2c-0.3-1.3-1.1-2.4-2.1-3.1l0.1-0.2
		c4.1,1,5.4,3.1,5.4,4.7c0,1.4-0.6,2.1-1.6,2.1c-0.8,0-1.2-0.5-1.4-1.9l-0.1-0.4c-3.1,1-5.5,1.7-7.9,2.2c-0.2,0.1-0.4,0.1-0.6,0.1
		c-0.2,0-0.4-0.1-0.5-0.4c-0.4-0.9-0.6-1.7-0.9-2.6l0.2-0.2c0.7,0,1.4,0,1.9,0L284.5,8.5z M290.6,20.9H286v0.7
		c0,0.8-0.8,1.2-2.1,1.2c-0.7,0-0.9-0.1-0.8-0.8l0.2-5.2v-2.4c0.1-0.7,0-1.4-0.2-2l0.2-0.2c1.1,0.3,2.2,0.7,3.2,1.2h3.7
		c0.9-1.2,1-1.4,1.3-1.4c0.3,0,0.6,0.1,1.6,0.9c1,0.8,1.3,1.1,1.3,1.4c0,0.3-0.2,0.4-0.9,0.7v1.8l0.2,4.2c0,1.2-0.5,1.6-2.3,1.6
		c-0.7,0-0.8-0.1-0.8-0.7L290.6,20.9z M286,20.5h4.6v-6.7h-4c0,0.1-0.2,0.2-0.6,0.4L286,20.5z"/>
</g>
</svg>
