<svg xmlns="http://www.w3.org/2000/svg" xmlns:xlink="http://www.w3.org/1999/xlink" width="220" height="220" viewBox="0 0 220 220">
  <defs>
    <clipPath id="clip-path">
      <rect id="長方形_272" data-name="長方形 272" width="220" height="220" fill="none"/>
    </clipPath>
  </defs>
  <g id="グループ_201" data-name="グループ 201" clip-path="url(#clip-path)">
    <path id="パス_867" data-name="パス 867" d="M220,110A110,110,0,1,1,110,0,110,110,0,0,1,220,110"/>
    <path id="パス_868" data-name="パス 868" d="M51.63,212.474v2.471h5.776c1.34-1.667,1.816-2.173,2.055-2.173s.565.149,1.607.983c1.161.922,1.34,1.131,1.34,1.369,0,.269-.149.358-.625.358H51.63v2.679h7.026c1.519-1.905,2-2.352,2.263-2.352s.536.06,1.846,1.013,1.489,1.19,1.489,1.458c0,.328-.149.417-.625.417H44.4c-3.066,0-5.746.059-7.294.238l-.268-1.012c1.727.179,4.406.238,7.562.238h3.662v-2.679H46.271c-3.067,0-5.746.06-7.295.238l-.267-1.012c1.727.179,4.406.238,7.562.238h1.786v-2.471h-.834c-3.067,0-5.746.059-7.294.238l-.268-1.012c1.727.179,4.406.238,7.562.238h.834v-2.591H44.514c-3.067,0-5.866.06-7.413.238l-.268-1.013c1.727.179,4.525.238,7.681.238h3.543v-2.59h-.834c-3.067,0-5.746.06-7.294.238l-.268-1.013c1.727.179,4.406.238,7.562.238h.834v-.744a5.5,5.5,0,0,0-.357-2.412l.208-.208c3.9.506,4.912.774,4.912,1.339,0,.328-.208.536-1.191.8v1.22H55.2c1.22-1.488,1.489-1.637,1.757-1.637.3,0,.744.268,1.816,1.072,1.161.893,1.578,1.34,1.578,1.638,0,.268-.208.447-1.131.923v.774l.03.357h.417c1.34-1.935,1.727-2.323,1.905-2.323.238,0,.536.12,1.429.894,1.25,1.072,1.369,1.339,1.369,1.607s-.149.357-.625.357H59.281l.119,2.084c.089,1.459-.745,2.025-2.56,2.025-1.013,0-1.221-.09-1.221-.983ZM55.977,228.7H44.425v.388c0,1.072-.953,1.4-2.8,1.4-.863,0-.953-.06-.923-.923l.238-5.657v-1.1c0-1.845,0-2.352-.269-2.947l.208-.209c2.858.744,3.871,1.072,4.168,1.37H55.619c1.191-1.34,1.667-1.7,1.936-1.7s.6.119,1.816,1.1c1.1.893,1.34,1.22,1.34,1.548s-.268.566-1.072,1.072v.923l.238,4.823c.06,1.072-1.1,1.459-2.709,1.459-1.012,0-1.191-.119-1.191-.893Zm-11.552-4.2H55.977v-2.948H45.11c-.09.149-.268.238-.685.417Zm11.552.536H44.425v3.126H55.977ZM51.63,208.812h3.99v-2.59H51.63Zm0,3.126h3.99v-2.591H51.63Z" transform="translate(-14.659 -80.519)" fill="#fff"/>
    <path id="パス_869" data-name="パス 869" d="M104.609,206.687c1.757.327,2.65,1.013,2.65,2.174a1.567,1.567,0,0,1-.178.774c2.025.387,2.65.625,2.65,1.072,0,.387-.208.476-1.1.715v1.727c1.459-1.875,1.578-2.054,1.846-2.054s.506.179,1.309,1.012c.715.745.924.923.924,1.131,0,.358-.179.447-.685.447h-3.394v3.781h.238c1.429-1.936,1.667-2.233,1.936-2.233.3,0,.506.149,1.488,1.1.834.834.982.983.982,1.34,0,.238-.178.328-.684.328H103.15a48.642,48.642,0,0,0-5.6.238c1.012.834,1.1.983,1.1,1.22,0,.358-.178.447-.685.447H93.593v1.072c3.007.327,4.645,1.607,4.645,3.453a1.59,1.59,0,0,1-1.727,1.757c-.744,0-1.25-.417-1.4-1.429a5.888,5.888,0,0,0-1.519-3.275v.417l.238,7.085c.029,1.191-.685,1.519-2.322,1.519-1.013,0-1.311-.06-1.25-1.072l.3-4.883a17.324,17.324,0,0,1-5.389,4.049l-.208-.209c1.875-1.638,3.9-5.24,4.942-8.485a41.576,41.576,0,0,0-4.525.238l-.268-1.013c1.995.179,3.215.238,4.764.238H90.5v-2.8c-1.191.029-2.2.09-3.751.238l-.268-1.013c1.667.149,2.8.209,4.019.238v-2.68a37.229,37.229,0,0,0-4.227.238L86,212.582a43.4,43.4,0,0,0,4.5.238v-.715a9.355,9.355,0,0,0-.238-2.531l.208-.208c1.429.179,2.382.327,3.007.447a1.7,1.7,0,0,1-.3-.745,3.084,3.084,0,0,0-1.4-2.382h-.06a16.062,16.062,0,0,1-6.639,5.478l-.179-.208a17.867,17.867,0,0,0,4.347-7.89,5.747,5.747,0,0,0,.179-1.549l.238-.149c3.662,1.043,4.436,1.4,4.436,1.876,0,.446-.447.684-1.34.8-.238.387-.446.744-.684,1.1h3.186c1.548-2.084,1.786-2.323,2.025-2.323.268,0,.536.119,1.548.952.536.447.863.745,1.072.953.178-.6.357-1.161.506-1.7a5.561,5.561,0,0,0,.238-1.519l.238-.149c3.424.953,4.258,1.31,4.258,1.787,0,.417-.447.655-1.34.774-.268.417-.566.834-.834,1.221h5.091c1.578-2.2,1.876-2.5,2.114-2.5.327,0,.655.149,1.727,1.072,1.25,1.072,1.37,1.309,1.37,1.548,0,.328-.178.417-.684.417Zm-1.28,6.461h2.322v-.983a13.1,13.1,0,0,0-.089-1.727c-.745-.03-1.161-.566-1.31-1.668a3.111,3.111,0,0,0-1.191-2.084h-.506a14.185,14.185,0,0,1-5.537,4.377l-.179-.208a12.375,12.375,0,0,0,2.679-4.168H93.236c1.816.327,2.769.983,2.769,2.114a1.479,1.479,0,0,1-1.37,1.518.434.434,0,0,1,.06.208c0,.328-.208.506-1.1.8v1.489h.863c1.221-1.786,1.429-2,1.638-2s.417.12,1.281.893c.893.8,1.072.953,1.072,1.191V213c.655.059,1.31.089,1.965.119v-.953a5.987,5.987,0,0,0-.357-2.591l.208-.208c3.335.566,4.168.8,4.168,1.34,0,.387-.209.476-1.1.715Zm-2.918.6c-.863.03-1.727.089-2.53.179l-.149-.566H93.593v2.68h.715c1.132-1.668,1.31-1.846,1.548-1.846.208,0,.387.09,1.1.745.863.774,1.072.952,1.072,1.19,0,.358-.179.447-.684.447H93.593v2.8h.953c1.191-1.786,1.4-2.054,1.667-2.054s.357.089,1.191.774l-.238-.864c1.1.119,2.114.179,3.245.208Zm6.908,14.559H102.2v.774c0,.863-.8,1.4-2.114,1.4-1.012,0-1.161-.119-1.131-1.072l.179-5.24V221.9c0-1.846,0-2.352-.268-2.948l.208-.208c2.679.744,3.543,1.072,3.781,1.369h3.989c1.221-1.31,1.429-1.548,1.727-1.548.327,0,.625.119,1.786,1.072,1.1.893,1.31,1.28,1.31,1.489,0,.3-.149.506-.953.982v2.084l.149,4.347c.03,1.281-.863,1.608-2.59,1.608-.774,0-.952-.149-.952-1.042Zm0-4.466v-3.185h-4.436c-.09.149-.268.238-.684.417v2.769Zm-5.121,3.93h5.121v-3.394H102.2Zm1.131-10.3h2.322v-3.781h-2.322Z" transform="translate(-33.788 -80.538)" fill="#fff"/>
    <path id="パス_870" data-name="パス 870" d="M156.659,213.663c1.28-1.607,1.756-2.024,2.025-2.024.417,0,.834.238,2.054,1.25,1.786,1.459,1.995,1.905,1.995,2.292,0,.417-.3.745-1.756.834a47.56,47.56,0,0,1-5.806,3.126l-.208-.238a25.192,25.192,0,0,0,2.173-4.7h-5.15c-.06.356-.328.625-1.013.744v4.7l.3,7.056c.119,2.62-2.5,3.9-5.121,3.9-.864,0-.983-.06-1.072-.715-.178-1.459-.952-2.471-3.572-3.126v-.328h.893c.952,0,1.935-.03,2.8-.09,1.459-.119,1.876-.328,1.876-1.369V214.2h-4.793c-2.531,0-5.627.059-7.116.238l-.268-1.013c1.668.179,4.853.238,7.384.238h6.133a3.692,3.692,0,0,1-.744-1.28,7.454,7.454,0,0,0-4.109-4.2l.149-.238c3.037.03,5.21.625,6.49,1.548a29.516,29.516,0,0,0,3.156-4.316h-8.723c-2.531,0-5.627.06-7.116.238l-.268-1.013c1.667.179,4.853.238,7.384.238h8.425c1.281-1.608,1.757-2.025,2.025-2.025.417,0,.952.239,2.173,1.25,1.786,1.459,1.995,1.906,1.995,2.293,0,.417-.476.744-1.935.834a42.474,42.474,0,0,1-6.371,3.126,2.722,2.722,0,0,1,.685,1.757,1.971,1.971,0,0,1-.774,1.786Z" transform="translate(-53.685 -80.636)" fill="#fff"/>
    <path id="パス_871" data-name="パス 871" d="M193.219,205.735c3.543,1.37,4.108,1.727,4.108,2.262,0,.447-.506.625-1.459.685-.833,1.281-1.667,2.471-2.56,3.6a8.29,8.29,0,0,1,3.424,1.816,28.864,28.864,0,0,0,3.334-9.974,3.664,3.664,0,0,0,.06-.775,3.937,3.937,0,0,0-.06-.8l.238-.178c4.079.953,4.913,1.4,4.913,1.816s-.328.626-1.221.774a31.044,31.044,0,0,1-2.025,3.99h4.972c1.221-1.637,1.548-1.876,1.816-1.876.3,0,.6.149,1.905,1.191,1.518,1.22,1.727,1.518,1.727,1.875,0,.328-.3.625-1.37,1.221a115.66,115.66,0,0,1-.625,13.993,5.879,5.879,0,0,1-2.054,3.9,6.493,6.493,0,0,1-3.9,1.25c-.536,0-.655-.089-.8-.685-.358-1.37-.923-2.114-3.543-2.917l.03-.328c.715.03,1.34.059,1.935.059.8,0,1.518-.03,2.2-.089a2.246,2.246,0,0,0,2.382-2.084c.447-2.5.715-7.324.8-14.976h-5.806a21.506,21.506,0,0,1-4.5,5.061,3.547,3.547,0,0,1,.774,2.2,1.776,1.776,0,0,1-1.727,1.905,1.353,1.353,0,0,1-1.429-1.34c-.03-.447-.089-.834-.149-1.221-.655.328-1.37.6-2.054.893.952.179,1.161.387,1.161.655,0,.357-.178.506-.863.774v2.917l.179,7.741c.03,1.072-1.042,1.429-2.62,1.429-.715,0-.893-.119-.863-.953l.179-7.949a2.066,2.066,0,0,1-.744.268,17.854,17.854,0,0,1-4.556,6.878l-.238-.149a25.074,25.074,0,0,0,1.727-7.324c0-.149.03-.3.03-.447a3.263,3.263,0,0,0-.119-.923l.209-.178a12.4,12.4,0,0,1,3.692,1.1v-2.769c-1.042.358-2.084.685-3.156.982a3.368,3.368,0,0,1-.863.179.552.552,0,0,1-.506-.387c-.327-.863-.685-1.876-.982-2.888l.149-.238c.447,0,.8.03,1.161.03.387,0,.744-.03,1.161-.03.8-.029,1.518-.06,2.2-.09a44.409,44.409,0,0,0,3.781-8.217,5.259,5.259,0,0,0,.268-1.518Zm-4.227-3.335c3.692,1.131,4.138,1.578,4.138,1.965,0,.358-.358.566-1.25.625a39.681,39.681,0,0,1-2.918,3.543,3.028,3.028,0,0,1,1.548,2.56,1.8,1.8,0,0,1-1.727,1.875c-.833,0-1.4-.476-1.578-1.518a5.29,5.29,0,0,0-2.5-3.99l.179-.238a11,11,0,0,1,2.709.625,31.043,31.043,0,0,0,1.072-4.079,5.023,5.023,0,0,0,.089-.834c0-.119-.03-.267-.03-.387Zm1.429,13.13c1.34-.089,2.68-.208,4.019-.328a5.662,5.662,0,0,0-1.369-2.65c-.834,1.012-1.7,2.025-2.65,2.977m2.918,4.02c3.3.982,4.942,2.917,4.942,4.942a1.854,1.854,0,0,1-1.846,2.084c-.863,0-1.429-.476-1.489-1.548-.149-2.5-.625-4.079-1.816-5.27Zm5.716-5.3c3.573.715,5.627,2.858,5.627,5.031,0,1.816-.924,2.591-2.174,2.591s-1.816-.6-1.875-2.263c-.089-2.56-.536-4.079-1.757-5.12Z" transform="translate(-73.306 -80.538)" fill="#fff"/>
    <path id="パス_872" data-name="パス 872" d="M243.833,211.928H239.7v17.149c0,.982-.923,1.34-2.65,1.34-.774,0-.923-.06-.923-.864l.238-16.017v-8.664a6.582,6.582,0,0,0-.238-2.054l.209-.208a14.313,14.313,0,0,1,3.84,1.369h3.424c1.013-1.34,1.31-1.607,1.518-1.607.238,0,.685.3,1.548.982.953.774,1.28,1.1,1.28,1.429s-.3.566-.953.863v2.263l.179,4.258c.06,1.131-1.072,1.429-2.412,1.429-.8,0-.923-.149-.923-.864Zm-4.138-4.406h4.138v-3.007H240.29a1.108,1.108,0,0,1-.6.446Zm4.138.536H239.7v3.335h4.138Zm.506,7.8c-.893.03-1.786.09-2.739.179l-.3-.953a53.385,53.385,0,0,0,5.687.209h5.091c1.518-1.966,1.638-2.144,1.905-2.144.3,0,.446.09,1.4.983,1.013.952,1.161,1.042,1.161,1.31,0,.3-.149.387-.6.387H253.48c-.06.387-.3.6-.833.714v3.781h.476c1.221-1.846,1.518-2.262,1.816-2.262.268,0,.566.178,1.4.953a6.479,6.479,0,0,1,.983,1.042v-8.128H252.8v.358c0,.923-1.013,1.28-2.471,1.28-.715,0-.893-.208-.863-.922l.179-4.854v-2.977a5.6,5.6,0,0,0-.238-1.905l.208-.208a23.511,23.511,0,0,1,3.632,1.28h3.633c1.1-1.548,1.638-1.757,1.875-1.757.3,0,.655.179,1.846,1.132.983.8,1.22,1.1,1.22,1.429,0,.3-.268.566-.952.893v6.758l.268,15.125c.03,2.054-1.786,2.888-4.138,2.888-.506,0-.536-.06-.685-.774-.208-.982-.863-1.936-2.917-2.471v-.3c.536.03.953.03,1.31.03a11.225,11.225,0,0,0,1.816-.149c.536-.09.8-.3.8-1.25V220.77a.891.891,0,0,1-.477.089h-4.2l.238,7.622c.03,1.311-.834,1.548-2.412,1.548-.952,0-1.131-.119-1.131-.923l.119-8.247h-2.025a10.345,10.345,0,0,1-1.4,4.675,11.222,11.222,0,0,1-6.1,4.5l-.178-.268a10.578,10.578,0,0,0,3.722-4.258,11.08,11.08,0,0,0,.834-4.645c-1.311.03-2.56.089-3.93.209l-.3-.953c1.548.149,2.888.208,4.258.208Zm5.121,4.466v-4.5h-1.131a.925.925,0,0,1-.8.714v1.936c0,.655-.029,1.281-.059,1.846Zm3.335-12.8h4.525v-3.007h-3.93a1.107,1.107,0,0,1-.6.446Zm0,3.87h4.525v-3.335H252.8Z" transform="translate(-93.97 -80.479)" fill="#fff"/>
    <path id="パス_873" data-name="パス 873" d="M287.212,222.368c-.119.715-.924,1.072-1.966,1.072-.893,0-1.488-.059-1.488-.535,0-.238.149-.715.268-1.429l1.727-9.289.179-1.1c-.893.03-1.846.089-2.709.179l-.268-1.013c.982.09,2.054.149,3.067.179l.833-5.448a9.435,9.435,0,0,0,.119-1.4,2.227,2.227,0,0,0-.179-.983l.238-.179c3.721.655,4.406.923,4.406,1.429,0,.357-.387.566-1.221.745l-.982,5.9H290.9c.923-1.221,1.37-1.7,1.667-1.7.358,0,.864.358,1.846,1.131,1.072.864,1.37,1.25,1.37,1.489,0,.3-.179.536-1.28.953a38.814,38.814,0,0,1-2.114,9.646c-.119.327-.268.685-.417,1.013,1.668.983,2.739,2.293,2.739,3.483,0,1.1-.506,1.905-1.668,1.905-.715,0-1.25-.446-1.667-1.607a6.983,6.983,0,0,0-.863-1.578,16.407,16.407,0,0,1-7.086,4.763l-.179-.238a14.354,14.354,0,0,0,5.448-6.431,9.987,9.987,0,0,0-1.459-1.042Zm1.905-11.343L287.36,221.5a15.2,15.2,0,0,1,1.965.387c.238-.625.476-1.31.685-2.054a42.229,42.229,0,0,0,1.281-8.813Zm8.932,1.846a83.2,83.2,0,0,0,1.995-8.307,9.462,9.462,0,0,0,.149-1.34,4.914,4.914,0,0,0-.059-.655l.267-.149c3.752.923,4.883,1.221,4.883,1.786,0,.417-.3.6-1.221.744a52.085,52.085,0,0,1-4.257,7.89c2.351-.03,4.7-.149,7.056-.268a7.107,7.107,0,0,0-2.65-3.9l.12-.238c5.031,1.25,6.669,3.9,6.7,5.776.029,1.756-.685,2.59-2.025,2.59-.953,0-1.459-.625-1.757-2.382l-.09-.506c-3.811,1.25-6.788,2.054-9.825,2.769a3.268,3.268,0,0,1-.774.119c-.3,0-.447-.179-.6-.506a23.53,23.53,0,0,1-1.072-3.274l.209-.209c.833.06,1.786.06,2.322.06Zm7.532,15.3h-5.686v.833c0,.952-.982,1.489-2.56,1.489-.893,0-1.072-.119-1.042-1.013l.238-6.43v-3.007a6.207,6.207,0,0,0-.3-2.471l.208-.208a20.634,20.634,0,0,1,3.93,1.429h4.615c1.131-1.489,1.28-1.727,1.607-1.727.357,0,.744.149,1.995,1.072,1.28.953,1.667,1.4,1.667,1.786,0,.357-.208.536-1.1.893v2.263l.238,5.27c.06,1.458-.654,1.935-2.828,1.935-.834,0-.983-.119-.983-.863Zm-5.686-.536h5.686v-8.307h-5c-.059.179-.268.3-.685.446Z" transform="translate(-112.608 -80.558)" fill="#fff"/>
    <path id="パス_874" data-name="パス 874" d="M124.855,69.472a.228.228,0,0,1,.238-.211.243.243,0,0,1,.237.264c0,.079-.026.474-.053.712-.237,1.951-.317,3.507-.369,4.51a.478.478,0,0,1-.528.5H111.932c.923-3.138,3.007-5.3,4.985-7.359,2.242-2.32,4.351-4.51,4.351-7.833,0-2.663-1.266-4.088-3.217-4.088-1.688,0-3.139,1.134-3.139,2.479a.71.71,0,0,0,.792.791,1.312,1.312,0,0,1,1.371,1.477,1.687,1.687,0,0,1-1.846,1.662,1.981,1.981,0,0,1-1.978-2.19c0-2.611,2.4-4.984,5.8-4.984,3.587,0,5.8,1.819,5.8,5.248,0,3.665-3.191,5.855-6.25,7.938-1.873,1.266-3.719,2.505-4.695,4.035h9.547c.712,0,.792-.053.923-.633Z" transform="translate(-44.546 -21.97)" fill="#fff"/>
    <path id="パス_875" data-name="パス 875" d="M150.522,64.829c0,7.938-3.508,10.682-6.462,10.682-3.639,0-6.462-3.165-6.462-9.522,0-8.044,3.507-10.787,6.462-10.787,3.64,0,6.462,3.165,6.462,9.626m-3.587.686c0-7.094-.739-9.785-2.875-9.785s-2.875,2.954-2.875,9.573c0,6.99.739,9.679,2.875,9.679s2.875-2.954,2.875-9.468" transform="translate(-54.761 -21.969)" fill="#fff"/>
    <path id="パス_876" data-name="パス 876" d="M174.787,69.472a.228.228,0,0,1,.238-.211.243.243,0,0,1,.237.264c0,.079-.027.474-.053.712-.237,1.951-.317,3.507-.369,4.51a.478.478,0,0,1-.528.5H161.864c.923-3.138,3.007-5.3,4.985-7.359,2.242-2.32,4.351-4.51,4.351-7.833,0-2.663-1.266-4.088-3.217-4.088-1.688,0-3.139,1.134-3.139,2.479a.71.71,0,0,0,.792.791,1.312,1.312,0,0,1,1.371,1.477,1.687,1.687,0,0,1-1.846,1.662,1.981,1.981,0,0,1-1.978-2.19c0-2.611,2.4-4.984,5.8-4.984,3.587,0,5.8,1.819,5.8,5.248,0,3.665-3.191,5.855-6.25,7.938-1.873,1.266-3.719,2.505-4.695,4.035h9.547c.712,0,.792-.053.923-.633Z" transform="translate(-64.417 -21.97)" fill="#fff"/>
    <path id="パス_877" data-name="パス 877" d="M199.753,69.472a.228.228,0,0,1,.238-.211.243.243,0,0,1,.237.264c0,.079-.026.474-.053.712-.237,1.951-.317,3.507-.369,4.51a.478.478,0,0,1-.528.5H186.83c.923-3.138,3.007-5.3,4.985-7.359,2.242-2.32,4.351-4.51,4.351-7.833,0-2.663-1.266-4.088-3.217-4.088-1.688,0-3.139,1.134-3.139,2.479a.71.71,0,0,0,.792.791,1.312,1.312,0,0,1,1.371,1.477,1.687,1.687,0,0,1-1.846,1.662,1.981,1.981,0,0,1-1.978-2.19c0-2.611,2.4-4.984,5.8-4.984,3.587,0,5.8,1.819,5.8,5.248,0,3.665-3.191,5.855-6.25,7.938-1.873,1.266-3.719,2.505-4.695,4.035h9.547c.712,0,.792-.053.923-.633Z" transform="translate(-74.353 -21.97)" fill="#fff"/>
    <path id="パス_878" data-name="パス 878" d="M227.857,55.508c-.026.343-.211.527-.712.659v4.852h3.138c1.556-2.136,1.82-2.347,2.031-2.347.237,0,.527.131,1.5.976,1.081.949,1.266,1.16,1.266,1.45,0,.316-.158.4-.633.4h-7.306v5.749h4.589c1.556-2.162,1.846-2.426,2.084-2.426s.686.237,1.793,1.16S236.9,67.164,236.9,67.4s-.132.317-.554.317h-9.178L227.3,74.6c.026,1-.87,1.45-2.426,1.45-.975,0-1.187-.132-1.16-.976l.132-7.358H218.1a55.471,55.471,0,0,0-5.934.211l-.238-.9c1.319.132,2.875.185,5.064.211V61.968a4.454,4.454,0,0,0-.317-2.031l.185-.184a14.1,14.1,0,0,1,3.771,1.265h3.244V55.508h-3.983a20.727,20.727,0,0,1-7.463,6.936l-.185-.184a25.322,25.322,0,0,0,5.2-9.2,5.088,5.088,0,0,0,.29-1.609v-.185l.264-.132c3.586.976,4.378,1.372,4.378,1.82s-.422.66-1.371.738c-.264.475-.528.924-.818,1.346h10.26c1.582-2.242,1.846-2.453,2.084-2.453.29,0,.738.29,1.688,1.107,1.029.9,1.214,1.187,1.214,1.425,0,.316-.159.4-.607.4ZM220.1,67.243h3.772V61.494h-3.139a1.165,1.165,0,0,1-.633.4Z" transform="translate(-84.341 -20.348)" fill="#fff"/>
    <path id="パス_879" data-name="パス 879" d="M43.358,110.1v26.192c0,2.367.276,2.445,4.536,2.6a.395.395,0,0,1,0,.789l-2.209-.079c-1.775-.079-3.314-.119-4.891-.119-1.538,0-2.958.04-4.733.119l-2.249.079a.395.395,0,0,1,0-.789c4.26-.158,4.576-.236,4.576-2.6V116.761c0-.513-.158-.671-.632-.671s-1.38.355-5.877,2.288a1.19,1.19,0,0,1-.434.119.373.373,0,0,1-.394-.394.409.409,0,0,1,.276-.394c5.365-2.722,7.337-4.537,9.783-7.613Z" transform="translate(-12.357 -43.815)" fill="#fff"/>
    <path id="パス_880" data-name="パス 880" d="M74.154,110.1v26.192c0,2.367.276,2.445,4.536,2.6a.395.395,0,0,1,0,.789l-2.209-.079c-1.775-.079-3.314-.119-4.891-.119-1.538,0-2.958.04-4.733.119l-2.249.079a.395.395,0,0,1,0-.789c4.26-.158,4.576-.236,4.576-2.6V116.761c0-.513-.158-.671-.632-.671s-1.38.355-5.877,2.288a1.19,1.19,0,0,1-.434.119.373.373,0,0,1-.394-.394.409.409,0,0,1,.276-.394c5.365-2.722,7.337-4.537,9.783-7.613Z" transform="translate(-24.613 -43.815)" fill="#fff"/>
    <path id="パス_881" data-name="パス 881" d="M109.337,137.111h-7.829a11.32,11.32,0,0,1-2.584,6.156,13.644,13.644,0,0,1-5.093,3.953l-.2-.152a15.057,15.057,0,0,0,3.445-4.561c.937-1.824,1.672-4.433,1.672-8.943v-6.941a5.182,5.182,0,0,0-.329-2.509l.177-.177c2.61.582,3.7.911,3.876,1.266h6.486c1.064-1.215,1.368-1.444,1.647-1.444.3,0,.482.076,1.571.988,1.241,1.064,1.419,1.368,1.419,1.6,0,.3-.2.532-1.09.911v5.954l.253,10.717c.051,2.559-2.508,3.37-4.155,3.37-.329,0-.355-.076-.481-.633-.228-.989-.937-1.825-3.091-2.457v-.279h.937a13.714,13.714,0,0,0,2.533-.152c.659-.126.836-.253.836-1.039Zm0-.456v-5.321h-7.55v1.19a32.008,32.008,0,0,1-.228,4.131Zm-7.55-5.777h7.55v-5.219h-7.018a1.767,1.767,0,0,1-.532.329Z" transform="translate(-37.262 -49.253)" fill="#fff"/>
    <path id="パス_882" data-name="パス 882" d="M154.976,130.779a.34.34,0,0,1,.355-.315.363.363,0,0,1,.355.394c0,.118-.04.71-.079,1.064-.355,2.919-.473,5.247-.552,6.745a.714.714,0,0,1-.789.75H135.648c1.38-4.694,4.5-7.929,7.455-11.006,3.353-3.471,6.509-6.745,6.509-11.715,0-3.984-1.893-6.114-4.812-6.114-2.525,0-4.694,1.7-4.694,3.708a1.061,1.061,0,0,0,1.183,1.184,1.962,1.962,0,0,1,2.051,2.209,2.523,2.523,0,0,1-2.761,2.485c-1.972,0-2.958-1.538-2.958-3.274,0-3.905,3.589-7.455,8.678-7.455,5.365,0,8.678,2.721,8.678,7.849,0,5.483-4.773,8.757-9.348,11.873-2.8,1.893-5.562,3.748-7.021,6.035h14.279c1.066,0,1.184-.079,1.381-.946Z" transform="translate(-53.984 -43.554)" fill="#fff"/>
    <path id="パス_883" data-name="パス 883" d="M192.325,130.779a.34.34,0,0,1,.355-.315.363.363,0,0,1,.355.394c0,.118-.04.71-.08,1.064-.355,2.919-.473,5.247-.552,6.745a.714.714,0,0,1-.789.75H173c1.38-4.694,4.5-7.929,7.455-11.006,3.353-3.471,6.509-6.745,6.509-11.715,0-3.984-1.893-6.114-4.812-6.114-2.525,0-4.694,1.7-4.694,3.708a1.061,1.061,0,0,0,1.183,1.184,1.962,1.962,0,0,1,2.051,2.209,2.523,2.523,0,0,1-2.761,2.485c-1.972,0-2.958-1.538-2.958-3.274,0-3.905,3.589-7.455,8.678-7.455,5.365,0,8.678,2.721,8.678,7.849,0,5.483-4.773,8.757-9.348,11.873-2.8,1.893-5.562,3.748-7.021,6.035h14.279c1.065,0,1.184-.079,1.381-.946Z" transform="translate(-68.848 -43.554)" fill="#fff"/>
    <path id="パス_884" data-name="パス 884" d="M229.109,143.7h-9.247v2.457c0,.811-.887,1.267-2.356,1.267-.811,0-.963-.1-.937-.861l.253-13.048v-6.385a5.007,5.007,0,0,0-.3-2.1l.177-.178c2.382.583,3.42.962,3.75,1.267h8.284c.963-1.267,1.368-1.6,1.6-1.6.279,0,.633.177,1.672,1.013,1.114.887,1.419,1.241,1.419,1.571q0,.456-1.064.913v5.472l.253,11.857c.025,1.14-.659,1.6-2.508,1.6-.861,0-.988-.1-.988-.735Zm-9.247-9.45h9.247v-7.677h-8.589c-.1.178-.3.279-.659.406Zm9.247.456h-9.248v8.539h9.248Z" transform="translate(-86.168 -49.554)" fill="#fff"/>
    <path id="パス_885" data-name="パス 885" d="M265.395,123.509c-4.383,3.066-6.258,6.992-6.258,11.578s1.875,8.513,6.258,11.579l-.583.76c-4.586-3.243-6.714-7.2-6.714-12.339s2.128-9.095,6.714-12.338Z" transform="translate(-102.716 -48.851)" fill="#fff"/>
    <path id="パス_886" data-name="パス 886" d="M291.508,128.438c3.193,1.926,3.6,2.255,3.6,2.787,0,.3-.2.481-1.064.481h-.329a35.445,35.445,0,0,1-5.27,3.6,17.658,17.658,0,0,0,1.824,3.344,17.211,17.211,0,0,0,6.866,5.5l-.076.329a5.405,5.405,0,0,0-2.812,2.28c-.2.329-.355.431-.557.431s-.38-.051-.811-.406a16.743,16.743,0,0,1-4.991-7.018c-1.47-3.622-1.571-6.409-1.7-14.162a1.617,1.617,0,0,1-.177.051c-.025,1.925-.076,4.18-.178,5.9a19.125,19.125,0,0,1-2.964,9.83,14.729,14.729,0,0,1-9.222,6.005l-.1-.228a14.838,14.838,0,0,0,6.841-6.663,24.362,24.362,0,0,0,2.483-11.351V125.88a4.377,4.377,0,0,0-.3-2.028l.178-.177c3.851.507,4.434.684,4.434,1.14,0,.279-.076.456-.685.684a34.217,34.217,0,0,0,1.546,8.74,21.879,21.879,0,0,0,2.584-3.927,6.391,6.391,0,0,0,.684-1.773Zm-12.972,1.394a7.508,7.508,0,0,1,1.014,4.205c0,2-1.165,3.75-2.914,3.75a1.476,1.476,0,0,1-1.571-1.571,1.965,1.965,0,0,1,.811-1.621c1.621-1.165,2.457-2.153,2.457-4.155,0-.178-.025-.355-.025-.532Z" transform="translate(-108.863 -49.219)" fill="#fff"/>
    <path id="パス_887" data-name="パス 887" d="M316.258,122.749c4.586,3.243,6.714,7.195,6.714,12.338s-2.128,9.1-6.714,12.339l-.583-.76c4.383-3.066,6.258-6.993,6.258-11.579s-1.875-8.513-6.258-11.578Z" transform="translate(-125.63 -48.851)" fill="#fff"/>
    <rect id="長方形_271" data-name="長方形 271" width="183.196" height="2.686" transform="translate(18.402 108.408)" fill="#fff"/>
    <path id="パス_888" data-name="パス 888" d="M178.947,278.27l-5.59-9.63h11.268Z" transform="translate(-68.992 -106.912)" fill="#fff"/>
    <path id="パス_889" data-name="パス 889" d="M178.947,301.556l-5.59-9.63h11.268Z" transform="translate(-68.992 -116.178)" fill="#fff"/>
    <path id="パス_890" data-name="パス 890" d="M178.947,324.844l-5.59-9.63h11.268Z" transform="translate(-68.992 -125.447)" fill="#fff"/>
  </g>
</svg>
