<svg xmlns="http://www.w3.org/2000/svg" width="99.285" height="23.526" viewBox="0 0 99.285 23.526">
  <path id="シェイプ_4" data-name="シェイプ 4" d="M96.665,661.463A4.916,4.916,0,0,1,99.151,657a5.445,5.445,0,0,0-4.214-2.329,6.024,6.024,0,0,0-2.534.471,12.618,12.618,0,0,1-1.867.611,5.6,5.6,0,0,1-1.682-.518,5.7,5.7,0,0,0-2.12-.521,5.238,5.238,0,0,0-2.744.812,5.813,5.813,0,0,0-2.027,2.152A8.019,8.019,0,0,0,81,661.726a13.181,13.181,0,0,0,.713,4.23,14.268,14.268,0,0,0,1.7,3.551,11.452,11.452,0,0,0,1.612,2.024,2.709,2.709,0,0,0,2.028.941,5.115,5.115,0,0,0,1.749-.5,5.016,5.016,0,0,1,2.027-.445,4.887,4.887,0,0,1,1.959.445,5.038,5.038,0,0,0,1.842.472,3.052,3.052,0,0,0,1.981-.915,5.468,5.468,0,0,0,.7-.776q.38-.494.842-1.177.321-.494.633-1.059a10.724,10.724,0,0,0,.565-1.2c.077-.172.145-.349.207-.528s.123-.365.185-.552a5.223,5.223,0,0,1-3.086-4.78Zm16.7,4.193h-.114l-4.676-10.649H104.9v17.181h3.2V661.06h.147l3.91,8.836h2.244l3.9-8.836h.149v11.127h3.239V655.011h-3.644ZM93.76,652.763a5.168,5.168,0,0,0,1.221-3.293v-.236L94.959,649a4.518,4.518,0,0,0-1.809.542,4.986,4.986,0,0,0-1.577,1.245,4.856,4.856,0,0,0-1.244,3.176v.222l.023.229a3.813,3.813,0,0,0,3.408-1.651Zm65.345,2.248h3.6v17.181h-3.6Zm14.466,2.732a3.2,3.2,0,0,1,3.262,3.4h3.45v-.365c0-3.323-2.543-6.092-6.737-6.092-4.493,0-7.172,2.945-7.172,7.968v1.938c0,5.021,2.655,7.929,7.16,7.929,4.3,0,6.746-2.807,6.746-5.93v-.377h-3.45a3.05,3.05,0,0,1-3.237,3.247c-2.185,0-3.574-1.548-3.574-4.859v-1.937c0-3.3,1.405-4.922,3.552-4.922Zm-38.119,8.118a3.351,3.351,0,1,1-6.689,0V655.008H125.19v11.354c0,3.665,2.606,6.156,6.923,6.156s6.924-2.491,6.924-6.156V655.008h-3.586Zm15.49-3.676-2.568-.58c-1.514-.316-2.307-.982-2.307-1.978,0-1.322,1.079-2.152,2.817-2.152,1.96,0,2.94,1.12,3.026,2.329h3.35c-.038-3.034-2.581-5.145-6.365-5.145-3.586,0-6.414,1.875-6.414,5.249,0,2.92,1.984,4.278,4.367,4.8l2.544.59c1.715.391,2.581.957,2.581,2.127,0,1.334-1.067,2.241-3.064,2.241-2.146,0-3.276-1.133-3.375-2.4h-3.451c.05,2.431,1.665,5.259,6.652,5.259,4.194,0,6.787-2.076,6.787-5.45,0-3.128-2.1-4.348-4.579-4.889Z" transform="translate(-80.997 -649)" fill-rule="evenodd"/>
</svg>
