<svg xmlns="http://www.w3.org/2000/svg" width="219.736" height="219.736" viewBox="0 0 219.736 219.736">
  <g id="ankr" transform="translate(-0.132 -0.462)" opacity="0.998">
    <path id="パス_12" data-name="パス 12" d="M219.736,109.868A109.868,109.868,0,1,1,109.868,0,109.867,109.867,0,0,1,219.736,109.868" transform="translate(0.132 0.462)"/>
    <path id="パス_13" data-name="パス 13" d="M23.727,59.967v2.468h5.767c1.338-1.665,1.814-2.168,2.051-2.168s.564.146,1.607.979c1.16.923,1.336,1.13,1.336,1.367,0,.269-.146.356-.623.356H23.727v2.676h7.014C32.258,63.744,32.734,63.3,33,63.3s.535.061,1.841,1.011S36.33,65.5,36.33,65.765c0,.327-.146.415-.623.415H16.5c-3.064,0-5.738.061-7.285.239l-.266-1.011c1.724.178,4.4.237,7.552.237h3.655V62.97H18.375c-3.062,0-5.738.061-7.285.239L10.824,62.2c1.724.178,4.4.237,7.552.237h1.782V59.967h-.83c-3.062,0-5.74.061-7.285.239L11.776,59.2c1.724.178,4.4.237,7.552.237h.83V56.846H16.622c-3.064,0-5.857.061-7.405.237l-.266-1.011c1.724.181,4.519.239,7.671.239h3.535V53.724h-.83c-3.062,0-5.74.061-7.285.239l-.266-1.011c1.724.178,4.4.237,7.552.237h.83v-.742A5.463,5.463,0,0,0,19.8,50.04l.21-.208c3.894.5,4.905.772,4.905,1.336,0,.327-.208.537-1.189.8v1.218h3.567c1.218-1.484,1.487-1.633,1.753-1.633.3,0,.745.266,1.814,1.069,1.16.891,1.577,1.338,1.577,1.636,0,.266-.21.444-1.13.92v.774l.029.356h.415c1.338-1.934,1.724-2.319,1.9-2.319.237,0,.535.12,1.426.891,1.248,1.072,1.367,1.338,1.367,1.607s-.149.356-.625.356H31.367l.12,2.08c.088,1.458-.745,2.022-2.556,2.022-1.011,0-1.221-.088-1.221-.981Zm4.341,16.2H16.532v.386c0,1.069-.952,1.4-2.8,1.4-.862,0-.95-.059-.92-.92l.237-5.65v-1.1c0-1.843,0-2.349-.266-2.942l.208-.21c2.854.745,3.865,1.072,4.163,1.367H27.709c1.189-1.338,1.665-1.694,1.934-1.694s.593.12,1.814,1.1c1.1.891,1.338,1.218,1.338,1.546s-.269.564-1.072,1.069v.923l.237,4.815c.061,1.072-1.1,1.458-2.705,1.458-1.011,0-1.187-.12-1.187-.891ZM16.532,71.979H28.068V69.035H17.216c-.088.149-.269.239-.684.418Zm11.536.535H16.532v3.12H28.068Zm-4.341-16.2h3.982V53.724H23.727Zm0,3.12h3.982V56.846H23.727Z" transform="translate(13.035 72.296)" fill="#fff"/>
    <path id="パス_14" data-name="パス 14" d="M40.47,54.155c1.755.327,2.647,1.011,2.647,2.171a1.584,1.584,0,0,1-.178.774c2.022.386,2.647.623,2.647,1.069,0,.386-.21.476-1.1.713v1.726c1.458-1.875,1.575-2.053,1.843-2.053s.505.178,1.306,1.011c.715.742.923.923.923,1.13,0,.356-.178.447-.684.447H44.484v3.775h.237c1.428-1.931,1.665-2.229,1.934-2.229.3,0,.505.149,1.487,1.1.83.833.979.981.979,1.338,0,.239-.178.327-.681.327H39.012a48.054,48.054,0,0,0-5.589.239c1.011.83,1.1.979,1.1,1.218,0,.356-.178.447-.684.447h-4.37v1.069c3,.327,4.636,1.6,4.636,3.447a1.587,1.587,0,0,1-1.724,1.755c-.742,0-1.248-.417-1.4-1.428a5.87,5.87,0,0,0-1.516-3.269v.415l.237,7.078c.029,1.187-.684,1.514-2.319,1.514-1.011,0-1.309-.059-1.248-1.069l.3-4.876a17.244,17.244,0,0,1-5.381,4.043l-.208-.208c1.873-1.636,3.894-5.232,4.934-8.472a41.555,41.555,0,0,0-4.519.237L21,66.582c1.992.178,3.211.237,4.759.237h.623V64.026c-1.189.029-2.2.088-3.745.237l-.269-1.011c1.668.149,2.8.21,4.014.239V60.815a37.226,37.226,0,0,0-4.221.237l-.266-1.011a43.435,43.435,0,0,0,4.487.239v-.715a9.369,9.369,0,0,0-.237-2.527l.208-.208c1.428.178,2.378.327,3,.447a1.716,1.716,0,0,1-.3-.745,3.074,3.074,0,0,0-1.4-2.378H27.6a16.028,16.028,0,0,1-6.629,5.471l-.178-.21A17.834,17.834,0,0,0,25.13,51.54a5.759,5.759,0,0,0,.178-1.548l.239-.149c3.655,1.043,4.429,1.4,4.429,1.875,0,.447-.447.684-1.338.8-.237.386-.447.742-.684,1.1h3.181c1.545-2.08,1.782-2.319,2.022-2.319.266,0,.535.12,1.545.952.535.444.862.742,1.069.95.178-.593.356-1.157.505-1.694a5.519,5.519,0,0,0,.239-1.516l.237-.149C40.172,50.8,41,51.152,41,51.628c0,.417-.444.654-1.338.774-.269.415-.564.833-.833,1.218H43.92c1.575-2.2,1.873-2.5,2.109-2.5.327,0,.654.149,1.724,1.069C49,53.264,49.12,53.5,49.12,53.74c0,.327-.178.415-.681.415Zm-1.279,6.453H41.51v-.981a13.311,13.311,0,0,0-.088-1.726c-.745-.029-1.16-.564-1.309-1.663a3.1,3.1,0,0,0-1.189-2.083h-.505a14.163,14.163,0,0,1-5.53,4.37l-.178-.208a12.39,12.39,0,0,0,2.676-4.163H29.115c1.812.327,2.764.981,2.764,2.112a1.477,1.477,0,0,1-1.367,1.516.425.425,0,0,1,.059.208c0,.327-.208.505-1.1.8V60.28h.862c1.218-1.785,1.428-1.992,1.633-1.992s.417.117,1.279.891c.894.8,1.069.952,1.069,1.189v.09c.654.059,1.309.088,1.963.117v-.95a5.968,5.968,0,0,0-.356-2.588l.208-.208c3.33.566,4.163.8,4.163,1.338,0,.386-.208.476-1.1.713Zm-2.913.593c-.862.029-1.724.088-2.527.178l-.149-.564H29.471v2.676h.713c1.13-1.665,1.309-1.843,1.545-1.843.208,0,.388.088,1.1.742.862.772,1.069.952,1.069,1.189,0,.356-.178.447-.684.447H29.471v2.793h.95c1.189-1.782,1.4-2.051,1.665-2.051s.356.09,1.189.774l-.237-.862c1.1.117,2.109.178,3.24.208Zm6.9,14.537H38.063v.774c0,.862-.8,1.4-2.112,1.4-1.011,0-1.16-.117-1.13-1.069L35,71.607V69.346C35,67.5,35,67,34.732,66.4l.208-.208c2.676.742,3.538,1.069,3.777,1.367H42.7c1.221-1.309,1.428-1.548,1.726-1.548.325,0,.623.12,1.782,1.072,1.1.891,1.309,1.277,1.309,1.487,0,.3-.149.505-.952.981v2.08l.149,4.339c.029,1.279-.862,1.607-2.586,1.607-.774,0-.952-.149-.952-1.04Zm0-4.458V68.1H38.746c-.09.149-.269.239-.684.415v2.766ZM38.063,75.2h5.115V71.814H38.063Zm1.128-10.286H41.51V61.142H39.191Z" transform="translate(30.1 72.312)" fill="#fff"/>
    <path id="パス_15" data-name="パス 15" d="M54.834,60.935c1.279-1.607,1.755-2.022,2.022-2.022.417,0,.833.239,2.051,1.25,1.785,1.455,1.992,1.9,1.992,2.288,0,.417-.3.742-1.753.833a47.374,47.374,0,0,1-5.8,3.12l-.208-.237a25.063,25.063,0,0,0,2.171-4.7H50.166c-.059.356-.325.625-1.011.742v4.7l.3,7.046c.12,2.617-2.5,3.894-5.113,3.894-.862,0-.981-.059-1.069-.713-.181-1.455-.952-2.468-3.569-3.123v-.325h.891c.952,0,1.934-.032,2.8-.09,1.458-.117,1.873-.327,1.873-1.367V61.469H40.475c-2.527,0-5.62.061-7.107.237L33.1,60.7c1.665.181,4.846.239,7.373.239H46.6a3.746,3.746,0,0,1-.742-1.277,7.447,7.447,0,0,0-4.1-4.195l.146-.237c3.032.029,5.2.625,6.482,1.545a29.318,29.318,0,0,0,3.15-4.309H42.824c-2.527,0-5.62.059-7.107.237l-.266-1.011c1.665.178,4.846.239,7.373.239h8.413c1.277-1.606,1.753-2.024,2.022-2.024.415,0,.952.239,2.171,1.25,1.782,1.455,1.992,1.9,1.992,2.29,0,.415-.476.742-1.934.83A42.169,42.169,0,0,1,49.126,57.4a2.716,2.716,0,0,1,.684,1.755,1.961,1.961,0,0,1-.774,1.782Z" transform="translate(47.849 72.4)" fill="#fff"/>
    <path id="パス_16" data-name="パス 16" d="M54.252,53.2c3.54,1.367,4.1,1.724,4.1,2.258,0,.447-.505.625-1.458.684-.833,1.279-1.665,2.468-2.556,3.6a8.267,8.267,0,0,1,3.418,1.812A28.767,28.767,0,0,0,61.09,51.6a3.715,3.715,0,0,0,.059-.774,3.964,3.964,0,0,0-.059-.8l.237-.178c4.075.95,4.907,1.4,4.907,1.814s-.327.623-1.221.772a30.9,30.9,0,0,1-2.022,3.985h4.966c1.218-1.636,1.545-1.873,1.814-1.873.3,0,.593.146,1.9,1.189C73.191,56.949,73.4,57.247,73.4,57.6c0,.327-.3.625-1.367,1.218a114.964,114.964,0,0,1-.625,13.973,5.849,5.849,0,0,1-2.051,3.894,6.487,6.487,0,0,1-3.894,1.248c-.535,0-.654-.088-.8-.681-.356-1.367-.92-2.112-3.538-2.915l.029-.325c.713.029,1.338.056,1.934.056.8,0,1.516-.027,2.2-.088a2.243,2.243,0,0,0,2.378-2.08c.447-2.5.713-7.315.8-14.954h-5.8A21.475,21.475,0,0,1,58.178,62a3.541,3.541,0,0,1,.772,2.2,1.772,1.772,0,0,1-1.724,1.9A1.349,1.349,0,0,1,55.8,64.767c-.032-.444-.09-.83-.149-1.218-.654.327-1.37.6-2.051.894.95.176,1.157.386,1.157.652,0,.359-.176.505-.862.774V68.78l.181,7.73c.027,1.069-1.043,1.426-2.617,1.426-.713,0-.891-.117-.862-.95l.178-7.937a2.046,2.046,0,0,1-.745.266,17.811,17.811,0,0,1-4.549,6.868l-.237-.149a25.04,25.04,0,0,0,1.724-7.312c0-.149.029-.3.029-.447a3.308,3.308,0,0,0-.117-.92l.208-.178a12.478,12.478,0,0,1,3.687,1.1V65.511c-1.04.356-2.083.684-3.152.979a3.354,3.354,0,0,1-.862.181.551.551,0,0,1-.505-.388c-.327-.862-.684-1.873-.981-2.883l.149-.237c.447,0,.8.029,1.16.029.386,0,.742-.029,1.16-.029.8-.029,1.516-.059,2.2-.088a44.516,44.516,0,0,0,3.775-8.206,5.236,5.236,0,0,0,.269-1.516Zm-4.221-3.33c3.687,1.13,4.133,1.575,4.133,1.963,0,.356-.356.564-1.25.623A38.7,38.7,0,0,1,50,56a3.024,3.024,0,0,1,1.545,2.556,1.8,1.8,0,0,1-1.724,1.875c-.833,0-1.4-.476-1.575-1.519a5.286,5.286,0,0,0-2.5-3.982l.178-.239a11.092,11.092,0,0,1,2.705.625A30.921,30.921,0,0,0,49.7,51.241a4.816,4.816,0,0,0,.09-.833c0-.12-.029-.266-.029-.386Zm1.428,13.111c1.338-.09,2.673-.21,4.014-.327A5.656,5.656,0,0,0,54.1,60.01c-.833,1.011-1.694,2.022-2.644,2.974M54.371,67c3.3.981,4.937,2.915,4.937,4.937a1.855,1.855,0,0,1-1.846,2.083c-.862,0-1.426-.476-1.484-1.548-.149-2.5-.625-4.072-1.814-5.261ZM60.08,61.7c3.567.713,5.618,2.854,5.618,5.025,0,1.814-.92,2.586-2.168,2.586s-1.816-.593-1.873-2.258c-.09-2.556-.537-4.072-1.755-5.113Z" transform="translate(65.354 72.313)" fill="#fff"/>
    <path id="パス_17" data-name="パス 17" d="M65.734,59.5H61.6V76.622c0,.981-.92,1.338-2.647,1.338-.772,0-.92-.059-.92-.862L58.27,61.1v-8.65a6.6,6.6,0,0,0-.237-2.053l.208-.208a14.376,14.376,0,0,1,3.836,1.367h3.418c1.011-1.336,1.309-1.6,1.516-1.6.239,0,.686.3,1.548.981.95.774,1.277,1.1,1.277,1.426s-.3.566-.952.862v2.261l.181,4.251c.059,1.13-1.072,1.428-2.41,1.428-.8,0-.92-.149-.92-.862ZM61.6,55.1h4.133v-3H62.2a1.126,1.126,0,0,1-.6.444Zm4.133.535H61.6v3.33h4.131Zm.505,7.791c-.891.029-1.785.09-2.734.178l-.3-.952a53.547,53.547,0,0,0,5.677.208h5.086c1.514-1.961,1.633-2.139,1.9-2.139.3,0,.447.088,1.4.981,1.011.95,1.16,1.04,1.16,1.306,0,.3-.149.388-.6.388H75.365c-.059.386-.3.593-.833.713v3.777h.476c1.218-1.843,1.516-2.261,1.814-2.261.266,0,.564.178,1.4.95a6.338,6.338,0,0,1,.979,1.043V59.5H74.682v.356c0,.923-1.011,1.279-2.468,1.279-.713,0-.891-.208-.862-.92l.178-4.846V52.393a5.607,5.607,0,0,0-.237-1.9l.208-.208a23.648,23.648,0,0,1,3.626,1.277h3.628c1.1-1.545,1.636-1.753,1.873-1.753.3,0,.654.178,1.843,1.13.981.8,1.218,1.1,1.218,1.426,0,.3-.266.566-.95.891V60L83,75.106c.029,2.051-1.782,2.883-4.131,2.883-.505,0-.537-.059-.684-.772-.21-.982-.864-1.934-2.913-2.468v-.3c.535.032.95.032,1.306.032a11.354,11.354,0,0,0,1.814-.149c.535-.09.8-.3.8-1.25V68.328a.866.866,0,0,1-.474.088H74.533l.237,7.61c.032,1.311-.83,1.548-2.407,1.548-.95,0-1.13-.12-1.13-.923l.12-8.235H69.33a10.326,10.326,0,0,1-1.4,4.668,11.207,11.207,0,0,1-6.094,4.49l-.181-.269a10.561,10.561,0,0,0,3.718-4.251,11.089,11.089,0,0,0,.833-4.639c-1.309.029-2.559.09-3.926.21l-.3-.952c1.543.149,2.883.21,4.251.21Zm5.113,4.461v-4.49h-1.13a.923.923,0,0,1-.8.713v1.934c0,.652-.032,1.277-.061,1.843ZM74.682,55.1H79.2v-3H75.277a1.126,1.126,0,0,1-.6.444Zm0,3.865H79.2v-3.33H74.682Z" transform="translate(83.788 72.26)" fill="#fff"/>
    <path id="パス_18" data-name="パス 18" d="M73.819,69.774c-.12.713-.923,1.069-1.963,1.069-.891,0-1.487-.059-1.487-.535,0-.237.149-.713.269-1.428l1.724-9.273.178-1.1c-.891.029-1.843.09-2.705.178l-.269-1.011c.982.09,2.053.149,3.064.178l.833-5.44a9.533,9.533,0,0,0,.117-1.4,2.21,2.21,0,0,0-.178-.981l.239-.178c3.716.654,4.4.92,4.4,1.426,0,.356-.388.564-1.221.745l-.979,5.884h1.665c.92-1.218,1.367-1.694,1.663-1.694.356,0,.862.356,1.843,1.13,1.072.862,1.367,1.25,1.367,1.487,0,.3-.176.535-1.277.95a38.667,38.667,0,0,1-2.112,9.634c-.117.327-.266.684-.415,1.011,1.665.981,2.734,2.288,2.734,3.479,0,1.1-.505,1.9-1.665,1.9-.713,0-1.248-.447-1.663-1.607a7,7,0,0,0-.864-1.575,16.359,16.359,0,0,1-7.075,4.756l-.178-.237a14.335,14.335,0,0,0,5.44-6.421,9.629,9.629,0,0,0-1.455-1.04Zm1.9-11.326L73.968,68.912a15.026,15.026,0,0,1,1.961.386c.237-.623.476-1.309.686-2.051a42.308,42.308,0,0,0,1.277-8.8Zm8.919,1.841a82.787,82.787,0,0,0,1.992-8.294,9.678,9.678,0,0,0,.149-1.336A4.9,4.9,0,0,0,86.72,50l.269-.149c3.745.92,4.876,1.218,4.876,1.782,0,.417-.3.6-1.218.745a52.181,52.181,0,0,1-4.253,7.879c2.349-.029,4.7-.149,7.046-.269A7.082,7.082,0,0,0,90.795,56.1l.117-.239c5.025,1.25,6.66,3.9,6.69,5.769.029,1.753-.684,2.586-2.022,2.586-.952,0-1.458-.625-1.755-2.378l-.088-.505c-3.8,1.248-6.778,2.051-9.81,2.764a3.286,3.286,0,0,1-.774.12c-.3,0-.444-.178-.593-.505a23.366,23.366,0,0,1-1.072-3.272l.21-.205c.83.056,1.782.056,2.317.056ZM92.162,75.57H86.483V76.4c0,.95-.981,1.484-2.556,1.484-.894,0-1.072-.117-1.043-1.011l.239-6.421v-3a6.2,6.2,0,0,0-.3-2.466l.208-.21a20.656,20.656,0,0,1,3.926,1.428h4.607c1.13-1.487,1.277-1.724,1.606-1.724.356,0,.742.146,1.99,1.069,1.279.95,1.665,1.4,1.665,1.785,0,.356-.208.535-1.1.891v2.258l.237,5.261c.061,1.458-.654,1.934-2.822,1.934-.835,0-.981-.12-.981-.862Zm-5.679-.535h5.679V66.742h-5c-.061.178-.269.3-.684.447Z" transform="translate(100.413 72.33)" fill="#fff"/>
    <path id="パス_19" data-name="パス 19" d="M40.484,27.846a.228.228,0,0,1,.237-.21.242.242,0,0,1,.237.264c0,.078-.024.474-.051.71-.237,1.948-.317,3.5-.371,4.5a.474.474,0,0,1-.525.5H27.578c.923-3.135,3-5.3,4.978-7.349,2.239-2.317,4.346-4.5,4.346-7.823,0-2.659-1.265-4.082-3.213-4.082-1.687,0-3.135,1.133-3.135,2.476a.708.708,0,0,0,.791.789,1.311,1.311,0,0,1,1.37,1.475,1.687,1.687,0,0,1-1.846,1.66,1.978,1.978,0,0,1-1.975-2.185c0-2.608,2.4-4.978,5.8-4.978,3.582,0,5.794,1.816,5.794,5.242,0,3.66-3.186,5.847-6.243,7.928-1.87,1.265-3.714,2.5-4.688,4.028h9.534c.713,0,.791-.051.923-.63Z" transform="translate(39.886 20.063)" fill="#fff"/>
    <path id="パス_20" data-name="パス 20" d="M46.806,23.212c0,7.928-3.5,10.667-6.453,10.667-3.635,0-6.453-3.162-6.453-9.512,0-8.03,3.5-10.77,6.453-10.77,3.635,0,6.453,3.162,6.453,9.615m-3.582.681c0-7.083-.737-9.768-2.871-9.768s-2.871,2.949-2.871,9.561c0,6.98.737,9.666,2.871,9.666s2.871-2.952,2.871-9.458" transform="translate(49 20.063)" fill="#fff"/>
    <path id="パス_21" data-name="パス 21" d="M52.782,27.846a.228.228,0,0,1,.237-.21.242.242,0,0,1,.237.264c0,.078-.024.474-.051.71-.237,1.948-.317,3.5-.371,4.5a.474.474,0,0,1-.525.5H39.876c.923-3.135,3-5.3,4.978-7.349,2.239-2.317,4.346-4.5,4.346-7.823,0-2.659-1.265-4.082-3.213-4.082-1.687,0-3.135,1.133-3.135,2.476a.708.708,0,0,0,.791.789,1.311,1.311,0,0,1,1.37,1.475,1.687,1.687,0,0,1-1.846,1.66,1.978,1.978,0,0,1-1.975-2.185c0-2.608,2.4-4.978,5.8-4.978,3.582,0,5.794,1.816,5.794,5.242,0,3.66-3.186,5.847-6.243,7.928-1.87,1.265-3.714,2.5-4.688,4.028h9.534c.713,0,.791-.051.923-.63Z" transform="translate(57.614 20.063)" fill="#fff"/>
    <path id="パス_22" data-name="パス 22" d="M58.931,27.846a.228.228,0,0,1,.237-.21.242.242,0,0,1,.237.264c0,.078-.024.474-.051.71-.237,1.948-.317,3.5-.371,4.5a.474.474,0,0,1-.525.5H46.025c.923-3.135,3-5.3,4.978-7.349,2.239-2.317,4.346-4.5,4.346-7.823,0-2.659-1.265-4.082-3.213-4.082-1.687,0-3.135,1.133-3.135,2.476a.708.708,0,0,0,.791.789,1.311,1.311,0,0,1,1.37,1.475,1.687,1.687,0,0,1-1.846,1.66,1.978,1.978,0,0,1-1.975-2.185c0-2.608,2.4-4.978,5.8-4.978,3.582,0,5.794,1.816,5.794,5.242,0,3.66-3.186,5.847-6.243,7.928-1.87,1.265-3.714,2.5-4.688,4.028h9.534c.713,0,.791-.051.923-.63Z" transform="translate(66.478 20.063)" fill="#fff"/>
    <path id="パス_23" data-name="パス 23" d="M68.112,16.967c-.024.342-.21.525-.71.657V22.47h3.135c1.553-2.131,1.816-2.344,2.029-2.344.237,0,.525.132,1.5.974,1.082.95,1.265,1.16,1.265,1.448,0,.317-.159.4-.63.4H67.4v5.742h4.583c1.555-2.158,1.843-2.422,2.08-2.422s.686.237,1.792,1.157,1.292,1.187,1.292,1.423-.132.315-.554.315H67.429l.132,6.875c.027,1-.869,1.45-2.422,1.45-.977,0-1.187-.134-1.16-.977l.132-7.349H58.368a55.168,55.168,0,0,0-5.928.212l-.234-.9c1.316.132,2.871.183,5.056.21V23.42a4.45,4.45,0,0,0-.317-2.029l.186-.183A13.992,13.992,0,0,1,60.9,22.47h3.24v-5.5H60.16A20.746,20.746,0,0,1,52.7,23.893l-.183-.186a25.284,25.284,0,0,0,5.188-9.192A5.007,5.007,0,0,0,58,12.909v-.186l.264-.129c3.582.974,4.373,1.37,4.373,1.816s-.422.659-1.37.737c-.264.474-.527.923-.818,1.343H70.7c1.58-2.239,1.843-2.449,2.08-2.449.291,0,.737.291,1.685,1.106,1.028.9,1.213,1.184,1.213,1.423,0,.315-.159.4-.606.4ZM60.37,28.686h3.765V22.944H61a1.162,1.162,0,0,1-.632.4Z" transform="translate(75.388 18.617)" fill="#fff"/>
    <path id="パス_24" data-name="パス 24" d="M21.563,27.11V53.283c0,2.363.276,2.442,4.531,2.6a.394.394,0,1,1,0,.789l-2.2-.078c-1.775-.081-3.311-.12-4.888-.12-1.538,0-2.957.039-4.729.12l-2.249.078a.394.394,0,0,1,0-.789c4.258-.159,4.573-.237,4.573-2.6V33.773c0-.513-.159-.671-.63-.671s-1.379.354-5.874,2.285a1.2,1.2,0,0,1-.432.117.372.372,0,0,1-.4-.393.412.412,0,0,1,.276-.393C14.9,32,16.873,30.184,19.317,27.11Z" transform="translate(13.488 39.542)" fill="#fff"/>
    <path id="パス_25" data-name="パス 25" d="M29.148,27.11V53.283c0,2.363.276,2.442,4.531,2.6a.394.394,0,1,1,0,.789l-2.2-.078c-1.775-.081-3.311-.12-4.888-.12-1.538,0-2.957.039-4.729.12l-2.249.078a.394.394,0,0,1,0-.789c4.258-.159,4.573-.237,4.573-2.6V33.773c0-.513-.159-.671-.63-.671s-1.379.354-5.874,2.285a1.2,1.2,0,0,1-.432.117.372.372,0,0,1-.4-.393.412.412,0,0,1,.276-.393C22.487,32,24.458,30.184,26.9,27.11Z" transform="translate(24.422 39.542)" fill="#fff"/>
    <path id="パス_26" data-name="パス 26" d="M40.36,43.815H32.545a11.277,11.277,0,0,1-2.581,6.145,13.6,13.6,0,0,1-5.083,3.948l-.2-.151a15.051,15.051,0,0,0,3.44-4.556c.935-1.819,1.67-4.426,1.67-8.929V33.341a5.165,5.165,0,0,0-.33-2.5l.176-.178c2.608.581,3.694.911,3.872,1.265h6.475c1.062-1.213,1.367-1.44,1.643-1.44.305,0,.481.076,1.57.986,1.238,1.062,1.416,1.365,1.416,1.594,0,.3-.2.53-1.089.911v5.943l.254,10.7c.051,2.554-2.5,3.364-4.148,3.364-.33,0-.354-.076-.481-.632-.227-.986-.935-1.821-3.086-2.454v-.278H37a13.464,13.464,0,0,0,2.532-.154c.657-.125.833-.251.833-1.035Zm0-.457v-5.31H32.823v1.187a32.079,32.079,0,0,1-.227,4.124Zm-7.537-5.767H40.36v-5.21h-7a1.771,1.771,0,0,1-.532.327Z" transform="translate(35.706 44.405)" fill="#fff"/>
    <path id="パス_27" data-name="パス 27" d="M47.1,27.11V53.283c0,2.363.276,2.442,4.531,2.6a.394.394,0,1,1,0,.789l-2.2-.078c-1.775-.081-3.311-.12-4.888-.12-1.538,0-2.957.039-4.729.12l-2.249.078a.394.394,0,0,1,0-.789c4.258-.159,4.573-.237,4.573-2.6V33.773c0-.513-.159-.671-.63-.671s-1.379.354-5.874,2.285a1.2,1.2,0,0,1-.432.117.372.372,0,0,1-.4-.393.412.412,0,0,1,.276-.393c5.362-2.72,7.332-4.534,9.776-7.608Z" transform="translate(50.297 39.542)" fill="#fff"/>
    <path id="パス_28" data-name="パス 28" d="M59.961,31.919h-13.4L45.849,42.2a12.909,12.909,0,0,1,7.53-2.444c5.281,0,8.946,3.272,8.946,8.042,0,5.359-4.492,9.263-10.643,9.263-6.424,0-8.829-2.957-8.829-5.991,0-1.775.986-3.193,2.761-3.193A2.541,2.541,0,0,1,48.332,50.4a2.488,2.488,0,0,1-1.221,2.288c-.591.354-.789.552-.789,1.1,0,1.5,2.366,2.288,4.453,2.288,3.943,0,6.582-2.642,6.582-7.29,0-4.693-2.837-6.939-6.424-6.939-2.681,0-4.414.591-5.559,1.616a.338.338,0,0,1-.234.117.413.413,0,0,1-.435-.432l1.1-16.043H59.961Z" transform="translate(61.905 39.54)" fill="#fff"/>
    <path id="パス_29" data-name="パス 29" d="M65.9,49.819H56.668v2.454c0,.808-.886,1.265-2.351,1.265-.811,0-.962-.1-.938-.859l.254-13.028V33.275a4.969,4.969,0,0,0-.305-2.1L53.506,31c2.378.584,3.416.962,3.743,1.265h8.274c.96-1.265,1.365-1.592,1.592-1.592.278,0,.632.176,1.67,1.011,1.113.886,1.416,1.24,1.416,1.57q0,.454-1.062.911v5.462l.251,11.839c.027,1.138-.657,1.594-2.5,1.594-.859,0-.986-.1-.986-.732Zm-9.234-9.434H65.9V32.718H57.327c-.1.178-.305.278-.659.405Zm9.234.454H56.668v8.526H65.9Z" transform="translate(77.005 44.674)" fill="#fff"/>
    <path id="パス_30" data-name="パス 30" d="M70.852,30.994c-4.375,3.059-6.248,6.98-6.248,11.561s1.873,8.5,6.248,11.561l-.581.757c-4.58-3.237-6.7-7.183-6.7-12.317s2.124-9.082,6.7-12.32Z" transform="translate(91.765 44.047)" fill="#fff"/>
    <path id="パス_31" data-name="パス 31" d="M85.31,35.218C88.5,37.142,88.9,37.472,88.9,38c0,.3-.2.481-1.062.481h-.33a35.659,35.659,0,0,1-5.261,3.591,17.574,17.574,0,0,0,1.821,3.338A17.174,17.174,0,0,0,90.923,50.9l-.073.33a5.4,5.4,0,0,0-2.81,2.275c-.2.33-.354.43-.557.43s-.378-.049-.808-.4a16.743,16.743,0,0,1-4.983-7.007c-1.467-3.618-1.567-6.4-1.694-14.141-.051.024-.1.024-.178.051-.024,1.921-.076,4.173-.176,5.894a19.1,19.1,0,0,1-2.962,9.815,14.7,14.7,0,0,1-9.207,5.994l-.1-.227A14.824,14.824,0,0,0,74.2,47.26a24.322,24.322,0,0,0,2.478-11.333V32.664a4.376,4.376,0,0,0-.3-2.024l.178-.178c3.843.508,4.426.684,4.426,1.14,0,.278-.076.454-.684.684a34.163,34.163,0,0,0,1.543,8.726,21.915,21.915,0,0,0,2.581-3.921,6.491,6.491,0,0,0,.684-1.77ZM72.358,36.61a7.5,7.5,0,0,1,1.011,4.2c0,2-1.162,3.743-2.908,3.743a1.472,1.472,0,0,1-1.567-1.567,1.963,1.963,0,0,1,.808-1.619c1.619-1.165,2.454-2.151,2.454-4.148,0-.178-.024-.354-.024-.532Z" transform="translate(97.254 44.374)" fill="#fff"/>
    <path id="パス_32" data-name="パス 32" d="M78.334,30.235c4.578,3.237,6.7,7.183,6.7,12.32s-2.124,9.08-6.7,12.317l-.584-.757C82.125,51.054,84,47.133,84,42.555s-1.875-8.5-6.25-11.561Z" transform="translate(112.21 44.047)" fill="#fff"/>
    <rect id="長方形_143" data-name="長方形 143" width="182.977" height="2.683" transform="translate(18.512 108.739)" fill="#fff"/>
    <path id="パス_33" data-name="パス 33" d="M48.279,75.781l-5.584-9.62H53.95Z" transform="translate(61.678 95.835)" fill="#fff"/>
    <path id="パス_34" data-name="パス 34" d="M48.279,81.516,42.695,71.9H53.95Z" transform="translate(61.678 104.102)" fill="#fff"/>
    <path id="パス_35" data-name="パス 35" d="M48.279,87.251l-5.584-9.62H53.95Z" transform="translate(61.678 112.369)" fill="#fff"/>
  </g>
</svg>
