<svg xmlns="http://www.w3.org/2000/svg" width="37.625" height="260.665" viewBox="0 0 37.625 260.665">
  <g id="グループ_212" data-name="グループ 212" transform="translate(-4242.75 -1724)">
    <g id="グループ_208" data-name="グループ 208">
      <rect id="長方形_254" data-name="長方形 254" width="37.625" height="260.665" transform="translate(4242.75 1724)"/>
      <path id="パス_654" data-name="パス 654" d="M35.951,33.9c.217.279.248.341.248.464,0,.248-.186.372-.526.372h-.4a22.48,22.48,0,0,0-4.892.65,11.2,11.2,0,0,0-4.489,2.756A5.665,5.665,0,0,0,24.433,42.1c0,2.849,2.075,4.149,6.626,4.149.557,0,1.455,0,2.91-.03a7.357,7.357,0,0,0-.836,3.127l-1.146.031a15.015,15.015,0,0,1-6.719-.959,6.231,6.231,0,0,1-3.963-6.1,8.1,8.1,0,0,1,2.818-6.193A95.842,95.842,0,0,0,13.6,39.005l-1.022-3.127c2.6-.65,3.1-.836,4.427-1.7a45.44,45.44,0,0,0,9.072-7.9c-1.548.341-5.357,1.239-7.586,1.8L17.5,24.7c2.6-.186,4.087-.341,7.338-.774,2.694-.341,2.88-.4,3.716-.836l2.013,1.734c.34.31.371.34.371.526,0,.279-.062.31-.774.558a42.31,42.31,0,0,1-6.812,6.9c-.805.651-.991.806-1.517,1.27l.031.124c6.843-1.3,9.351-1.858,12.323-2.663Z" transform="translate(4236.665 1712.825)" fill="#fff"/>
      <path id="パス_655" data-name="パス 655" d="M24.571,80.579c.341.031.588.186.588.433,0,.217-.124.341-.526.619-.124,2.539-.464,14.955-.464,16.565,0,2.569.929,3.5,3.53,3.5a10.619,10.619,0,0,0,5.449-1.61c2.26-1.3,3.53-2.477,5.728-5.388a9.452,9.452,0,0,0,2.013,2.973A20.319,20.319,0,0,1,34.881,103a15.031,15.031,0,0,1-7.555,2.075c-2.446,0-4.366-.743-5.388-2.106a7.538,7.538,0,0,1-1.146-4.644c0-.836.031-1.548.186-5.512.093-2.725.155-5.79.155-8.887,0-1.393-.031-2.508-.093-3.591Z" transform="translate(4232.687 1685.125)" fill="#fff"/>
      <path id="パス_656" data-name="パス 656" d="M35.651,141.666a.878.878,0,0,1,.217.527c0,.247-.124.309-.991.371a11.852,11.852,0,0,0-7.091,2.353c-3,2.229-4.644,4.985-4.644,7.833,0,2.663,2.075,4.676,5.542,5.388a28.319,28.319,0,0,0,5.635.526,13.2,13.2,0,0,0-1.239,3.345,28.941,28.941,0,0,1-6.657-.991c-4.18-1.177-6.564-4.149-6.564-8.236,0-3.375,1.548-6.037,5.016-8.669-2.787.65-9.505,2.229-11.24,2.6-.774.186-.96.217-1.548.372l-.774-3.53c2.787-.248,6.657-.867,13.809-2.229,6.068-1.146,6.9-1.331,8.917-2.075Z" transform="translate(4237.274 1656.612)" fill="#fff"/>
      <path id="パス_657" data-name="パス 657" d="M15.521,205.042c.309.031.464.124.464.31,0,.155-.156.341-.588.588v8.02c0,2.879.031,4.892.092,6.347h-3.1c.062-1.393.093-3.5.093-6.347v-4.645a31.61,31.61,0,0,1-3.189,4.18,11.4,11.4,0,0,0-1.7-2.415,34.825,34.825,0,0,0,7.338-13.19l2.724,1.176c.341.155.465.279.465.465,0,.247-.093.309-.744.526-.371.774-.649,1.393-.8,1.765-.774,1.734-1.021,2.353-1.424,3.189Zm5.542-11.549c0-.867-.031-1.548-.062-1.981l3.065.217c.372.03.557.123.557.309s-.155.372-.588.619v2.167h6.223c1.951,0,4.583-.031,6.162-.093V197.8c-1.641-.062-4.273-.123-6.162-.123H14.747c-1.7,0-4.49.061-6.162.123v-3.065c1.579.062,4.4.093,6.162.093h6.316Zm12.385,10.651a28.35,28.35,0,0,1-3.747,7.277c-.464.65-.928,1.238-1.393,1.8,2.229,1.734,4.644,2.756,9.1,3.932a12.585,12.585,0,0,0-1.548,2.787c-4.427-1.3-7.028-2.539-9.567-4.644a31.963,31.963,0,0,1-8.484,5.078,8.133,8.133,0,0,0-1.609-2.508,26.97,26.97,0,0,0,7.957-4.613,18.883,18.883,0,0,1-3.1-4.923,34.078,34.078,0,0,1-2.88,2.663,7.178,7.178,0,0,0-1.671-2.354,25.781,25.781,0,0,0,7.8-10.62l2.694,1.053c.341.124.5.279.5.465,0,.217-.031.247-.806.464-.371.681-.712,1.331-1.052,1.92h5.821l.434-.5,2.074,1.764a.534.534,0,0,1,.248.4c0,.217-.124.341-.5.464Zm-9.474.465c-.372.557-.743,1.083-1.146,1.641a29.256,29.256,0,0,0,1.92,3.282,15.437,15.437,0,0,0,1.424,1.764,22.027,22.027,0,0,0,4.149-6.687Zm1.456.247a12.079,12.079,0,0,1,2.972,3.034l-2.075,1.641a14.62,14.62,0,0,0-2.663-3.22Z" transform="translate(4239.075 1631.321)" fill="#fff"/>
      <path id="パス_658" data-name="パス 658" d="M26.011,259.443c.248.124.372.247.372.372,0,.186-.155.371-.433.526a43.486,43.486,0,0,1-2.848,8.98c-1.827,4.118-3.84,6.006-6.44,6.006a4.2,4.2,0,0,1-3.84-2.2,9.3,9.3,0,0,1-1.208-4.737,12.233,12.233,0,0,1,5.821-10.032,13.645,13.645,0,0,1,7.709-2.229,14.249,14.249,0,0,1,8.515,2.6,9.389,9.389,0,0,1,3.9,8.019c0,4.087-1.92,7.184-5.852,9.351a32.2,32.2,0,0,1-5.759,2.2,8.568,8.568,0,0,0-1.641-3.1,18.747,18.747,0,0,0,6.193-2.229,7.094,7.094,0,0,0,3.809-6.254,7.586,7.586,0,0,0-5.2-7.122,10.465,10.465,0,0,0-3.53-.743h-.619Zm-8.081,2.106a10.065,10.065,0,0,0-3.1,7c0,2.2.712,3.56,1.858,3.56.991,0,1.858-.96,2.973-3.282a29.792,29.792,0,0,0,3.1-9.816,8.325,8.325,0,0,0-4.83,2.539" transform="translate(4237.129 1600.05)" fill="#fff"/>
      <path id="パス_659" data-name="パス 659" d="M9.94,316.178a26.472,26.472,0,0,1,3.87,4.056l-2.415,1.92a26.167,26.167,0,0,0-3.561-4.087Zm6.873,8.081a78.188,78.188,0,0,1-4.644,9.784c-.4.805-.589,1.177-.929,1.951v.217c0,.248-.123.434-.309.434-.124,0-.155-.062-.4-.279l-2.2-1.827a57.674,57.674,0,0,0,6.1-11.859Zm-4.242-15.327a24.876,24.876,0,0,1,3.685,3.9l-2.477,1.889a23.707,23.707,0,0,0-3.406-4.056Zm4.83,17.494c0-.991-.062-2.2-.093-2.755,1.084.062,2.013.062,3.406.062h10.9c1.393,0,2.322,0,3.406-.062-.03.557-.061,1.764-.061,2.755v6.688c.836-.031,1.641-.062,2.477-.062v3.034c-1.331-.062-3.53-.093-4.954-.093H18.98c-1.579,0-3.623.031-4.923.093v-3.034l3.344.093Zm3.716-3.87H18.083c.062-.712.093-1.765.093-3.282v-6.75c0-.991-.062-2.2-.093-2.756,1.084.031,2.013.062,3.406.062h9.351c1.393,0,2.353-.031,3.406-.062-.03.557-.061,1.765-.061,2.756v6.719c0,1.455.031,2.508.061,3.22H31.211v-.712H21.117Zm1.208,3.994H20.219v6.595h2.106Zm8.886-13.964H21.117v1.827H31.211Zm0,4.644-10.094-.123v1.888H31.211Zm-4.118,9.32H25.142v6.595h1.951Zm5.016,0h-2.2v6.595h2.2Z" transform="translate(4238.958 1574.497)" fill="#fff"/>
      <path id="パス_660" data-name="パス 660" d="M18.13,377.057c-.03-1.083-.061-1.919-.092-2.477l3,.217c.341.031.526.124.526.31s-.186.341-.588.619v1.331H25.84c0-1.083-.062-1.919-.093-2.477l3.034.217c.341.031.526.124.526.31s-.185.341-.588.619v1.331h1.424c1.641,0,4.149-.062,5.574-.124v2.973c-1.424-.062-3.932-.093-5.574-.093H28.72v.526c0,1.61,0,3.251.062,4.087H25.871v-.465H20.979v.806H18.037c.031-.929.092-2.477.092-3.839v-1.115H13.083v1.92c0,7.122-.867,10.9-3.53,15.3a11.6,11.6,0,0,0-2.26-2.2,15.5,15.5,0,0,0,2.229-5.573,39.042,39.042,0,0,0,.65-7.741v-7.338c0-.959-.031-2.136-.062-2.724,1.022.03,2.075.03,3.406.03H21.04v-.9c0-.866-.031-1.548-.062-2.012l3.034.217c.4.031.588.155.588.341,0,.155-.155.341-.588.588v1.764h5.45c1.919,0,4.582-.03,6.192-.124v3.034c-1.61-.093-4.4-.124-6.192-.124H13.083v2.787Zm13.129,10.372a29.7,29.7,0,0,1-4.149,4.675,42.778,42.778,0,0,0,9.536,2.416A18.35,18.35,0,0,0,35.1,397.4c-4.954-1.021-8.2-2.044-10.682-3.375-.217.123-.433.217-.65.34-2.663,1.425-5.852,2.354-10.961,3.158a9.718,9.718,0,0,0-1.115-2.755c5.14-.774,7.771-1.455,10.063-2.539a21.048,21.048,0,0,1-2.694-2.818,9.5,9.5,0,0,1-.959-1.424c-1.177,0-2.57.031-3.468.062v-2.941c1.146.03,3.065.093,4.334.093H29.4l.588-.62,1.919,1.765a.807.807,0,0,1,.279.527c0,.185-.216.372-.588.464Zm-10.28-5.914H25.87v-1.7H20.979Zm.4,6.471a13.254,13.254,0,0,0,3.034,2.694,18.225,18.225,0,0,0,2.88-2.694Z" transform="translate(4239.22 1545.635)" fill="#fff"/>
      <path id="パス_661" data-name="パス 661" d="M18.272,434.563c.341.062.557.279.557.526,0,.34-.217.526-.836.743-1.177,6.533-1.331,8.051-1.331,11.7a24.246,24.246,0,0,0,1.548,9.258,20.522,20.522,0,0,0-3.158,1.177,29.726,29.726,0,0,1-1.579-10.435c0-3.344.217-5.573,1.208-11.858a12.463,12.463,0,0,0,.217-1.765Zm7.09,13.066a3.908,3.908,0,0,0-1.114,2.415c0,1.61,1.826,2.291,6.161,2.291a27.416,27.416,0,0,0,7.338-.867,25.172,25.172,0,0,0-.4,3.654,45.8,45.8,0,0,1-6.719.464,20.59,20.59,0,0,1-6.13-.681,4.316,4.316,0,0,1-3.344-4.366c0-1.455.433-2.477,1.827-4.365Zm-3.5-9.723a33.39,33.39,0,0,1,9.505-1.27,40.24,40.24,0,0,1,5.357.341l-.5,3.034c-.557-.03-.991-.062-1.27-.093-1.92-.154-2.818-.186-4.521-.186a22.041,22.041,0,0,0-7.9,1.27Z" transform="translate(4236.229 1514.014)" fill="#fff"/>
    </g>
  </g>
</svg>
