<svg xmlns="http://www.w3.org/2000/svg" width="37.625" height="324.776" viewBox="0 0 37.625 324.776">
  <g id="グループ_210" data-name="グループ 210" transform="translate(-4898.917 -1602)">
    <rect id="長方形_252" data-name="長方形 252" width="37.625" height="324.776" transform="translate(4898.917 1602)"/>
    <path id="パス_634" data-name="パス 634" d="M244.531,36.749a30.058,30.058,0,0,1-1.827,2.477,13.014,13.014,0,0,0-1.362-2.725,22.675,22.675,0,0,0,2.817-4.273,28.232,28.232,0,0,0,2.415-5.945l2.446.929a.748.748,0,0,1,.557.588c0,.217-.155.309-.805.4-.526,1.424-1.084,2.786-1.7,4.056l.279.031c.31.03.526.123.526.309,0,.155-.186.341-.588.588-.031.589-.031,1.084-.031,5.325V42.6c0,2.88.031,4.892.093,6.348h-2.911c.062-1.393.093-3.5.093-6.348Zm4.211-15.481c.434.247.557.371.557.557,0,.247-.155.34-.805.433a18.764,18.764,0,0,1-5.233,6.007,8.758,8.758,0,0,0-1.641-2.291A17.8,17.8,0,0,0,246.7,20.09ZM253.7,38.606c0,5.109-.929,7.277-4.118,9.846a7.619,7.619,0,0,0-1.765-2.26c2.57-2.2,3.1-3.529,3.1-7.586V37c-.836,0-1.8.031-2.415.062V34.364c.681.031,1.8.062,2.477.062H258c.681,0,1.8-.031,2.477-.062v2.694c-.588-.031-1.486-.062-2.26-.062V40.68c.96-.526,1.982-1.177,3.282-2.044l.588,2.57a48.3,48.3,0,0,1-6.471,3.932c-.062.4-.185.557-.4.557a.548.548,0,0,1-.464-.4l-1.084-2.631c.65-.248,1.27-.464,1.8-.712V37H253.7Zm-.248-10.125v-3.53c0-2.446-.031-3.747-.093-4.645l2.817.217c.341.031.527.124.527.31s-.155.371-.589.619c-.031,1.084-.031,2.477-.031,3.5v3.53h1.208V25.818c0-1.424-.031-2.88-.093-3.592l2.57.186c.341.031.526.155.526.31,0,.186-.155.372-.588.619v4.985c0,1.239.031,2.941.062,3.653h-2.477v-.9h-5.016v1.672h-2.477c.062-.991.062-2.539.062-4.118V26.221c0-1.827-.031-3.22-.093-4.025l2.57.217c.372.031.526.124.526.31s-.155.341-.558.619c-.03.65-.03,1.548-.03,2.88v2.26Zm17.4.836c-.434-.031-.959-.031-1.517-.062-.433,4.861-.929,7.245-1.982,9.939-.186.464-.372.929-.588,1.362a16.7,16.7,0,0,0,4.644,5.543,12.916,12.916,0,0,0-1.827,2.384,19.5,19.5,0,0,1-4.427-5.263,16.7,16.7,0,0,1-7.958,5.7,12.5,12.5,0,0,0-1.455-2.384c3.591-1.362,6.068-3.127,7.678-5.512a4.58,4.58,0,0,0,.4-.65,29.07,29.07,0,0,1-1.734-7.06c-.248.588-.526,1.177-.805,1.7a11.408,11.408,0,0,0-1.765-2.229A36.353,36.353,0,0,0,262.861,20.4l2.6.712c.557.155.65.185.65.4,0,.248-.217.433-.712.557a43.929,43.929,0,0,1-.96,4.459H268.4c.65,0,1.764,0,2.446-.031Zm-6.935-.062c.155,1.393.279,2.756.5,4.118A28.072,28.072,0,0,0,265.276,37c.248-.743.464-1.548.65-2.353a30.985,30.985,0,0,0,.681-5.387Z" transform="translate(4661.214 1592.278)" fill="#fff"/>
    <path id="パス_635" data-name="パス 635" d="M257.77,84.189c.279.062.464.248.464.433,0,.248-.185.4-.712.557-.712,2.384-1.053,3.53-1.548,5.078a1.751,1.751,0,0,0,.372-.031,12.091,12.091,0,0,1,2.074-.216,4.369,4.369,0,0,1,2.942,1.207,3.886,3.886,0,0,1,1.177,3.1A30.03,30.03,0,0,1,260.4,104.9a4.8,4.8,0,0,1-4.892,3.282,14.9,14.9,0,0,1-3.5-.464c.124-.836.248-2.508.279-3.375a10.226,10.226,0,0,0,3.189.619c1.362,0,2.012-.713,2.662-3a28.96,28.96,0,0,0,1.146-7.183c0-1.3-.464-1.92-1.455-1.92a17.237,17.237,0,0,0-2.818.372,61.8,61.8,0,0,1-3.189,7.864,53.087,53.087,0,0,1-4.428,7.462,7.168,7.168,0,0,0-2.755-1.827,40.532,40.532,0,0,0,4.737-7.493c.619-1.3,1.8-4.056,2.26-5.419-1.827.341-3.84.712-5.945,1.115l-.434-3.344c2.013-.124,4.583-.4,7.431-.836a57.981,57.981,0,0,0,1.827-7.184Zm7.462,5.295a22.994,22.994,0,0,1,7.926,7.183l-2.632,2.384a21.062,21.062,0,0,0-7.152-7.152Z" transform="translate(4659.618 1561.558)" fill="#fff"/>
    <path id="パス_636" data-name="パス 636" d="M252.56,144.461c.341.062.557.279.557.526,0,.341-.217.526-.836.743-1.177,6.534-1.331,8.051-1.331,11.7a24.248,24.248,0,0,0,1.548,9.258,20.468,20.468,0,0,0-3.158,1.176,29.723,29.723,0,0,1-1.579-10.434c0-3.344.217-5.574,1.208-11.859a12.455,12.455,0,0,0,.217-1.765Zm7.09,13.066a3.909,3.909,0,0,0-1.114,2.415c0,1.61,1.826,2.291,6.161,2.291a27.4,27.4,0,0,0,7.338-.868,25.184,25.184,0,0,0-.4,3.654,45.8,45.8,0,0,1-6.719.464,20.591,20.591,0,0,1-6.13-.681,4.315,4.315,0,0,1-3.344-4.365c0-1.455.433-2.477,1.827-4.366Zm-3.5-9.722a33.37,33.37,0,0,1,9.505-1.27,40.153,40.153,0,0,1,5.357.341l-.5,3.034c-.557-.03-.991-.061-1.27-.093-1.92-.154-2.818-.186-4.521-.186a22.042,22.042,0,0,0-7.9,1.27Z" transform="translate(4658.108 1532.405)" fill="#fff"/>
    <path id="パス_637" data-name="パス 637" d="M247.629,203.455v2.973c0,6.688-.65,9.258-3.282,12.911a8.948,8.948,0,0,0-2.106-2.508c1.92-3.034,2.322-4.861,2.322-10.62v-2.756c0-.959-.031-2.167-.062-2.724,1.022.03,2.074.03,3.406.03h10.28c-.03-.371-.03-.774-.061-1.27-.062-.959-.093-1.3-.155-1.733l3.282.341c.341.031.526.155.526.341,0,.217-.185.4-.619.619,0,.558,0,1.146.031,1.7h2.787a13.536,13.536,0,0,0-1.765-1.61l1.61-1.579a15.292,15.292,0,0,1,3.034,2.693l-.526.5c1.7-.03,3.623-.062,4.861-.123v2.911c-1.579-.062-4.459-.093-6.162-.093h-3.592c.155.929.31,1.827.526,2.632a12.218,12.218,0,0,0,1.362,3.251,29.368,29.368,0,0,0,2.044-5.171l2.6,1.177c.31.155.5.341.5.527,0,.247-.124.309-.774.371a27.817,27.817,0,0,1-2.539,5.418l.372.372a4.27,4.27,0,0,0,2.539,1.486c.5,0,.681-.681.991-3.654a12.592,12.592,0,0,0,2.663,1.331,19.538,19.538,0,0,1-.712,4.18c-.4,1.145-1.084,1.765-2.075,1.765-1.579,0-3.716-1.208-5.6-3.066a25.312,25.312,0,0,1-4.489,3.747,6.3,6.3,0,0,0-1.8-2.229,17.6,17.6,0,0,0,4.489-3.623,16.772,16.772,0,0,1-2.972-7.586c-.062-.341-.093-.651-.124-.929Zm1.208,15.636a.355.355,0,0,1,.279.341c0,.186-.092.279-.526.4a13.6,13.6,0,0,1-3.313,5.852,8.983,8.983,0,0,0-2.106-2.106,10.9,10.9,0,0,0,3.1-5.481Zm7-11.8h-5.79l-1.857.031v-2.6c.464.031,1.238.031,1.857.031h5.79c.588,0,1.393,0,1.857-.031v2.6Zm-4.521,8.453h-2.632c.031-.588.062-1.8.062-2.88v-1.982c0-1.641-.031-2.012-.062-2.446.681.031,1.3.062,2.2.062h4.056c.9,0,1.517-.031,2.2-.062-.031.5-.031.991-.031,2.756v1.393c0,.744,0,2.013.031,2.509h-2.6v-.588h-3.22Zm1.672,2.044c.279.031.5.186.5.372,0,.217-.186.4-.619.557a8.935,8.935,0,0,0-.062,1.331v1.7c0,.774.124.991.681,1.146a19.4,19.4,0,0,0,3.251.186c4.272,0,4.83-.093,5.14-.867a8.55,8.55,0,0,0,.309-2.57,13.171,13.171,0,0,0,3.065.96c-.124,2.632-.4,3.592-1.239,4.335-.774.712-1.919.866-6.44.866a32.673,32.673,0,0,1-6.162-.279c-1.084-.217-1.517-.866-1.517-2.167v-2.787a13.245,13.245,0,0,0-.186-3.065Zm1.548-7.059h-3.22v1.548h3.22Zm1.146,5.294a16.9,16.9,0,0,1,4.056,3.468l-2.012,1.982a16.773,16.773,0,0,0-3.747-3.654Zm11.3,1.362a20.209,20.209,0,0,1,2.694,2.88c.4.5,1.053,1.455,1.982,2.88l-2.632,1.982a21.936,21.936,0,0,0-4.149-5.945Z" transform="translate(4660.779 1506.388)" fill="#fff"/>
    <path id="パス_638" data-name="パス 638" d="M258.859,261.78c.341.031.588.186.588.434,0,.217-.124.341-.526.619-.124,2.539-.465,14.955-.465,16.565,0,2.571.929,3.5,3.53,3.5a10.616,10.616,0,0,0,5.449-1.61c2.26-1.3,3.53-2.477,5.728-5.387a9.469,9.469,0,0,0,2.013,2.973,20.315,20.315,0,0,1-6.007,5.325,15.031,15.031,0,0,1-7.555,2.075c-2.446,0-4.366-.743-5.388-2.106a7.54,7.54,0,0,1-1.146-4.645c0-.836.031-1.548.186-5.511.093-2.725.155-5.79.155-8.886,0-1.393-.031-2.508-.093-3.592Zm6.286,3.127a20.706,20.706,0,0,1,3.994,3.158l-1.579,1.734a17.274,17.274,0,0,0-3.809-3.283Zm2.508-2.88a20.939,20.939,0,0,1,3.994,3.189l-1.579,1.7a19.5,19.5,0,0,0-3.809-3.251Z" transform="translate(4654.566 1475.436)" fill="#fff"/>
    <path id="パス_639" data-name="パス 639" d="M260.28,323.44l.991,2.786a27.577,27.577,0,0,1-5.975,1.579c-.588,2.075-.867,3.1-1.734,5.481a73.924,73.924,0,0,1-5.232,11.983,8.637,8.637,0,0,0-2.787-1.765,68,68,0,0,0,6.44-15.326c-2.044.155-2.972.217-5.263.217l-.031-3.066a57.18,57.18,0,0,0,6.192-.247,40.49,40.49,0,0,0,1.208-6.069l3.344.836c.248.062.433.217.433.372,0,.217-.124.341-.588.557-.341,1.3-.743,2.942-1.084,3.87a27.256,27.256,0,0,0,4.087-1.208m.062,14.057a4.512,4.512,0,0,0-1.146,2.694c0,1.208,1.114,1.517,5.6,1.517a26.767,26.767,0,0,0,5.852-.681,13.9,13.9,0,0,0-.31,3.313,40.53,40.53,0,0,1-5.728.4,25.858,25.858,0,0,1-5.852-.5,3.52,3.52,0,0,1-2.663-3.592c0-1.486.557-2.693,2.013-4.458Zm-3.1-6.874a26.684,26.684,0,0,1,9.258-1.579c.65,0,1.641.031,2.911.093l-.124,3c-2.384-.093-2.694-.093-3.1-.093a26.923,26.923,0,0,0-8.2,1.362Z" transform="translate(4659.182 1447.619)" fill="#fff"/>
    <path id="パス_640" data-name="パス 640" d="M244.228,385.179a26.474,26.474,0,0,1,3.87,4.056l-2.415,1.92a26.167,26.167,0,0,0-3.561-4.087Zm6.873,8.081a78.187,78.187,0,0,1-4.644,9.784c-.4.806-.588,1.177-.929,1.951v.217c0,.248-.123.433-.309.433-.124,0-.155-.062-.4-.279l-2.2-1.827a57.677,57.677,0,0,0,6.1-11.858Zm-4.242-15.327a24.919,24.919,0,0,1,3.685,3.9l-2.477,1.889a23.685,23.685,0,0,0-3.406-4.056Zm4.83,17.494c0-.991-.062-2.2-.093-2.756,1.084.062,2.013.062,3.406.062h10.9c1.393,0,2.322,0,3.406-.062-.031.558-.062,1.765-.062,2.756v6.688c.836-.03,1.641-.062,2.477-.062v3.034c-1.331-.062-3.53-.093-4.954-.093h-13.5c-1.579,0-3.623.031-4.923.093v-3.034l3.344.093Zm3.716-3.871h-3.034c.062-.712.093-1.765.093-3.282v-6.75c0-.991-.062-2.2-.093-2.756,1.084.031,2.013.062,3.406.062h9.351c1.393,0,2.353-.03,3.406-.062-.031.557-.062,1.765-.062,2.756v6.719c0,1.456.031,2.508.062,3.221H265.5v-.713H255.4Zm1.208,3.994h-2.106v6.6h2.106Zm8.886-13.964H255.4v1.827H265.5Zm0,4.645-10.094-.124V388H265.5Zm-4.118,9.32H259.43v6.6h1.951Zm5.016,0h-2.2v6.6h2.2Z" transform="translate(4660.837 1419.105)" fill="#fff"/>
    <path id="パス_641" data-name="パス 641" d="M262.934,439.063c.341.062.526.248.526.464s-.124.341-.526.557c-.743,3.5-1.146,5.326-1.455,7.091-.836,4.52-.929,5.016-1.084,5.883-.186.991-.248,1.27-.31,1.61h.588c.9,0,1.486.061,1.548.061.464,0,1.208,0,1.889-.03l-.65,3.158c-1.61-.031-2.013-.031-3.778-.186-.031.5-.062.774-.062,1.238a6.551,6.551,0,0,0,.372,2.446c.4.96,1.61,1.517,3.251,1.517,2.787,0,4.335-1.548,4.335-4.273,0-2.539-1.022-4.613-3.932-8.019a11.766,11.766,0,0,0,2.508-1.919c2.446,2.755,3.344,4.056,4.025,5.821a11.065,11.065,0,0,1,.836,4.273c0,4.676-2.787,7.184-7.988,7.184-4.614,0-6.657-2.106-6.657-6.812a16.538,16.538,0,0,1,.124-1.858c-3.376-.557-4.892-1.826-4.892-4.056,0-1.053.464-1.951,1.641-3.282l2.26,1.61c-.589.65-.774.991-.774,1.393,0,.588.866,1.084,2.229,1.3.217-1.145.712-3.9.867-4.923-2.786-.836-4.242-1.672-5.728-3.406l1.982-2.167a9.627,9.627,0,0,0,4.459,2.384,47.869,47.869,0,0,0,.991-7.71Z" transform="translate(4656.25 1389.837)" fill="#fff"/>
    <path id="パス_642" data-name="パス 642" d="M260.595,498.435a.5.5,0,0,1,.4.464c0,.186-.155.31-.619.5a36.878,36.878,0,0,0-1.424,9.01c0,.341-.031.465-.031,1.084h.124c1.424-5.573,3.963-8.731,7.059-8.731,3.282,0,5.078,3.1,5.078,8.793q0,7.663-3.53,12.075c-1.517,1.889-3.065,3-6.13,4.4a13.231,13.231,0,0,0-1.641-2.88c3-1.548,3.5-1.888,4.645-3.1,2.229-2.384,3.313-5.852,3.313-10.589,0-3.932-.65-5.914-1.982-5.914-.866,0-1.7.774-2.755,2.509a28.554,28.554,0,0,0-2.539,7.152,20.143,20.143,0,0,0-.279,3.065,6.937,6.937,0,0,0,.093.96L257.1,518a28.258,28.258,0,0,1-1.115-8.732,37.545,37.545,0,0,1,.867-8.019c.217-1.177.279-1.672.341-2.136.093-.805.155-1.27.155-1.362Z" transform="translate(4654.13 1361.12)" fill="#fff"/>
    <path id="パス_643" data-name="パス 643" d="M261.425,562a33.779,33.779,0,0,0,.681,8.02c1.7-.743,2.756-1.177,3.127-1.363a19.063,19.063,0,0,0,3.065-1.517l2.013,2.508c.155.186.248.31.248.4,0,.248-.217.309-1.022.309-1.145.465-2.074.836-2.662,1.053-6.224,2.384-6.781,2.632-8.484,3.932a4.216,4.216,0,0,0-1.826,3.344c0,2.013,1.517,2.786,5.573,2.786a34.936,34.936,0,0,0,8.824-.991,33.806,33.806,0,0,0-.124,3.654,53.742,53.742,0,0,1-7.833.5,22.836,22.836,0,0,1-5.481-.526c-2.849-.774-4.242-2.446-4.242-5.2,0-2.973,2.044-5.6,5.914-7.586-.712-2.229-.774-2.756-1.084-8.731-.031-.867-.093-1.486-.217-2.973l3.437.155a.458.458,0,0,1,.5.371c0,.186-.124.372-.4.588Z" transform="translate(4655.437 1331.183)" fill="#fff"/>
  </g>
</svg>
