<svg xmlns="http://www.w3.org/2000/svg" width="39.081" height="339.974" viewBox="0 0 39.081 339.974">
  <g id="グループ_200" data-name="グループ 200" transform="translate(-4984.439 -3048)">
    <rect id="長方形_261" data-name="長方形 261" width="39.081" height="339.974" transform="translate(4984.439 3048)"/>
    <path id="パス_787" data-name="パス 787" d="M364.641,32.134c.225.289.257.354.257.482,0,.258-.193.386-.547.386h-.418a23.349,23.349,0,0,0-5.082.675,11.63,11.63,0,0,0-4.663,2.862,5.884,5.884,0,0,0-1.512,4.116c0,2.959,2.155,4.309,6.883,4.309.578,0,1.511,0,3.023-.032a7.641,7.641,0,0,0-.868,3.248l-1.19.033a15.6,15.6,0,0,1-6.979-1,6.471,6.471,0,0,1-4.117-6.336,8.412,8.412,0,0,1,2.927-6.432,99.674,99.674,0,0,0-10.935,2.991l-1.061-3.248c2.7-.675,3.216-.868,4.6-1.769a47.2,47.2,0,0,0,9.424-8.2c-1.608.353-5.564,1.286-7.88,1.865l-1.029-3.505c2.7-.193,4.245-.354,7.622-.8,2.8-.354,2.991-.418,3.859-.868l2.091,1.8c.353.322.385.354.385.546,0,.289-.064.322-.8.579a43.925,43.925,0,0,1-7.075,7.171c-.836.676-1.029.837-1.576,1.319l.032.129c7.107-1.351,9.712-1.93,12.8-2.766Z" transform="translate(4650.819 3038.299)" fill="#fff"/>
    <path id="パス_788" data-name="パス 788" d="M348.319,93.3c.708-.837.868-1.029,3.344-3.859,2.509-2.895,3.506-3.506,5.628-3.506,2.38,0,3.8,1.286,3.8,3.474,0,.739-.064,1.64-.161,2.637-.064.8-.386,4.374-.482,5.274-.354,2.894-.482,3.988-.482,4.792,0,.868.193,1.029.9,1.029a3.967,3.967,0,0,0,2.509-1.19,9.985,9.985,0,0,0,2.508-3.57,16.949,16.949,0,0,0,2.412,2.38,10.524,10.524,0,0,1-4.728,4.985,7.32,7.32,0,0,1-3.344.74c-2.605,0-3.7-1.094-3.7-3.57,0-1.512,0-1.962.9-10.066.1-1.029.257-2.83.257-3.184,0-.515-.257-.836-.708-.836-1.158,0-2.573,1.19-4.953,4.084-1.383,1.7-1.768,2.187-3.73,4.5.064,7.783.064,8.393.161,10.419l-3.634.1c.1-1.383.1-1.641.225-7.462-1.222,1.7-2.123,2.862-2.8,3.7-.708.868-.933,1.157-1.383,1.768l-2.058-3.023a61.1,61.1,0,0,0,6.336-7.558c.032-.9.032-1.641.032-2.091s.032-.933.032-1.383c-.257.1-.322.1-.868.289a39.626,39.626,0,0,0-3.859,1.448l-1.158-3.281a44.061,44.061,0,0,0,5.886-1.511V85.9a40.256,40.256,0,0,0-.161-4.631l3.537.257c.258.032.419.128.419.322,0,.129-.064.192-.419.45l-.16,3.281c-.032.9-.032,1.479-.032,1.769a3.832,3.832,0,0,0,.8-.708l1.383,1.866c.193.289.257.321.257.45,0,.225-.194.354-.74.45-.322.354-.483.547-1.19,1.286a5.162,5.162,0,0,1-.579.611Z" transform="translate(4651.544 3010.293)" fill="#fff"/>
    <path id="パス_789" data-name="パス 789" d="M364.641,150.242c.225.289.257.354.257.482,0,.257-.193.386-.547.386h-.418a23.355,23.355,0,0,0-5.082.675,11.63,11.63,0,0,0-4.663,2.862,5.885,5.885,0,0,0-1.511,4.117c0,2.959,2.154,4.309,6.882,4.309.578,0,1.511,0,3.023-.032a7.644,7.644,0,0,0-.869,3.248l-1.19.033a15.609,15.609,0,0,1-6.979-1,6.47,6.47,0,0,1-4.116-6.335,8.412,8.412,0,0,1,2.926-6.432,99.706,99.706,0,0,0-10.935,2.991l-1.061-3.248c2.7-.675,3.216-.868,4.6-1.768a47.208,47.208,0,0,0,9.423-8.2c-1.608.353-5.564,1.286-7.88,1.864l-1.029-3.505c2.7-.192,4.245-.354,7.622-.8,2.8-.354,2.991-.418,3.859-.868l2.091,1.8c.353.322.385.354.385.547,0,.289-.064.322-.8.579a46.689,46.689,0,0,1-7.076,7.172c-1.029.837-1.286,1.061-1.576,1.319l.032.129c7.108-1.351,9.712-1.93,12.8-2.766ZM362.1,139.725a20.6,20.6,0,0,1,4.052,3.216l-1.608,1.769a18.51,18.51,0,0,0-3.859-3.312Zm2.477-2.894a20.76,20.76,0,0,1,4.085,3.216l-1.608,1.769a17.932,17.932,0,0,0-3.892-3.344Z" transform="translate(4650.82 2984.515)" fill="#fff"/>
    <path id="パス_790" data-name="パス 790" d="M348.319,213.3c.708-.837.868-1.029,3.344-3.859,2.509-2.895,3.506-3.506,5.628-3.506,2.38,0,3.8,1.286,3.8,3.473,0,.739-.064,1.64-.161,2.637-.064.8-.386,4.374-.482,5.274-.354,2.894-.482,3.988-.482,4.792,0,.868.193,1.029.9,1.029a3.967,3.967,0,0,0,2.509-1.19,9.985,9.985,0,0,0,2.508-3.57,16.949,16.949,0,0,0,2.412,2.38,10.524,10.524,0,0,1-4.728,4.985,7.32,7.32,0,0,1-3.344.74c-2.605,0-3.7-1.094-3.7-3.57,0-1.512,0-1.962.9-10.066.1-1.029.257-2.83.257-3.184,0-.515-.257-.836-.708-.836-1.158,0-2.573,1.19-4.953,4.084-1.383,1.7-1.768,2.187-3.73,4.5.064,7.783.064,8.393.161,10.419l-3.634.1c.1-1.383.1-1.641.225-7.462-1.222,1.7-2.123,2.862-2.8,3.7-.708.868-.933,1.157-1.383,1.768l-2.058-3.023a61.1,61.1,0,0,0,6.336-7.558c.032-.9.032-1.641.032-2.091s.032-.933.032-1.383c-.257.1-.322.1-.868.289a39.628,39.628,0,0,0-3.859,1.448l-1.158-3.281a44.059,44.059,0,0,0,5.886-1.511V205.9a40.257,40.257,0,0,0-.161-4.631l3.537.257c.258.032.419.128.419.322,0,.129-.064.192-.419.45l-.16,3.281c-.032.9-.032,1.479-.032,1.769a3.832,3.832,0,0,0,.8-.708l1.383,1.866c.193.289.257.321.257.45,0,.225-.194.354-.74.45-.322.354-.483.547-1.19,1.286a5.162,5.162,0,0,1-.579.611Z" transform="translate(4651.544 2954.618)" fill="#fff"/>
    <path id="パス_791" data-name="パス 791" d="M352.124,260.018c.257.064.418.225.418.418,0,.225-.161.354-.643.579-.772,2.091-1.157,3.184-1.382,3.666a17.022,17.022,0,0,0,3.891-1.415l1.319,2.862a23.18,23.18,0,0,1-6.368,1.865c-.579,1.575-1.576,4.02-2.734,6.528a48.132,48.132,0,0,1-3.184,6.015c-.643,1.093-1.126,1.865-1.415,2.347a8.339,8.339,0,0,0-2.927-1.833,56.084,56.084,0,0,0,6.851-12.832,14.452,14.452,0,0,1-2.251.128c-.9,0-1.608-.032-3.152-.128l-.064-3.281a24.151,24.151,0,0,0,3.892.289c.9,0,1.447-.032,2.669-.128a35.706,35.706,0,0,0,1.672-6.111Zm7.011,12.639c-1,.676-1.254,1.061-1.254,2.026a17.858,17.858,0,0,0,.225,2.605c.1.675.129.868.225,1.865.032.386.064.514.064.643a31.173,31.173,0,0,1,7.139,4.342,10.425,10.425,0,0,0-2.284,2.541,21.436,21.436,0,0,0-4.792-3.538c-.289,3.184-2.155,4.664-5.982,4.664-3.505,0-5.789-1.769-5.789-4.534s2.347-4.728,5.789-4.728a8.843,8.843,0,0,1,2.637.354c-.1-.772-.1-1-.193-1.833-.1-.74-.161-2.091-.161-2.476,0-1.769.611-2.8,2.348-3.988Zm-6.883,8.684c-1.479,0-2.509.739-2.509,1.833s.965,1.705,2.831,1.705a2.64,2.64,0,0,0,2.347-.9,4.105,4.105,0,0,0,.354-2.123,9.035,9.035,0,0,0-3.023-.514m5.114-14.762a21.222,21.222,0,0,1,8.49,3.184l-1.7,2.895a17.789,17.789,0,0,0-7.686-3.281Z" transform="translate(4651.404 2927.839)" fill="#fff"/>
    <path id="パス_792" data-name="パス 792" d="M347.311,320.724c.45.033.675.161.675.418,0,.226-.225.451-.772.676,0,.868-.032,2.991-.064,6.368,5.821-.836,7.075-1,7.4-1.061-.161-5.017-.193-6.239-.322-7.912l3.345.129a.464.464,0,0,1,.482.418c0,.161-.129.322-.482.547.032,1.254.064,1.864.1,4.051,0,.194,0,.837.032,2.252,3.377-.547,4.213-.675,7.429-1.383l.418,3.473c-1.061.161-2.959.418-7.815,1.094.032,1.222.032,1.865.032,1.961,0,3.377-.611,5.275-1.93,5.982a6.246,6.246,0,0,1-2.669.515,23.506,23.506,0,0,1-2.765-.161,17.786,17.786,0,0,0-.45-3.505,23.446,23.446,0,0,0,2.958.225c1.479,0,1.544-.225,1.641-4.535-.065,0-2.541.354-7.462,1.061v2.669l.032,1.029c.129,4.567.129,5.049.9,5.661.643.515,2.669.8,5.66.8a61.4,61.4,0,0,0,8.1-.612,14.426,14.426,0,0,0-.45,3.474c-3.12.257-5.307.353-8.234.353-4.92,0-6.979-.482-8.137-1.961-.9-1.158-1.19-2.606-1.158-7.108l.032-3.763c-.161.032-.225.032-.418.065-.932.16-1.094.192-3.184.546-1.318.225-1.608.258-3.473.612l-.482-3.538c2.154-.161,2.8-.257,7.558-.9V327.9c0-.385.032-1.479.064-3.055.032-2.348.032-2.637.064-4.309Zm13.282-1.447a20.6,20.6,0,0,1,4.052,3.216l-1.576,1.769a18.722,18.722,0,0,0-3.892-3.345Zm2.509-2.927a21.579,21.579,0,0,1,4.052,3.216l-1.608,1.769a18.376,18.376,0,0,0-3.859-3.313Z" transform="translate(4652.712 2901.225)" fill="#fff"/>
    <path id="パス_793" data-name="パス 793" d="M346.621,393.781c.418.258.515.354.515.579,0,.322-.129.386-1.029.45a23.723,23.723,0,0,1-8.458,7.462,9.507,9.507,0,0,0-1.608-2.477,21.788,21.788,0,0,0,8.137-7.461Zm-3.859-8.329c0-2.573,0-3.923-.1-4.824l3.345.193c.354.032.547.161.547.322,0,.193-.161.386-.611.643v6.625h4.5v-7.269c0-1.479-.033-1.865-.065-2.991l3.248.225c.386.032.579.128.579.321s-.161.386-.612.644v2.733H360c.933,0,2.283-.032,3.184-.064V385.1c-.9-.032-2.251-.064-3.184-.064h-6.4v3.377h5.982c2.026,0,4.792-.065,6.432-.129V391.5c-1.737-.1-4.471-.129-6.432-.129h-6.368v3.506c0,.547,0,1.351.032,2.284.032.643.032,1.029.032,1.286,0,2.8-1.061,3.409-5.853,3.409h-.8a11.547,11.547,0,0,0-.611-3.409,21.591,21.591,0,0,0,2.284.129c1.672,0,1.769-.064,1.769-1.351v-5.854H342.7c-1.769,0-4.664.033-6.4.129v-3.216c1.64.064,4.567.129,6.4.129h.064Zm17.849,13.6c.354.257.45.354.45.546,0,.322-.225.386-1.061.419a25.734,25.734,0,0,1-9.68,5.6,43.991,43.991,0,0,1-12.9,2.348,13.73,13.73,0,0,0-.772-3.055c6.014-.386,8.812-.837,12.671-2.091a22.366,22.366,0,0,0,8.908-5.338Zm-2.669-6.658a31.982,31.982,0,0,1,8.394,6.111l-2.284,2.348c-3.055-3.152-3.344-3.377-7.783-6.3Z" transform="translate(4652.824 2872.552)" fill="#fff"/>
    <path id="パス_794" data-name="パス 794" d="M342.813,460.619a6.539,6.539,0,0,0,2.927,2.284c2.444,1.094,4.278,1.383,9.584,1.383,3.6,0,7.976-.129,10.549-.289a11.647,11.647,0,0,0-.611,3.151c-4.792.1-7.332.129-11.128.129a22,22,0,0,1-9.391-1.7,7.834,7.834,0,0,1-3.088-2.348,33.457,33.457,0,0,1-2.669,2.605c-.226.193-.579.514-1,.933-.161.515-.289.707-.482.707a.648.648,0,0,1-.45-.289l-1.736-2.412a36.237,36.237,0,0,0,4.438-3.313v-7.332h-.868c-.836,0-2.251.032-3.023.1V451.1c.74.064,2.091.064,3.023.064h1.029c1.672,0,2.251,0,2.959-.064-.032.579-.064,1.19-.064,2.862ZM338.6,439.49a23.26,23.26,0,0,1,4.406,4.759l-2.476,1.994a31.286,31.286,0,0,0-3.955-4.856Zm17.142,5.5c-.257.675-.482,1.35-.772,2.026h5.049c1.094,0,1.865-.032,2.733-.064-.1,1.189-.1,2.476-.1,5.114v4.76c0,2.54.032,4.438.1,5.66h-3.184v-.74h-9.649v1.191h-3.184c.064-1.286.1-3.184.1-5.66v-5.21c0-1.93-.032-4.085-.1-5.114.868.032,1.64.064,2.734.064h2.412c.225-.675.386-1.351.547-2.026H348.12c-1.351,0-3.152.032-4.5.064v-3.088c1.254.033,3.088.064,4.5.064h1.672a14.917,14.917,0,0,0-1.865-2.6l2.251-1.576a14.582,14.582,0,0,1,2.734,3.538l-.933.643h3.7a29.67,29.67,0,0,0,1.962-4.181l3.023,1.383a.45.45,0,0,1,.289.354c0,.225-.257.354-.868.418l-1.222,2.026h1.9c1.286,0,3.377-.032,4.5-.064v3.088c-1.19-.032-3.281-.064-4.5-.064Zm3.827,4.792h-9.649V451.1h9.649Zm-9.649,5.21h9.649V453.64h-9.649Zm0,3.988h9.649v-1.447h-9.649Z" transform="translate(4653.158 2844.854)" fill="#fff"/>
    <path id="パス_795" data-name="パス 795" d="M342.329,509.98a21.1,21.1,0,0,1,2.959,3.57l-1.8,2.412q-.579-1.206-1.158-2.219v4.7c0,4.213.064,7.333.161,9.391h-3.248c.1-2.091.161-5.243.161-9.391V515.7a25.616,25.616,0,0,1-2.733,5.788,13.624,13.624,0,0,0-1.769-3.055,26.09,26.09,0,0,0,3.184-7.108c.45-1.511.708-2.54.965-3.731h-.836c-.868,0-1.9.033-2.572.065v-3.055c.707.032,1.865.065,2.572.065h1.19c-.032-3.57-.1-5.789-.193-6.593l3.281.257c.289.033.482.129.482.322,0,.161-.161.354-.579.611-.032.933-.032,1.094-.064,5.4h.836c.675,0,1.833-.033,2.573-.065v3.055c-.708-.032-1.7-.065-2.573-.065h-.836Zm7.879.643a31.328,31.328,0,0,1-4.052,3.569,6.785,6.785,0,0,0-1.512-2.637c3.151-2.379,3.924-3.087,5.435-5.081a5.508,5.508,0,0,1,.353-.45h-.128c-1.061,0-2.862.032-3.827.1v-2.862c.965.032,2.605.064,3.827.064h1.8c.193-.386.515-1.029.708-1.447-1.64.161-3.345.353-5.145.482a9.108,9.108,0,0,0-.74-2.54,83.887,83.887,0,0,0,14.472-2.026l2.058,1.8c.192.161.289.289.289.386,0,.192-.193.289-.643.289h-.45c-2.22.515-4.471.868-6.722,1.19-.257.643-.482,1.254-.772,1.865h6.561c1.223,0,2.895-.032,3.859-.064v2.862c-1-.064-2.8-.1-3.859-.1h-.868a14.78,14.78,0,0,0,5.564,5.049,10.155,10.155,0,0,0-1.833,2.6,20.412,20.412,0,0,1-3.859-3.377v.611c0,1.222.032,2.348.1,3.024h-2.669v-.612h-5.371v.868h-2.669c.064-.707.1-1.833.1-3.119Zm-3.73,6.947c0-1.029-.064-2.251-.1-2.83.708.032,1.383.064,2.316.064h13.346c.933,0,1.608-.032,2.316-.064-.032.578-.064,1.672-.064,2.6v2.927c0,.965.032,2.155.064,3.28,0,.289.032,1.029.032,1.351,0,2.348-1,2.894-5.274,2.894a8.5,8.5,0,0,0-.579-2.733c.9.032,1.158.032,1.64.032,1.061,0,1.223-.192,1.223-1.35v-6.336H349.34v10.421h-2.958c.064-.772.1-1.833.1-3.441Zm7.107,7.654h-2.573c.064-.771.1-1.833.1-3.409v-.868c0-.675-.033-1.994-.1-2.477.708.032,1.383.064,2.316.064h4.117c.933,0,1.608-.032,2.316-.064-.064.482-.1,1.8-.1,2.477v.772c0,1.029.032,2.219.1,2.862h-2.573v-.643h-3.6Zm5.178-17.752c-.257-.482-.482-.965-.708-1.447h-4.31c-.322.482-.675.965-1,1.447Zm-.611,2.187h-5.371V511.2h5.371Zm-.965,11h-3.6v1.254h3.6Z" transform="translate(4653.353 2817.043)" fill="#fff"/>
    <path id="パス_796" data-name="パス 796" d="M346.244,562.606c.354.064.579.289.579.547,0,.353-.225.547-.868.771-1.222,6.786-1.383,8.362-1.383,12.157a25.183,25.183,0,0,0,1.608,9.616,21.3,21.3,0,0,0-3.281,1.222,30.875,30.875,0,0,1-1.64-10.839c0-3.473.225-5.789,1.254-12.317a12.952,12.952,0,0,0,.225-1.833Zm7.365,13.572a4.059,4.059,0,0,0-1.157,2.509c0,1.672,1.9,2.379,6.4,2.379a28.479,28.479,0,0,0,7.622-.9,26.145,26.145,0,0,0-.418,3.8,47.577,47.577,0,0,1-6.979.482,21.39,21.39,0,0,1-6.368-.708,4.483,4.483,0,0,1-3.474-4.535c0-1.512.45-2.572,1.9-4.534Zm-3.634-10.1a34.684,34.684,0,0,1,9.873-1.319,41.794,41.794,0,0,1,5.564.354l-.515,3.152c-.579-.032-1.029-.064-1.319-.1-1.994-.16-2.927-.193-4.7-.193a22.9,22.9,0,0,0-8.2,1.319Z" transform="translate(4650.402 2787.284)" fill="#fff"/>
  </g>
</svg>
