<svg xmlns="http://www.w3.org/2000/svg" width="39.081" height="354.577" viewBox="0 0 39.081 354.577">
  <g id="グループ_205" data-name="グループ 205" transform="translate(-4148.74 -3494)">
    <rect id="長方形_264" data-name="長方形 264" width="39.081" height="354.577" transform="translate(4148.74 3494)"/>
    <path id="パス_816" data-name="パス 816" d="M43.2,36.652H40.309V30.831H18.633V27.647H43.2Z" transform="translate(4140.095 3481.173)" fill="#fff"/>
    <path id="パス_817" data-name="パス 817" d="M24.338,52.2c.257.064.418.225.418.418,0,.225-.161.354-.643.579-.772,2.091-1.157,3.184-1.382,3.666a17.022,17.022,0,0,0,3.891-1.415l1.319,2.862a23.179,23.179,0,0,1-6.368,1.865C20.993,61.75,20,64.194,18.839,66.7a48.13,48.13,0,0,1-3.184,6.015c-.643,1.093-1.126,1.865-1.415,2.347a8.339,8.339,0,0,0-2.927-1.833A56.085,56.085,0,0,0,18.164,60.4a14.452,14.452,0,0,1-2.251.128c-.9,0-1.608-.032-3.152-.128L12.7,57.118a24.15,24.15,0,0,0,3.892.289c.9,0,1.447-.032,2.669-.128a35.708,35.708,0,0,0,1.672-6.111ZM31.35,64.837c-1,.676-1.254,1.061-1.254,2.026a17.857,17.857,0,0,0,.225,2.605c.1.675.129.868.225,1.865.032.386.064.514.064.643a31.174,31.174,0,0,1,7.139,4.342,10.425,10.425,0,0,0-2.284,2.541,21.436,21.436,0,0,0-4.792-3.538c-.289,3.184-2.155,4.664-5.982,4.664-3.505,0-5.789-1.769-5.789-4.534s2.347-4.728,5.789-4.728a8.842,8.842,0,0,1,2.637.354c-.1-.772-.1-1-.193-1.833-.1-.74-.161-2.091-.161-2.476,0-1.769.611-2.8,2.348-3.988Zm-6.883,8.684c-1.479,0-2.509.739-2.509,1.833s.965,1.705,2.831,1.705a2.64,2.64,0,0,0,2.347-.9,4.1,4.1,0,0,0,.354-2.123,9.035,9.035,0,0,0-3.023-.514m5.114-14.762a21.222,21.222,0,0,1,8.49,3.184l-1.7,2.895a17.788,17.788,0,0,0-7.686-3.281Z" transform="translate(4143.491 3470.26)" fill="#fff"/>
    <path id="パス_818" data-name="パス 818" d="M18.458,114.785c.354.064.579.289.579.546,0,.354-.225.547-.868.772-1.222,6.786-1.383,8.362-1.383,12.157a25.184,25.184,0,0,0,1.608,9.616,21.318,21.318,0,0,0-3.281,1.222,30.877,30.877,0,0,1-1.64-10.839c0-3.473.225-5.789,1.254-12.317a12.937,12.937,0,0,0,.225-1.833Zm7.365,13.572a4.059,4.059,0,0,0-1.157,2.509c0,1.672,1.9,2.379,6.4,2.379a28.458,28.458,0,0,0,7.622-.9,26.153,26.153,0,0,0-.418,3.795,47.5,47.5,0,0,1-6.979.483,21.39,21.39,0,0,1-6.368-.708,4.483,4.483,0,0,1-3.474-4.534c0-1.512.45-2.573,1.9-4.535Zm-3.634-10.1a34.664,34.664,0,0,1,9.873-1.319,41.8,41.8,0,0,1,5.564.354l-.515,3.152c-.579-.032-1.029-.064-1.319-.1-1.994-.16-2.927-.193-4.7-.193a22.9,22.9,0,0,0-8.2,1.319Z" transform="translate(4142.489 3441.058)" fill="#fff"/>
    <path id="パス_819" data-name="パス 819" d="M23.99,172.113c.289.064.482.257.482.45,0,.258-.192.418-.739.579-.74,2.476-1.094,3.666-1.608,5.275a1.819,1.819,0,0,0,.386-.033,12.559,12.559,0,0,1,2.154-.225,4.538,4.538,0,0,1,3.055,1.254,4.036,4.036,0,0,1,1.222,3.216,31.191,31.191,0,0,1-2.219,11,4.981,4.981,0,0,1-5.081,3.409,15.475,15.475,0,0,1-3.634-.482c.129-.868.257-2.6.289-3.505a10.617,10.617,0,0,0,3.313.643c1.415,0,2.09-.74,2.765-3.119a30.086,30.086,0,0,0,1.19-7.461c0-1.351-.482-1.995-1.511-1.995a17.9,17.9,0,0,0-2.927.387,64.147,64.147,0,0,1-3.313,8.168,55.14,55.14,0,0,1-4.6,7.751,7.438,7.438,0,0,0-2.862-1.9,42.083,42.083,0,0,0,4.92-7.783c.643-1.35,1.865-4.213,2.348-5.628-1.9.354-3.988.74-6.175,1.158L11,179.8c2.091-.128,4.76-.418,7.719-.868a60.246,60.246,0,0,0,1.9-7.461Zm7.751,5.5a23.874,23.874,0,0,1,8.233,7.461l-2.734,2.476a21.877,21.877,0,0,0-7.429-7.429Z" transform="translate(4143.937 3414.445)" fill="#fff"/>
    <path id="パス_820" data-name="パス 820" d="M8.434,229.252H11.3v5.821H33v3.184H8.434Z" transform="translate(4144.827 3387.636)" fill="#fff"/>
    <path id="パス_821" data-name="パス 821" d="M31.359,273.413a34.041,34.041,0,0,1-8.233,1.8c-.386.837-.643,1.416-1,2.058a4.729,4.729,0,0,0-.289.515,5.878,5.878,0,0,1,2.895-.74,3.952,3.952,0,0,1,4.148,3.859c4.792-2.637,5.725-3.184,7.976-4.631l2.026,2.251a.937.937,0,0,1,.257.547c0,.225-.161.353-.45.353a3.9,3.9,0,0,1-.579-.032c-1.93,1.061-2.637,1.415-5.693,3.023-1.158.611-3.055,1.608-3.506,1.865v5.66H25.667v-3.859a4.01,4.01,0,0,1-.515.289c-1.833,1.029-2.766,2.155-2.766,3.377,0,1.479.965,1.833,4.856,1.833a43.63,43.63,0,0,0,8.877-.836,24.9,24.9,0,0,0-.322,3.474,57.009,57.009,0,0,1-8.234.547c-4.116,0-5.692-.289-6.979-1.254a4.068,4.068,0,0,1-1.64-3.505c0-2.058.9-3.634,2.927-5.114a18.375,18.375,0,0,1,3.055-1.833c.386-.193.644-.354.74-.386v-.257a3.569,3.569,0,0,0-.322-1.833,1.727,1.727,0,0,0-1.479-.74,6.156,6.156,0,0,0-4.245,2.444,29.5,29.5,0,0,0-2.541,3.57l-2.7-1.962c.354-.482.483-.708,2.187-3.088a39.154,39.154,0,0,0,2.991-5.371c-.643.033-1.126.033-1.769.033-1.254,0-1.962-.033-3.409-.129l-.064-3.055c1.608.129,2.444.16,3.473.16.418,0,2.219-.032,3.152-.064a42.611,42.611,0,0,0,1.9-5.692l3.281.836a.409.409,0,0,1,.321.354c0,.193-.193.354-.611.515-.289.707-.386,1.061-.772,1.993-.193.483-.289.74-.482,1.287a2.615,2.615,0,0,0-.161.45,34.152,34.152,0,0,0,5.982-1.447Z" transform="translate(4142.099 3370.265)" fill="#fff"/>
    <path id="パス_822" data-name="パス 822" d="M14.662,339.03c1-.578,1.962-1.157,2.894-1.769l1,2.67c-1.447.964-2.669,1.768-3.891,2.509v1.222c0,1.191,0,3.216.032,5.564,0,.643.032,1.254.032,1.608,0,1.7-.128,2.476-.514,2.991-.74,1-2.026,1.286-5.661,1.318a12.756,12.756,0,0,0-.708-3.409c1.061.1,1.672.129,2.38.129,1.222,0,1.351-.129,1.351-1.351v-6.3c-.515.258-1.061.547-1.608.837l-.129.418c-.1.257-.225.386-.45.386a.519.519,0,0,1-.45-.289l-1.7-2.959c1.415-.547,2.895-1.222,4.342-1.93v-4.985H10.514c-.868,0-1.9.032-2.573.064v-3.055c.708.032,1.865.064,2.573.064h1.061c-.032-3.988-.1-6.432-.193-7.269l3.441.225c.289.033.482.161.482.322,0,.193-.161.354-.579.612-.064,1.286-.064,3.73-.064,6.11h.515c.675,0,1.833-.032,2.541-.064v3.055c-.676-.032-1.673-.064-2.541-.064h-.515Zm13.861,11.546c0,2.187,0,3.763.064,4.7H25.34c.064-1.126.1-2.6.1-4.7v-3.859a24.834,24.834,0,0,1-8.78,7.461,12.356,12.356,0,0,0-1.64-2.7,22.794,22.794,0,0,0,8.522-6.979H20.644c-1.061,0-2.894.032-3.859.064v-3.088c.965.032,2.605.065,3.859.065h4.792c0-1.9-.032-3.024-.1-3.764l3.248.194c.354.032.547.161.547.321,0,.194-.16.387-.611.644v2.605h5.531c1.222,0,2.862-.033,3.827-.065v3.088c-.965-.032-2.766-.064-3.827-.064h-4.02a17.734,17.734,0,0,0,2.991,3.313,20.811,20.811,0,0,0,5.532,3.569,20.181,20.181,0,0,0-1.833,2.7,22.4,22.4,0,0,1-5.821-4.374,19.4,19.4,0,0,1-2.379-2.927Zm-1.7-19.907c.289.064.418.16.418.354,0,.225-.129.321-.483.482l-.385.161a9.939,9.939,0,0,1-2.026,5.146,12.417,12.417,0,0,1-4.245,3.376,13.266,13.266,0,0,0-1.865-2.444c2.379-1.287,3.344-2.058,4.213-3.345a8.372,8.372,0,0,0,1.286-4.342Zm-5.4-1.094v1.415c0,1,.032,1.9.064,2.476H18.328c.032-.579.064-1.8.064-2.476v-1.672c0-.643-.032-2.026-.064-2.573,1.094.033,2.058.033,3.506.033H33.8c1.447,0,2.444,0,3.506-.033-.032.547-.032,1.769-.032,2.445v1.479c0,.868,0,1.318.032,1.672H34.152c.032-.386.064-1.158.064-1.672v-1.094Zm13.668,3.7a9.13,9.13,0,0,0,2.766.8c-.032,3.7-.354,3.955-4.889,3.955-2.219,0-2.991-.064-3.6-.385a2.062,2.062,0,0,1-1.061-2.123v-3.28c0-.836,0-1.544-.032-2.058l2.958.225c.386.033.611.129.611.322,0,.161-.192.354-.611.611v2.734c0,1.286.032,1.286,2.669,1.286.965,0,1.094-.161,1.158-1.254,0-.194.032-.579.032-.837" transform="translate(4145.384 3342.985)" fill="#fff"/>
    <path id="パス_823" data-name="パス 823" d="M24.717,389.29c.354.033.611.193.611.45,0,.225-.129.354-.547.643-.129,2.637-.482,15.534-.482,17.206,0,2.669.965,3.634,3.666,3.634a11.031,11.031,0,0,0,5.66-1.672c2.348-1.351,3.666-2.573,5.95-5.6a9.83,9.83,0,0,0,2.091,3.088,21.1,21.1,0,0,1-6.239,5.531,15.607,15.607,0,0,1-7.847,2.155c-2.541,0-4.535-.771-5.6-2.187a7.83,7.83,0,0,1-1.19-4.824c0-.868.032-1.608.193-5.725.1-2.83.161-6.014.161-9.231,0-1.447-.032-2.6-.1-3.73Z" transform="translate(4139.093 3313.503)" fill="#fff"/>
    <path id="パス_824" data-name="パス 824" d="M11.4,462.684c.257.032.385.161.385.354,0,.257-.322.418-.482.546a32.537,32.537,0,0,1-1.254,8.329,12.352,12.352,0,0,0-2.573-1.093,24.761,24.761,0,0,0,1.158-8.137v-.45Zm5.982-1.512c-.161-.611-.322-1.126-.45-1.608-.547.1-1.094.193-1.64.258v7.558c0,2.959.032,5.178.128,6.593H12.105c.1-1.415.128-3.634.128-6.593v-7.108c-.868.129-1.768.258-2.572.354-.257.321-.418.45-.579.45s-.354-.193-.418-.45L7.828,457.6c.8,0,1.543-.033,2.251-.033.643-.932,1.254-1.833,1.865-2.765a29.87,29.87,0,0,0-4.181-3.377l1.383-2.251c.354.225.675.45,1,.675a35.057,35.057,0,0,0,2.444-5.4l2.573,1.061a.541.541,0,0,1,.289.419c0,.193-.225.354-.675.45a43.948,43.948,0,0,1-2.605,4.889c.45.353.9.675,1.318,1.061a30.46,30.46,0,0,0,2.219-4.5l2.734,1.286a.6.6,0,0,1,.354.45c0,.225-.225.354-.708.482a61.57,61.57,0,0,1-4.792,7.365c.933-.032,1.9-.1,2.83-.193a13.415,13.415,0,0,0-.8-1.672l2.123-1.126a27,27,0,0,1,2.509,5.725Zm.708.708a23.685,23.685,0,0,1,2.412,6.561l-2.83,1.189a28,28,0,0,0-1.9-6.689Zm9.134-1.415c.45.032.74.192.74.385,0,.161-.161.354-.643.611-.225,5.21-.675,6.85-2.476,8.908-1.447,1.705-2.926,2.637-5.949,3.764a10.832,10.832,0,0,0-1.64-2.541c2.83-1.094,4.085-1.865,5.242-3.281,1.254-1.479,1.737-3.248,1.737-6.078,0-.708,0-1.223-.064-2.027Zm2.637-8.3H33.01c.933,0,2.284-.032,3.184-.064v2.991c-.9-.032-2.251-.064-3.184-.064H24c-.933,0-2.284.032-3.216.064V452.1c.933.032,2.284.064,3.216.064h2.8v-1.8H23.2c-1.061,0-2.862.032-3.859.064v-3.023c.965.064,2.637.1,3.859.1h3.6v-.192c0-1.448-.033-1.833-.065-2.959l3.184.193c.354.032.579.16.579.321,0,.193-.193.386-.643.643V447.5h4.213c1.254,0,2.894-.032,3.859-.1v3.023c-1-.032-2.8-.064-3.859-.064H29.858Zm3.216,4.245c1.383,0,1.865,0,3.988-.129-.032.643-.032,1.769-.032,2.444v1.189c0,.547,0,1.094.032,1.833H33.975v-2.54h-10.9v2.54H19.985c.032-.9.032-1.158.032-1.769v-1.254c0-1.286,0-1.383-.032-2.412,1.319.064,2.959.1,4.245.1Zm-1.19,13.025c0,1.157.354,1.351,2.091,1.351,1.544,0,1.672-.354,1.7-4.117a25.993,25.993,0,0,0,2.894.933c-.16,5.628-.547,6.046-5.242,6.046-3.634,0-4.5-.482-4.5-2.508v-8.652c0-.45-.032-1.511-.032-2.09l3.088.257c.418.033.611.129.611.322s-.161.353-.611.643Z" transform="translate(4145.272 3287.837)" fill="#fff"/>
    <path id="パス_825" data-name="パス 825" d="M18.944,508.22c.322.064.547.257.547.515,0,.322-.257.515-.836.707-.868,6.111-1.029,7.558-1.029,10.453a27.535,27.535,0,0,0,2.284,12.092c-.643.289-2.091,1.029-3.216,1.64a34.246,34.246,0,0,1-2.38-13.475c0-2.251.032-2.927.9-10.581.129-1.286.193-1.608.193-1.9Zm12.318,9.134c-1.126.032-2.605.064-4.824.064-.675,0-2.734-.032-4.406-.064l.064-3.313c1.705.064,3.827.129,4.76.129l4.374-.033c-.1-4.213-.193-6.593-.257-7.2l3.57.193c.386.032.611.193.611.45s-.225.482-.675.708l.129,5.692c1.994-.161,3.795-.354,5.306-.546l.289,3.216c-1.64.193-2.155.257-5.6.515-.064,2.572-.1,3.956-.1,4.116-.225,4.793-.9,7.333-2.637,9.777a12.708,12.708,0,0,1-4.6,3.955,7.667,7.667,0,0,0-2.091-2.8c2.412-1.319,3.441-2.283,4.406-4.052,1.254-2.348,1.672-5.081,1.672-10.709Z" transform="translate(4142.1 3258.802)" fill="#fff"/>
    <path id="パス_826" data-name="パス 826" d="M26.561,571.11,27.59,574a28.65,28.65,0,0,1-6.207,1.64c-.611,2.155-.9,3.216-1.8,5.693a76.762,76.762,0,0,1-5.435,12.446,8.973,8.973,0,0,0-2.895-1.833,70.633,70.633,0,0,0,6.689-15.919c-2.123.161-3.087.225-5.467.225l-.032-3.184a59.389,59.389,0,0,0,6.432-.257,42.047,42.047,0,0,0,1.254-6.3l3.474.868c.257.064.45.225.45.386,0,.225-.129.354-.611.579-.354,1.351-.772,3.055-1.126,4.02a28.261,28.261,0,0,0,4.245-1.254m.065,14.6a4.687,4.687,0,0,0-1.19,2.8c0,1.254,1.157,1.575,5.821,1.575a27.8,27.8,0,0,0,6.079-.708,14.436,14.436,0,0,0-.322,3.441,42.1,42.1,0,0,1-5.95.418,26.86,26.86,0,0,1-6.078-.515,3.656,3.656,0,0,1-2.766-3.731c0-1.543.579-2.8,2.091-4.631Zm-3.216-7.139a27.715,27.715,0,0,1,9.616-1.64c.675,0,1.7.032,3.023.1l-.129,3.12c-2.476-.1-2.8-.1-3.216-.1-2.7,0-4.406.289-8.522,1.415Z" transform="translate(4143.519 3231.16)" fill="#fff"/>
  </g>
</svg>
