<svg xmlns="http://www.w3.org/2000/svg" width="39.081" height="241.253" viewBox="0 0 39.081 241.253">
  <g id="グループ_204" data-name="グループ 204" transform="translate(-4195.179 -3494)">
    <rect id="長方形_263" data-name="長方形 263" width="39.081" height="241.253" transform="translate(4195.179 3494)"/>
    <path id="パス_809" data-name="パス 809" d="M125.085,42.816c-1.7-.065-4.438-.129-6.4-.129H101.768c-1.769,0-4.664.064-6.4.129V39.438c1.672.065,4.567.129,6.4.129h16.917c2.026,0,4.76-.064,6.4-.129Zm-2.8-17.753c-1.383-.064-3.666-.1-5.146-.1H103.279c-1.64,0-3.763.032-5.114.1V21.75c1.351.033,3.474.1,5.114.1h13.861c1.479,0,3.763-.064,5.146-.1Z" transform="translate(4104.493 3483.909)" fill="#fff"/>
    <path id="パス_810" data-name="パス 810" d="M111.068,71.365c.482.064.8.257.8.482s-.032.257-.868.708c-.1,1.222-.161,2.251-.225,3.216a30.279,30.279,0,0,0,4.921,12.96c2.187,3.088,4.567,4.985,9.552,7.622a10.485,10.485,0,0,0-2.187,2.734,30.085,30.085,0,0,1-8.2-6.336,24.191,24.191,0,0,1-5.017-9.808c-.193.771-.418,1.543-.708,2.444A23.214,23.214,0,0,1,96.66,99.6a7,7,0,0,0-1.833-2.734,20.278,20.278,0,0,0,8.619-7.108,22.557,22.557,0,0,0,3.827-9.873,58.465,58.465,0,0,0,.547-8.876Z" transform="translate(4104.744 3461.054)" fill="#fff"/>
    <path id="パス_811" data-name="パス 811" d="M105.009,133.6c.322.065.547.226.547.451,0,.322-.257.515-.868.707a57.825,57.825,0,0,0-1.544,13.637,26.259,26.259,0,0,0,1.608,9.68,15.217,15.217,0,0,0-3.184,1.448,33.374,33.374,0,0,1-1.64-11,83.648,83.648,0,0,1,1.351-13.7,13.4,13.4,0,0,0,.225-1.8Zm15.084-.418a.474.474,0,0,1,.515.418c0,.226-.064.354-.515.676,0,.611.032,2.284.161,4.985a41.851,41.851,0,0,0,5.757-.643l.1,3.281a47.185,47.185,0,0,1-5.821.546c.161,4.921.257,7.558.29,7.976a8.282,8.282,0,0,0,.032.9,25.277,25.277,0,0,1,6.336,3.923,10.684,10.684,0,0,0-2.091,2.83,27.6,27.6,0,0,0-4.406-3.409c-.289,2.959-2.155,4.278-6.046,4.278-2.348,0-3.924-.419-5.082-1.319a4.44,4.44,0,0,1-1.544-3.313c0-2.637,2.348-4.374,5.886-4.374a17.37,17.37,0,0,1,3.569.418c-.032-1.995-.1-2.991-.225-7.815-1.736.032-2.186.032-2.7.032-1.672,0-4.149,0-5.178-.032l-.032-3.344c1.962.16,3.377.225,5.821.225.8,0,1,0,2.026-.032l-.032-1.319a29.669,29.669,0,0,0-.419-5.081Zm-6.5,19.586c-1.64,0-2.573.547-2.573,1.543,0,1.158,1.126,1.769,3.184,1.769,1.64,0,2.508-.45,2.8-1.416a6.7,6.7,0,0,0,.161-1.158l-.032-.1a10.059,10.059,0,0,0-3.538-.643" transform="translate(4102.377 3432.298)" fill="#fff"/>
    <path id="パス_812" data-name="パス 812" d="M105.469,204.541c.418.258.515.354.515.579,0,.322-.129.386-1.029.45a23.723,23.723,0,0,1-8.458,7.462,9.516,9.516,0,0,0-1.608-2.477,21.785,21.785,0,0,0,8.136-7.462Zm-3.859-8.329c0-2.573,0-3.923-.1-4.824l3.345.192c.354.033.547.161.547.322,0,.193-.161.386-.611.643v6.625h4.5V191.9c0-1.479-.033-1.865-.065-2.991l3.248.225c.386.032.579.129.579.322s-.161.386-.612.644v2.733h6.4c.933,0,2.284-.032,3.184-.064v3.088c-.9-.032-2.251-.064-3.184-.064h-6.4v3.377h5.982c2.026,0,4.792-.065,6.432-.129v3.216c-1.737-.1-4.471-.128-6.432-.128h-6.368v3.505c0,.547,0,1.351.032,2.284.032.643.032,1.029.032,1.286,0,2.8-1.061,3.409-5.853,3.409h-.8a11.546,11.546,0,0,0-.611-3.409,21.615,21.615,0,0,0,2.284.129c1.672,0,1.769-.065,1.769-1.351V202.13h-7.365c-1.769,0-4.664.032-6.4.128v-3.216c1.64.064,4.567.129,6.4.129h.064Zm17.849,13.6c.354.257.45.354.45.547,0,.322-.225.385-1.061.418a25.734,25.734,0,0,1-9.68,5.6,43.991,43.991,0,0,1-12.9,2.348,13.742,13.742,0,0,0-.772-3.055c6.014-.385,8.812-.836,12.671-2.091a22.359,22.359,0,0,0,8.908-5.338Zm-2.669-6.657a31.982,31.982,0,0,1,8.394,6.11l-2.284,2.348c-3.055-3.152-3.344-3.377-7.783-6.3Z" transform="translate(4104.716 3406.353)" fill="#fff"/>
    <path id="パス_813" data-name="パス 813" d="M101.661,271.38a6.534,6.534,0,0,0,2.927,2.283c2.444,1.094,4.278,1.383,9.584,1.383,3.6,0,7.976-.129,10.549-.289a11.7,11.7,0,0,0-.611,3.152c-4.792.1-7.332.129-11.128.129a21.991,21.991,0,0,1-9.391-1.7,7.835,7.835,0,0,1-3.088-2.348,33.093,33.093,0,0,1-2.669,2.605c-.226.193-.579.515-1,.933-.16.515-.289.708-.482.708a.65.65,0,0,1-.45-.289l-1.737-2.412a36.191,36.191,0,0,0,4.438-3.313v-7.333h-.868c-.837,0-2.251.032-3.023.1v-3.12c.74.065,2.091.065,3.023.065h1.029c1.672,0,2.251,0,2.959-.065-.032.579-.064,1.19-.064,2.862Zm-4.213-21.129a23.272,23.272,0,0,1,4.406,4.759L99.378,257a31.321,31.321,0,0,0-3.956-4.856Zm17.142,5.5c-.257.675-.482,1.351-.772,2.026h5.049c1.094,0,1.865-.033,2.734-.064-.1,1.189-.1,2.476-.1,5.114v4.759c0,2.541.032,4.439.1,5.661h-3.184v-.74h-9.648V273.7h-3.184c.064-1.287.1-3.184.1-5.661v-5.209c0-1.93-.032-4.085-.1-5.114.868.032,1.64.064,2.734.064h2.412c.225-.675.386-1.351.547-2.026h-4.309c-1.351,0-3.152.032-4.5.064v-3.087c1.254.032,3.088.065,4.5.065h1.672a14.87,14.87,0,0,0-1.865-2.606l2.251-1.576a14.588,14.588,0,0,1,2.733,3.538l-.933.644h3.7a29.679,29.679,0,0,0,1.962-4.182l3.023,1.383a.45.45,0,0,1,.289.354c0,.225-.257.354-.868.419l-1.222,2.026h1.9c1.286,0,3.377-.033,4.5-.065v3.087c-1.189-.032-3.28-.064-4.5-.064Zm3.827,4.792h-9.649v1.318h9.649Zm-9.648,5.21h9.649V264.4h-9.649Zm0,3.988h9.649v-1.447h-9.649Z" transform="translate(4105.05 3378.655)" fill="#fff"/>
    <path id="パス_814" data-name="パス 814" d="M101.177,320.74a21.1,21.1,0,0,1,2.959,3.569l-1.8,2.412q-.579-1.206-1.158-2.219v4.7c0,4.213.064,7.333.161,9.391H98.09c.1-2.091.16-5.243.16-9.391v-2.734a25.582,25.582,0,0,1-2.733,5.79,13.577,13.577,0,0,0-1.769-3.055,26.089,26.089,0,0,0,3.184-7.108c.45-1.511.708-2.54.965-3.731h-.836c-.869,0-1.9.033-2.573.065v-3.055c.708.032,1.865.064,2.573.064H98.25c-.032-3.57-.1-5.789-.193-6.593l3.281.257c.289.033.482.129.482.322,0,.16-.161.353-.579.611-.032.933-.032,1.094-.064,5.4h.836c.675,0,1.833-.032,2.573-.064v3.055c-.708-.032-1.7-.065-2.573-.065h-.836Zm7.88.643A31.339,31.339,0,0,1,105,324.953a6.777,6.777,0,0,0-1.512-2.637c3.152-2.379,3.924-3.088,5.435-5.081a5.609,5.609,0,0,1,.353-.45h-.128c-1.061,0-2.862.032-3.827.1v-2.862c.965.032,2.605.064,3.827.064h1.8c.192-.386.515-1.029.707-1.447-1.64.161-3.344.354-5.145.482a9.1,9.1,0,0,0-.74-2.541,83.736,83.736,0,0,0,14.472-2.026l2.058,1.8q.289.242.289.386c0,.192-.193.289-.643.289h-.45c-2.219.515-4.471.869-6.722,1.19-.257.643-.482,1.254-.772,1.865h6.561c1.222,0,2.894-.032,3.859-.064v2.862c-1-.064-2.8-.1-3.859-.1H119.7a14.781,14.781,0,0,0,5.564,5.049,10.166,10.166,0,0,0-1.833,2.6,20.433,20.433,0,0,1-3.859-3.377v.611c0,1.222.032,2.348.1,3.024H117v-.612h-5.371v.868H108.96c.064-.707.1-1.833.1-3.119Zm-3.731,6.947c0-1.029-.064-2.251-.1-2.83.708.032,1.383.064,2.316.064h13.347c.933,0,1.608-.032,2.315-.064-.032.579-.064,1.672-.064,2.6v2.927c0,.965.032,2.154.064,3.281,0,.289.033,1.029.033,1.351,0,2.347-1,2.894-5.275,2.894a8.5,8.5,0,0,0-.579-2.734c.9.032,1.158.032,1.64.032,1.061,0,1.222-.192,1.222-1.351v-6.335H108.188V338.59h-2.958c.064-.772.1-1.833.1-3.441Zm7.107,7.654h-2.572c.064-.771.1-1.833.1-3.409v-.868c0-.675-.032-1.994-.1-2.476.707.032,1.383.064,2.315.064h4.117c.933,0,1.608-.032,2.316-.064-.064.482-.1,1.8-.1,2.476v.772c0,1.029.032,2.219.1,2.862h-2.573V334.7h-3.6Zm5.178-17.753c-.257-.482-.482-.964-.708-1.447h-4.31c-.321.482-.675.965-1,1.447ZM117,320.418h-5.371v1.544H117Zm-.965,11h-3.6v1.254h3.6Z" transform="translate(4105.244 3350.844)" fill="#fff"/>
    <path id="パス_815" data-name="パス 815" d="M123.226,375.141a.869.869,0,0,1,.225.547c0,.257-.129.321-1.029.386a12.307,12.307,0,0,0-7.365,2.444c-3.119,2.316-4.824,5.178-4.824,8.137,0,2.766,2.155,4.856,5.757,5.6a29.487,29.487,0,0,0,5.854.547,13.7,13.7,0,0,0-1.286,3.473,30.033,30.033,0,0,1-6.914-1.029c-4.342-1.222-6.818-4.31-6.818-8.555,0-3.505,1.608-6.271,5.21-9-2.895.675-9.873,2.315-11.675,2.7-.8.192-1,.225-1.608.385l-.8-3.667c2.895-.257,6.914-.9,14.344-2.316,6.3-1.19,7.172-1.382,9.262-2.154Zm-3.281,4.921a20.716,20.716,0,0,1,4.084,3.216l-1.608,1.769a18.845,18.845,0,0,0-3.892-3.344Zm2.509-2.927a21.964,21.964,0,0,1,4.085,3.249l-1.608,1.736a18.683,18.683,0,0,0-3.892-3.313Z" transform="translate(4103.296 3321.112)" fill="#fff"/>
  </g>
</svg>
