<svg xmlns="http://www.w3.org/2000/svg" width="291.125" height="56.305" viewBox="0 0 291.125 56.305">
  <g id="グループ_184" data-name="グループ 184" transform="translate(-51.875 -2126.023)">
    <path id="パス_692" data-name="パス 692" d="M459.318,23.345c-1.365-3.811-4.275-11.768-5.459-14.755-1.545-3.915-1.725-3.966-3.168-4.095-.18-.026-.257-.1-.257-.232s.077-.232.283-.232c.1,0,.412,0,.876.026,1.493.077,3.116.1,4.12.1.952,0,2.085-.026,2.987-.078.8-.052,1.107-.052,1.236-.052.18,0,.283.1.283.232,0,.155-.1.232-.283.258-1.906.154-2.91.489-2.91,1.879a6.1,6.1,0,0,0,.31,1.673c1,3.219,2.806,8.5,3.914,11.486,1.133-2.962,3.09-8.5,4.043-11.2a5.542,5.542,0,0,0,.386-1.8c0-1.52-1.159-1.906-2.627-2.034a.245.245,0,0,1,.026-.49c.258,0,.953.026,1.854.077.515.026,1.082.052,1.674.052a19.566,19.566,0,0,0,2.137-.078c.283-.026.592-.052.747-.052a.19.19,0,0,1,.206.206c0,.1-.052.206-.232.232-1.829.18-2.317,1.03-3.656,4.506-1.8,4.687-3.94,10.507-5.33,14.369Z" transform="translate(-398.559 2124.385)"/>
    <path id="パス_693" data-name="パス 693" d="M490.161,18.8a6.852,6.852,0,1,1-6.85-7.03,7.06,7.06,0,0,1,6.85,7.03m-3.528,0a11.948,11.948,0,0,0-.747-4.609,2.693,2.693,0,0,0-5.15,0,11.948,11.948,0,0,0-.747,4.609,11.827,11.827,0,0,0,.747,4.584,2.693,2.693,0,0,0,5.15,0,11.828,11.828,0,0,0,.747-4.584" transform="translate(-405.967 2122.182)"/>
    <path id="パス_694" data-name="パス 694" d="M509.565,13.238a2.845,2.845,0,0,1,.721,1.854c0,1.313-.592,2.241-1.88,2.241a1.42,1.42,0,1,1,.052-2.833c.18,0,.335-.1.335-.386,0-.952-1.107-1.829-2.575-1.829a2.844,2.844,0,0,0-2.292,1.03c-1.056,1.159-1.519,3.4-1.519,5.511,0,2.884.592,4.686,1.751,5.665a2.638,2.638,0,0,0,1.932.7c1.828,0,3.013-.824,4.094-3.244a.267.267,0,0,1,.258-.18.27.27,0,0,1,.283.283.481.481,0,0,1-.052.18c-1.159,2.575-2.7,3.553-5.124,3.553-3.965,0-6.7-2.575-6.7-6.464,0-4.687,3.219-7.545,7.03-7.545a4.864,4.864,0,0,1,3.682,1.468" transform="translate(-412.339 2122.183)"/>
    <path id="パス_695" data-name="パス 695" d="M528.965,22.947c0,1.288.386,1.468.9,1.468.617,0,1.029-.541,1.468-2.137.051-.155.1-.233.257-.233a.211.211,0,0,1,.206.233.506.506,0,0,1-.026.18c-.437,2.06-1.494,3.09-3.425,3.09A2.18,2.18,0,0,1,526,23.076h-.18c-.644,1.932-2.214,2.7-4.2,2.7-1.957,0-3.656-.953-3.656-3.039,0-2.42,2.291-3.708,7.776-4.248v-2.5c0-2.858-1.262-3.6-2.7-3.6-1.545,0-2.421.979-2.421,1.52,0,.205.1.283.335.335a1.35,1.35,0,0,1,1.159,1.416,1.615,1.615,0,0,1-1.751,1.493,1.572,1.572,0,0,1-1.572-1.673c0-2.009,2.472-3.709,5.073-3.709,3.193,0,5.1,1.726,5.1,5.536Zm-3.219-3.991c-3.244.283-4.712,1.416-4.712,3.554a1.974,1.974,0,0,0,2.009,2.111c1.52,0,2.7-1.262,2.7-3.3Z" transform="translate(-417.78 2122.182)"/>
    <path id="パス_696" data-name="パス 696" d="M539.1,2.23a.242.242,0,0,1-.258-.257.243.243,0,0,1,.258-.258,10.126,10.126,0,0,0,4.3-.953.573.573,0,0,1,.258-.077.278.278,0,0,1,.283.308c0,.1,0,.258-.052,1.107-.051.9-.077,1.52-.077,2.91V20.024c0,1.776.077,1.854,1.905,1.854a.259.259,0,1,1,0,.515c-.231,0-.978-.026-1.725-.078-.7-.025-1.417-.051-1.8-.051s-1.03.026-1.674.051q-.966.077-1.854.078a.259.259,0,1,1,0-.515c1.8,0,1.906-.052,1.906-1.854V4.65c0-2.344-.078-2.421-1.263-2.421Z" transform="translate(-423.589 2125.337)"/>
    <path id="パス_697" data-name="パス 697" d="M568.572,9.691a2.061,2.061,0,0,1-2.06,2.034,2.047,2.047,0,0,1,0-4.094,2.066,2.066,0,0,1,2.06,2.06m0,9.914a2.061,2.061,0,0,1-2.06,2.035,2.048,2.048,0,0,1,0-4.095,2.066,2.066,0,0,1,2.06,2.06" transform="translate(-431.017 2123.361)"/>
    <path id="パス_698" data-name="パス 698" d="M589.008,14.578a12.661,12.661,0,0,0-.31,2.215,2.458,2.458,0,0,0,1.185,2.266c.85.592,2.446,1.133,5.124,1.133a21.668,21.668,0,0,0,5.124-.643,4.365,4.365,0,0,0,.747-.258,2.379,2.379,0,0,1,1.03-.206,4.734,4.734,0,0,1,1.932.567,1.605,1.605,0,0,1,.85,1.391c0,.824-.438,1.287-1.906,1.6a34.4,34.4,0,0,1-6.386.617c-3.322,0-5.665-.592-6.953-1.6a4.125,4.125,0,0,1-1.854-3.477,6.29,6.29,0,0,1,.361-2.034,7.82,7.82,0,0,1,.8-1.674c.052-.1.1-.129.155-.129s.1.052.1.155ZM594.93,9.4c-1.107.567-2.291,1.288-3.09,1.674a1.489,1.489,0,0,1-.413.18.148.148,0,0,1-.154-.155.324.324,0,0,1,.1-.18,25.292,25.292,0,0,0,2.5-2.5,5.29,5.29,0,0,1-2.729-.8A3.849,3.849,0,0,1,589.6,5.257V5.205c0-.1.052-.18.129-.18a.224.224,0,0,1,.154.077,2.883,2.883,0,0,0,2.266.927,18.778,18.778,0,0,0,2.833-.308,20.065,20.065,0,0,0,2.524-.7,2.833,2.833,0,0,0,.618-.284,1.65,1.65,0,0,1,.927-.206,3.8,3.8,0,0,1,1.725.645,1.8,1.8,0,0,1,.953,1.494c0,.747-.592,1.055-1.751,1.184a19.037,19.037,0,0,0-2.962.67,13.059,13.059,0,0,0-2.086.876" transform="translate(-437.594 2124.242)"/>
    <path id="パス_699" data-name="パス 699" d="M619.574,7.544a11.946,11.946,0,0,1,8.394-3.476,10.139,10.139,0,0,1,6.438,2.138,11.534,11.534,0,0,1,4.172,8.961,7.316,7.316,0,0,1-3.013,6.361c-2.06,1.468-5.408,2.421-10.327,2.627-.18,0-.257-.078-.257-.155a.215.215,0,0,1,.206-.205,17.077,17.077,0,0,0,7.055-3.194,8.142,8.142,0,0,0,2.884-6.541,10.077,10.077,0,0,0-2.575-6.9,6.478,6.478,0,0,0-4.712-2.06c-.258,0-.515.026-.773.051A5.828,5.828,0,0,1,628.1,6.36a3.922,3.922,0,0,1,.644,2.317,14.05,14.05,0,0,1-.283,2.215,21.9,21.9,0,0,1-3.734,8.755c-1.339,1.648-2.884,2.575-4.249,2.575a2.158,2.158,0,0,1-2.4-1.828,8.722,8.722,0,0,0-.8-1.88c-.747-1.21-1.468-2.111-1.468-3.528,0-2.807,1.6-5.382,3.759-7.442M618.8,17.973a1.607,1.607,0,0,0,1.494.773c.85,0,1.777-.617,2.755-1.854a21.534,21.534,0,0,0,3.683-7.879,10.228,10.228,0,0,0,.283-1.829,3.659,3.659,0,0,0-.206-1.236,4.382,4.382,0,0,0-.361-.695,9.391,9.391,0,0,0-5.124,3.45,12.016,12.016,0,0,0-2.987,7.365,3.3,3.3,0,0,0,.463,1.905" transform="translate(-445.627 2124.375)"/>
    <path id="パス_700" data-name="パス 700" d="M667.088,2.507c1.184-1.391,1.6-1.751,1.829-1.751.361,0,.9.232,2.008,1.133,1.571,1.288,1.854,1.622,1.854,1.957,0,.361-.283.7-1.674.773a38.762,38.762,0,0,1-5.3,2.73.359.359,0,0,1,.129.283c0,.335-.18.541-1.03.823v3.477h4.712c1.7-2.215,2.085-2.6,2.318-2.6.308,0,.54.129,1.726,1.082,1.338,1.055,1.494,1.313,1.494,1.57,0,.335-.155.412-.645.412h-9.6v.7l.258,8.214c.077,2.266-2.163,3.374-4.43,3.374-.747,0-.849-.052-.927-.618-.154-1.262-.823-2.137-3.09-2.7v-.284h.773c.8,0,1.648-.026,2.4-.077,1.262-.1,1.648-.31,1.648-1.211V12.4h-4.069c-2.241,0-4.97.052-6.308.206l-.232-.876c1.493.155,4.3.206,6.54.206h4.069V9.28a5.715,5.715,0,0,0-.309-2.525l.18-.18c1.57.18,2.6.309,3.27.438A24.536,24.536,0,0,0,667.5,2.97h-7.957c-2.188,0-4.868.052-6.155.207l-.232-.876c1.442.155,4.2.206,6.386.206Z" transform="translate(-455.617 2125.317)"/>
    <path id="パス_701" data-name="パス 701" d="M706.228,14.734l6.232,6.258-.773.772-6.258-6.283-6.257,6.308-.773-.773,6.258-6.283L698.4,8.476l.773-.773,6.257,6.309L711.687,7.7l.773.773Z" transform="translate(-469.131 2123.34)"/>
    <path id="パス_702" data-name="パス 702" d="M732.971,14.578a12.736,12.736,0,0,0-.309,2.215,2.458,2.458,0,0,0,1.184,2.266c.851.592,2.447,1.133,5.125,1.133a21.678,21.678,0,0,0,5.125-.643,4.4,4.4,0,0,0,.745-.258,2.386,2.386,0,0,1,1.031-.206,4.733,4.733,0,0,1,1.931.567,1.605,1.605,0,0,1,.85,1.391c0,.824-.438,1.287-1.905,1.6a34.4,34.4,0,0,1-6.386.617c-3.322,0-5.664-.592-6.953-1.6a4.123,4.123,0,0,1-1.854-3.477,6.256,6.256,0,0,1,.361-2.034,7.753,7.753,0,0,1,.8-1.674c.052-.1.1-.129.155-.129s.1.052.1.155ZM738.9,9.4c-1.108.567-2.293,1.288-3.091,1.674a1.5,1.5,0,0,1-.413.18.148.148,0,0,1-.154-.155.323.323,0,0,1,.1-.18,25.4,25.4,0,0,0,2.5-2.5,5.292,5.292,0,0,1-2.731-.8,3.848,3.848,0,0,1-1.545-2.369V5.205c0-.1.052-.18.129-.18a.22.22,0,0,1,.154.077,2.885,2.885,0,0,0,2.267.927,18.776,18.776,0,0,0,2.832-.308,20.13,20.13,0,0,0,2.524-.7,2.825,2.825,0,0,0,.617-.284,1.651,1.651,0,0,1,.927-.206,3.808,3.808,0,0,1,1.726.645,1.8,1.8,0,0,1,.954,1.494c0,.747-.592,1.055-1.751,1.184a19.062,19.062,0,0,0-2.962.67A13.05,13.05,0,0,0,738.9,9.4" transform="translate(-478.567 2124.242)"/>
    <path id="パス_703" data-name="パス 703" d="M764.723,23.386a3.19,3.19,0,0,1-2.472-1.776,10.02,10.02,0,0,1-1.21-5.254,20.569,20.569,0,0,1,.567-4.249c.36-1.493.85-3.219,1.339-5.073a9.862,9.862,0,0,0,.438-2.189,2.387,2.387,0,0,0-.747-1.52.264.264,0,0,1-.1-.206c0-.1.129-.18.258-.18h.077a3.077,3.077,0,0,1,.567.129A4.514,4.514,0,0,1,764.98,4.1a4.035,4.035,0,0,1,1.313,2.55,2.659,2.659,0,0,1-.592,1.468,9.942,9.942,0,0,0-.721,1.391,30.055,30.055,0,0,0-1.648,4.248,10.485,10.485,0,0,0-.463,2.833c0,1.313.309,1.957.849,1.957.335,0,.619-.386,1.107-1.236.541-.953,1.185-2.421,2.035-4.326a.191.191,0,0,1,.155-.129.148.148,0,0,1,.155.154v.052c-.335,1.235-.721,2.729-1.03,4.12a14.934,14.934,0,0,0-.463,2.936,1.949,1.949,0,0,0,.231,1,2.241,2.241,0,0,1,.284,1.056,1.2,1.2,0,0,1-.361.927,1.788,1.788,0,0,1-1.107.283m16.043-4.764a4.35,4.35,0,0,1,.875.592,2.662,2.662,0,0,1,1.031,2.111,1.212,1.212,0,0,1-1.16,1.185,1.553,1.553,0,0,1-1.441-.721,10.568,10.568,0,0,0-2.189-1.906,3.142,3.142,0,0,1-1.467,1.906,6.269,6.269,0,0,1-3.116.772,5.32,5.32,0,0,1-2.962-.644,2.512,2.512,0,0,1-1.261-2.188,2.589,2.589,0,0,1,1.261-2.266,5.25,5.25,0,0,1,2.987-.8,16.94,16.94,0,0,1,1.931.129l-.077-.927c-.13-1.467-.283-3.322-.361-4.944a14,14,0,0,1-2.472.335,3.346,3.346,0,0,1-2.215-.747,4.614,4.614,0,0,1-1.364-1.88.276.276,0,0,1-.026-.128c0-.129.077-.18.155-.18a.28.28,0,0,1,.18.077,5.7,5.7,0,0,0,.824.489,3.121,3.121,0,0,0,1.158.206,9.876,9.876,0,0,0,2.189-.309c.489-.1,1-.258,1.468-.386-.052-1.494-.129-2.781-.154-3.348-.026-.644,0-.849-.335-1.055a2.108,2.108,0,0,0-1.029-.258c-.155-.026-.233-.077-.233-.18a.559.559,0,0,1,.18-.308A2.265,2.265,0,0,1,774.56,2.6a4.025,4.025,0,0,1,1.726.515,1.56,1.56,0,0,1,.952,1.159,1.61,1.61,0,0,1-.18.8,4.464,4.464,0,0,0-.231,1.339c-.026.386-.026.773-.026,1.262.463-.206.9-.412,1.339-.644a1.471,1.471,0,0,1,.875-.232,2.738,2.738,0,0,1,1.313.335,1.216,1.216,0,0,1,.721.979c0,.824-.516,1.081-1.571,1.493a24.677,24.677,0,0,1-2.626.825,42.937,42.937,0,0,0,.617,5.253c.1.567.232,1.133.31,1.6a17.819,17.819,0,0,1,2.987,1.339m-8.988,2.06a4.966,4.966,0,0,0,2.7-.722,1.617,1.617,0,0,0,.85-1.21,10.113,10.113,0,0,0-2.987-.515,3.876,3.876,0,0,0-1.7.361,1.3,1.3,0,0,0-.823,1.029c0,.567.618,1.057,1.957,1.057m6.077-18.026a5.554,5.554,0,0,1,2.781.643,1.746,1.746,0,0,1,.979,1.443,1.1,1.1,0,0,1-1,1.158c-.361,0-.67-.155-.979-.7A5.453,5.453,0,0,0,777.6,3.017c-.129-.052-.181-.129-.181-.207s.077-.154.258-.154ZM780.663.828a5.013,5.013,0,0,1,2.189.412,1.724,1.724,0,0,1,1.081,1.468.98.98,0,0,1-.9,1.082c-.335,0-.593-.1-1.005-.7a5.17,5.17,0,0,0-2.137-1.88c-.129-.052-.18-.129-.18-.206s.077-.129.232-.155a6.992,6.992,0,0,1,.721-.026" transform="translate(-486.958 2125.297)"/>
    <path id="パス_704" data-name="パス 704" d="M798.421,2.995a3.609,3.609,0,0,0-.927-.618c-.1-.052-.13-.1-.13-.18a.191.191,0,0,1,.13-.155,2.533,2.533,0,0,1,1.082-.206,4.04,4.04,0,0,1,2.6,1.235,3.39,3.39,0,0,1,1.313,2.4,2.7,2.7,0,0,1-.464,1.391,5.683,5.683,0,0,0-.541,1.468,45.358,45.358,0,0,0-1.416,6.773,25.9,25.9,0,0,0-.155,2.832,2.468,2.468,0,0,0,.489,1.854c.464.463,1,.669,2.318.669a11.007,11.007,0,0,0,6.489-2.06,12.176,12.176,0,0,0,4.3-5.923c.051-.077.1-.129.18-.129s.155.077.155.206a1,1,0,0,1-.026.232c-.644,3.606-1.8,6.361-3.528,8.009a9.37,9.37,0,0,1-6.747,2.781,5.582,5.582,0,0,1-4.3-1.648,6.53,6.53,0,0,1-1.494-4.687c0-1.467.078-2.833.207-4.275.18-1.829.464-3.991.72-6.335a23.705,23.705,0,0,0,.18-2.6,1.308,1.308,0,0,0-.437-1.029" transform="translate(-497.296 2125.01)"/>
    <path id="パス_705" data-name="パス 705" d="M832.706,20.187c1.237-1.8,1.623-4.043,1.623-6.9a22.005,22.005,0,0,0-.232-3.116,6.994,6.994,0,0,0-.567-2.112c-.334-.592-.618-.8-1.055-.8-.464,0-.9.334-1.339,1.107a17.585,17.585,0,0,0-1.442,5.408,7.506,7.506,0,0,0-.077,1.262,4.222,4.222,0,0,0,.283,1.776,2.805,2.805,0,0,1,.18.953c0,.953-.567,1.468-1.7,1.468a3.376,3.376,0,0,1-2.678-2.111,7.327,7.327,0,0,1-.8-3.5,18.592,18.592,0,0,1,.592-4.352c.437-1.7,1-3.58,1.39-4.97a6.3,6.3,0,0,0,.284-1.468.941.941,0,0,0-.258-.695,2.282,2.282,0,0,0-.514-.464c-.1-.077-.155-.129-.155-.206,0-.155.18-.206.515-.206a2.371,2.371,0,0,1,.9.155,4.867,4.867,0,0,1,1.366.85,3.438,3.438,0,0,1,1.184,2.111,1.556,1.556,0,0,1-.386,1.082,4.386,4.386,0,0,0-.747.9,24.737,24.737,0,0,0-1.931,4.455,9.33,9.33,0,0,0-.413,2.293c0,.772.232,1.6.747,1.6.386,0,.67-1.107.9-1.8a26.844,26.844,0,0,1,2.009-4.918,2.969,2.969,0,0,1,2.7-1.777,3.183,3.183,0,0,1,2.756,1.339c1.159,1.416,1.854,4.146,1.854,7.107,0,2.833-.567,4.764-2.266,6.489-1.571,1.6-4.558,2.91-7.932,3.27-.154,0-.257-.077-.257-.155s.078-.154.206-.206a12,12,0,0,0,5.253-3.862" transform="translate(-505.135 2125.174)"/>
    <path id="パス_706" data-name="パス 706" d="M848.2,28.18a3.283,3.283,0,1,1,3.3,3.3,3.28,3.28,0,0,1-3.3-3.3m.927,0a2.356,2.356,0,1,0,4.712,0,2.356,2.356,0,0,0-4.712,0" transform="translate(-511.764 2118.443)"/>
    <path id="パス_707" data-name="パス 707" d="M463.161,56.925c0,.18-.1.283-.232.283a.234.234,0,0,1-.258-.232c-.515-2.935-1.957-4.79-4.3-4.79a3.045,3.045,0,0,0-3.193,3.348c0,2.266,1.725,3.141,4.12,4.274,3.141,1.494,4.944,2.6,4.944,5.691s-2.344,6-6.85,6a11.838,11.838,0,0,1-2.756-.386,7.326,7.326,0,0,0-1.673-.284.854.854,0,0,0-.85.49.247.247,0,0,1-.232.155.211.211,0,0,1-.206-.232,1.22,1.22,0,0,1,.077-.386,9.4,9.4,0,0,0,.361-2.832,22.443,22.443,0,0,0-.18-2.731,1.843,1.843,0,0,1-.026-.335.238.238,0,0,1,.232-.257.247.247,0,0,1,.232.18c1.082,3.734,2.344,6.1,5.382,6.1,2.369,0,3.888-1.184,3.888-3.4,0-2.24-1.313-3.244-4.4-4.841-2.832-1.442-4.841-2.756-4.841-5.588,0-3.476,2.73-5.485,5.846-5.485a8.627,8.627,0,0,1,3.013.567,3.152,3.152,0,0,0,1.03.258c.386,0,.464-.129.644-.464a.268.268,0,0,1,.258-.18.285.285,0,0,1,.283.283,3.887,3.887,0,0,1-.1.618,26.212,26.212,0,0,0-.206,3.656Z" transform="translate(-398.913 2110.826)"/>
    <path id="パス_708" data-name="パス 708" d="M486,66.8a6.852,6.852,0,1,1-6.85-7.03A7.06,7.06,0,0,1,486,66.8m-3.528,0a11.948,11.948,0,0,0-.747-4.609,2.693,2.693,0,0,0-5.15,0,11.947,11.947,0,0,0-.747,4.609,11.827,11.827,0,0,0,.747,4.584,2.693,2.693,0,0,0,5.15,0,11.828,11.828,0,0,0,.747-4.584" transform="translate(-404.784 2108.521)"/>
    <path id="パス_709" data-name="パス 709" d="M508.345,70.046c0,2.4.309,2.988,2.163,2.988a.259.259,0,1,1,0,.515h-4.3c-.8,0-.9-.309-.9-1.082a21.5,21.5,0,0,1,.232-2.215h-.129c-.541,2.189-2.189,3.554-4.944,3.554-2.807,0-4.506-1.545-4.506-4.4V62.089c0-.721-.052-1.288-1-1.288h-.876a.259.259,0,1,1,0-.516,23.282,23.282,0,0,0,4.378-.334,7.862,7.862,0,0,1,.85-.155.231.231,0,0,1,.258.258,2.356,2.356,0,0,1-.077.515,24.639,24.639,0,0,0-.309,3.682v4.893c0,2.6.824,3.76,2.678,3.76,2.086,0,3.271-1.88,3.271-4.095V62.346c0-.849-.052-1.545-1-1.545h-1.391a.259.259,0,1,1,0-.516,17.592,17.592,0,0,0,5.176-.437.822.822,0,0,1,.361-.077.257.257,0,0,1,.283.283,5.511,5.511,0,0,1-.052.592,30.066,30.066,0,0,0-.155,4.018Z" transform="translate(-410.9 2108.521)"/>
    <path id="パス_710" data-name="パス 710" d="M533.364,71.179c0,1.751.129,1.751,1.7,1.854a.259.259,0,1,1,0,.515c-.335,0-1-.026-1.674-.078-.617-.051-1.262-.051-1.648-.051s-1.029,0-1.673.051-1.288.078-1.623.078a.259.259,0,1,1,0-.515c1.545-.1,1.674-.1,1.674-1.854V64.535c0-2.7-.953-3.914-2.807-3.914-1.7,0-3.116,1.7-3.116,4.2v6.361c0,1.726.051,1.751,1.905,1.854a.259.259,0,1,1,0,.515c-.233,0-.979-.026-1.751-.078-.695-.025-1.391-.051-1.777-.051s-1.029.026-1.648.051c-.669.052-1.313.078-1.648.078a.259.259,0,1,1,0-.515c1.545-.1,1.673-.1,1.673-1.854V62.965c0-1.88-.051-2.163-1-2.163h-.438a.259.259,0,1,1,0-.516,11.6,11.6,0,0,0,4.121-.437.743.743,0,0,1,.231-.052.27.27,0,0,1,.283.283,7.058,7.058,0,0,1-.154.876,23.545,23.545,0,0,0-.309,2.575h.155c.437-2.421,2.163-3.76,4.918-3.76,2.806,0,4.609,1.622,4.609,4.661Z" transform="translate(-418.072 2108.521)"/>
    <path id="パス_711" data-name="パス 711" d="M557.277,66.762c0,2.4.309,3.116,2.163,3.116a.264.264,0,0,1,.283.257c0,.129-.1.258-.335.258H555.14c-.8,0-1.03-.309-1.03-1.082a16.815,16.815,0,0,1,.335-2.7h-.077c-.644,2.678-2.266,4.043-4.4,4.043-3.579,0-6.129-2.781-6.129-6.542,0-4.4,3.116-7.493,6.592-7.493a3.819,3.819,0,0,1,3.682,2.421h.129a39.225,39.225,0,0,1-.206-4.532c0-4.2-.077-4.275-1.262-4.275h-.927a.231.231,0,0,1-.257-.257.251.251,0,0,1,.283-.258,14.009,14.009,0,0,0,5.046-.979.8.8,0,0,1,.206-.051.278.278,0,0,1,.284.308c0,.1,0,.258-.052,1.107-.052.9-.077,1.52-.077,2.91Zm-3.065-4.043c0-4.4-1.776-5.589-3.579-5.589-2.138,0-3.3,2.344-3.3,6.8,0,3.116.953,5.975,3.322,5.975,1.828,0,3.553-2.009,3.553-6.412Z" transform="translate(-425.142 2111.677)"/>
    <path id="パス_712" data-name="パス 712" d="M578.707,54.787c0-2.034-.129-2.085-2.575-2.24a.258.258,0,0,1,0-.516c.129,0,.283,0,.67.026,1.262.078,2.678.1,3.347.1.8,0,1.391-.026,2.086-.078.644-.052,1.082-.052,1.906-.052,4.481,0,6.669,2.215,6.669,5.228,0,2.755-2.111,5.793-6.773,5.793a6.111,6.111,0,0,1-1.957-.308v6.283c0,1.339.026,1.6,1.21,1.7.9.077,1.8.1,2.138.1a.258.258,0,0,1,0,.515c-.078,0-.335,0-.9-.026-1.21-.052-2.653-.1-4.121-.1s-2.06.026-3.322.1c-.541.026-.85.026-.953.026a.258.258,0,1,1,0-.515c2.524-.077,2.575-.232,2.575-1.7Zm3.374,7.442a3.534,3.534,0,0,0,1.468.257c2.549,0,3.656-2.266,3.656-4.712,0-3.064-1.52-5.2-3.915-5.2-.9,0-1.21.411-1.21,1.442Z" transform="translate(-434.26 2110.724)"/>
    <path id="パス_713" data-name="パス 713" d="M603.216,63.489c.489-2.292,1.906-3.862,3.837-3.862,1.545,0,2.369.875,2.369,1.931a1.82,1.82,0,0,1-1.854,1.982,1.462,1.462,0,0,1-1.6-1.493,1.6,1.6,0,0,1,1.081-1.545c.18-.052.232-.1.232-.206,0-.077-.1-.155-.386-.155-1.751,0-3.4,1.829-3.4,5.459v5.536c0,1.674.052,1.751,2.42,1.854a.259.259,0,1,1,0,.515c-.747,0-1.493-.026-2.266-.077-.695-.026-1.391-.052-1.777-.052s-1.03.026-1.648.052c-.669.051-1.313.077-1.648.077a.259.259,0,1,1,0-.515c1.545-.1,1.673-.155,1.673-1.854V62.665c0-1.829-.128-1.905-1.338-1.905h-.438a.259.259,0,1,1,0-.516,15.451,15.451,0,0,0,4.429-.437.611.611,0,0,1,.258-.052.27.27,0,0,1,.283.284,7.056,7.056,0,0,1-.155.875,23.6,23.6,0,0,0-.309,2.575Z" transform="translate(-440.613 2108.563)"/>
    <path id="パス_714" data-name="パス 714" d="M629.031,66.8a6.853,6.853,0,1,1-6.851-7.03,7.06,7.06,0,0,1,6.851,7.03m-3.528,0a11.948,11.948,0,0,0-.747-4.609,2.693,2.693,0,0,0-5.15,0,11.946,11.946,0,0,0-.747,4.609,11.826,11.826,0,0,0,.747,4.584,2.693,2.693,0,0,0,5.15,0A11.827,11.827,0,0,0,625.5,66.8" transform="translate(-445.489 2108.521)"/>
    <path id="パス_715" data-name="パス 715" d="M651.163,66.762c0,2.4.309,3.116,2.163,3.116a.265.265,0,0,1,.283.257c0,.129-.1.258-.336.258h-4.248c-.8,0-1.031-.309-1.031-1.082a16.831,16.831,0,0,1,.335-2.7h-.077c-.645,2.678-2.266,4.043-4.4,4.043-3.579,0-6.13-2.781-6.13-6.542,0-4.4,3.117-7.493,6.592-7.493A3.818,3.818,0,0,1,648,59.037h.129a39.09,39.09,0,0,1-.205-4.532c0-4.2-.078-4.275-1.263-4.275h-.926a.231.231,0,0,1-.258-.257.251.251,0,0,1,.284-.258,14.017,14.017,0,0,0,5.047-.979.793.793,0,0,1,.205-.051.277.277,0,0,1,.283.308c0,.1,0,.258-.051,1.107-.052.9-.078,1.52-.078,2.91ZM648.1,62.719c0-4.4-1.777-5.589-3.581-5.589-2.137,0-3.3,2.344-3.3,6.8,0,3.116.953,5.975,3.322,5.975,1.828,0,3.555-2.009,3.555-6.412Z" transform="translate(-451.862 2111.677)"/>
    <path id="パス_716" data-name="パス 716" d="M675.564,70.046c0,2.4.31,2.988,2.163,2.988a.259.259,0,1,1,0,.515h-4.3c-.8,0-.9-.309-.9-1.082a21.5,21.5,0,0,1,.232-2.215h-.129c-.541,2.189-2.189,3.554-4.944,3.554-2.807,0-4.506-1.545-4.506-4.4V62.089c0-.721-.052-1.288-1-1.288H661.3a.259.259,0,1,1,0-.516,23.275,23.275,0,0,0,4.378-.334,7.866,7.866,0,0,1,.85-.155.231.231,0,0,1,.258.258,2.356,2.356,0,0,1-.077.515,24.651,24.651,0,0,0-.308,3.682v4.893c0,2.6.823,3.76,2.678,3.76,2.086,0,3.27-1.88,3.27-4.095V62.346c0-.849-.052-1.545-1-1.545H669.95a.259.259,0,1,1,0-.516,17.6,17.6,0,0,0,5.177-.437.821.821,0,0,1,.361-.077.257.257,0,0,1,.283.283,5.479,5.479,0,0,1-.051.592,29.87,29.87,0,0,0-.155,4.018Z" transform="translate(-458.491 2108.521)"/>
    <path id="パス_717" data-name="パス 717" d="M697.465,61.238a2.849,2.849,0,0,1,.721,1.854c0,1.313-.592,2.241-1.88,2.241a1.42,1.42,0,1,1,.052-2.833c.18,0,.335-.1.335-.386,0-.952-1.107-1.829-2.575-1.829a2.842,2.842,0,0,0-2.291,1.03c-1.056,1.159-1.519,3.4-1.519,5.511,0,2.884.592,4.686,1.751,5.665a2.639,2.639,0,0,0,1.932.7c1.828,0,3.013-.824,4.094-3.244a.267.267,0,0,1,.258-.18.271.271,0,0,1,.283.283.482.482,0,0,1-.051.18c-1.159,2.575-2.7,3.553-5.124,3.553-3.965,0-6.7-2.575-6.7-6.464,0-4.687,3.219-7.545,7.031-7.545a4.864,4.864,0,0,1,3.682,1.468" transform="translate(-465.816 2108.522)"/>
    <path id="パス_718" data-name="パス 718" d="M718.256,65.23h-8.6a14.025,14.025,0,0,0-.077,1.467c0,2.319.438,4.481,1.52,5.64a2.8,2.8,0,0,0,2.111.876,4.972,4.972,0,0,0,4.481-2.91.273.273,0,0,1,.232-.155.287.287,0,0,1,.308.257.31.31,0,0,1-.052.206,5.928,5.928,0,0,1-5.536,3.194,6.6,6.6,0,0,1-6.592-6.618,7.087,7.087,0,0,1,6.773-7.417c3.322,0,5.434,2.215,5.434,5.074Zm-3.889-.515c.567,0,.643-.129.643-.643a5.4,5.4,0,0,0-.8-2.988,2.064,2.064,0,0,0-1.622-.8,2.023,2.023,0,0,0-1.778.85,8.149,8.149,0,0,0-1.107,3.579Z" transform="translate(-471.308 2108.521)"/>
    <path id="パス_719" data-name="パス 719" d="M738.346,62.149a1.8,1.8,0,1,1-1.8-1.8,1.808,1.808,0,0,1,1.8,1.8m0,10.017a1.8,1.8,0,1,1-1.8-1.8,1.809,1.809,0,0,1,1.8,1.8" transform="translate(-479.474 2108.358)"/>
    <path id="パス_720" data-name="パス 720" d="M772.989,67.946c0,2.729.515,2.781,2.575,2.884a.258.258,0,0,1,0,.515c-.1,0-.541-.026-.953-.052-1.236-.077-2.576-.1-3.3-.1-1.133,0-2.008.026-2.729.077s-1.21.077-1.545.077a.258.258,0,1,1,0-.515c2.343-.077,2.574-.155,2.574-2.884V53.988l-6.875,17.1a.3.3,0,0,1-.283.18.263.263,0,0,1-.258-.206l-7.288-16.79V67.636c0,2.653,1.21,3.194,3.4,3.194a.258.258,0,1,1,0,.515c-.128,0-.386,0-1.03-.052-.8-.052-1.8-.077-2.575-.077-.824,0-1.519.026-2.06.052-.567.052-1,.077-1.339.077a.258.258,0,0,1,0-.515c2.035,0,2.962-.618,2.962-3.194V54.3c0-1.545-.051-1.6-2.575-1.751a.244.244,0,0,1-.257-.258.258.258,0,0,1,.257-.258c.31,0,1.057,0,1.983.026.979.026,2.163.052,3.322.052.593,0,.8.129.979.567L763.9,66.607l5.356-13.417c.386-.979.67-1.082,1.648-1.082,1,0,2.035,0,3.322-.052.773-.026,1.107-.026,1.339-.026a.258.258,0,0,1,0,.516c-2.524,0-2.575.206-2.575,1.751Z" transform="translate(-484.115 2110.724)"/>
    <path id="パス_721" data-name="パス 721" d="M794.381,69.131c0,1.545.052,1.6,2.575,1.7a.258.258,0,1,1,0,.515c-.1,0-.283,0-.824-.026-1-.052-2.394-.1-3.425-.1s-2.421.051-3.425.1c-.541.026-.721.026-.824.026a.258.258,0,1,1,0-.515c2.524-.1,2.575-.155,2.575-1.7V54.246c0-1.545-.051-1.6-2.575-1.7a.258.258,0,1,1,0-.515c.1,0,.283,0,.824.026,1,.052,2.4.1,3.425.1s2.421-.052,3.425-.1c.541-.026.721-.026.824-.026a.258.258,0,1,1,0,.515c-2.524.1-2.575.155-2.575,1.7Z" transform="translate(-494.688 2110.724)"/>
    <path id="パス_722" data-name="パス 722" d="M825.261,67.946c0,2.729.515,2.781,2.575,2.884a.258.258,0,0,1,0,.515c-.1,0-.541-.026-.953-.052-1.236-.077-2.575-.1-3.3-.1-1.133,0-2.008.026-2.729.077s-1.21.077-1.545.077a.258.258,0,1,1,0-.515c2.343-.077,2.574-.155,2.574-2.884V53.988l-6.875,17.1a.3.3,0,0,1-.283.18.263.263,0,0,1-.258-.206l-7.288-16.79V67.636c0,2.653,1.21,3.194,3.4,3.194a.258.258,0,1,1,0,.515c-.128,0-.386,0-1.029-.052-.8-.052-1.8-.077-2.575-.077-.824,0-1.519.026-2.06.052-.567.052-1,.077-1.339.077a.258.258,0,0,1,0-.515c2.035,0,2.962-.618,2.962-3.194V54.3c0-1.545-.051-1.6-2.575-1.751a.244.244,0,0,1-.257-.258.258.258,0,0,1,.257-.258c.31,0,1.057,0,1.983.026.979.026,2.163.052,3.322.052.593,0,.8.129.979.567l5.923,13.932,5.355-13.417c.386-.979.67-1.082,1.648-1.082,1,0,2.035,0,3.322-.052.773-.026,1.107-.026,1.339-.026a.258.258,0,0,1,0,.516c-2.524,0-2.575.206-2.575,1.751Z" transform="translate(-498.992 2110.724)"/>
    <path id="パス_723" data-name="パス 723" d="M846.652,69.131c0,1.545.052,1.6,2.575,1.7a.258.258,0,0,1,0,.515c-.1,0-.283,0-.824-.026-1-.052-2.394-.1-3.425-.1s-2.421.051-3.425.1c-.541.026-.721.026-.824.026a.258.258,0,0,1,0-.515c2.524-.1,2.575-.155,2.575-1.7V54.246c0-1.545-.051-1.6-2.575-1.7a.258.258,0,0,1,0-.515c.1,0,.283,0,.824.026,1,.052,2.4.1,3.425.1s2.421-.052,3.425-.1c.541-.026.721-.026.824-.026a.258.258,0,0,1,0,.515c-2.524.1-2.575.155-2.575,1.7Z" transform="translate(-509.565 2110.724)"/>
  </g>
</svg>
