<svg xmlns="http://www.w3.org/2000/svg" width="272.815" height="92.317" viewBox="0 0 272.815 92.317">
  <g id="グループ_192" data-name="グループ 192" transform="translate(270.365 -2125.533)">
    <path id="パス_691" data-name="パス 691" d="M365.342,113.573c0,1.185.129,2.884.129,4.146,0,1.288-.618,1.905-1.519,1.905-.618,0-1.082-.437-1.442-1.133a4.751,4.751,0,0,1-.67-2.034,2.449,2.449,0,0,1,.258-1.056,3.428,3.428,0,0,0,.18-1.364c.051-2.009.1-4.275.18-6.49.051-1.467.051-3.012.025-4.609,0-1.519-.077-1.829-.489-2.188a3.21,3.21,0,0,0-.85-.541c-.129-.077-.206-.155-.206-.233s.077-.154.18-.231a3.126,3.126,0,0,1,1.467-.541,4.562,4.562,0,0,1,2.163.85c.773.515,1.288.953,1.288,1.57,0,.232-.026.361-.335.592-.361.258-.386.464-.438,1.365-.026.644-.051,1.262-.051,1.88,0,.438.026.85.026,1.262h.155a8.867,8.867,0,0,1,4.79,1.236c1.082.747,1.957,1.57,1.957,2.91a1.728,1.728,0,0,1-1.726,1.906c-.876,0-1.494-.516-1.932-1.571a6.67,6.67,0,0,0-3.244-3.709c.026,2.06.077,3.966.1,6.077m4.12-12.231a5.545,5.545,0,0,1,2.781.644,1.744,1.744,0,0,1,.979,1.442,1.1,1.1,0,0,1-1,1.158c-.361,0-.67-.155-.979-.7A5.456,5.456,0,0,0,369.2,101.7c-.129-.052-.18-.129-.18-.207s.077-.154.258-.154Zm2.807-1.829a5.014,5.014,0,0,1,2.189.412,1.724,1.724,0,0,1,1.081,1.468.98.98,0,0,1-.9,1.082c-.336,0-.593-.1-1-.7A5.168,5.168,0,0,0,371.5,99.9c-.129-.052-.18-.129-.18-.206s.077-.129.232-.155a6.994,6.994,0,0,1,.721-.026" transform="translate(-373.089 2097.299)"/>
    <path id="パス_662" data-name="パス 662" d="M62.617,13.289H61.174c-.026.308-.232.541-.9.8v1.854l.258,5.846c.077,1.571-2.138,2.729-3.94,2.729-.618,0-.747-.1-.824-.669-.155-1.056-.721-1.674-2.859-2.292v-.283c.361,0,.747.026,1.107.026.644,0,1.313-.026,1.957-.077.953-.077,1.236-.309,1.236-1.21v-6.72H55.02v.541c0,.823-.9,1.287-2.317,1.287-.747,0-.927-.1-.9-.876L52.007,9.3V6.671A3.46,3.46,0,0,0,51.8,5l.18-.18a18.926,18.926,0,0,1,3.45,1.21h.824a23.149,23.149,0,0,0,.412-3.27H51.106c-.077.155-.283.309-.721.464V8.473c0,7.957-1.6,11.846-5.717,14.91l-.206-.18c2.086-2.7,2.936-6.283,2.936-13.88v-6a4.65,4.65,0,0,0-.335-2.163l.18-.18A12.9,12.9,0,0,1,51,2.293H63.9C65.141.593,65.629,0,65.861,0s.541.154,1.623,1.055,1.262,1.159,1.262,1.391-.129.309-.541.309H61.123c-.1.309-.335.412-.876.541a32.831,32.831,0,0,1-2.42,2.729H62.1c.979-1.287,1.107-1.493,1.391-1.493.309,0,.567.18,1.674.953,1.158.824,1.519,1.185,1.519,1.52,0,.308-.18.463-.953.773V9.683l.206,3.554c.077,1.159-.567,1.673-2.472,1.673-.721,0-.85-.1-.85-.747Zm-9.785,2.188c2.729,1.185,3.5,1.571,3.5,1.983,0,.361-.309.489-1.236.592a16.25,16.25,0,0,1-7.622,5.021l-.18-.207a15.64,15.64,0,0,0,4.815-5.9,4.194,4.194,0,0,0,.489-1.365ZM55.02,9.3h7.6V6.49h-7c-.052.155-.232.257-.592.386Zm0,3.528h7.6V9.76h-7.6Zm6.412,2.962c3.965.515,6.824,2.4,6.824,4.893A1.752,1.752,0,0,1,66.4,22.61a1.642,1.642,0,0,1-1.648-1.442c-.567-2.24-1.313-3.94-3.425-5.2Z" transform="translate(-283.019 2125.532)"/>
    <path id="パス_663" data-name="パス 663" d="M85.746.252c3.476.979,4.068,1.288,4.068,1.726,0,.258-.18.489-1.082.618a35.061,35.061,0,0,1-2.292,4.867c1.339.233,1.726.413,1.726.721,0,.283-.18.439-.953.7v14.4c0,1.03-.85,1.313-2.111,1.313-.824,0-1.03-.051-1-.927l.206-8.446V10.553a18.691,18.691,0,0,1-3.348,3.141l-.206-.206A30.828,30.828,0,0,0,85.437,1.746a3.662,3.662,0,0,0,.1-.875,3.284,3.284,0,0,0-.026-.489Zm8.6,12.412V6.638h-.8a18.322,18.322,0,0,1-5.33,5.3l-.155-.18A26.768,26.768,0,0,0,92.286,2.7,7.473,7.473,0,0,0,92.6.871,1.581,1.581,0,0,0,92.57.51l.206-.155c3.683.927,4.172,1.262,4.172,1.725,0,.412-.361.592-1.262.721a29.562,29.562,0,0,1-1.829,3.374h6.618c1.519-2.086,1.777-2.4,2.035-2.4s.567.18,1.519,1c1.082.927,1.21,1.185,1.21,1.468,0,.31-.155.386-.618.386H98.184c-.051.386-.258.592-.773.8v4.506H99.78c1.391-1.854,1.7-2.163,1.906-2.163.283,0,.567.206,1.391.927.978.85,1.158,1.03,1.158,1.313,0,.308-.155.386-.567.386H97.411l.1,5.279H99.78c1.391-1.854,1.7-2.163,1.906-2.163.258,0,.515.129,1.365.9.952.875,1.184,1.055,1.184,1.339,0,.309-.155.386-.567.386H97.514l.1,4.995c.026.927-.669,1.442-2.472,1.442-.876,0-1.03-.1-1-.978Z" transform="translate(-293.346 2125.461)"/>
    <path id="パス_664" data-name="パス 664" d="M123.752,18.9a2.575,2.575,0,1,1,2.575-2.575,2.582,2.582,0,0,1-2.575,2.575" transform="translate(-304.852 2121.619)"/>
    <path id="パス_665" data-name="パス 665" d="M138.8,17.083a6.328,6.328,0,0,0-.206-2.138l.18-.18A15.328,15.328,0,0,1,142.125,16h9.709c.978-1.288,1.158-1.493,1.442-1.493.258,0,.541.155,1.623.952,1.107.824,1.391,1.185,1.391,1.417,0,.334-.129.463-.953.875v5.459h.18c1.185-2.086,1.416-2.291,1.6-2.291s.386.077,1.467,1.235c.67.721.8.979.8,1.21,0,.206-.155.309-.592.309H141.867c-2.24,0-4.97.052-6.309.206l-.231-.876c.85.077,2.111.155,3.476.18ZM145.292,2.3c1.158-1.6,1.339-1.725,1.519-1.725.232,0,.567.18,1.391.9.747.67.85.823.85,1.03,0,.154-.129.258-.515.258h-4.506c-.052.231-.18.309-.464.437V5.778h.67c.747-1.03.979-1.288,1.21-1.288s.592.18,1.262.67c.875.643,1.029.849,1.029,1,0,.232-.077.283-.618.618v.592l.052,2.575c0,.542-.413.927-1.674.927-.979,0-1.03-.077-1.03-.644V9.795h-.412c-.052.284-.155.386-.489.516v2.754h1.906c1.158-1.6,1.339-1.725,1.519-1.725.232,0,.567.18,1.391.9.747.67.85.823.85,1.029,0,.155-.129.258-.515.258h-9.708v.1c0,.927-.489,1.572-2.06,1.572-.618,0-.8-.052-.8-.773v-.155l.155-7.391V3.821a6.355,6.355,0,0,0-.283-2.6l.18-.18A12.167,12.167,0,0,1,139.524,2.3Zm-4.327,3.477V2.765h-1.39a1.261,1.261,0,0,1-.567.335V5.778Zm-1.957,3.554h5.459V6.242h-5.459Zm1.957.463h-1.957v3.27h1.957Zm.721,13.417h1.623V16.465h-1.03c-.051.155-.232.258-.592.386Zm4.4,0h1.623V16.465h-.979c-.051.283-.205.439-.644.541Zm8.653-17.923c1.417-1.957,1.674-2.188,1.906-2.188s.567.18,1.751,1.159c.8.669.926.823.926,1.107,0,.308-.155.386-.592.386h-6.72a16.5,16.5,0,0,1-4.584,4.739l-.18-.18a20.845,20.845,0,0,0,3.09-8.241,6.406,6.406,0,0,0,.129-1.185,1.584,1.584,0,0,0-.026-.361L150.674.4c3.4,1,4.171,1.442,4.171,1.8,0,.437-.438.592-1.313.7A26.12,26.12,0,0,1,152.3,5.289Zm-5.691,5a29.2,29.2,0,0,0,3.553.206h1.185c1.391-1.932,1.623-2.138,1.829-2.138.232,0,.7.284,1.545.979.954.8,1.107,1.081,1.107,1.287,0,.258-.128.335-.514.335h-5.151a23.486,23.486,0,0,0-3.322.206Zm1.494,12.927h1.7V16.465H151.19c-.052.283-.206.439-.644.541Z" transform="translate(-308.879 2125.42)"/>
    <path id="パス_666" data-name="パス 666" d="M174.634.108c3.27.773,3.991,1.056,3.991,1.494,0,.258-.155.489-1.056.67a30.2,30.2,0,0,1-2.317,5.949c1.21.205,1.57.386,1.57.7,0,.283-.18.437-.953.695V23.233c0,1.03-.9,1.313-2.085,1.313-.85,0-.9-.051-.876-.926l.206-8.446V11.541a29.636,29.636,0,0,1-2.266,2.6l-.206-.18a35.971,35.971,0,0,0,3.786-12.334c.026-.258.051-.489.051-.722a5.882,5.882,0,0,0-.051-.643Zm15.373,4.3c1.751.644,2.369,1,2.369,1.288,0,.309-.283.489-.927.515a22.782,22.782,0,0,1-2.318,3.116,25.651,25.651,0,0,0,6.232,1.545l-.051.309a3.567,3.567,0,0,0-1.777,2.008c-.258.593-.515.773-.669.773a3.2,3.2,0,0,1-1.082-.283,14.209,14.209,0,0,1-4.428-2.7,13.471,13.471,0,0,1-3.709,1.957,28.058,28.058,0,0,1-3.579.876l.129,5.176c.026,1-1.03,1.339-2.086,1.339-.618,0-.8-.077-.8-.747v-.155l.129-7.261.026-5.073a3.784,3.784,0,0,0-.258-1.906l.155-.206c3.244.438,3.631.618,3.631,1.03,0,.232-.18.464-.952.7v5.511l.026,1.262a15.346,15.346,0,0,0,2.06-1,15.014,15.014,0,0,0,3.657-2.962,10.994,10.994,0,0,1-1.648-3.965,15.283,15.283,0,0,1-3.811,3.219l-.155-.18a20.341,20.341,0,0,0,2.961-6.748,5.393,5.393,0,0,0,.18-1.107,1.824,1.824,0,0,0-.026-.361l.258-.129c2.832.8,3.759,1.133,3.759,1.494,0,.412-.308.541-1.107.643a18,18,0,0,1-.9,1.572h4.918c1.365-1.752,1.673-2.035,1.906-2.035.283,0,.592.18,1.6,1,.8.67,1.056.953,1.056,1.159,0,.258-.129.335-.567.335Zm1.983,12.773c2.549,1.726,2.961,2.086,2.961,2.5,0,.258-.155.438-.747.438-.1,0-.232-.026-.386-.026-4.764,3.347-10.069,4.274-16.506,4.3l-.026-.233c5.949-1,9.734-2.574,13.623-5.9a4.144,4.144,0,0,0,.824-1.03Zm-2.756-2.7c2.472,1.494,2.884,1.829,2.884,2.215,0,.258-.129.412-.9.412h-.206c-3.142,2.291-7.107,3.4-11.485,3.811l-.051-.232a19.858,19.858,0,0,0,8.575-4.867,3.4,3.4,0,0,0,.9-1.261ZM186.762,11.8c2.369,1.262,2.756,1.57,2.756,1.983,0,.206-.129.386-.979.412a18.046,18.046,0,0,1-8.009,3.013l-.128-.232a16.586,16.586,0,0,0,5.639-4.2,2.369,2.369,0,0,0,.514-.876Zm-1.776-7.391-.567.8a7.356,7.356,0,0,0,2.5,2.91,16.7,16.7,0,0,0,1.57-2.807,2.854,2.854,0,0,0,.258-.9Z" transform="translate(-318.93 2125.502)"/>
    <path id="パス_667" data-name="パス 667" d="M224.235,9.691a2.061,2.061,0,0,1-2.06,2.034,2.047,2.047,0,0,1,0-4.094,2.066,2.066,0,0,1,2.06,2.06m0,9.914a2.061,2.061,0,0,1-2.06,2.035,2.048,2.048,0,0,1,0-4.095,2.066,2.066,0,0,1,2.06,2.06" transform="translate(-333.017 2123.361)"/>
    <path id="パス_668" data-name="パス 668" d="M245.6,8.7V4.455c-1.313.18-2.678.334-3.888.411l-.129-.335a27.365,27.365,0,0,0,7.21-3.219,1.973,1.973,0,0,0,.7-.747l.283-.026c2.266,1.674,2.729,2.035,2.729,2.447,0,.257-.18.386-.823.386a4.17,4.17,0,0,1-.541-.026c-.644.206-1.416.386-2.266.567.412.206.489.361.489.489,0,.233-.129.361-1.056.593V8.7h.541c1.159-1.674,1.468-1.957,1.648-1.957s.515.206,1.236.824c.824.721,1.056.978,1.056,1.21,0,.308-.155.386-.592.386H248.3v2.91c2.241.438,3.657,1.545,3.657,2.987,0,1.133-.464,1.8-1.623,1.8-.669,0-1.107-.514-1.158-1.494a4.006,4.006,0,0,0-.876-2.729v3.425l.1,7.262c.026,1.132-1,1.391-2.266,1.391-.9,0-.978-.1-.952-.927l.386-8.884A18.581,18.581,0,0,1,241.12,19.7l-.206-.18a28.839,28.839,0,0,0,4.172-10.351,32.9,32.9,0,0,0-3.734.206L241.12,8.5c1.726.155,2.781.206,4.172.206Zm12.9.129c-.051,3.888-.567,7.261-1.829,9.759-1.441,2.859-4.068,4.918-8.034,6.129l-.1-.232a13.7,13.7,0,0,0,5.9-6.953c1.159-3.013,1.339-6.773,1.339-11.356V2.857A4.446,4.446,0,0,0,255.464.8l.18-.18c3.5.464,4.352.7,4.352,1.159,0,.335-.206.438-1.082.747-.052,1.132-.077,2.394-.077,3.631a28.612,28.612,0,0,0,.464,4.687,25.727,25.727,0,0,0,1.854-3.656,4.7,4.7,0,0,0,.489-1.7v-.1l.206-.1c2.472,1.494,3.5,2.189,3.5,2.781,0,.361-.129.464-.876.464h-.464a33.649,33.649,0,0,1-4.506,3.347,19.622,19.622,0,0,0,1.777,4.893,12.272,12.272,0,0,0,4.584,4.815l-.077.335a5.331,5.331,0,0,0-2.472,1.957c-.233.309-.361.438-.567.438s-.438-.155-.747-.541a14.009,14.009,0,0,1-2.859-6.283,31.8,31.8,0,0,1-.515-6.542c0-.67.026-1.364.026-2.111Zm-4.944-2.241a7.31,7.31,0,0,1,1.468,4.429c0,2.035-1.056,2.936-2.163,2.936a1.363,1.363,0,0,1-1.416-1.545,2.125,2.125,0,0,1,.773-1.623,3.785,3.785,0,0,0,1.159-2.961,10.185,10.185,0,0,0-.052-1.159Z" transform="translate(-338.929 2125.379)"/>
    <path id="パス_669" data-name="パス 669" d="M277.238,24.3a10.5,10.5,0,0,0,5.614-5.459c.876-1.854,1.236-4.069,1.236-9.451-2.6.026-4.738.077-6.335.206l-.232-.876c1.982.155,4.506.207,7.673.207h10.481c1.6-2.189,1.983-2.6,2.189-2.6.335,0,.7.18,1.854,1.133,1.288,1.055,1.442,1.261,1.442,1.6,0,.258-.155.335-.876.335h-6.077c-.026.361-.18.541-.7.644v9.6c0,1.107.052,1.133,2.112,1.133,2.034,0,2.5-.257,2.987-.849a12.973,12.973,0,0,0,1.854-3.965l.283.051c-.155,1.571-.206,2.781-.206,3.425a1.436,1.436,0,0,0,.489,1.158,1.368,1.368,0,0,1,.489,1.107,1.791,1.791,0,0,1-.953,1.623c-.515.309-1.983.592-5.33.592-4.558,0-5.1-.412-5.048-3.579l.1-6.232V9.388H288.1c-.026.386-.232.567-.7.644,0,4.558-.592,8.009-2.318,10.327-1.622,2.189-3.734,3.425-7.776,4.222Zm16.2-21.528C294.878.762,295.264.324,295.547.324c.231,0,.592.258,1.674,1.21s1.21,1.16,1.21,1.391-.129.308-.541.308H286.714c-2.653,0-4.712.052-6.309.207l-.232-.876c1.751.155,3.812.206,6.541.206Z" transform="translate(-349.267 2125.44)"/>
    <path id="パス_670" data-name="パス 670" d="M333.185,10.568l.155,2.859a1.175,1.175,0,0,1-.283.85c2.24,1.364,2.7,1.829,2.7,2.163,0,.386-.361.515-1.133.515H334.4a30.686,30.686,0,0,1-3.3,1.082,16.7,16.7,0,0,0,6,2.4v.308a3.783,3.783,0,0,0-2.447,2.035c-.232.515-.386.644-.567.644a2.014,2.014,0,0,1-.849-.335c-3.863-2.292-5.434-4.867-5.974-9.373h-.206L327.444,22c.077,1.751-1.52,2.6-3.734,2.6-.386,0-.438-.1-.515-.464-.205-1.159-.566-1.829-2.317-2.318v-.283c.849,0,1.622-.026,2.446-.1.67-.052.927-.258.927-1.159V18.989a36.747,36.747,0,0,1-5.2,3.4,1.511,1.511,0,0,1-.721.283c-.206,0-.386-.129-.515-.412-.361-.8-.67-1.545-.979-2.447l.077-.231a18.677,18.677,0,0,0,2.06-.232,42.37,42.37,0,0,0,5.279-1.21V13.71a46.821,46.821,0,0,0-5.33.206l-.232-.876a52.622,52.622,0,0,0,5.562.207V10.568h-2.472c-1.391,0-2.6.026-3.606.052v.154c0,7.21-1.751,10.738-5.3,13.416l-.206-.18c1.88-2.806,2.5-6.437,2.5-12.746V4.8a4.653,4.653,0,0,0-.335-2.163l.18-.18c2.549.669,3.5,1.03,3.811,1.313h4.944V2.482A4,4,0,0,0,323.426.4l.206-.18c3.528.438,4.352.7,4.352,1.185,0,.283-.18.515-1.055.747V3.769H331.8c1.39-1.931,1.726-2.292,1.957-2.292s.541.155,1.622,1.057,1.262,1.158,1.262,1.39-.129.309-.541.309h-17.2a1.378,1.378,0,0,1-.721.464v5.357c1.03.026,2.215.051,3.606.051h2.472V7.658a49.243,49.243,0,0,0-5.176.206l-.232-.876c1.339.129,2.961.207,5.408.207V6.551a3.643,3.643,0,0,0-.309-1.88l.18-.18c3.322.386,4.043.619,4.043,1.082,0,.283-.231.489-.978.7v.927h2.678c.979-1.21,1.159-1.468,1.391-1.468.258,0,.618.206,1.52.927,1.132.9,1.339,1.159,1.339,1.416s-.231.516-.953.9V10.1h.155c1.132-1.751,1.39-1.957,1.57-1.957.206,0,.438.128,1.159.8.953.9,1.056,1.082,1.056,1.313s-.129.308-.515.308ZM319,14.3c2.859.078,4.3,1.082,4.3,2.575a1.563,1.563,0,0,1-1.6,1.623c-.773,0-1.21-.386-1.391-1.442a3.192,3.192,0,0,0-1.416-2.55Zm8.189-4.2h2.987V7.658h-2.987Zm0,3.142h2.987V10.569h-2.987Zm2.987.464H327.65a11.576,11.576,0,0,0,1.029,1.931,9.25,9.25,0,0,0,1.726,1.88,14.5,14.5,0,0,0,1.468-2.241c.1-.206.206-.386.283-.541a4.184,4.184,0,0,1-1.029.1c-.824,0-.953-.1-.953-.9Z" transform="translate(-359.349 2125.471)"/>
    <path id="パス_671" data-name="パス 671" d="M84.015,51.647l.1,1.7a.984.984,0,0,1-.747,1c.18.155.412.335.747.619.077.051.129.1.206.154a6.594,6.594,0,0,0,.515-.67,4.062,4.062,0,0,0,.85-1.623l.232-.128c3.013,1.648,3.347,2.008,3.347,2.42,0,.283-.309.489-1.313.489a27.13,27.13,0,0,1-4.249,3.966h2.446c1.236-1.52,1.726-2.035,1.957-2.035s.541.129,1.622.952c1.082.8,1.262,1.031,1.262,1.237,0,.231-.129.308-.541.308h-7.39a37.729,37.729,0,0,1-4.971,3.039h5.846c1.185-1.236,1.313-1.365,1.545-1.365s.489.077,1.571.9c.979.747,1.159,1,1.159,1.288s-.206.437-.876.747v1.725l.155,4.713c.026.927-1.236,1.262-2.215,1.262-.876,0-1.03-.1-1.03-.773v-.644H76.213v.412c0,.927-.721,1.236-2.292,1.236-.67,0-.85-.077-.823-.824l.154-4.815V65.218a40.408,40.408,0,0,1-6.205,1.8l-.129-.258a45.818,45.818,0,0,0,6.335-2.936,4.128,4.128,0,0,0-.231-1.751l.18-.18c1,.258,1.725.464,2.266.618A42.759,42.759,0,0,0,79.1,60.041H73.251c-2.652,0-4.97.052-6.309.207l-.232-.876c1.494.155,3.812.206,6.541.206H76.8V56.359h-.721c-2.5,0-4.815.052-6.155.206l-.232-.876c1.493.155,3.811.207,6.386.207H76.8v-.927a4.243,4.243,0,0,0-.309-2.086l.18-.18c3.4.438,4.068.592,4.068,1.081,0,.284-.18.464-1.03.7V55.9h1.236c.489-.593.876-1.031,1.133-1.313H81.8c-.644,0-.8-.1-.773-.825l.1-2.111H76.058l.1,1.751c.052.851-.773,1.236-2.241,1.236-.644,0-.8-.1-.773-.823l.1-2.163c-2.575,0-4.893.052-6.205.206l-.233-.876c1.468.155,3.786.206,6.464.206V50.076a3.288,3.288,0,0,0-.283-1.571l.18-.18c3.065.258,3.657.54,3.657.926,0,.283-.232.464-.8.67v1.262h5.124V50.1a3.292,3.292,0,0,0-.283-1.57l.18-.18c3.064.257,3.734.541,3.734.927,0,.283-.231.463-.8.669v1.236h1.828c1.416-1.725,1.829-2.138,2.06-2.138s.592.18,1.6,1.005c1.107.9,1.261,1.055,1.261,1.286s-.129.31-.541.31Zm-7.8,15.039h8.034V63.544H77.166c-.309.155-.644.309-.953.437Zm8.034.463H76.213v3.322h8.034Zm-4.532-10.79v3.194a31.851,31.851,0,0,0,3.528-3.194Z" transform="translate(-289.351 2111.779)"/>
    <path id="パス_672" data-name="パス 672" d="M109.287,57.2c-2.653,0-4.97.052-6.309.206l-.232-.876c1.494.155,3.811.206,6.541.206H111.3V52.7h-.49c-2.111,0-4.429.052-5.768.206l-.231-.876c1.493.155,3.811.206,6,.206h.49V50.482a4.749,4.749,0,0,0-.31-2.086l.18-.18c3.374.439,4.275.67,4.275,1.159,0,.284-.18.464-1.029.7v2.163h.258c1.339-1.777,1.648-2.034,1.905-2.034s.541.205,1.494.978q.541.465.773.7c.335-.489.644-.979.927-1.442a4.033,4.033,0,0,0,.592-1.751l.232-.129c3.322,1.673,3.759,2.137,3.759,2.55,0,.283-.335.463-1.339.514a62.506,62.506,0,0,1-4.275,5.124h3.451c1.235-1.7,1.725-2.292,1.957-2.292s.541.155,1.623,1.057,1.262,1.158,1.262,1.39-.129.309-.541.309H118.3a40.37,40.37,0,0,1-4.249,3.888h5.073c1-1.261,1.288-1.442,1.52-1.442.335,0,.592.155,1.623.927,1.107.849,1.338,1.159,1.338,1.442s-.232.489-.952.825V65.83l.231,5.048c.052.978-1,1.545-2.394,1.545-.927,0-1.03-.128-1.03-.9v-.643h-7.107v.283c0,.9-.592,1.442-2.4,1.442-.669,0-.875-.1-.849-.927l.206-6.128V64.26a36.059,36.059,0,0,1-6.258,2.678l-.155-.232a38.449,38.449,0,0,0,6.412-4.352,6.543,6.543,0,0,0-.283-2.4l.18-.18c1,.258,1.751.464,2.291.645,1.107-1.031,2.138-2.112,3.168-3.219Zm3.064,8.446h7.107V61.556h-6c-.361.283-.721.541-1.107.8Zm7.107.464h-7.107v4.3h7.107ZM114.411,52.7V56.74h.67a48.788,48.788,0,0,0,3.193-4.043Z" transform="translate(-299.606 2111.81)"/>
    <path id="パス_673" data-name="パス 673" d="M156.2,57.691a2.061,2.061,0,0,1-2.06,2.034,2.047,2.047,0,0,1,0-4.094,2.066,2.066,0,0,1,2.06,2.06m0,9.914a2.061,2.061,0,0,1-2.06,2.035,2.048,2.048,0,0,1,0-4.095,2.066,2.066,0,0,1,2.06,2.06" transform="translate(-313.653 2109.7)"/>
    <path id="パス_674" data-name="パス 674" d="M179.1,56.394v7.829c1.184-.18,2.343-.361,3.5-.617a25.306,25.306,0,0,0,.464-5.151v-6.9a5.507,5.507,0,0,0-.283-2.111l.18-.18c2.652.747,3.5,1.055,3.734,1.313h6.232c1.365-1.88,1.726-2.215,1.957-2.215s.464.1,1.545,1,1.21,1.133,1.21,1.366-.129.308-.542.308H186.743c-.1.206-.386.335-.824.438v4.739h5.588c1.21-1.391,1.468-1.6,1.674-1.6.232,0,.592.206,1.648,1.056.978.8,1.236,1.184,1.236,1.467s-.232.515-1.159.824a22.357,22.357,0,0,1-2.962,7.751,18.886,18.886,0,0,0,6.077,3.09v.284a5.889,5.889,0,0,0-2.137,2.291c-.232.412-.309.618-.567.618a1.42,1.42,0,0,1-.618-.232,14.735,14.735,0,0,1-4.662-3.579c-2.6,2.42-5.433,3.579-9.4,4.326l-.1-.206a17.8,17.8,0,0,0,8.086-6.361,16.143,16.143,0,0,1-1.159-3.631,37.639,37.639,0,0,1-.515-5.64h-1.03v1.8c0,6.875-2.91,11.51-8.137,13.776l-.18-.154a14.918,14.918,0,0,0,4.867-7.88,37.731,37.731,0,0,1-6.541,3.915,2.341,2.341,0,0,1-.876.308c-.18,0-.335-.1-.489-.412a18.605,18.605,0,0,1-1.185-3.116l.1-.206h.309c.644,0,1.313-.052,1.983-.1.18-.026.335-.026.515-.052V56.394a18.284,18.284,0,0,0-2.652.207l-.18-.876a21.6,21.6,0,0,0,2.832.205V50.806a5.312,5.312,0,0,0-.258-1.931l.155-.18c3.45.463,3.94.747,3.94,1.082,0,.308-.155.514-1.029.746V55.93h.129c1.107-1.725,1.364-1.982,1.545-1.982.155,0,.438.18,1.185.926.567.567.876.979.876,1.185,0,.257-.077.334-.386.334Zm8.317.283a16.727,16.727,0,0,0,2.549,6.928,22.723,22.723,0,0,0,1.906-6.928Z" transform="translate(-319.708 2111.769)"/>
    <path id="パス_675" data-name="パス 675" d="M222.454,59.206h3.837c1.726-2.317,1.983-2.523,2.215-2.523.283,0,.541.128,1.751,1.21,1.056.953,1.185,1.107,1.185,1.391,0,.309-.155.386-.618.386h-8.369V70.356h5.433c1.6-2.317,1.88-2.678,2.215-2.678.258,0,.618.206,1.622,1.055,1.262,1.056,1.52,1.416,1.52,1.674,0,.335-.155.412-.9.412H216.171c-2.24,0-4.97.052-6.309.205l-.232-.875c1.494.155,4.3.206,6.541.206h2.936V50.965a5.329,5.329,0,0,0-.283-2.163l.18-.155c3.5.386,4.481.7,4.481,1.056,0,.386-.1.463-1.03.8Z" transform="translate(-330.026 2111.687)"/>
    <path id="パス_676" data-name="パス 676" d="M249.561,56.7V52.455c-1.313.18-2.678.334-3.888.411l-.129-.335a27.365,27.365,0,0,0,7.211-3.219,1.973,1.973,0,0,0,.7-.747l.283-.026c2.266,1.674,2.729,2.035,2.729,2.447,0,.257-.18.386-.823.386a4.17,4.17,0,0,1-.541-.026c-.644.206-1.416.386-2.266.567.412.206.489.361.489.489,0,.233-.129.361-1.056.593V56.7h.541c1.159-1.674,1.468-1.957,1.648-1.957s.515.206,1.235.824c.824.721,1.056.978,1.056,1.21,0,.308-.155.386-.592.386h-3.888v2.91c2.241.438,3.657,1.545,3.657,2.987,0,1.133-.464,1.8-1.623,1.8-.669,0-1.107-.514-1.158-1.494a4.005,4.005,0,0,0-.876-2.729v3.425l.1,7.262c.026,1.132-1,1.391-2.266,1.391-.9,0-.978-.1-.952-.927l.386-8.884A18.581,18.581,0,0,1,245.08,67.7l-.206-.18a28.838,28.838,0,0,0,4.172-10.351,32.9,32.9,0,0,0-3.734.206l-.232-.876c1.726.155,2.781.206,4.172.206Zm12.9.129c-.052,3.888-.567,7.261-1.829,9.759-1.441,2.859-4.068,4.918-8.034,6.129l-.1-.232a13.7,13.7,0,0,0,5.9-6.953c1.159-3.013,1.339-6.773,1.339-11.356V50.857a4.446,4.446,0,0,0-.309-2.06l.18-.18c3.5.464,4.352.7,4.352,1.159,0,.335-.206.438-1.082.747-.052,1.132-.077,2.394-.077,3.631a28.606,28.606,0,0,0,.464,4.687,25.729,25.729,0,0,0,1.854-3.656,4.7,4.7,0,0,0,.489-1.7v-.1l.206-.1c2.472,1.494,3.5,2.189,3.5,2.781,0,.361-.129.464-.876.464h-.464a33.651,33.651,0,0,1-4.506,3.347,19.622,19.622,0,0,0,1.777,4.893,12.272,12.272,0,0,0,4.584,4.815l-.077.335a5.331,5.331,0,0,0-2.472,1.957c-.233.309-.361.438-.567.438s-.438-.155-.747-.541a14.008,14.008,0,0,1-2.859-6.283,31.8,31.8,0,0,1-.515-6.542c0-.67.026-1.364.026-2.111Zm-4.944-2.241a7.31,7.31,0,0,1,1.468,4.429c0,2.035-1.056,2.936-2.163,2.936a1.363,1.363,0,0,1-1.416-1.545,2.125,2.125,0,0,1,.773-1.623,3.785,3.785,0,0,0,1.159-2.961,10.188,10.188,0,0,0-.052-1.159Z" transform="translate(-340.056 2111.718)"/>
    <path id="パス_677" data-name="パス 677" d="M293.291,48.361c3.322.386,4.224.643,4.275,1.029,2.318.077,3.708,1.107,3.708,2.447a1.411,1.411,0,0,1-1.493,1.6c-.644,0-1.159-.437-1.262-1.364a3.063,3.063,0,0,0-1.082-2.318,2.206,2.206,0,0,1-.9.464c.026,1.391.052,2.678.13,3.888H300.4c1.236-1.7,1.725-2.291,1.957-2.291s.541.155,1.622,1.055,1.262,1.159,1.262,1.391-.129.308-.541.308H296.69a34.463,34.463,0,0,0,1.339,8.086A26.889,26.889,0,0,0,299.7,58.3a7.683,7.683,0,0,0,.386-1.854l.232-.1c3.27,1.442,3.734,1.906,3.734,2.318,0,.335-.386.541-1.288.566a26.454,26.454,0,0,1-3.45,6.309c.979,1.519,2.42,2.73,2.987,2.73a.814.814,0,0,0,.747-.412,24.915,24.915,0,0,0,2.138-3.347l.232.129a34.2,34.2,0,0,0-.773,3.553,2.376,2.376,0,0,0,.361,1.416,2.75,2.75,0,0,1,.412,1.364c0,.953-.67,1.494-1.777,1.494-1.931,0-4.584-1.829-6.438-4.481a19.874,19.874,0,0,1-7.931,4.043l-.1-.233a21.477,21.477,0,0,0,6.876-5.9,25.9,25.9,0,0,1-1.571-4.97,43.883,43.883,0,0,1-.85-6.361h-6.412a1.44,1.44,0,0,1-.567.335v4.249h2.575c1.056-1.288,1.261-1.494,1.545-1.494.335,0,.67.154,1.571.979,1,.927,1.133,1.158,1.133,1.442s-.206.438-.953.773a44.342,44.342,0,0,1-.541,5.407c-.386,1.829-.927,2.73-1.8,3.322a3.525,3.525,0,0,1-2.5.643c-.438,0-.567-.1-.644-.617a2.507,2.507,0,0,0-1.725-2.189,12.168,12.168,0,0,1-3.94,4.97l-.206-.206c2.189-3.528,2.447-7.03,2.447-13.57V55.931c0-1.751-.051-2.42-.309-2.884l.18-.18c2.652.619,3.5.979,3.734,1.236h6.361c-.051-1.056-.1-2.163-.129-3.322a6.628,6.628,0,0,0-.335-2.241Zm-6.67,11.252a22.078,22.078,0,0,1-1.185,7.442c.85.077,1.391.1,1.88.1.927,0,1.442-.18,1.726-1.313a41.687,41.687,0,0,0,.541-6.232Z" transform="translate(-350.384 2111.769)"/>
    <path id="パス_678" data-name="パス 678" d="M10.094,107.98c-.412.412-.824.773-1.262,1.159a23.522,23.522,0,0,1-8.523,4.738c-.052,0-.077.026-.129.026a.163.163,0,0,1-.18-.18c0-.077.026-.129.129-.206a41.1,41.1,0,0,0,7.056-6.052,26.448,26.448,0,0,0,4.4-6A3.174,3.174,0,0,0,12,100.461c0-.257-.1-.361-.386-.592a4.8,4.8,0,0,0-.567-.411.263.263,0,0,1-.18-.232c0-.078.052-.155.18-.206a3.81,3.81,0,0,1,1.365-.283,4.22,4.22,0,0,1,1.982.876c.876.592,1.571,1.133,1.571,1.879,0,.309-.155.542-.567.7-.438.18-.541.361-1.133,1.107-.824,1.03-1.623,2.035-2.5,2.987a5.193,5.193,0,0,1,.541.412c.592.489.9.773.9,1.056a.832.832,0,0,1-.18.567,1,1,0,0,0-.129.644v.489c0,3.785.18,6.644.18,8.6,0,1.365-.566,1.854-1.467,1.854-.67,0-1.082-.283-1.52-1.21a5.851,5.851,0,0,1-.592-2.035,1.963,1.963,0,0,1,.258-1,2.464,2.464,0,0,0,.232-1.056c.077-1.519.1-3.76.1-6.258Z" transform="translate(-270.365 2097.432)"/>
    <path id="パス_679" data-name="パス 679" d="M38.792,107.458c0-.206-.128-.206-.231-.206a7.379,7.379,0,0,0-1.03.18c-.979.232-2.318.567-3.347.9a6.072,6.072,0,0,0-1.829.8,1.57,1.57,0,0,1-1.082.463,2.676,2.676,0,0,1-1.674-.875c-.515-.464-1.081-1.107-1.081-1.494v-.309a1.28,1.28,0,0,1,.025-.308c.026-.206.1-.284.206-.284a.313.313,0,0,1,.232.1,4.159,4.159,0,0,0,.747.437,2.339,2.339,0,0,0,.953.232,11.59,11.59,0,0,0,2.035-.308c1.6-.336,3.116-.67,4.661-1.005.824-.18.9-.18,1.235-.567a.932.932,0,0,1,.876-.463,4.755,4.755,0,0,1,1.982.9c.85.567,1.726,1.261,1.726,1.905a.825.825,0,0,1-.541.7c-.592.232-.618.438-.927,1.262a17.443,17.443,0,0,1-5.459,7.726,17.243,17.243,0,0,1-7.056,3.167,3.562,3.562,0,0,1-.514.077c-.155,0-.258-.077-.258-.18,0-.077.052-.18.206-.258a18.371,18.371,0,0,0,5.9-4.378,19.081,19.081,0,0,0,3.889-6.825,7.925,7.925,0,0,0,.36-1.39m-9.064-6.077c.026-.18.077-.257.18-.257a.409.409,0,0,1,.206.077,7.936,7.936,0,0,0,.747.412,2.342,2.342,0,0,0,1,.206,11.055,11.055,0,0,0,1.571-.232c.747-.155,1.905-.463,2.7-.7a2.079,2.079,0,0,0,.953-.567c.258-.232.489-.258,1-.258a4.935,4.935,0,0,1,1.725.284c.618.232.953.617.953,1.107,0,.7-.567.953-1.416,1.159-1.313.309-3.5.72-4.918,1.056a9.055,9.055,0,0,1-1.88.257,2.9,2.9,0,0,1-1.931-.953,2.793,2.793,0,0,1-.9-1.339Z" transform="translate(-278.459 2097.053)"/>
    <path id="パス_680" data-name="パス 680" d="M58.494,116.076a18.71,18.71,0,0,1-8.807,3.553c-.155,0-.257-.077-.257-.155s.051-.155.18-.206a25.674,25.674,0,0,0,7.416-4.918,23.392,23.392,0,0,0,5.408-7.648,7.558,7.558,0,0,0,.515-1.416c0-.129-.077-.18-.232-.18a1.765,1.765,0,0,0-.335.051c-.85.206-2.138.567-2.935.851a5.6,5.6,0,0,0-1.288.695,1.761,1.761,0,0,1-1.056.438,2.688,2.688,0,0,1-1.571-.926c-.617-.645-1.21-1.211-1.21-1.829a2.357,2.357,0,0,1,.1-.669c.051-.18.129-.258.206-.258a.442.442,0,0,1,.308.155,4.513,4.513,0,0,0,.773.489,2.359,2.359,0,0,0,1,.283,7.613,7.613,0,0,0,1.442-.18c1.133-.205,2.7-.514,3.656-.721.567-.128.541-.128,1.03-.669a1.033,1.033,0,0,1,.8-.335,5.48,5.48,0,0,1,2.111.927c.979.67,1.777,1.288,1.777,2.009,0,.514-.283.592-.8.823-.67.31-.644.438-1.057,1.21a32.048,32.048,0,0,1-2.291,3.631,9.7,9.7,0,0,1,3.965,1.364,3.912,3.912,0,0,1,2.189,3.245,1.656,1.656,0,0,1-1.751,1.776c-1.03,0-1.442-.514-2.112-2.008a8.389,8.389,0,0,0-2.755-3.759,23.051,23.051,0,0,1-4.429,4.378" transform="translate(-284.433 2096.367)"/>
    <path id="パス_681" data-name="パス 681" d="M88.607,113.573c0,1.185.129,2.884.129,4.146,0,1.288-.618,1.905-1.519,1.905-.619,0-1.082-.437-1.442-1.133a4.741,4.741,0,0,1-.67-2.035,2.446,2.446,0,0,1,.258-1.055,3.433,3.433,0,0,0,.18-1.365c.052-2.008.1-4.274.18-6.489.052-1.468.052-3.013.026-4.609,0-1.519-.078-1.829-.489-2.189a3.227,3.227,0,0,0-.85-.541c-.129-.077-.206-.154-.206-.232s.077-.155.18-.231a3.118,3.118,0,0,1,1.468-.541,4.56,4.56,0,0,1,2.163.85c.773.514,1.288.953,1.288,1.57,0,.232-.026.361-.335.592-.361.258-.386.464-.438,1.365-.026.644-.051,1.262-.051,1.88,0,.437.026.85.026,1.262h.155a8.877,8.877,0,0,1,4.79,1.235c1.081.747,1.957,1.571,1.957,2.91a1.728,1.728,0,0,1-1.726,1.906c-.875,0-1.494-.516-1.931-1.572A6.67,6.67,0,0,0,88.5,107.5c.026,2.06.077,3.966.1,6.077" transform="translate(-294.33 2097.299)"/>
    <path id="パス_682" data-name="パス 682" d="M120.3,105.691a2.061,2.061,0,0,1-2.06,2.034,2.047,2.047,0,0,1,0-4.094,2.066,2.066,0,0,1,2.06,2.06m0,9.914a2.061,2.061,0,0,1-2.06,2.035,2.048,2.048,0,0,1,0-4.095,2.066,2.066,0,0,1,2.06,2.06" transform="translate(-303.438 2096.039)"/>
    <path id="パス_683" data-name="パス 683" d="M138.45,111.372a.356.356,0,0,1-.155.052.176.176,0,0,1-.18-.18.307.307,0,0,1,.1-.205,25.051,25.051,0,0,0,3.347-4.713,23.845,23.845,0,0,0,2.241-5.021,4.517,4.517,0,0,0,.258-1.236.7.7,0,0,0-.283-.644,2.2,2.2,0,0,0-.515-.334c-.1-.052-.18-.129-.18-.207a.312.312,0,0,1,.18-.232,2.833,2.833,0,0,1,1.21-.283,3.791,3.791,0,0,1,1.931.823c.721.515,1.107.9,1.107,1.339a1.218,1.218,0,0,1-.361.7,5.48,5.48,0,0,0-.592,1.159,1.2,1.2,0,0,1-.129.257,15.331,15.331,0,0,0,2.394-.592,1.4,1.4,0,0,0,.953-.618.921.921,0,0,1,.773-.335,5.719,5.719,0,0,1,1.777.927c.695.567,1.416,1.082,1.416,1.751a.719.719,0,0,1-.541.645c-.489.155-.567.361-.875.978-.721,1.442-1.468,2.884-2.292,4.223,1.6,1.031,2.5,2.318,2.5,3.4a1.608,1.608,0,0,1-1.648,1.829c-.721,0-1.107-.412-1.674-1.6a5.314,5.314,0,0,0-.824-1.21,18.429,18.429,0,0,1-2.343,2.55,19.36,19.36,0,0,1-9.27,4.79,1.921,1.921,0,0,1-.31.052c-.129,0-.206-.052-.206-.155a.242.242,0,0,1,.155-.205,28.469,28.469,0,0,0,7.854-5.871,25.681,25.681,0,0,0,2.317-2.987,10.52,10.52,0,0,0-3.708-2.24,14.965,14.965,0,0,1-4.429,3.4m9.167-2.91a23.04,23.04,0,0,0,1.623-3.734,5.323,5.323,0,0,0,.232-1c0-.129-.052-.155-.155-.155a5.317,5.317,0,0,0-.8.206c-.361.1-.772.232-1.159.386a2.784,2.784,0,0,1-.875.284,1.574,1.574,0,0,1-.8-.31,17.8,17.8,0,0,1-2.292,3.219,23.117,23.117,0,0,1,4.223,1.107m4.507-9.734a5.545,5.545,0,0,1,2.781.643,1.745,1.745,0,0,1,.979,1.442,1.1,1.1,0,0,1-1,1.159c-.361,0-.67-.155-.979-.7a5.454,5.454,0,0,0-2.034-2.188c-.129-.052-.18-.129-.18-.207s.077-.154.258-.154Zm2.807-1.829a5.025,5.025,0,0,1,2.189.411,1.725,1.725,0,0,1,1.082,1.468.981.981,0,0,1-.9,1.082c-.335,0-.592-.1-1-.7a5.166,5.166,0,0,0-2.138-1.879c-.129-.052-.18-.129-.18-.206s.077-.129.232-.155a6.991,6.991,0,0,1,.721-.026" transform="translate(-309.145 2097.955)"/>
    <path id="パス_684" data-name="パス 684" d="M173.608,107.98c-.412.412-.824.773-1.262,1.159a23.517,23.517,0,0,1-8.523,4.738c-.052,0-.077.026-.129.026a.163.163,0,0,1-.18-.18c0-.077.026-.129.129-.206a41.105,41.105,0,0,0,7.056-6.052,26.448,26.448,0,0,0,4.4-6,3.173,3.173,0,0,0,.412-1.005c0-.257-.1-.361-.386-.592a4.8,4.8,0,0,0-.567-.411.263.263,0,0,1-.18-.232c0-.078.052-.155.18-.206a3.81,3.81,0,0,1,1.365-.283,4.22,4.22,0,0,1,1.982.876c.876.592,1.571,1.133,1.571,1.879,0,.309-.155.542-.567.7-.438.18-.541.361-1.133,1.107-.824,1.03-1.623,2.035-2.5,2.987a5.271,5.271,0,0,1,.541.412c.592.489.9.773.9,1.056a.832.832,0,0,1-.18.567,1,1,0,0,0-.13.644v.489c0,3.785.18,6.644.18,8.6,0,1.365-.566,1.854-1.467,1.854-.67,0-1.082-.283-1.52-1.21a5.851,5.851,0,0,1-.592-2.035,1.963,1.963,0,0,1,.258-1,2.464,2.464,0,0,0,.232-1.056c.077-1.519.1-3.76.1-6.258Z" transform="translate(-316.901 2097.432)"/>
    <path id="パス_685" data-name="パス 685" d="M196.879,116.076a18.71,18.71,0,0,1-8.807,3.553c-.155,0-.257-.077-.257-.155s.051-.155.18-.206a25.674,25.674,0,0,0,7.416-4.918,23.393,23.393,0,0,0,5.408-7.648,7.558,7.558,0,0,0,.515-1.416c0-.129-.077-.18-.232-.18a1.765,1.765,0,0,0-.335.051c-.85.206-2.138.567-2.935.851a5.6,5.6,0,0,0-1.288.695,1.761,1.761,0,0,1-1.056.438,2.688,2.688,0,0,1-1.571-.926c-.617-.645-1.21-1.211-1.21-1.829a2.357,2.357,0,0,1,.1-.669c.051-.18.129-.258.206-.258a.442.442,0,0,1,.308.155,4.513,4.513,0,0,0,.773.489,2.359,2.359,0,0,0,1,.283,7.613,7.613,0,0,0,1.442-.18c1.133-.205,2.7-.514,3.656-.721.567-.128.541-.128,1.03-.669a1.033,1.033,0,0,1,.8-.335,5.48,5.48,0,0,1,2.111.927c.979.67,1.777,1.288,1.777,2.009,0,.514-.283.592-.8.823-.67.31-.644.438-1.057,1.21a32.044,32.044,0,0,1-2.291,3.631,9.7,9.7,0,0,1,3.965,1.364,3.912,3.912,0,0,1,2.189,3.245,1.656,1.656,0,0,1-1.751,1.776c-1.03,0-1.442-.514-2.112-2.008a8.389,8.389,0,0,0-2.755-3.759,23.051,23.051,0,0,1-4.429,4.378" transform="translate(-323.817 2096.367)"/>
    <path id="パス_686" data-name="パス 686" d="M226.714,104.964c.361,0,1.107-.155,1.52-.206a44.079,44.079,0,0,0,4.609-.927,2.253,2.253,0,0,0,1.442-.747.99.99,0,0,1,.85-.283,9.907,9.907,0,0,1,2.369.438c.876.309,1.262.669,1.262,1.288a1.093,1.093,0,0,1-1.21,1.081c-.386,0-.8-.052-1.288-.052H235.8c-.438,0-.926.026-1.313.052-.773.052-1.726.18-2.7.309.232.155.464.335.721.541.567.489.953.824.953,1.288a1.275,1.275,0,0,1-.335.85c-.18.438-.361.876-.515,1.262a17.239,17.239,0,0,1-4.765,6.926A15.89,15.89,0,0,1,222,120.131a1.783,1.783,0,0,1-.386.1.172.172,0,0,1-.18-.155.273.273,0,0,1,.129-.232,22.019,22.019,0,0,0,4.635-4.506,20.194,20.194,0,0,0,3.271-6.258,5.829,5.829,0,0,0,.283-1.648,1.818,1.818,0,0,0-.18-.9c-.052-.077-.078-.155-.13-.232-.232.052-.464.077-.67.129-.361.077-.695.129-1,.206a4.415,4.415,0,0,1-.953.155,2.061,2.061,0,0,1-1.159-.567c-.361.463-.721.9-1.107,1.339a14.259,14.259,0,0,1-4.171,3.27.366.366,0,0,1-.155.052.17.17,0,0,1-.155-.18.28.28,0,0,1,.077-.18,29.534,29.534,0,0,0,2.884-4.043,30.307,30.307,0,0,0,2.42-5.408,4.409,4.409,0,0,0,.258-1.133c0-.334-.026-.412-.335-.669a2.675,2.675,0,0,0-.489-.336c-.129-.077-.18-.155-.18-.231s.052-.155.18-.232a2.563,2.563,0,0,1,1.133-.386,4.666,4.666,0,0,1,2.086.875c.824.541,1.365,1.005,1.365,1.623,0,.31-.155.516-.516.8-.308.18-.411.541-.617.876q-.85,1.351-1.777,2.7Z" transform="translate(-332.997 2097.616)"/>
    <path id="パス_687" data-name="パス 687" d="M258.379,102.166c-.026-1-.1-1.133-.49-1.494a2.064,2.064,0,0,0-.747-.489.239.239,0,0,1-.18-.232.324.324,0,0,1,.18-.258A2.782,2.782,0,0,1,258.4,99.2a4.77,4.77,0,0,1,2.087.747c.875.515,1.467.978,1.467,1.545a1.059,1.059,0,0,1-.155.515,1.535,1.535,0,0,0-.257.876c-.077.978-.077,1.7-.077,3.579,0,4.043-.206,7.493-2.55,9.914a14.365,14.365,0,0,1-7.777,3.709c-.18,0-.258-.052-.258-.155,0-.077.052-.129.155-.18a12.622,12.622,0,0,0,5.588-4.609c1.545-2.472,1.829-5.614,1.829-9.58,0-1.133-.052-2.6-.077-3.4m-6.412,2.085c0-1.056-.026-1.494-.361-1.776a2.853,2.853,0,0,0-.515-.335c-.129-.052-.206-.129-.206-.232a.326.326,0,0,1,.18-.258,2.205,2.205,0,0,1,1.133-.335,3.865,3.865,0,0,1,1.854.721c.643.439,1.237.9,1.237,1.391a.785.785,0,0,1-.181.514,1.174,1.174,0,0,0-.309.953c0,1.107.052,2.163.077,3.3.026.643.129,1.261.129,1.828,0,1.545-.335,1.983-1.261,1.983a1.429,1.429,0,0,1-1.366-.824,4.166,4.166,0,0,1-.7-1.829,1.346,1.346,0,0,1,.18-.747,1.353,1.353,0,0,0,.1-.67Z" transform="translate(-341.767 2097.299)"/>
    <path id="パス_688" data-name="パス 688" d="M279.105,104.324a25.307,25.307,0,0,1-6.129.9h-.206c-.154,0-.232-.077-.232-.18a.213.213,0,0,1,.18-.206,39.159,39.159,0,0,0,5.717-2.138,30.478,30.478,0,0,0,2.935-1.6c.464-.309.876-.592.876-.747a.975.975,0,0,0-.336-.592,2.616,2.616,0,0,0-.361-.309.31.31,0,0,1-.154-.232c0-.077.051-.129.206-.18a4.933,4.933,0,0,1,.952-.129,5.54,5.54,0,0,1,2.266.85c.979.567,1.545,1.133,1.545,1.726,0,.437-.155.617-.8.721a5.629,5.629,0,0,0-1.082.308,23.375,23.375,0,0,1-2.756,1.031,4.516,4.516,0,0,1,1,.515c.747.514,1.159.72,1.159,1.364a1.628,1.628,0,0,1-.129.541,2.228,2.228,0,0,0-.155.592c0,.1-.026.206-.026.308.515-.077,1.082-.154,1.648-.257a1.927,1.927,0,0,0,1.159-.438,2.1,2.1,0,0,1,1.184-.386,6.326,6.326,0,0,1,2.035.489c.927.361,1.468.8,1.468,1.468s-.361.952-1.133.952a15.026,15.026,0,0,1-1.726-.205,15.062,15.062,0,0,0-1.6-.077c-.412,0-.876,0-1.416.026-.567.026-1.159.077-1.751.155a12.99,12.99,0,0,1-3.373,8.163,12.679,12.679,0,0,1-6.489,3.322,1.779,1.779,0,0,1-.335.052.173.173,0,0,1-.18-.155.2.2,0,0,1,.129-.18,12.98,12.98,0,0,0,5.047-4.327,13.3,13.3,0,0,0,2.241-6.463c-.824.155-1.7.335-2.524.541a7.528,7.528,0,0,0-1.776.617c-.464.283-.67.438-1,.438a2.671,2.671,0,0,1-1.726-.875c-.515-.464-1.159-1.16-1.159-1.623a2.7,2.7,0,0,1,.077-.618c.026-.155.1-.206.18-.206a.463.463,0,0,1,.232.1,4.23,4.23,0,0,0,.953.541,2.341,2.341,0,0,0,.953.205,15.078,15.078,0,0,0,1.777-.205c1.622-.283,2.935-.516,4.171-.7.026-.463.026-.952.026-1.442a1.972,1.972,0,0,0-.386-1.339,1.244,1.244,0,0,0-.386-.336c-.258.077-.541.129-.8.206" transform="translate(-347.864 2097.381)"/>
    <path id="パス_689" data-name="パス 689" d="M305.808,109.821c-.18-.7-.335-.953-.592-1a1.724,1.724,0,0,0-.489-.077c-.206,0-.309-.1-.309-.258s.232-.412.464-.567a1.39,1.39,0,0,1,.953-.361,6.4,6.4,0,0,1,1.648.309c.541.206.8.438.8.747a.885.885,0,0,1-.129.464.518.518,0,0,0-.1.335,4.886,4.886,0,0,0,.1.669c.1.49.233.979.361,1.468,1.056-.386,2.112-.721,3.168-1.107.386-.155.464-.18.644-.386a1.1,1.1,0,0,1,.85-.463,4.8,4.8,0,0,1,1.829.927c.926.695,1.39,1.287,1.39,1.8,0,.412-.18.592-.7.67a1.518,1.518,0,0,0-1.056.489,23.441,23.441,0,0,1-3.708,2.55,1.2,1.2,0,0,1-.412.155c-.155,0-.258-.052-.258-.206a2.866,2.866,0,0,1,.386-.593,16.369,16.369,0,0,0,1.777-3.192,1.874,1.874,0,0,0,.18-.593c0-.052-.026-.052-.077-.052a2.8,2.8,0,0,0-.67.206c-1,.412-1.983.8-2.988,1.211.67,2.419,1.313,4.712,1.545,5.433.077.232.129.413.206.67a6.879,6.879,0,0,1,.515,2.035,1.035,1.035,0,0,1-1.082,1.055,1.593,1.593,0,0,1-1.236-.747,2.775,2.775,0,0,1-.72-1.545,2.265,2.265,0,0,1,.026-.361,2.8,2.8,0,0,0-.026-.464c-.129-.618-.258-1.21-.386-1.725-.258-1.133-.464-1.958-.85-3.5-.283.155-.644.309-1.056.515a3.391,3.391,0,0,0-.747.489,1.268,1.268,0,0,1-.927.464,3.188,3.188,0,0,1-1.365-.592,1.969,1.969,0,0,1-.978-1.391c0-.283,0-.412.052-.489a.209.209,0,0,1,.206-.1c.077,0,.1.026.206.078a2.815,2.815,0,0,0,1.081.411,4.179,4.179,0,0,0,1.313-.335c.8-.257,1.313-.438,1.829-.618-.206-.7-.412-1.442-.67-2.42" transform="translate(-356.255 2094.922)"/>
    <path id="パス_690" data-name="パス 690" d="M340.816,111.5c.927-.052,1.6-.1,2.446-.129.18,0,.464-.026.773-.026a7.866,7.866,0,0,1,1.854.206c1.03.258,1.494.8,1.494,1.545,0,.67-.489,1.133-1.726,1.133h-4.584c-1.236,0-2.987.052-4.326.129-1.365.077-3.322.231-4.893.411a6.038,6.038,0,0,0-1.674.386,1.9,1.9,0,0,1-.979.233,2.926,2.926,0,0,1-1.957-1.082,3.342,3.342,0,0,1-1.261-2.241,1.983,1.983,0,0,1,.077-.643c.051-.129.129-.232.206-.232.051,0,.1.026.205.1a5.118,5.118,0,0,0,1.159.747,3.217,3.217,0,0,0,1.288.206c.386,0,1.288-.052,1.906-.077,2.343-.129,4.146-.31,5.819-.413,1.416-.1,2.807-.18,4.172-.258" transform="translate(-363.141 2093.887)"/>
  </g>
</svg>
