<svg xmlns="http://www.w3.org/2000/svg" xmlns:xlink="http://www.w3.org/1999/xlink" width="295" height="22.808" viewBox="0 0 295 22.808">
  <defs>
    <clipPath id="clip-path">
      <rect id="長方形_266" data-name="長方形 266" width="295" height="22.807" fill="none"/>
    </clipPath>
  </defs>
  <g id="グループ_197" data-name="グループ 197" clip-path="url(#clip-path)">
    <path id="パス_828" data-name="パス 828" d="M11.814,15.813a.208.208,0,0,1,.217-.193.223.223,0,0,1,.217.242c0,.071-.024.433-.048.65-.218,1.784-.29,3.207-.338,4.123a.437.437,0,0,1-.482.458H0c.844-2.869,2.749-4.845,4.557-6.727,2.049-2.122,3.978-4.123,3.978-7.16,0-2.435-1.157-3.737-2.942-3.737-1.543,0-2.869,1.037-2.869,2.267a.648.648,0,0,0,.724.722A1.2,1.2,0,0,1,4.7,7.808,1.542,1.542,0,0,1,3.014,9.327a1.811,1.811,0,0,1-1.808-2c0-2.387,2.194-4.556,5.3-4.556,3.279,0,5.3,1.663,5.3,4.8,0,3.351-2.917,5.352-5.714,7.257a14.972,14.972,0,0,0-4.292,3.689h8.728c.652,0,.724-.048.844-.579Z" transform="translate(0 -0.528)"/>
    <path id="パス_829" data-name="パス 829" d="M30.46,11.57c0,7.257-3.207,9.765-5.907,9.765-3.327,0-5.907-2.893-5.907-8.7,0-7.353,3.206-9.86,5.907-9.86,3.328,0,5.907,2.893,5.907,8.8m-3.279.627c0-6.486-.675-8.945-2.628-8.945S21.925,5.952,21.925,12c0,6.388.675,8.847,2.628,8.847s2.628-2.7,2.628-8.655" transform="translate(-3.553 -0.528)"/>
    <path id="パス_830" data-name="パス 830" d="M48.154,15.813a.208.208,0,0,1,.217-.193.223.223,0,0,1,.217.242c0,.071-.024.433-.048.65-.218,1.784-.29,3.207-.338,4.123a.437.437,0,0,1-.482.458H36.34c.844-2.869,2.749-4.845,4.557-6.727,2.049-2.122,3.978-4.123,3.978-7.16,0-2.435-1.157-3.737-2.942-3.737-1.543,0-2.869,1.037-2.869,2.267a.648.648,0,0,0,.724.722,1.2,1.2,0,0,1,1.253,1.35,1.542,1.542,0,0,1-1.688,1.519,1.811,1.811,0,0,1-1.808-2c0-2.387,2.194-4.556,5.3-4.556,3.279,0,5.3,1.663,5.3,4.8,0,3.351-2.917,5.352-5.714,7.257a14.972,14.972,0,0,0-4.292,3.689h8.728c.652,0,.724-.048.844-.579Z" transform="translate(-6.924 -0.528)"/>
    <path id="パス_831" data-name="パス 831" d="M66.323,15.813a.208.208,0,0,1,.217-.193.223.223,0,0,1,.217.242c0,.071-.024.433-.048.65-.218,1.784-.29,3.207-.338,4.123a.437.437,0,0,1-.482.458H54.509c.844-2.869,2.749-4.845,4.557-6.727,2.049-2.122,3.978-4.123,3.978-7.16,0-2.435-1.157-3.737-2.942-3.737-1.543,0-2.869,1.037-2.869,2.267a.648.648,0,0,0,.724.722,1.2,1.2,0,0,1,1.253,1.35,1.542,1.542,0,0,1-1.688,1.519,1.811,1.811,0,0,1-1.808-2c0-2.387,2.194-4.556,5.3-4.556,3.279,0,5.3,1.663,5.3,4.8,0,3.351-2.917,5.352-5.714,7.257a14.972,14.972,0,0,0-4.292,3.689h8.728c.652,0,.724-.048.844-.579Z" transform="translate(-10.386 -0.528)"/>
    <path id="パス_832" data-name="パス 832" d="M87.331,4c-.024.314-.193.482-.651.6V9.041h2.869c1.422-1.953,1.663-2.147,1.857-2.147.217,0,.482.121,1.374.893.988.868,1.158,1.06,1.158,1.326,0,.289-.145.362-.579.362H86.68v5.256h4.195c1.423-1.977,1.688-2.218,1.9-2.218s.627.217,1.64,1.06,1.181,1.085,1.181,1.3-.121.289-.506.289H86.7l.121,6.293c.024.916-.8,1.326-2.218,1.326-.892,0-1.085-.12-1.06-.891l.12-6.727H78.41a50.864,50.864,0,0,0-5.424.193l-.217-.819c1.205.121,2.628.168,4.629.193V9.909a4.074,4.074,0,0,0-.289-1.857l.168-.168a12.9,12.9,0,0,1,3.448,1.158H83.69V4H80.05a18.948,18.948,0,0,1-6.823,6.341l-.169-.169a23.136,23.136,0,0,0,4.75-8.414A4.646,4.646,0,0,0,78.073.289V.12L78.314,0c3.279.891,4,1.254,4,1.663s-.386.6-1.254.675c-.241.435-.482.844-.748,1.23h9.379c1.446-2.05,1.688-2.243,1.9-2.243.265,0,.675.266,1.543,1.013.941.82,1.109,1.085,1.109,1.3,0,.289-.145.361-.554.361ZM80.243,14.731H83.69V9.475H80.822a1.074,1.074,0,0,1-.579.362Z" transform="translate(-13.865 0)"/>
    <path id="パス_833" data-name="パス 833" d="M110.763,3.067V19.076c0,1.447.168,1.5,2.772,1.591a.241.241,0,1,1,0,.482l-1.35-.049c-1.085-.048-2.025-.072-2.989-.072-.941,0-1.808.024-2.893.072l-1.374.049a.241.241,0,0,1,0-.482c2.6-.1,2.8-.145,2.8-1.591V7.142c0-.314-.1-.41-.385-.41s-.844.218-3.592,1.4a.748.748,0,0,1-.266.073.228.228,0,0,1-.241-.242.25.25,0,0,1,.169-.24,15.113,15.113,0,0,0,5.979-4.654Z" transform="translate(-19.671 -0.584)"/>
    <path id="パス_834" data-name="パス 834" d="M130.662,15.813a.208.208,0,0,1,.217-.193.223.223,0,0,1,.217.242c0,.071-.024.433-.048.65-.218,1.784-.29,3.207-.338,4.123a.437.437,0,0,1-.482.458h-11.38c.844-2.869,2.749-4.845,4.557-6.727,2.049-2.122,3.978-4.123,3.978-7.16,0-2.435-1.157-3.737-2.942-3.737-1.543,0-2.869,1.037-2.869,2.267a.648.648,0,0,0,.724.722,1.2,1.2,0,0,1,1.253,1.35,1.542,1.542,0,0,1-1.688,1.519,1.811,1.811,0,0,1-1.808-2c0-2.387,2.194-4.556,5.3-4.556,3.279,0,5.3,1.663,5.3,4.8,0,3.351-2.917,5.352-5.714,7.257a14.972,14.972,0,0,0-4.292,3.689h8.728c.652,0,.724-.048.844-.579Z" transform="translate(-22.645 -0.528)"/>
    <path id="パス_835" data-name="パス 835" d="M152.413,13h-7.45a10.764,10.764,0,0,1-2.459,5.859,12.959,12.959,0,0,1-4.846,3.762l-.193-.146a14.32,14.32,0,0,0,3.279-4.34c.892-1.736,1.591-4.219,1.591-8.511V3.022a4.923,4.923,0,0,0-.313-2.386l.168-.169c2.483.554,3.52.868,3.689,1.205h6.172C153.064.514,153.354.3,153.619.3c.29,0,.458.073,1.5.941,1.181,1.013,1.35,1.3,1.35,1.519,0,.289-.193.506-1.037.868V9.29l.241,10.2c.049,2.436-2.387,3.207-3.954,3.207-.313,0-.338-.072-.458-.6-.217-.94-.892-1.736-2.941-2.339v-.266h.892a13.085,13.085,0,0,0,2.411-.144c.627-.121.8-.242.8-.989Zm0-.434V7.506h-7.185V8.64a30.447,30.447,0,0,1-.217,3.929Zm-7.185-5.5h7.185V2.105h-6.679a1.656,1.656,0,0,1-.506.313Z" transform="translate(-26.192 -0.056)"/>
    <path id="パス_836" data-name="パス 836" d="M179.811,15.813a.208.208,0,0,1,.217-.193.223.223,0,0,1,.217.242c0,.071-.024.433-.048.65-.218,1.784-.29,3.207-.338,4.123a.437.437,0,0,1-.482.458H168c.844-2.869,2.749-4.845,4.557-6.727,2.049-2.122,3.978-4.123,3.978-7.16,0-2.435-1.157-3.737-2.942-3.737-1.543,0-2.869,1.037-2.869,2.267a.648.648,0,0,0,.724.722,1.2,1.2,0,0,1,1.253,1.35,1.542,1.542,0,0,1-1.688,1.519,1.811,1.811,0,0,1-1.808-2c0-2.387,2.194-4.556,5.3-4.556,3.279,0,5.3,1.663,5.3,4.8,0,3.351-2.917,5.352-5.714,7.257a14.972,14.972,0,0,0-4.292,3.689h8.728c.652,0,.724-.048.844-.579Z" transform="translate(-32.01 -0.528)"/>
    <path id="パス_837" data-name="パス 837" d="M198.642,16.077c0,3.448-2.532,5.257-6.148,5.257-3.786,0-6.148-1.5-6.148-4.292,0-2.291,1.616-3.737,4.267-4.871-1.735-.988-3.255-2.169-3.255-4.581,0-3.159,2.315-4.822,5.256-4.822,2.725,0,5.016,1.447,5.016,3.858,0,2.194-2,3.545-3.256,4.074,2.122,1.085,4.267,2.339,4.267,5.376m-7.619-3.688a5.776,5.776,0,0,0-2.219,4.653c0,1.784.844,3.834,3.69,3.834a3.04,3.04,0,0,0,3.279-3.279c0-2.676-2.1-3.713-4.148-4.871Zm-1.06-6.414c0,2.46,1.929,3.5,3.954,4.509a4.9,4.9,0,0,0,1.638-3.834c0-1.833-.722-3.447-2.942-3.447a2.5,2.5,0,0,0-2.651,2.772" transform="translate(-35.506 -0.527)"/>
    <path id="パス_838" data-name="パス 838" d="M221.085,19.085h-8.8v2.339c0,.771-.843,1.206-2.242,1.206-.771,0-.916-.1-.892-.821l.241-12.416V3.317a4.767,4.767,0,0,0-.289-2l.168-.169c2.267.554,3.255.916,3.568,1.205h7.884c.916-1.205,1.3-1.519,1.519-1.519.266,0,.6.168,1.591.965,1.061.843,1.35,1.181,1.35,1.493q0,.435-1.013.869V9.368l.241,11.284c.024,1.085-.627,1.519-2.387,1.519-.819,0-.94-.1-.94-.7Zm-8.8-8.992h8.8V2.786h-8.173c-.1.169-.29.266-.627.386Zm8.8.433h-8.8v8.125h8.8Z" transform="translate(-39.842 -0.159)"/>
    <path id="パス_839" data-name="パス 839" d="M258.775,10.606c-.023.361-.24.554-.675.7v3.014h2.7c1.158-1.591,1.616-2.146,1.833-2.146s.507.144,1.519.988,1.181,1.085,1.181,1.3-.121.289-.506.289H258.1V18.8c0,.7.073.82,1.471.82,2.146,0,2.6-.145,3.4-.941a9.423,9.423,0,0,0,1.712-2.82l.241.073a24.583,24.583,0,0,0-.217,2.555,1.094,1.094,0,0,0,.338.941,1.442,1.442,0,0,1,.482.988,1.489,1.489,0,0,1-.868,1.4c-.627.362-2.025.554-5.425.554-3.616,0-4.17-.457-4.123-2.652l.1-4.967h-2.29a8.486,8.486,0,0,1-3.014,5.931,12.406,12.406,0,0,1-6.268,2.145l-.072-.24a9.684,9.684,0,0,0,4.846-3.135,8.786,8.786,0,0,0,1.615-4.7c-2.435,0-4.581.049-5.81.193L244,14.127c1.374.144,3.52.193,6.052.193.024-.29.024-.6.024-.916V10.678c-.675.024-1.278.073-1.76.121l-.121-.434a21.06,21.06,0,0,1-4.678,2.049l-.1-.216a17.123,17.123,0,0,0,4.678-3.978,1.6,1.6,0,0,1-.482.072c-.7,0-1.133-.362-1.278-1.254a3.316,3.316,0,0,0-1.591-2.725l.073-.193c2.531.073,4.292,1.013,4.292,2.581v.12A15.576,15.576,0,0,0,251.036,2.6h-2.386a33.007,33.007,0,0,0-3.641.193l-.217-.82a28.08,28.08,0,0,0,3.834.193h2.194C251.808.962,252.145.7,252.362.7c.24,0,.506.143,1.615,1.132.916.8,1.158,1.109,1.158,1.4,0,.312-.434.506-1.205.627a14.294,14.294,0,0,1-5.232,6.172c1.326.121,3.062.145,5.28.145h2.194c1.109-1.5,1.567-1.952,1.76-1.952.217,0,.386.023,1.35.868,1.013.843,1.181,1.012,1.181,1.229s-.121.29-.506.29Zm-3.568,3.713V10.606h-1.519c-.049.41-.266.579-.7.7v2a7.073,7.073,0,0,1-.049,1.013Zm3.954-14.1c2.411,1.422,2.749,1.856,2.749,2.145,0,.266-.241.41-.869.41h-.265a21.14,21.14,0,0,1-2.87,1.4A12.18,12.18,0,0,0,260.077,6,14.747,14.747,0,0,0,261.6,3.687a2.766,2.766,0,0,0,.338-.941l.241-.1c2.58,1.494,2.893,1.88,2.893,2.218,0,.241-.217.434-.8.434a2.192,2.192,0,0,1-.385-.024,20.913,20.913,0,0,1-2.893,1.254,17,17,0,0,0,5.473,1.785v.265a4.8,4.8,0,0,0-2.242,2.411c-.193.338-.29.482-.507.482a2,2,0,0,1-.747-.217A14.057,14.057,0,0,1,255.231.191l.241-.072a12.818,12.818,0,0,0,1.833,3.3,19.067,19.067,0,0,0,1.277-2.17,2.773,2.773,0,0,0,.338-.94Z" transform="translate(-46.38 -0.023)"/>
    <path id="パス_840" data-name="パス 840" d="M274.723,22.517a10.21,10.21,0,0,0,6.606-10.03,4.285,4.285,0,0,0-.217-1.591l.217-.121c3.4.771,3.93.941,3.93,1.4,0,.24-.168.482-.868.6-.41,5.931-3.592,9.138-9.62,9.981ZM292.709,9.3c1.109-1.3,1.35-1.423,1.567-1.423.193,0,.41.1,1.567,1.182,1.109,1.06,1.3,1.374,1.3,1.639,0,.6-.241.747-1.856.747a23.838,23.838,0,0,1-3.183,1.761l-.168-.168a19.815,19.815,0,0,0,1.181-3.3H278.508a4.144,4.144,0,0,1,.073.771c0,2.218-1.037,3.279-2.363,3.279a1.4,1.4,0,0,1-1.471-1.472,1.665,1.665,0,0,1,1.085-1.639,2.789,2.789,0,0,0,1.567-2.6v-.24l.217-.049a5.288,5.288,0,0,1,.771,1.519Zm-8.487-6.1v-.82a4.352,4.352,0,0,0-.289-2.1L284.1.119c3.062.361,4.051.651,4.051,1.06,0,.29-.265.458-.964.675V3.2h5.063c1.157-1.591,1.615-2.146,1.832-2.146s.507.145,1.519.989,1.181,1.085,1.181,1.3-.121.29-.506.29h-9.089V6.676h3.3c1.158-1.591,1.567-2.074,1.785-2.074s.53.146,1.519.941c1.013.795,1.181,1.061,1.181,1.277s-.12.29-.506.29H283.017c-2.483,0-4.654.049-5.907.193l-.217-.819c1.4.144,3.568.193,6.124.193h1.205V3.639h-3.086c-2.483,0-4.654.049-5.907.193l-.217-.819c1.4.144,3.569.193,6.124.193Zm5.3,15.527c0,.819.049.843,1.591.843,1.977,0,2.652-.289,3.134-.8a8.493,8.493,0,0,0,1.639-2.7l.241.024a20.636,20.636,0,0,0-.193,2.314,1.227,1.227,0,0,0,.289.94,1.459,1.459,0,0,1,.434,1.158,1.579,1.579,0,0,1-.843,1.4c-.482.289-1.857.554-4.894.554-3.906,0-4.557-.434-4.509-2.893l.1-4.051V12.8a3.268,3.268,0,0,0-.29-1.856l.169-.169c3.447.435,4.051.675,4.051,1.085,0,.313-.217.434-.916.675Z" transform="translate(-52.345 -0.023)"/>
    <path id="パス_841" data-name="パス 841" d="M323.147,9.034c1.037-1.3,1.422-1.639,1.639-1.639.338,0,.675.193,1.664,1.013,1.447,1.181,1.615,1.543,1.615,1.856,0,.338-.241.6-1.422.675a38.435,38.435,0,0,1-4.7,2.53l-.169-.193a20.439,20.439,0,0,0,1.761-3.809h-4.171c-.049.29-.266.506-.82.6V13.88l.241,5.715c.1,2.122-2.025,3.158-4.147,3.158-.7,0-.8-.048-.868-.579-.145-1.182-.772-2-2.894-2.532v-.265h.724c.771,0,1.567-.024,2.267-.072,1.181-.1,1.518-.266,1.518-1.11V9.468H311.5c-2.05,0-4.557.048-5.763.193l-.217-.82c1.35.145,3.93.193,5.979.193h4.967a2.963,2.963,0,0,1-.6-1.036,6.036,6.036,0,0,0-3.327-3.4l.12-.193a9.364,9.364,0,0,1,5.257,1.254,23.833,23.833,0,0,0,2.555-3.5h-7.064c-2.05,0-4.557.048-5.763.193l-.217-.82c1.35.145,3.93.193,5.979.193h6.823c1.037-1.3,1.422-1.64,1.639-1.64.338,0,.772.193,1.761,1.013,1.447,1.181,1.615,1.543,1.615,1.856,0,.338-.385.6-1.567.675a34.3,34.3,0,0,1-5.16,2.532,2.2,2.2,0,0,1,.555,1.422,1.6,1.6,0,0,1-.627,1.447Z" transform="translate(-58.214 -0.017)"/>
    <path id="パス_842" data-name="パス 842" d="M349.2,3.952h5.352c1.086-1.205,1.3-1.374,1.519-1.374.193,0,.554.242,1.518,1.133,1.109,1.013,1.3,1.374,1.3,1.64,0,.651-.241.771-1.857.771a14.106,14.106,0,0,1-2.483,1.447.651.651,0,0,1,.145.12c1.013.844,1.181,1.085,1.181,1.3s-.12.289-.506.289h-5.3c-.072.337-.289.529-.747.6v4.1h2.917c1.158-1.591,1.616-2.147,1.833-2.147s.506.146,1.519.989,1.182,1.085,1.182,1.3-.121.29-.507.29h-6.944v5.038c.843.049,1.833.073,3.062.073a61.644,61.644,0,0,0,6.7-.41v.265a3.52,3.52,0,0,0-1.977,2.556c-.1.482-.193.53-.652.53-7.474,0-8.969-.1-11.115-1.639a7.16,7.16,0,0,1-2.676-3.809c-1.447,2.676-3.351,4.05-6.2,5.424l-.144-.193a14.8,14.8,0,0,0,4.628-8.534,12.271,12.271,0,0,0,.314-2.291v-.338l.168-.144c3.086.675,3.834.916,3.834,1.3s-.289.53-.941.6a22.83,22.83,0,0,1-1.277,3.423,5.764,5.764,0,0,0,3.279,2.653V9.28h-.652c-2.483,0-4.653.048-5.907.193l-.217-.82c1.4.145,3.568.193,6.124.193h5.666C352.5,7.255,352.958,6.7,353.176,6.7c.144,0,.338.072.747.362a27.483,27.483,0,0,0,.941-2.677H340.349a6.642,6.642,0,0,1,.072.988c0,1.881-.988,2.917-2.314,2.917a1.412,1.412,0,0,1-1.447-1.519,1.6,1.6,0,0,1,1.06-1.519A2.65,2.65,0,0,0,339.167,2.7V2.409l.217-.049a3.976,3.976,0,0,1,.869,1.591h5.931V2.241a4.445,4.445,0,0,0-.29-1.953l.169-.168c3.279.41,4.1.626,4.1,1.084,0,.266-.168.435-.964.652Z" transform="translate(-64.083 -0.023)"/>
  </g>
</svg>
