<svg xmlns="http://www.w3.org/2000/svg" xmlns:xlink="http://www.w3.org/1999/xlink" width="293.827" height="22.815" viewBox="0 0 293.827 22.815">
  <defs>
    <clipPath id="clip-path">
      <rect id="長方形_258" data-name="長方形 258" width="293.827" height="22.815" fill="none"/>
    </clipPath>
  </defs>
  <g id="グループ_193" data-name="グループ 193" clip-path="url(#clip-path)">
    <path id="パス_742" data-name="パス 742" d="M11.768,20.02a.208.208,0,0,1,.216-.192.222.222,0,0,1,.216.241c0,.072-.024.431-.048.648-.216,1.777-.288,3.194-.336,4.106a.435.435,0,0,1-.48.457H0c.841-2.858,2.738-4.827,4.539-6.7C6.58,16.466,8.5,14.473,8.5,11.447c0-2.425-1.153-3.723-2.93-3.723-1.537,0-2.858,1.033-2.858,2.258a.646.646,0,0,0,.721.72,1.2,1.2,0,0,1,1.249,1.345A1.536,1.536,0,0,1,3,13.56a1.8,1.8,0,0,1-1.8-1.994c0-2.377,2.185-4.539,5.284-4.539,3.266,0,5.283,1.657,5.283,4.78,0,3.338-2.906,5.331-5.692,7.228A14.918,14.918,0,0,0,1.8,22.71h8.694c.648,0,.721-.047.841-.576Z" transform="translate(0 -4.675)"/>
    <path id="パス_743" data-name="パス 743" d="M56.664,15.793c0,7.229-3.194,9.727-5.884,9.727-3.314,0-5.884-2.882-5.884-8.67,0-7.324,3.194-9.822,5.884-9.822,3.314,0,5.884,2.882,5.884,8.765m-3.266.625c0-6.461-.672-8.91-2.618-8.91s-2.618,2.69-2.618,8.718c0,6.364.672,8.814,2.618,8.814S53.4,22.35,53.4,16.419" transform="translate(-29.861 -4.675)"/>
    <path id="パス_744" data-name="パス 744" d="M99.266,20.02a.208.208,0,0,1,.216-.192.222.222,0,0,1,.216.241c0,.072-.024.431-.048.648-.216,1.777-.288,3.194-.336,4.106a.435.435,0,0,1-.48.457H87.5c.841-2.858,2.738-4.827,4.539-6.7C94.078,16.466,96,14.473,96,11.447c0-2.425-1.153-3.723-2.93-3.723-1.537,0-2.858,1.033-2.858,2.258a.646.646,0,0,0,.721.72,1.2,1.2,0,0,1,1.249,1.345A1.536,1.536,0,0,1,90.5,13.56a1.8,1.8,0,0,1-1.8-1.994c0-2.377,2.185-4.539,5.284-4.539,3.266,0,5.283,1.657,5.283,4.78,0,3.338-2.906,5.331-5.692,7.228A14.918,14.918,0,0,0,89.3,22.71h8.694c.648,0,.721-.047.841-.576Z" transform="translate(-58.197 -4.675)"/>
    <path id="パス_745" data-name="パス 745" d="M143.013,20.02a.208.208,0,0,1,.216-.192.222.222,0,0,1,.216.241c0,.072-.024.431-.048.648-.216,1.777-.288,3.194-.336,4.106a.435.435,0,0,1-.48.457H131.245c.841-2.858,2.738-4.827,4.539-6.7,2.041-2.113,3.963-4.106,3.963-7.132,0-2.425-1.153-3.723-2.93-3.723-1.537,0-2.858,1.033-2.858,2.258a.646.646,0,0,0,.721.72,1.2,1.2,0,0,1,1.249,1.345,1.536,1.536,0,0,1-1.681,1.513,1.8,1.8,0,0,1-1.8-1.994c0-2.377,2.185-4.539,5.284-4.539,3.266,0,5.283,1.657,5.283,4.78,0,3.338-2.906,5.331-5.692,7.228a14.918,14.918,0,0,0-4.275,3.674h8.694c.648,0,.721-.047.841-.576Z" transform="translate(-87.294 -4.675)"/>
    <path id="パス_746" data-name="パス 746" d="M189.714,4.346c-.024.312-.192.48-.648.6V9.366h2.858c1.417-1.946,1.657-2.138,1.849-2.138.216,0,.48.121,1.369.889.985.865,1.153,1.057,1.153,1.32,0,.288-.144.361-.576.361h-6.652v5.236h4.179c1.417-1.969,1.681-2.21,1.9-2.21s.624.217,1.633,1.057,1.177,1.081,1.177,1.3-.12.288-.5.288h-8.358l.12,6.268c.024.914-.792,1.321-2.21,1.321-.888,0-1.081-.12-1.057-.888l.12-6.7h-5.236a50.448,50.448,0,0,0-5.4.192l-.216-.817c1.2.121,2.618.168,4.611.192v-4.8a4.058,4.058,0,0,0-.288-1.85l.168-.168a12.85,12.85,0,0,1,3.434,1.153h2.954V4.346h-3.626a18.876,18.876,0,0,1-6.8,6.316l-.168-.168a23.046,23.046,0,0,0,4.731-8.381,4.628,4.628,0,0,0,.264-1.464V.48l.24-.12c3.266.888,3.986,1.249,3.986,1.657s-.384.6-1.249.672c-.24.432-.48.841-.744,1.225h9.342c1.441-2.042,1.681-2.234,1.9-2.234.264,0,.672.264,1.537,1.009.936.817,1.1,1.08,1.1,1.3,0,.288-.144.36-.552.36Zm-7.061,10.687h3.434V9.8h-2.858a1.066,1.066,0,0,1-.576.361Z" transform="translate(-116.534 -0.24)"/>
    <path id="パス_747" data-name="パス 747" d="M256.071,7.745V23.692c0,1.441.168,1.489,2.762,1.585a.24.24,0,0,1,0,.48l-1.345-.048c-1.081-.048-2.017-.072-2.978-.072-.937,0-1.8.023-2.882.072l-1.369.048a.24.24,0,1,1,0-.48c2.594-.1,2.786-.144,2.786-1.585V11.8c0-.312-.1-.409-.384-.409s-.841.216-3.578,1.393a.73.73,0,0,1-.264.073.227.227,0,0,1-.24-.241.248.248,0,0,1,.168-.239A15.049,15.049,0,0,0,254.7,7.745Z" transform="translate(-165.334 -5.151)"/>
    <path id="パス_748" data-name="パス 748" d="M297.926,20.02a.208.208,0,0,1,.216-.192.222.222,0,0,1,.216.241c0,.072-.024.431-.048.648-.216,1.777-.288,3.194-.336,4.106a.435.435,0,0,1-.48.457H286.158c.841-2.858,2.738-4.827,4.539-6.7,2.041-2.113,3.963-4.106,3.963-7.132,0-2.425-1.153-3.723-2.93-3.723-1.537,0-2.858,1.033-2.858,2.258a.646.646,0,0,0,.721.72,1.2,1.2,0,0,1,1.249,1.345,1.536,1.536,0,0,1-1.681,1.513,1.8,1.8,0,0,1-1.8-1.994c0-2.377,2.185-4.539,5.284-4.539,3.266,0,5.283,1.657,5.283,4.78,0,3.338-2.906,5.331-5.692,7.228a14.918,14.918,0,0,0-4.275,3.674h8.694c.648,0,.721-.047.841-.576Z" transform="translate(-190.329 -4.675)"/>
    <path id="パス_749" data-name="パス 749" d="M345.872,13.732h-7.421A10.726,10.726,0,0,1,336,19.568a12.918,12.918,0,0,1-4.827,3.746l-.192-.145a14.265,14.265,0,0,0,3.266-4.323c.888-1.729,1.585-4.2,1.585-8.477V3.789a4.907,4.907,0,0,0-.312-2.377l.168-.168c2.474.553,3.506.865,3.674,1.2h6.148c1.009-1.153,1.3-1.369,1.561-1.369.288,0,.456.072,1.489.937,1.177,1.009,1.345,1.3,1.345,1.513,0,.288-.192.5-1.032.865v5.643l.24,10.158c.048,2.426-2.378,3.194-3.939,3.194-.312,0-.336-.072-.456-.6-.216-.936-.889-1.729-2.93-2.329v-.265h.888a13.067,13.067,0,0,0,2.4-.143c.624-.121.792-.241.792-.985Zm0-.432V8.256h-7.157V9.385A30.4,30.4,0,0,1,338.5,13.3Zm-7.157-5.476h7.157V2.877h-6.652a1.667,1.667,0,0,1-.5.312Z" transform="translate(-220.143 -0.715)"/>
    <path id="パス_750" data-name="パス 750" d="M416.263,20.02a.208.208,0,0,1,.216-.192.222.222,0,0,1,.216.241c0,.072-.024.431-.048.648-.216,1.777-.288,3.194-.336,4.106a.435.435,0,0,1-.48.457H404.495c.841-2.858,2.738-4.827,4.539-6.7,2.041-2.113,3.963-4.106,3.963-7.132,0-2.425-1.153-3.723-2.93-3.723-1.537,0-2.858,1.033-2.858,2.258a.646.646,0,0,0,.721.72,1.2,1.2,0,0,1,1.249,1.345A1.536,1.536,0,0,1,407.5,13.56a1.8,1.8,0,0,1-1.8-1.994c0-2.377,2.185-4.539,5.284-4.539,3.266,0,5.283,1.657,5.283,4.78,0,3.338-2.906,5.331-5.692,7.228A14.919,14.919,0,0,0,406.3,22.71h8.694c.648,0,.721-.047.841-.576Z" transform="translate(-269.038 -4.675)"/>
    <path id="パス_751" data-name="パス 751" d="M455.42,15.7c2.858,0,5.692,1.417,5.692,4.419q0,5.4-6.844,5.4c-3.074,0-5.164-1.585-5.164-3.579a1.889,1.889,0,0,1,1.777-2.089,1.463,1.463,0,0,1,1.585,1.417,1.571,1.571,0,0,1-.6,1.273,1,1,0,0,0-.48.889c0,.552.744,1.608,2.786,1.608,2.185,0,3.674-1.753,3.674-4.323,0-3.626-2.017-4.467-4.371-4.467H452.2a.226.226,0,0,1-.24-.24.221.221,0,0,1,.24-.216c3.6,0,5.067-1.993,5.067-4.539,0-2.306-1.033-3.627-2.81-3.627A2.4,2.4,0,0,0,451.842,9.5c0,.288.12.312.36.312.5,0,1.033.288,1.033,1.2a1.327,1.327,0,0,1-1.441,1.369,1.63,1.63,0,0,1-1.609-1.8c0-1.321,1.321-3.554,5.26-3.554,3.242,0,4.971,1.657,4.971,4.083,0,2.665-2.594,4.106-5,4.539Z" transform="translate(-298.708 -4.675)"/>
    <path id="パス_752" data-name="パス 752" d="M515.4,20.547h-8.766v2.329c0,.769-.841,1.2-2.234,1.2-.769,0-.913-.1-.888-.817l.24-12.368V4.84a4.741,4.741,0,0,0-.288-1.993l.168-.168c2.257.553,3.242.913,3.554,1.2h7.853c.912-1.2,1.3-1.513,1.513-1.513.264,0,.6.168,1.585.961,1.057.84,1.345,1.176,1.345,1.488q0,.432-1.009.865v5.187l.24,11.24c.024,1.081-.624,1.513-2.378,1.513-.816,0-.936-.1-.936-.7Zm-8.766-8.958H515.4V4.312H507.26c-.1.168-.288.265-.624.384Zm8.766.432h-8.766v8.094H515.4Z" transform="translate(-334.865 -1.574)"/>
    <path id="パス_753" data-name="パス 753" d="M595.638,6.818H596c.792-.936.985-1.032,1.1-1.032.168,0,.5.12,1.3.72.769.576,1.1.817,1.1,1.105,0,.216-.1.336-.792.72v4.131l.24,8.742c.024.985-.672,1.345-1.9,1.345-.744,0-.841-.143-.841-.673v-1.32h-5.74V21.9c0,.865-.769,1.129-1.753,1.129-.7,0-.769-.12-.769-.624l.192-9.655V7.971a5.643,5.643,0,0,0-.24-2.042l.192-.143a10.437,10.437,0,0,1,2.762,1.032H591V2.951a32.78,32.78,0,0,0-3.338.192l-.216-.816a42,42,0,0,0,4.443.192h3.986c1.225-1.657,1.441-1.8,1.609-1.8.192,0,.408.144,1.249.769.985.745,1.081.888,1.081,1.153,0,.24-.12.312-.5.312h-3.1c-.024.288-.168.409-.576.529Zm.576,9.751V14h-1.3c-1.009,0-1.273-.336-1.273-1.224l.048-3.939V7.25h-.744a16.88,16.88,0,0,1-.552,4.9,4.4,4.4,0,0,1-1.922,2.521v1.9ZM590.931,7.25a1.136,1.136,0,0,1-.456.24v6.7a4.642,4.642,0,0,0,.649-2.257,22.229,22.229,0,0,0,.12-2.522c0-.721-.024-1.441-.024-2.162ZM596.215,17h-5.74v3.122h5.74ZM592.949,6.818h.744V2.951h-.24c-.024.217-.144.361-.5.48Zm3.266.432h-.769V11.4c0,.216.048.265.24.265h.528Zm9.126,3.147V3.623h-2.257a25.1,25.1,0,0,0-3.338.192L599.529,3a30.076,30.076,0,0,0,3.554.192h1.753c1.177-1.225,1.273-1.393,1.513-1.393s.576.145,1.537.889c1.009.769,1.273,1.1,1.273,1.369,0,.312-.216.481-.937.792v1.8l.192,4.251c.048,1.1-.889,1.464-2.09,1.464-.864,0-.984-.072-.984-.7v-.841h-1.849c-.072.145-.216.216-.576.384V18.73c0,.816.048.84,1.225.84,1.585,0,2.33-.264,2.93-.84a11.6,11.6,0,0,0,1.8-3.1l.24.1c-.216,1.562-.312,2.4-.312,2.739a1.09,1.09,0,0,0,.336.936,1.509,1.509,0,0,1,.456,1.153,1.462,1.462,0,0,1-.841,1.393c-.625.361-1.945.553-5.14.553-2.978,0-3.626-.433-3.578-2.882l.1-4.588V11.525a5.2,5.2,0,0,0-.264-2.089l.168-.168c2.306.553,3.122.888,3.362,1.129Z" transform="translate(-390.724 -0.478)"/>
    <path id="パス_754" data-name="パス 754" d="M664.9.072c3.29.745,3.819.985,3.819,1.394,0,.239-.144.456-.985.624a23.85,23.85,0,0,1-2.089,4.876c1.1.192,1.417.361,1.417.649,0,.264-.168.408-.888.648V21.543c0,.961-.793,1.224-2.041,1.224-.744,0-.841-.048-.816-.864l.216-7.877V10.111a23.293,23.293,0,0,1-2.81,2.953l-.192-.167a34.484,34.484,0,0,0,4.179-11.408,5.047,5.047,0,0,0,.072-.745,1.746,1.746,0,0,0-.072-.527Zm2.354,4.852c1.9.143,2.978.192,4.731.192h6.8c1.249-1.658,1.561-1.97,1.753-1.97.24,0,.5.121,1.441.913.841.72,1.009.985,1.009,1.176,0,.24-.144.312-.528.312H671.988c-1.753,0-2.738.049-4.491.192Zm1.417,6.412a37.407,37.407,0,0,0,3.963.192h4.851c1.177-1.658,1.465-1.9,1.633-1.9.24,0,.553.192,1.393.912.744.672.865.914.865,1.105,0,.239-.12.312-.5.312h-8.238a32.1,32.1,0,0,0-3.746.192Zm9.534,9.294h-6.556v.937c0,.937-.408,1.225-1.993,1.225-.793,0-.937-.121-.913-.817l.168-4.227V15.707a4.57,4.57,0,0,0-.24-1.706l.168-.168a10.6,10.6,0,0,1,3.266,1.009h5.86c.865-1.08,1.129-1.249,1.321-1.249.24,0,.552.12,1.417.769.936.7,1.129.961,1.129,1.225,0,.239-.144.431-.744.7v1.465l.144,3.435c.024.769-.552,1.2-2.017,1.2-.865,0-1.009-.1-1.009-.84ZM668.7,8.117a37.708,37.708,0,0,0,3.963.192h4.659c1.2-1.633,1.465-1.9,1.657-1.9.216,0,.456.1,1.393.914.792.672.864.912.864,1.1,0,.241-.144.313-.528.313H672.66a32.1,32.1,0,0,0-3.747.192Zm.216-6.388a33.367,33.367,0,0,0,3.723.192h4.683C678.616.217,678.832,0,679.048,0s.481.121,1.393.889c.769.648.985.961.985,1.153,0,.239-.12.312-.5.312h-8.286a28.353,28.353,0,0,0-3.506.192ZM671.651,20.2h6.556V15.274h-6.052a1.445,1.445,0,0,1-.5.336Z" transform="translate(-439.333 0)"/>
    <path id="パス_755" data-name="パス 755" d="M745.213,7.829h-3.338V21.662c0,.792-.745,1.08-2.138,1.08-.625,0-.744-.047-.744-.7l.192-12.921V2.138A5.314,5.314,0,0,0,738.993.48l.168-.168a11.57,11.57,0,0,1,3.1,1.1h2.762c.817-1.08,1.057-1.3,1.225-1.3.192,0,.552.239,1.249.792.769.624,1.033.888,1.033,1.153s-.24.457-.769.7V4.587l.144,3.435c.048.913-.865,1.153-1.945,1.153-.648,0-.744-.12-.744-.7Zm-3.338-3.554h3.338V1.85h-2.858a.9.9,0,0,1-.48.36Zm3.338.432h-3.338V7.4h3.338ZM745.621,11c-.72.024-1.441.072-2.21.144l-.24-.768a43.339,43.339,0,0,0,4.587.167h4.107c1.225-1.584,1.321-1.729,1.537-1.729.24,0,.36.072,1.129.793.817.769.937.84.937,1.057,0,.24-.12.313-.48.313h-1.993c-.048.312-.24.48-.672.576V14.6h.384c.985-1.489,1.225-1.825,1.465-1.825.216,0,.456.144,1.129.769a5.233,5.233,0,0,1,.793.84V7.829h-3.651v.288c0,.745-.816,1.033-1.993,1.033-.576,0-.721-.168-.7-.745L749.9,4.49v-2.4A4.526,4.526,0,0,0,749.7.552l.168-.168a18.969,18.969,0,0,1,2.93,1.032h2.93C756.621.167,757.053,0,757.245,0c.24,0,.528.144,1.489.913.792.649.984.888.984,1.153,0,.24-.216.457-.769.721V8.237l.216,12.2c.024,1.658-1.441,2.33-3.338,2.33-.408,0-.432-.048-.552-.625-.168-.792-.7-1.561-2.354-1.994V19.91c.432.023.768.023,1.057.023a9.084,9.084,0,0,0,1.465-.12c.432-.073.648-.241.648-1.01V14.961a.708.708,0,0,1-.384.072h-3.386l.192,6.148c.024,1.057-.672,1.249-1.945,1.249-.769,0-.913-.1-.913-.745l.1-6.652h-1.633a8.339,8.339,0,0,1-1.129,3.77,9.05,9.05,0,0,1-4.923,3.627l-.144-.216a8.535,8.535,0,0,0,3-3.435,8.921,8.921,0,0,0,.672-3.747c-1.057.024-2.065.073-3.17.168l-.24-.768c1.249.12,2.329.167,3.434.167Zm4.131,3.6V10.976h-.913a.746.746,0,0,1-.648.576v1.561c0,.528-.024,1.033-.048,1.489Zm2.69-10.327h3.651V1.85h-3.17a.9.9,0,0,1-.481.36Zm0,3.122h3.651V4.707h-3.651Z" transform="translate(-491.519 0)"/>
    <path id="パス_756" data-name="パス 756" d="M813.214,16.377c-.1.576-.744.864-1.585.864-.72,0-1.2-.048-1.2-.432,0-.192.12-.576.216-1.153l1.393-7.493.144-.889c-.721.024-1.489.073-2.185.145L809.78,6.6c.793.073,1.657.121,2.474.145l.672-4.4a7.6,7.6,0,0,0,.1-1.129,1.794,1.794,0,0,0-.144-.792l.192-.144c3,.528,3.554.744,3.554,1.153,0,.288-.312.456-.984.6l-.793,4.754h1.345c.744-.984,1.1-1.369,1.345-1.369.288,0,.7.288,1.489.913.865.7,1.1,1.009,1.1,1.2,0,.24-.144.432-1.032.769a31.3,31.3,0,0,1-1.705,7.781c-.1.265-.216.553-.336.816,1.345.793,2.21,1.85,2.21,2.81,0,.888-.409,1.537-1.345,1.537-.576,0-1.009-.361-1.345-1.3a5.654,5.654,0,0,0-.7-1.273,13.235,13.235,0,0,1-5.716,3.843l-.144-.192a11.576,11.576,0,0,0,4.395-5.188,8.189,8.189,0,0,0-1.177-.841Zm1.537-9.15-1.417,8.454a12.269,12.269,0,0,1,1.585.312c.192-.5.384-1.057.552-1.657A34.08,34.08,0,0,0,816.5,7.227Zm7.2,1.488a67.041,67.041,0,0,0,1.609-6.7,7.686,7.686,0,0,0,.12-1.081,3.963,3.963,0,0,0-.048-.528l.216-.121c3.026.744,3.939.985,3.939,1.441,0,.336-.24.481-.985.6a42.057,42.057,0,0,1-3.434,6.364c1.9-.024,3.795-.12,5.692-.216a5.732,5.732,0,0,0-2.137-3.146l.1-.192c4.058,1.009,5.379,3.147,5.4,4.659.024,1.417-.552,2.089-1.633,2.089-.769,0-1.177-.5-1.417-1.922l-.072-.408c-3.074,1.009-5.476,1.657-7.925,2.233a2.572,2.572,0,0,1-.625.1c-.24,0-.36-.143-.48-.408a18.927,18.927,0,0,1-.865-2.642l.168-.168c.672.047,1.441.047,1.873.047Zm6.076,12.345h-4.587v.672c0,.769-.793,1.2-2.065,1.2-.721,0-.865-.1-.841-.816l.192-5.188V14.5a5,5,0,0,0-.24-1.993l.168-.169a16.66,16.66,0,0,1,3.17,1.153h3.723c.913-1.2,1.033-1.393,1.3-1.393.288,0,.6.121,1.609.865,1.033.769,1.345,1.128,1.345,1.441,0,.288-.168.432-.889.72v1.825l.192,4.25c.048,1.177-.528,1.562-2.282,1.562-.672,0-.792-.1-.792-.7Zm-4.587-.433h4.587v-6.7H824c-.048.144-.216.24-.552.36Z" transform="translate(-538.601 -0.19)"/>
  </g>
</svg>
