<svg xmlns="http://www.w3.org/2000/svg" width="85.95" height="25.484" viewBox="0 0 85.95 25.484">
  <path id="シェイプ_5" data-name="シェイプ 5" d="M206.31,649a12.743,12.743,0,1,0,12.953,12.741A12.743,12.743,0,0,0,206.31,649Zm5.94,18.376a.813.813,0,0,1-1.109.265c-3.042-1.829-6.87-2.242-11.38-1.229a.807.807,0,0,1-.966-.6.794.794,0,0,1,.607-.951c4.934-1.109,9.166-.632,12.577,1.42a.785.785,0,0,1,.271,1.091Zm1.586-3.469a1.02,1.02,0,0,1-1.389.327,17.248,17.248,0,0,0-12.907-1.486,1.015,1.015,0,0,1-1.258-.662.991.991,0,0,1,.673-1.239,19.173,19.173,0,0,1,14.551,1.693.985.985,0,0,1,.33,1.366Zm.136-3.612c-4.176-2.44-11.062-2.664-15.048-1.474a1.217,1.217,0,0,1-1.512-.793,1.19,1.19,0,0,1,.808-1.486c4.573-1.365,12.181-1.1,16.988,1.7a1.181,1.181,0,0,1,.423,1.633,1.223,1.223,0,0,1-1.66.415Zm14.626.467c-2.236-.525-2.63-.893-2.63-1.666a1.465,1.465,0,0,1,1.74-1.223,5.137,5.137,0,0,1,3.056,1.143.148.148,0,0,0,.208-.032l1.092-1.514a.142.142,0,0,0-.029-.2,6.67,6.67,0,0,0-4.294-1.464c-2.415,0-4.1,1.425-4.1,3.464,0,2.187,1.456,2.961,3.97,3.559,2.14.485,2.5.891,2.5,1.617,0,.8-.731,1.306-1.906,1.306a5.185,5.185,0,0,1-3.562-1.447.154.154,0,0,0-.107-.034.148.148,0,0,0-.1.05l-1.225,1.434a.142.142,0,0,0,.015.2,7.37,7.37,0,0,0,4.93,1.859c2.6,0,4.283-1.4,4.283-3.563,0-1.832-1.116-2.844-3.841-3.5Zm9.719-2.172a3.533,3.533,0,0,0-2.816,1.332v-1.008a.145.145,0,0,0-.146-.144h-2a.145.145,0,0,0-.146.144v11.2a.145.145,0,0,0,.146.144h2a.145.145,0,0,0,.146-.144v-3.534a3.627,3.627,0,0,0,2.816,1.258,4.64,4.64,0,0,0,0-9.243Zm1.889,4.62a2.389,2.389,0,0,1-2.352,2.623,2.63,2.63,0,0,1,0-5.245,2.415,2.415,0,0,1,2.356,2.624Zm7.767-4.62a4.633,4.633,0,1,0,4.8,4.62,4.688,4.688,0,0,0-4.792-4.618Zm0,7.259a2.523,2.523,0,0,1-2.515-2.639,2.464,2.464,0,0,1,2.485-2.607,2.533,2.533,0,0,1,2.535,2.64,2.471,2.471,0,0,1-2.5,2.608Zm10.56-7.08h-2.2v-2.216a.144.144,0,0,0-.145-.144h-2a.145.145,0,0,0-.146.144v2.216h-.963a.145.145,0,0,0-.146.144v1.693a.145.145,0,0,0,.146.144h.963v4.38A2.362,2.362,0,0,0,256.7,667.8a3.7,3.7,0,0,0,1.876-.457.143.143,0,0,0,.074-.125V665.6a.144.144,0,0,0-.07-.123.151.151,0,0,0-.143,0,2.555,2.555,0,0,1-1.175.279.8.8,0,0,1-.93-.931v-4.072h2.2a.145.145,0,0,0,.146-.144V658.92a.145.145,0,0,0-.146-.149Zm7.678.009v-.272a.943.943,0,0,1,1.012-1.158,3.432,3.432,0,0,1,1.129.2.151.151,0,0,0,.133-.019.145.145,0,0,0,.059-.114v-1.661a.145.145,0,0,0-.1-.138,5.606,5.606,0,0,0-1.665-.234,2.59,2.59,0,0,0-2.828,2.961v.417h-.962a.145.145,0,0,0-.148.144v1.7a.146.146,0,0,0,.147.144h.962v6.756a.145.145,0,0,0,.146.145h2a.146.146,0,0,0,.147-.145v-6.756h1.879l2.858,6.755a1.1,1.1,0,0,1-1.082.851,2.335,2.335,0,0,1-1.1-.308.155.155,0,0,0-.114-.011.147.147,0,0,0-.087.078l-.68,1.464a.142.142,0,0,0,.063.186,4.275,4.275,0,0,0,2.139.539c1.478,0,2.3-.677,3.016-2.5l3.475-8.83a.144.144,0,0,0-.136-.2h-2.084a.147.147,0,0,0-.14.1l-2.136,6-2.339-6a.144.144,0,0,0-.136-.093h-3.421Zm-4.451-.009h-2a.146.146,0,0,0-.146.144v8.594a.146.146,0,0,0,.146.145h2a.145.145,0,0,0,.146-.145v-8.594a.145.145,0,0,0-.142-.142Zm-.991-3.913a1.413,1.413,0,1,0,1.436,1.412,1.413,1.413,0,0,0-1.436-1.412Zm17.544,6.676a1.389,1.389,0,1,1,1-.4,1.39,1.39,0,0,1-1,.4Zm.008-2.642a1.252,1.252,0,1,0,1.258,1.247,1.252,1.252,0,0,0-1.258-1.247Zm.321,1.393.4.549H278.7l-.358-.5h-.309v.5h-.281v-1.456h.662a.488.488,0,0,1,.572.464A.437.437,0,0,1,278.641,660.283Zm-.238-.656h-.367v.457h.367a.246.246,0,0,0,.293-.229.242.242,0,0,0-.3-.229Z" transform="translate(-193.778 -649)" fill-rule="evenodd"/>
</svg>
