<svg xmlns="http://www.w3.org/2000/svg" xmlns:xlink="http://www.w3.org/1999/xlink" width="37.62" height="184.572" viewBox="0 0 37.62 184.572">
  <defs>
    <clipPath id="clip-path">
      <rect id="長方形_270" data-name="長方形 270" width="37.62" height="184.572" fill="none"/>
    </clipPath>
  </defs>
  <g id="グループ_206" data-name="グループ 206" transform="translate(-4783 -1705.631)">
    <rect id="長方形_269" data-name="長方形 269" width="37.62" height="184.572" transform="translate(4783 1705.631)"/>
    <g id="グループ_201" data-name="グループ 201" transform="translate(4783 1705.631)">
      <g id="グループ_200" data-name="グループ 200" clip-path="url(#clip-path)">
        <path id="パス_843" data-name="パス 843" d="M12.392,24.456c-.7,2.465-1.4,4.487-2.515,7.4-.308.747-.532,1.273-.979,2.3-.139.3-.224.581-.306.747v.2c0,.222-.084.388-.252.388-.113,0-.252-.14-.391-.249L5.964,33.6a57.164,57.164,0,0,0,4.3-10.474ZM8.144,16.865a25,25,0,0,1,3.493,3.6l-2.18,1.746a22.4,22.4,0,0,0-3.214-3.657Zm1.146-5.93a22.379,22.379,0,0,1,3.326,3.49l-2.236,1.69a21.064,21.064,0,0,0-3.047-3.629Zm14.729,8.313c.447.193.614.331.614.553,0,.25-.111.36-.614.471A18.906,18.906,0,0,0,32.6,26.617a6.884,6.884,0,0,0-1.481,2.354A26.632,26.632,0,0,1,28.6,27.614c0,.554-.028,1.358-.028,2.661v1.191c0,1.384.028,3.159.084,4.045H25.89V34.348H18.6V35.9H15.829c.056-.915.084-2.689.084-4.045V30.275c0-.86,0-1.8-.028-2.6-.643.471-1.537,1.052-2.823,1.911a13.475,13.475,0,0,0-1.369-2.3,33.174,33.174,0,0,0,5.561-3.767,20.957,20.957,0,0,0,4.528-5.237Zm-3.354-2.133c.224.11.363.277.363.415,0,.249-.14.306-.867.389-2.962,3.463-3.717,4.127-6.484,5.957A11.14,11.14,0,0,0,12.084,21.8a20.2,20.2,0,0,0,6.372-5.9Zm.195-5.21c0-.748-.028-1.386-.055-1.773l2.767.194c.334.027.5.11.5.277s-.14.332-.56.554v1.3h2.6c1.9,0,4.108-.028,5.533-.111-.027,1-.055,1.524-.055,2.107v1.33c0,.692.028,1.524.084,2.41h-2.8c.057-.8.084-1.773.084-2.41v-.97H15.97v.97c0,.637.027,1.607.083,2.41H13.258c.056-.887.084-1.719.084-2.41v-1.33c0-.583,0-1.109-.056-2.107,1.453.083,3.633.111,5.561.111h2.012Zm5.367,14.02a19.079,19.079,0,0,1-3.914-4.295A25.8,25.8,0,0,1,18.68,25.48c-.2.167-.363.306-.5.443Zm-.336,2.522H18.6V31.8H25.89Zm-.671-12.58a35.964,35.964,0,0,0,6.651,4.682,7.039,7.039,0,0,0-1.592,2.162,37.089,37.089,0,0,1-6.764-5.237Z" transform="translate(0.446 0.665)" fill="#fff"/>
        <path id="パス_844" data-name="パス 844" d="M12.744,39.033c.279.055.475.222.475.443,0,.277-.224.443-.727.611a54.145,54.145,0,0,0-.894,9A23.551,23.551,0,0,0,13.583,59.51c-.559.249-1.817.887-2.795,1.413A29.283,29.283,0,0,1,8.72,49.313c0-1.941.028-2.521.782-9.117.112-1.108.168-1.385.168-1.634Zm10.7,7.87c-.977.027-2.263.054-4.191.054-.587,0-2.375-.028-3.83-.054l.056-2.855c1.481.055,3.327.112,4.136.112l3.8-.029c-.085-3.63-.169-5.681-.224-6.206l3.1.165c.336.03.531.167.531.39s-.195.413-.586.608l.111,4.905c1.733-.14,3.3-.306,4.612-.472l.252,2.772c-1.426.166-1.873.221-4.864.443-.056,2.217-.083,3.407-.083,3.546-.2,4.127-.784,6.317-2.293,8.423a11.007,11.007,0,0,1-4,3.407A6.612,6.612,0,0,0,18.166,59.7a8.039,8.039,0,0,0,3.829-3.491c1.09-2.023,1.453-4.379,1.453-9.226Z" transform="translate(0.653 2.489)" fill="#fff"/>
        <path id="パス_845" data-name="パス 845" d="M29.387,67.049a.782.782,0,0,1,.195.47c0,.222-.112.277-.894.334a10.76,10.76,0,0,0-6.4,2.1c-2.712,2-4.192,4.462-4.192,7.011,0,2.383,1.871,4.184,5,4.821a25.831,25.831,0,0,0,5.087.47,11.728,11.728,0,0,0-1.119,2.993,26.263,26.263,0,0,1-6.008-.887c-3.774-1.053-5.925-3.713-5.925-7.37,0-3.02,1.4-5.4,4.528-7.759-2.516.583-8.581,2-10.145,2.328-.7.166-.867.194-1.4.331l-.7-3.157c2.515-.223,6.008-.777,12.465-2,5.476-1.024,6.231-1.19,8.047-1.856Z" transform="translate(0.555 4.259)" fill="#fff"/>
        <path id="パス_846" data-name="パス 846" d="M9.939,102.915a23.314,23.314,0,0,1-2.4,2.548,10.315,10.315,0,0,0-1.649-2.548,25.409,25.409,0,0,0,6.567-9.394l2.375,1.107c.363.167.447.278.447.473,0,.221-.195.3-.755.443-.755,1.412-1.425,2.77-2.04,3.795.531.029.671.139.671.3s-.14.3-.53.527c0,.526-.029,1.33-.029,4.764v3.215c0,2.577.029,4.377.112,5.68H9.826c.084-1.247.113-3.132.113-5.68Zm5.029-13.854c.419.248.5.3.5.5s-.084.249-.755.443a24.182,24.182,0,0,1-6.959,5.956,7.305,7.305,0,0,0-1.481-2.326A20.025,20.025,0,0,0,12.956,87.9ZM27.1,105.435c0,1,0,1.718.028,3.52,0,.443.028,1.357.028,1.662,0,1.384-.224,1.994-.951,2.437-.755.5-1.62.637-4.135.637h-.727a10.947,10.947,0,0,0-.531-2.937c1.4.083,1.9.112,2.486.112.923,0,1.034-.139,1.034-1.108V99.645H18.378c-1.174,0-2.739.028-3.885.055V97.04c1.062.028,2.656.055,3.885.055h9.977c1.118,0,2.935-.028,3.914-.055V99.7c-1.034-.028-2.851-.055-3.914-.055H27.1ZM30.48,92.469c-.784-.056-1.956-.056-2.8-.056h-8.1c-.838,0-2.012,0-2.794.056v-2.66c.781.027,1.955.055,2.794.055h8.1c.839,0,2.012-.029,2.8-.055Z" transform="translate(0.441 5.769)" fill="#fff"/>
        <path id="パス_847" data-name="パス 847" d="M23.509,117.412a.577.577,0,0,1,.307.443c0,.223-.2.334-.727.417-1.258,1.468-5.282,5.652-7.351,7.593-.894.83-1.061,1.024-1.061,1.217,0,.166.14.389.5.749a95.407,95.407,0,0,1,8.747,10.28l-2.851,1.994c-.7-1.164-1.733-2.714-2.627-3.962-1.146-1.578-4.5-5.568-6.036-7.148-.894-.913-1.147-1.33-1.147-1.83,0-.608.531-1.33,1.985-2.714a70.914,70.914,0,0,0,6.092-6.706,15.09,15.09,0,0,0,1.369-2.106Z" transform="translate(0.843 7.59)" fill="#fff"/>
        <path id="パス_848" data-name="パス 848" d="M20.546,146.059c.224.111.335.221.335.332,0,.166-.14.331-.392.471a38.564,38.564,0,0,1-2.57,8.034c-1.649,3.686-3.466,5.376-5.813,5.376a3.8,3.8,0,0,1-3.466-1.966,8.266,8.266,0,0,1-1.09-4.24,10.929,10.929,0,0,1,5.254-8.977,12.4,12.4,0,0,1,6.96-2,12.936,12.936,0,0,1,7.685,2.329A8.375,8.375,0,0,1,30.97,152.6c0,3.657-1.733,6.427-5.282,8.367a29.2,29.2,0,0,1-5.2,1.966,7.623,7.623,0,0,0-1.481-2.77,17.006,17.006,0,0,0,5.59-2,6.341,6.341,0,0,0,3.437-5.6,6.8,6.8,0,0,0-4.695-6.374,9.57,9.57,0,0,0-3.186-.664h-.56Zm-7.3,1.884a8.973,8.973,0,0,0-2.795,6.263c0,1.967.643,3.186,1.677,3.186.894,0,1.678-.859,2.683-2.939a26.451,26.451,0,0,0,2.8-8.782,7.549,7.549,0,0,0-4.361,2.272" transform="translate(0.565 9.392)" fill="#fff"/>
      </g>
    </g>
  </g>
</svg>
