<svg xmlns="http://www.w3.org/2000/svg" width="37.625" height="256.447" viewBox="0 0 37.625 256.447">
  <g id="グループ_209" data-name="グループ 209" transform="translate(-4943.625 -1602)">
    <rect id="長方形_251" data-name="長方形 251" width="37.625" height="256.447" transform="translate(4943.625 1602)"/>
    <path id="パス_626" data-name="パス 626" d="M351.618,36.5a.687.687,0,0,1,.279.5c0,.31-.186.433-.9.557a15.946,15.946,0,0,1-3.406,3.715c-.217.155-.4.31-.619.465,2.756.959,5.635,1.362,11.27,1.61a8.109,8.109,0,0,0-.96,2.973c-6.378-.433-9.846-1.084-12.911-2.632l-.31-.155a28.721,28.721,0,0,1-8.174,2.23,43.344,43.344,0,0,1-5.511.588,7.469,7.469,0,0,0-1.022-2.818c5.543-.371,8.484-.774,11.394-1.641.186-.062.341-.093.5-.155a18.724,18.724,0,0,1-2.787-3.066,23.325,23.325,0,0,1-6.037,2.973,9.658,9.658,0,0,0-1.548-2.508c4.52-1.518,7.028-3,9.041-5.542-1.27-.279-1.734-.712-1.734-2.044V30.03a10.494,10.494,0,0,0-.155-2.446l3.251.279c.279.03.5.185.5.372,0,.247-.186.4-.65.619-.031.4-.031.8-.031,1.146v.5c0,.836.31.928,3.065.928,2.044,0,2.787-.154,3-.619a6.707,6.707,0,0,0,.248-1.92,10.437,10.437,0,0,0,2.725.867c-.31,3.716-.836,4.087-5.821,4.087h-.991a.582.582,0,0,1,.061.217c0,.279-.154.372-.805.526-.185.217-.34.464-.526.681h6.935l.5-.526Zm-21.24-9.723c0-.65-.031-1.238-.062-2.353,1.455.062,3.622.124,5.6.124a15.687,15.687,0,0,0-1.7-2.756c-.681,0-1.362.031-2.074.031a12.191,12.191,0,0,0-.682-2.57c9.041,0,16.194-.557,21.674-1.765l1.982,1.827c.186.186.279.279.279.433,0,.186-.186.31-.464.31a4.862,4.862,0,0,1-.588-.061c-.743.154-1.486.278-2.229.4l1.455.464c.279.093.464.279.464.433,0,.248-.217.4-.774.526A24.172,24.172,0,0,1,351.8,24.55c1.982,0,4.118-.062,5.574-.124-.031,1.115-.031,1.7-.031,2.353v.991c0,.774.031,1.7.092,2.694h-2.786c.434.557.991,1.239,1.672,2.106l-2.291,1.8a21.141,21.141,0,0,0-3.839-4.831l1.92-1.672a15.091,15.091,0,0,1,2.137,2.105V27.057h-9.908a15.277,15.277,0,0,1,2.57,2.23l-1.982,1.672a13.513,13.513,0,0,0-2.786-2.662l1.393-1.239H333.443v3.406h-3.158c.062-.991.093-1.92.093-2.694Zm6.843,2.23c.341.154.464.279.464.5,0,.279-.062.341-.743.557a11,11,0,0,1-3.87,4.83,6.259,6.259,0,0,0-1.858-2.291,9.569,9.569,0,0,0,3.809-4.614Zm5.512-4.459a16.2,16.2,0,0,0-1.486-3.034c-1.3.031-2.6.124-3.9.155a24.5,24.5,0,0,1,1.92,2.88Zm-1.92,13.066a15.948,15.948,0,0,0,3.282,2.849,17.557,17.557,0,0,0,3.561-2.849ZM348.8,24.55a34.9,34.9,0,0,0,1.827-3.932c-2.106.31-4.242.526-6.378.681a16.6,16.6,0,0,1,1.579,3.251Z" transform="translate(4618.622 1593.536)" fill="#fff"/>
    <path id="パス_627" data-name="パス 627" d="M346.934,85.963c.248.124.372.247.372.372,0,.186-.155.371-.434.526a43.487,43.487,0,0,1-2.848,8.98c-1.827,4.118-3.84,6.006-6.441,6.006a4.2,4.2,0,0,1-3.84-2.2,9.3,9.3,0,0,1-1.208-4.737,12.233,12.233,0,0,1,5.821-10.032,13.644,13.644,0,0,1,7.709-2.229,14.248,14.248,0,0,1,8.515,2.6,9.389,9.389,0,0,1,3.9,8.019c0,4.087-1.92,7.184-5.852,9.351a32.2,32.2,0,0,1-5.759,2.2,8.568,8.568,0,0,0-1.641-3.1,18.746,18.746,0,0,0,6.193-2.229,7.094,7.094,0,0,0,3.809-6.254,7.586,7.586,0,0,0-5.2-7.122,10.465,10.465,0,0,0-3.53-.743h-.619Zm-8.081,2.106a10.065,10.065,0,0,0-3.1,7c0,2.2.712,3.56,1.858,3.56.991,0,1.858-.96,2.973-3.282a29.791,29.791,0,0,0,3.1-9.816,8.325,8.325,0,0,0-4.83,2.539" transform="translate(4617.083 1562.003)" fill="#fff"/>
    <path id="パス_628" data-name="パス 628" d="M344.776,134.881c.248.062.4.217.4.4,0,.217-.155.341-.619.557-.743,2.013-1.114,3.065-1.331,3.529a16.411,16.411,0,0,0,3.746-1.362l1.27,2.756a22.3,22.3,0,0,1-6.13,1.8c-.558,1.517-1.517,3.87-2.632,6.285a46.292,46.292,0,0,1-3.065,5.79c-.619,1.053-1.084,1.8-1.362,2.26a8.028,8.028,0,0,0-2.818-1.765,54,54,0,0,0,6.6-12.354,13.913,13.913,0,0,1-2.167.123c-.867,0-1.548-.031-3.034-.123l-.062-3.159a23.251,23.251,0,0,0,3.747.279c.867,0,1.393-.031,2.57-.124a34.365,34.365,0,0,0,1.61-5.883Zm6.75,12.168c-.96.65-1.208,1.021-1.208,1.951a17.176,17.176,0,0,0,.217,2.508c.093.65.124.837.217,1.8.031.372.062.5.062.619a30.012,30.012,0,0,1,6.874,4.18,10.036,10.036,0,0,0-2.2,2.446,20.622,20.622,0,0,0-4.613-3.406c-.279,3.065-2.075,4.49-5.759,4.49-3.375,0-5.573-1.7-5.573-4.366s2.26-4.552,5.573-4.552a8.53,8.53,0,0,1,2.539.341c-.093-.743-.093-.96-.186-1.764-.093-.712-.155-2.013-.155-2.385,0-1.7.588-2.693,2.26-3.839Zm-6.626,8.36c-1.424,0-2.415.712-2.415,1.765s.929,1.641,2.725,1.641a2.542,2.542,0,0,0,2.26-.867,3.953,3.953,0,0,0,.341-2.044,8.7,8.7,0,0,0-2.911-.5m4.923-14.212A20.433,20.433,0,0,1,358,144.262l-1.641,2.787a17.125,17.125,0,0,0-7.4-3.158Z" transform="translate(4617.228 1537.206)" fill="#fff"/>
    <path id="パス_629" data-name="パス 629" d="M338.8,197.418c.4.061.681.247.681.526,0,.248-.155.372-.712.588a39.3,39.3,0,0,0-.279,6.193,15.285,15.285,0,0,0,1.331,6.935c.5,1.022,1.3,1.765,1.889,1.765.526,0,.9-1.115,1.455-4.3a16.5,16.5,0,0,0,2.88,1.765c-1.115,4.83-2.075,6.286-4.18,6.286-1.827,0-3.468-1.146-4.8-3.406a16.456,16.456,0,0,1-1.734-4.954,27.823,27.823,0,0,1-.279-4.552c0-1.517.124-5.109.217-6.5a4.654,4.654,0,0,0,.031-.867Zm14.119,1.393a25.306,25.306,0,0,1,7.276,11.611l-3.313,1.548a20.67,20.67,0,0,0-2.725-6.5,24.641,24.641,0,0,0-3.623-4.551Z" transform="translate(4615.864 1506.718)" fill="#fff"/>
    <path id="パス_630" data-name="パス 630" d="M339.277,260.341c-.279-.681-.5-1.27-.681-1.8-.65.124-1.3.217-1.95.341v7.338c0,2.848.031,4.985.092,6.347h-3.158c.062-1.362.093-3.5.093-6.347v-6.9c-.991.124-1.982.279-2.911.4-.248.31-.4.434-.557.434-.186,0-.341-.186-.4-.434L329,256.811c.9,0,1.7-.031,2.446-.062.588-.805,1.146-1.641,1.7-2.477a31.49,31.49,0,0,0-4.211-3.406l1.3-2.167c.341.217.65.433.991.619a31.894,31.894,0,0,0,2.322-5.171l2.477,1.022a.563.563,0,0,1,.31.4c0,.186-.217.341-.65.433a47.988,47.988,0,0,1-2.508,4.706c.5.372.991.774,1.455,1.177a27.333,27.333,0,0,0,2.229-4.489l2.631,1.239a.579.579,0,0,1,.341.433c0,.217-.217.341-.681.465a55.651,55.651,0,0,1-4.613,7.09c1.053-.062,2.075-.155,3.127-.248a13.581,13.581,0,0,0-.991-1.7l2.043-1.114a27.706,27.706,0,0,1,2.942,5.572Zm-6.564,1.363c.247.03.372.155.372.34,0,.124-.031.186-.186.31l-.279.217a31.325,31.325,0,0,1-1.208,8.019,11.871,11.871,0,0,0-2.477-1.053,23.838,23.838,0,0,0,1.115-7.833v-.433Zm6.378-.651c1.022,1.455,1.3,2.106,2.477,5.512l-2.787,1.146a21.09,21.09,0,0,0-1.919-5.635Zm15.017-4.985.464-.588,2.136,1.765a.743.743,0,0,1,.279.526c0,.279-.186.4-.712.557-.217,7.369-.805,10.93-1.951,12.571-.991,1.362-1.92,1.61-6.626,1.641a22.028,22.028,0,0,0-.558-3.22,19.865,19.865,0,0,0,2.446.124c1.486,0,2.167-.341,2.57-1.27a19.512,19.512,0,0,0,.991-5.48c.093-1.115.124-2.137.155-3.9h-5.171a19.677,19.677,0,0,1-2.631,8.793,16.986,16.986,0,0,1-5.016,5.139,12.235,12.235,0,0,0-1.858-2.353c5.171-3.84,6.781-7.8,6.781-16.874v-1.765h-2.663c-.836,0-1.827.03-2.477.062v-2.942c.681.031,1.8.062,2.477.062h4.49v-3c0-.5-.031-1.517-.031-1.982l3.127.217c.372.031.557.124.557.31s-.155.372-.619.619v3.84h5.263c.65,0,1.765-.031,2.477-.062V251.8c-.681-.031-1.641-.062-2.477-.062H348.38v1.733c0,.867,0,1.734-.062,2.6Z" transform="translate(4618.825 1483.953)" fill="#fff"/>
    <path id="パス_631" data-name="パス 631" d="M354.677,307.937a.643.643,0,0,1,.341.5c0,.248-.217.372-.805.465-1.393,1.641-5.852,6.316-8.143,8.484-.991.929-1.177,1.146-1.177,1.362,0,.186.155.433.557.836a106.473,106.473,0,0,1,9.691,11.487l-3.158,2.229c-.774-1.3-1.92-3.034-2.911-4.428-1.27-1.765-4.985-6.224-6.688-7.989-.991-1.021-1.27-1.486-1.27-2.044,0-.681.588-1.486,2.2-3.034a79.093,79.093,0,0,0,6.75-7.493,16.956,16.956,0,0,0,1.517-2.354Zm2.787.341a20.8,20.8,0,0,1,3.9,3.1l-1.548,1.7a18.662,18.662,0,0,0-3.716-3.189Zm2.384-2.786a19.964,19.964,0,0,1,3.932,3.1l-1.548,1.7a17.269,17.269,0,0,0-3.747-3.22Z" transform="translate(4612.931 1454.162)" fill="#fff"/>
    <path id="パス_632" data-name="パス 632" d="M336.667,369.158a25.09,25.09,0,0,1-5.388,6.966,11.823,11.823,0,0,0-2.043-2.291,24.518,24.518,0,0,0,6.9-10.682l2.725.96c.4.154.5.217.5.433,0,.248-.155.341-.774.464-.217.5-.4.96-.619,1.393H352.86c1.27,0,3.189-.031,4.334-.093v2.942c-1.145-.062-3.065-.093-4.334-.093ZM334.5,378.23c.31-2.26.557-4.459.619-6.254,1.146.062,2.384.093,3.282.093h12.973l.5-.62,2.26,2.013c.217.185.248.247.248.4,0,.248-.031.31-.774.619,0,1.239-.031,2.509-.062,3.747,1.393,0,2.818-.062,4.211-.093v2.911c-1.424-.031-2.849-.062-4.272-.062q-.047,1.858-.186,3.716h.279c1.27,0,3.189-.062,4.334-.093v2.911c-1.146-.031-3.065-.093-4.334-.093h-.588a13.039,13.039,0,0,1-.464,1.951,3.541,3.541,0,0,1-2.818,2.539,21.789,21.789,0,0,1-4.18.279,8.834,8.834,0,0,0-.743-3.22c1.424.093,1.641.093,2.291.093,1.734,0,2.353-.31,2.756-1.641H335.893c-.186.682-.341,1.394-.5,2.075l-3.158-.4a60.371,60.371,0,0,0,1.858-8.113h-.186c-1.3,0-3.034.03-4.334.062v-2.911c1.208.062,2.972.093,4.334.093Zm7.122,6.471c.185-1.239.31-2.477.464-3.716H337.1l-.65,3.716Zm.712-6.471c.124-1.177.186-2.322.31-3.5H338c-.155,1.208-.31,2.384-.5,3.5Zm7.958,6.471c.124-1.239.186-2.477.248-3.716h-5.6c-.124,1.239-.279,2.477-.4,3.716Zm.341-6.471c0-1.177.031-2.322.031-3.5h-5.14c-.093,1.176-.217,2.322-.31,3.5Z" transform="translate(4618.68 1426.259)" fill="#fff"/>
    <path id="パス_633" data-name="パス 633" d="M342.263,452.955h-3.127c.062-1.146.093-2.973.093-5.419v-15.2c0-3.127-.031-3.932-.093-4.923.836.031,1.579.031,2.632.031h13.561c1.053,0,1.8,0,2.632-.031-.062.96-.093,3.066-.093,4.923v14.738c0,2.6.031,4.272.093,5.45h-3.127v-1.548h-12.57Zm12.57-22.665H342.263V437.6h12.571Zm0,10.187H342.263v7.617h12.571Z" transform="translate(4613.889 1395.161)" fill="#fff"/>
  </g>
</svg>
