<svg xmlns="http://www.w3.org/2000/svg" width="37.625" height="324.776" viewBox="0 0 37.625 324.776">
  <g id="グループ_211" data-name="グループ 211" transform="translate(-4287.458 -1724)">
    <g id="グループ_207" data-name="グループ 207">
      <rect id="長方形_253" data-name="長方形 253" width="37.625" height="324.776" transform="translate(4287.458 1724)"/>
      <path id="パス_644" data-name="パス 644" d="M99.816,37.321c.186.062.279.155.279.31,0,.124-.062.186-.248.279l-.279.124c-1.331,3.53-2.075,4.923-3.685,6.75a8.671,8.671,0,0,0-2.136-1.733,15.186,15.186,0,0,0,3.406-6.626Zm3.963,2.818c0,.279.062,2.229.093,2.385a2.5,2.5,0,0,1,.031.495c0,1.517-.279,2.291-1.022,2.849-.836.619-1.734.774-4.427.774h-.217a12.369,12.369,0,0,0-.5-3.065c.836.062,1.208.062,1.951.062,1.115,0,1.27-.155,1.27-1.27v-6.6H97.618c-.929,0-2.23.031-3.1.062v-2.88c.866.031,2.167.062,3.1.062h2.693v-3.87c0-2.447-.031-3.747-.124-4.645l3.1.217c.341.03.557.124.557.309s-.186.341-.588.619c-.031.5-.031,1.084-.031,2.075h3.5c.589,0,1.363-.031,1.827-.061v2.755c-.588-.062-1.393-.031-1.827-.031h-3.5v2.632h3.56c.9,0,2.2-.031,3.066-.062v2.88c-.868-.031-2.167-.062-3.066-.062h-3Zm3.561-20.187c0-.5.031-1.424-.031-1.982l3.1.217c.372.031.589.124.589.31s-.186.372-.62.619V21h5.543c2.136,0,4.552-.061,6.161-.123-.062,1.114-.062,1.7-.062,2.353v1.238c0,.681.031,1.486.093,2.384h-3.221c.062-.774.093-1.765.093-2.384V23.76H98.764v.712c0,.619.031,1.61.093,2.384h-3.22c.062-.9.092-1.7.092-2.384V23.234c0-.65,0-1.239-.062-2.353,1.61.062,4.025.123,6.162.123h5.512Zm-1.146,16.379a17.982,17.982,0,0,1,3.777,4.4l-2.415,1.734a21.419,21.419,0,0,0-3.282-4.614ZM121.026,30.2a35.733,35.733,0,0,1-1.858,5.945,18.827,18.827,0,0,1-1.95,3.437c1.3,1.734,2.724,2.849,5.666,4.583a12.707,12.707,0,0,0-1.8,2.6,22.607,22.607,0,0,1-5.759-4.985c-2.167,2.106-4.768,3.561-8.762,4.985a7.51,7.51,0,0,0-1.362-2.631,20.249,20.249,0,0,0,8.608-4.768,20.172,20.172,0,0,1-1.8-4.954c-.31-1.3-.5-2.663-.681-3.994-.557.031-1.084.031-1.518.062V27.63c1.146.062,3.065.093,4.335.093h4.985l.557-.588,2.012,1.858a.8.8,0,0,1,.279.557c0,.248-.124.372-.5.5Zm-7.245.186a21.31,21.31,0,0,0,1.827,6.626,22.119,22.119,0,0,0,2.539-6.626Z" transform="translate(4197.382 1715.304)" fill="#fff"/>
      <path id="パス_645" data-name="パス 645" d="M111.205,82c.341.031.588.186.588.434,0,.217-.124.34-.526.619-.124,2.539-.464,14.956-.464,16.565,0,2.57.929,3.5,3.53,3.5a10.62,10.62,0,0,0,5.449-1.61c2.26-1.3,3.53-2.477,5.728-5.388a9.463,9.463,0,0,0,2.013,2.973,20.316,20.316,0,0,1-6.007,5.325,15.024,15.024,0,0,1-7.555,2.075c-2.446,0-4.366-.743-5.388-2.105a7.541,7.541,0,0,1-1.145-4.645c0-.836.03-1.548.185-5.512.093-2.724.155-5.79.155-8.886,0-1.393-.031-2.508-.093-3.591Z" transform="translate(4190.761 1684.437)" fill="#fff"/>
      <path id="パス_646" data-name="パス 646" d="M113.815,138.33a.4.4,0,0,1,.433.4c0,.155-.031.217-.372.588a31.954,31.954,0,0,0,1.765,4.8,34.252,34.252,0,0,0,5.542-1.858l1.486,2.849c-2.353.866-3.158,1.177-3.715,1.331-.712.185-1.61.4-1.982.526a31.611,31.611,0,0,0,5.047,7.4l-2.384,2.26a12.207,12.207,0,0,0-6.843-2.013c-3.034,0-4.737,1.053-4.737,2.88,0,1.548,1.021,2.663,2.91,3.22a16.607,16.607,0,0,0,4.924.5c1.424,0,2.446-.031,4.582-.155a6.961,6.961,0,0,0-1.021,3.251c-1.424.031-2.384.062-3.809.062-3.375,0-5.357-.31-7.09-1.115a6,6,0,0,1-3.747-5.542c0-3.592,2.911-5.852,7.648-5.852a14.321,14.321,0,0,1,4.056.526,25.937,25.937,0,0,1-2.694-4.706c-2.26.4-6.657.991-9.908,1.3l-.619-3.158a79.1,79.1,0,0,0,9.226-1.053c-.8-1.95-1.424-3.529-1.8-4.706-.279-.805-.341-.928-.557-1.517Z" transform="translate(4192.765 1657.057)" fill="#fff"/>
      <path id="パス_647" data-name="パス 647" d="M112.645,204.763c.248.124.372.247.372.372,0,.186-.155.371-.434.526a43.422,43.422,0,0,1-2.848,8.98c-1.827,4.118-3.84,6.006-6.44,6.006a4.2,4.2,0,0,1-3.839-2.2,9.293,9.293,0,0,1-1.208-4.737,12.234,12.234,0,0,1,5.821-10.032,13.646,13.646,0,0,1,7.71-2.229,14.248,14.248,0,0,1,8.515,2.6,9.389,9.389,0,0,1,3.9,8.019c0,4.087-1.92,7.184-5.852,9.351a32.2,32.2,0,0,1-5.759,2.2,8.568,8.568,0,0,0-1.641-3.1,18.742,18.742,0,0,0,6.193-2.229,7.094,7.094,0,0,0,3.809-6.254,7.586,7.586,0,0,0-5.2-7.122,10.465,10.465,0,0,0-3.53-.743h-.619Zm-8.081,2.106a10.065,10.065,0,0,0-3.1,7c0,2.2.712,3.56,1.858,3.56.991,0,1.857-.96,2.972-3.282a29.791,29.791,0,0,0,3.1-9.816,8.325,8.325,0,0,0-4.83,2.539" transform="translate(4195.204 1626.511)" fill="#fff"/>
      <path id="パス_648" data-name="パス 648" d="M109.9,269.152V270.3h-2.972c.062-1.238.093-3.034.093-5.418v-4.985c0-1.858-.031-3.932-.093-4.923.805.031,1.579.031,2.631.031h9.506c1.084,0,1.827,0,2.632-.031-.031.991-.093,2.508-.093,4.923v4.676c0,2.446.031,4.273.093,5.419h-2.942v-.837h-3V272.5h3.375c1.208,0,2.787-.031,3.715-.062v3c-.959-.062-2.693-.093-3.715-.093h-3.375v3.065h4.211c1.208,0,2.787-.031,3.716-.093v3c-.96-.031-2.694-.062-3.716-.062H105.752c-1.022,0-2.787.031-3.716.062v-3c.929.061,2.508.093,3.716.093h7.059v-3.065h-3.158c-1.022,0-2.756.031-3.685.093v-3c-1.208.774-2.322,1.393-3.963,2.322-.093.031-1.889.96-5.419,2.787-.186.464-.371.681-.526.681a.664.664,0,0,1-.5-.31l-1.517-2.756c1.61-.557,3.22-1.208,4.768-1.92v-6.75H97.051c-.4,0-1.393,0-1.858.031V263.7c.4,0,1.363.03,1.858.03h1.765v-5.139H96.711c-.619,0-1.393,0-1.858.03v-2.848c.464.03,1.239.03,1.858.03h7.369c.588,0,1.393,0,1.858-.03v2.848c-.464-.03-1.27-.03-1.858-.03H101.7v5.139h1.827c.372,0,1.393-.03,1.827-.03v2.818c-.433,0-1.331-.031-1.827-.031H101.7v5.388c1.363-.744,2.725-1.486,4.056-2.292l.774,2.509c-.186.123-.372.217-.526.34,1.208.062,2.446.062,3.654.062h3.158v-3.344Zm2.911-11.456H109.9v3.1h2.911Zm-2.911,8.763h2.911v-2.973H109.9Zm8.855-8.763h-3v3.1h3Zm-3,8.763h3v-2.973h-3Z" transform="translate(4197.236 1600.61)" fill="#fff"/>
      <path id="パス_649" data-name="パス 649" d="M121.166,317.952c1.053,0,1.8,0,2.632-.031-.062.96-.093,3.065-.093,4.923v11.8c0,2.6.031,4.243.093,5.45h-3.221v-1.456h-17.37v1.889h-3.22c.061-1.177.093-2.972.093-5.449v-12.23c0-2.849-.031-3.932-.093-4.923.836.031,1.579.031,2.632.031h7.74v-.526c0-3.065-.031-4.676-.093-5.574l3.313.217c.309.031.526.155.526.31,0,.186-.186.372-.588.62-.031.557-.031,2.322-.031,4.427v.526Zm-10.806,3h-7.152v5.574h7.152Zm-7.153,14.676h7.152v-6.1h-7.152Zm17.37-14.676h-7.09v5.574h7.09Zm-7.09,14.676h7.09v-6.1h-7.09Z" transform="translate(4194.362 1573.084)" fill="#fff"/>
      <path id="パス_650" data-name="パス 650" d="M113.815,373.231a.4.4,0,0,1,.433.4c0,.155-.031.217-.372.588a31.95,31.95,0,0,0,1.765,4.8,34.251,34.251,0,0,0,5.542-1.858l1.486,2.849c-2.353.867-3.158,1.177-3.715,1.331-.712.186-1.61.4-1.982.526a31.618,31.618,0,0,0,5.047,7.4l-2.384,2.26a12.206,12.206,0,0,0-6.843-2.012c-3.034,0-4.737,1.052-4.737,2.879,0,1.548,1.021,2.663,2.91,3.22a16.606,16.606,0,0,0,4.924.5c1.424,0,2.446-.031,4.582-.155a6.959,6.959,0,0,0-1.021,3.251c-1.424.031-2.384.062-3.809.062-3.375,0-5.357-.31-7.09-1.114a6.006,6.006,0,0,1-3.747-5.543c0-3.591,2.911-5.852,7.648-5.852a14.319,14.319,0,0,1,4.056.526,25.947,25.947,0,0,1-2.694-4.706c-2.26.4-6.657.991-9.908,1.3l-.619-3.158a78.98,78.98,0,0,0,9.226-1.053c-.8-1.95-1.424-3.529-1.8-4.706-.279-.8-.341-.928-.557-1.517Z" transform="translate(4192.765 1543.381)" fill="#fff"/>
      <path id="パス_651" data-name="パス 651" d="M101.427,455.919a55.5,55.5,0,0,0,5.295-5.2c4.954-5.109,5.326-5.512,6.688-7.152-4.923.743-7.864,1.207-8.762,1.362l-.713-3.313c6.1-.341,7.679-.464,11.7-.9a1.859,1.859,0,0,0,.866-.4c.279.217.5.371.619.464,1.3.96,1.672,1.331,1.672,1.61,0,.155-.093.278-.34.434a3.936,3.936,0,0,0-.651.433c-.248.247-.278.217-.805.743-1.393,1.3-2.663,2.632-3.87,3.933-.8.9-.9.99-1.548,1.641a2.716,2.716,0,0,1,.9-.155,2.6,2.6,0,0,1,2.106,1.084,8.652,8.652,0,0,1,1.115,2.725c.681,1.951.928,2.137,3.065,2.137a27.661,27.661,0,0,0,6.564-.774,8.175,8.175,0,0,0-.372,2.384c0,.279,0,.557.031.9a33.56,33.56,0,0,1-5.728.5c-2.88,0-4.056-.217-4.892-.836a3.386,3.386,0,0,1-1.053-1.641c-.248-.588-.65-1.672-.805-2.136-.557-1.641-.9-2.044-1.765-2.044-.9,0-1.331.4-5.233,5.078-.774.9-.991,1.145-1.641,1.827Zm14.955-17.8c-4.087-1.053-6.471-2.26-8.886-4.427l2.013-2.137a19.859,19.859,0,0,0,7.988,3.623Z" transform="translate(4193.666 1515.158)" fill="#fff"/>
      <path id="パス_652" data-name="パス 652" d="M115.28,494.182c.34.062.526.248.526.464s-.124.341-.526.557c-.743,3.5-1.146,5.326-1.455,7.091-.836,4.52-.929,5.016-1.084,5.883-.186.991-.248,1.269-.31,1.61h.589c.9,0,1.486.061,1.548.061.465,0,1.208,0,1.889-.03l-.65,3.158c-1.611-.031-2.013-.031-3.778-.186-.031.5-.062.774-.062,1.238a6.539,6.539,0,0,0,.372,2.446c.4.96,1.61,1.517,3.251,1.517,2.786,0,4.334-1.548,4.334-4.273,0-2.539-1.021-4.613-3.932-8.019a11.749,11.749,0,0,0,2.508-1.919c2.446,2.755,3.344,4.056,4.025,5.821a11.064,11.064,0,0,1,.836,4.273c0,4.676-2.787,7.184-7.988,7.184-4.614,0-6.657-2.106-6.657-6.812a16.534,16.534,0,0,1,.124-1.858c-3.376-.557-4.893-1.826-4.893-4.056,0-1.053.464-1.951,1.642-3.282l2.26,1.61c-.589.65-.774.991-.774,1.393,0,.588.866,1.084,2.229,1.3.217-1.145.712-3.9.867-4.923-2.787-.836-4.242-1.672-5.728-3.406l1.982-2.167a9.626,9.626,0,0,0,4.458,2.384,47.814,47.814,0,0,0,.991-7.71Z" transform="translate(4192.446 1485.163)" fill="#fff"/>
      <path id="パス_653" data-name="パス 653" d="M113.815,553.231a.4.4,0,0,1,.433.4c0,.155-.031.217-.372.588a31.949,31.949,0,0,0,1.765,4.8,34.233,34.233,0,0,0,5.542-1.858l1.486,2.849c-2.353.867-3.158,1.177-3.715,1.332-.712.186-1.61.4-1.982.526a31.622,31.622,0,0,0,5.047,7.4l-2.384,2.26a12.206,12.206,0,0,0-6.843-2.012c-3.034,0-4.737,1.052-4.737,2.879,0,1.548,1.021,2.663,2.91,3.22a16.607,16.607,0,0,0,4.924.5c1.424,0,2.446-.031,4.582-.155a6.959,6.959,0,0,0-1.021,3.251c-1.424.031-2.384.062-3.809.062-3.375,0-5.357-.31-7.09-1.114a6.006,6.006,0,0,1-3.747-5.543c0-3.591,2.911-5.852,7.648-5.852a14.319,14.319,0,0,1,4.056.526,25.942,25.942,0,0,1-2.694-4.706c-2.26.4-6.657.991-9.908,1.3l-.619-3.158a78.968,78.968,0,0,0,9.226-1.053c-.8-1.95-1.424-3.529-1.8-4.706-.279-.8-.341-.928-.557-1.517Z" transform="translate(4192.765 1456.272)" fill="#fff"/>
    </g>
  </g>
</svg>
