<svg xmlns="http://www.w3.org/2000/svg" width="39.081" height="375.022" viewBox="0 0 39.081 375.022">
  <g id="グループ_201" data-name="グループ 201" transform="translate(-4938 -3048)">
    <rect id="長方形_262" data-name="長方形 262" width="39.081" height="375.022" transform="translate(4938 3048)"/>
    <path id="パス_797" data-name="パス 797" d="M267.089,37.731a22.987,22.987,0,0,0,4.374,4.085,31.5,31.5,0,0,0,8.169,4.31,12.147,12.147,0,0,0-1.833,2.765,34,34,0,0,1-8.555-5.146,23.547,23.547,0,0,1-3.569-3.6v.836c0,4.213.064,7.332.161,9.391h-3.377c.1-2.091.161-5.242.161-9.391v-.708a28.473,28.473,0,0,1-5.017,4.7,38.4,38.4,0,0,1-7.429,4.5,14.419,14.419,0,0,0-1.608-2.734c5.435-2.476,9.262-5.178,12.511-9H255.9c-1.8,0-4.7.032-6.432.129V34.644c1.673.064,4.567.129,6.432.129h6.722V27.536h-7.269c-1.351,0-3.151.033-4.47.1v-3.12c1.222.064,3.055.1,4.47.1h7.236c-.032-1.995-.1-3.281-.161-3.859l3.409.225c.289.032.482.161.482.322,0,.193-.16.354-.579.611-.032.675-.032.965-.032,2.7h7.172c1.286,0,3.376-.032,4.471-.1v3.12c-1.158-.032-3.248-.1-4.471-.1h-7.2v7.236h2.219a33.428,33.428,0,0,0,3.409-6.786l3.216,1.158a.451.451,0,0,1,.289.386q0,.338-.868.385a47.655,47.655,0,0,1-2.7,4.856H272.4c2.026,0,4.76-.064,6.4-.129V37.86c-1.7-.1-4.438-.129-6.4-.129Zm-10.9-9.68a19.119,19.119,0,0,1,3.474,4.856l-2.7,1.673a26.978,26.978,0,0,0-3.119-4.921Z" transform="translate(4693.409 3038.373)" fill="#fff"/>
    <path id="パス_798" data-name="パス 798" d="M259.471,85.324a88.019,88.019,0,0,0,11.288-1.7l.45-.289,2.348,2.058c.257.225.322.322.322.45,0,.193-.161.289-.45.386l-.289.1c-2.733,3.41-4.116,4.986-7.268,8.33a10.936,10.936,0,0,1,4.631-1.029c4.824,0,8.169,2.927,8.169,7.236a8.188,8.188,0,0,1-2.927,6.368c-1.994,1.7-4.6,2.509-8.072,2.509-4.567,0-7.108-1.544-7.108-4.342a4.043,4.043,0,0,1,4.342-3.891,6.173,6.173,0,0,1,4.857,2.444,10.74,10.74,0,0,1,1.254,2.541,4.953,4.953,0,0,0,2.573-1.512,5.956,5.956,0,0,0,1.479-3.955c0-2.862-1.962-4.471-5.5-4.471-2.573,0-4.921.933-7.944,3.184-.836.643-1.447,1.125-2.83,2.379l-2.252-2.894c3.6-2.637,6.818-5.886,12.447-12.511-2.573.611-2.959.675-4.471,1.061l-1.8.45c-.547.129-1.865.45-2.284.579Zm5.435,18.783c-.933,0-1.544.482-1.544,1.19,0,1.061,1.319,1.769,3.313,1.769a5.464,5.464,0,0,0,1.094-.1c-.611-2.058-1.447-2.862-2.862-2.862" transform="translate(4689.707 3009.338)" fill="#fff"/>
    <path id="パス_799" data-name="パス 799" d="M267.72,148.27q.386.193.386.386c0,.192-.161.385-.45.546a45.157,45.157,0,0,1-2.958,9.327c-1.9,4.277-3.988,6.239-6.69,6.239a4.365,4.365,0,0,1-3.988-2.284,9.661,9.661,0,0,1-1.254-4.92,12.706,12.706,0,0,1,6.046-10.421,14.172,14.172,0,0,1,8.008-2.316,14.8,14.8,0,0,1,8.845,2.7,9.753,9.753,0,0,1,4.052,8.33c0,4.245-1.994,7.461-6.078,9.712a33.533,33.533,0,0,1-5.982,2.284,8.9,8.9,0,0,0-1.7-3.216c3.377-.8,4.664-1.254,6.432-2.316a7.369,7.369,0,0,0,3.956-6.5c0-3.313-1.994-6.046-5.4-7.4a10.858,10.858,0,0,0-3.667-.772h-.643Zm-8.394,2.187a10.455,10.455,0,0,0-3.216,7.269c0,2.283.74,3.7,1.93,3.7,1.029,0,1.93-1,3.088-3.409a30.941,30.941,0,0,0,3.216-10.2,8.65,8.65,0,0,0-5.017,2.637" transform="translate(4691.46 2980.805)" fill="#fff"/>
    <path id="パス_800" data-name="パス 800" d="M265.142,199.112c.289.064.482.257.482.451,0,.257-.192.418-.739.578-.74,2.476-1.093,3.666-1.608,5.275a1.848,1.848,0,0,0,.386-.032,12.505,12.505,0,0,1,2.154-.225,4.538,4.538,0,0,1,3.055,1.254,4.035,4.035,0,0,1,1.222,3.216,31.192,31.192,0,0,1-2.219,11,4.981,4.981,0,0,1-5.081,3.409,15.47,15.47,0,0,1-3.634-.482c.129-.868.257-2.605.289-3.506a10.621,10.621,0,0,0,3.313.643c1.415,0,2.09-.74,2.765-3.12a30.082,30.082,0,0,0,1.19-7.461c0-1.351-.482-1.994-1.511-1.994a17.872,17.872,0,0,0-2.927.386,64.147,64.147,0,0,1-3.313,8.169,55.141,55.141,0,0,1-4.6,7.751,7.443,7.443,0,0,0-2.862-1.9,42.1,42.1,0,0,0,4.92-7.783c.643-1.35,1.865-4.213,2.348-5.628-1.9.354-3.988.74-6.175,1.158l-.451-3.474c2.091-.129,4.76-.418,7.719-.868a60.223,60.223,0,0,0,1.9-7.462Zm7.751,5.5a23.884,23.884,0,0,1,8.233,7.461l-2.734,2.476a21.881,21.881,0,0,0-7.429-7.429Z" transform="translate(4692.045 2955.918)" fill="#fff"/>
    <path id="パス_801" data-name="パス 801" d="M270.236,257.286c.354.064.547.257.547.482s-.129.354-.547.579c-.772,3.635-1.19,5.532-1.512,7.366-.868,4.7-.965,5.209-1.126,6.11-.193,1.029-.257,1.319-.322,1.672h.611c.933,0,1.544.064,1.608.064.482,0,1.254,0,1.962-.032l-.675,3.281c-1.672-.033-2.091-.033-3.924-.193-.032.515-.064.8-.064,1.286a6.8,6.8,0,0,0,.386,2.541c.418,1,1.672,1.576,3.377,1.576,2.895,0,4.5-1.608,4.5-4.438,0-2.637-1.061-4.792-4.085-8.329a12.191,12.191,0,0,0,2.605-1.994c2.54,2.862,3.473,4.213,4.181,6.046a11.493,11.493,0,0,1,.868,4.438c0,4.856-2.895,7.461-8.3,7.461-4.792,0-6.915-2.187-6.915-7.076a17.174,17.174,0,0,1,.129-1.93c-3.506-.579-5.082-1.9-5.082-4.213,0-1.094.482-2.026,1.7-3.409l2.348,1.672c-.612.675-.8,1.029-.8,1.447,0,.611.9,1.126,2.315,1.351.225-1.19.74-4.052.9-5.114-2.894-.868-4.406-1.737-5.95-3.537l2.058-2.251a9.995,9.995,0,0,0,4.631,2.477,49.727,49.727,0,0,0,1.029-8.008Z" transform="translate(4688.815 2928.942)" fill="#fff"/>
    <path id="パス_802" data-name="パス 802" d="M262.223,328.9c3.506-3.249,6.593-4.7,9.873-4.7,4.149,0,7.044,3.12,7.044,7.59a10.283,10.283,0,0,1-5.371,9.2,23.19,23.19,0,0,1-6.4,2.605,9.339,9.339,0,0,0-1.705-3.088c3.988-.9,6.207-1.9,7.976-3.634a6.7,6.7,0,0,0,2.155-4.985c0-2.766-1.544-4.5-4.02-4.5-2.251,0-4.92,1.286-7.719,3.762a21.707,21.707,0,0,0-1.865,1.833c.064,8.362.1,8.973.161,11.031l-3.634.1c.032-.708.129-3.377.289-7.976-.289.451-1.962,2.669-3.088,4.085-.74.933-.933,1.19-1.319,1.736l-2.316-2.8a67,67,0,0,0,6.786-8.234c0-.418.032-1.672.032-3.6-2.155.707-3.313,1.125-4.888,1.8l-1.191-3.409a52.984,52.984,0,0,0,6.079-1.448c0-.193.032-.933.032-1.351v-2.444a21.388,21.388,0,0,0-.193-3.023l3.538.257c.257.032.418.128.418.322,0,.129-.1.257-.418.45-.161,2.895-.193,3.634-.193,4.181v.482a3.829,3.829,0,0,0,.8-.708l1.383,1.9a.943.943,0,0,1,.257.45c0,.225-.193.354-.708.45-.772.8-1.158,1.19-1.8,1.93Z" transform="translate(4691.684 2900.715)" fill="#fff"/>
    <path id="パス_803" data-name="パス 803" d="M265.142,378.813c.289.064.482.258.482.45,0,.258-.192.418-.739.579-.74,2.477-1.093,3.667-1.608,5.275a1.848,1.848,0,0,0,.386-.032,12.517,12.517,0,0,1,2.154-.225,4.538,4.538,0,0,1,3.055,1.254,4.034,4.034,0,0,1,1.222,3.216,31.189,31.189,0,0,1-2.219,11,4.981,4.981,0,0,1-5.081,3.409,15.469,15.469,0,0,1-3.634-.482c.129-.868.257-2.605.289-3.506a10.605,10.605,0,0,0,3.313.643c1.415,0,2.09-.74,2.765-3.12a30.083,30.083,0,0,0,1.19-7.461c0-1.351-.482-1.994-1.511-1.994a17.937,17.937,0,0,0-2.927.386,64.149,64.149,0,0,1-3.313,8.169,55.139,55.139,0,0,1-4.6,7.751,7.438,7.438,0,0,0-2.862-1.9,42.1,42.1,0,0,0,4.92-7.783c.643-1.351,1.865-4.213,2.348-5.628-1.9.354-3.988.74-6.175,1.158l-.451-3.473c2.091-.129,4.76-.418,7.719-.868a60.224,60.224,0,0,0,1.9-7.462Zm7.751,5.5a23.885,23.885,0,0,1,8.233,7.461l-2.734,2.477a21.882,21.882,0,0,0-7.429-7.429Z" transform="translate(4692.045 2872.543)" fill="#fff"/>
    <path id="パス_804" data-name="パス 804" d="M263.827,444.071a.509.509,0,0,1,.45.482c0,.225-.193.386-.708.546a62.482,62.482,0,0,0-.836,8.073h.161a13.156,13.156,0,0,1,10.645-5.692c4.6,0,7.4,2.444,7.4,6.5,0,3.827-2.316,6.786-6.625,8.491a38.89,38.89,0,0,1-7.976,1.9,15.172,15.172,0,0,0-.933-3.538,28.1,28.1,0,0,0,7.718-1.608c2.7-1.094,4.31-3.055,4.31-5.339,0-2.154-1.415-3.376-3.859-3.376-2.83,0-5.275,1.094-7.783,3.506a10.274,10.274,0,0,0-2.959,4.824l-3.313-.065c-.032-1.64-.032-1.994-.032-2.733,0-2.348.161-5.113.547-9.069.1-.965.1-1.254.193-2.444a9.481,9.481,0,0,1,.129-1.286Zm-.579-6.979a23,23,0,0,1,7.879,3.73l-1.929,2.927a21.165,21.165,0,0,0-7.494-3.8Z" transform="translate(4688.343 2845.205)" fill="#fff"/>
    <path id="パス_805" data-name="パス 805" d="M265.49,496.5c.257.064.418.225.418.418,0,.226-.161.354-.643.579-.772,2.091-1.157,3.185-1.382,3.666a17.042,17.042,0,0,0,3.891-1.415l1.319,2.862a23.16,23.16,0,0,1-6.368,1.865c-.579,1.576-1.576,4.02-2.734,6.528a48.085,48.085,0,0,1-3.184,6.014c-.643,1.094-1.126,1.865-1.415,2.348a8.332,8.332,0,0,0-2.927-1.833,56.09,56.09,0,0,0,6.851-12.832,14.379,14.379,0,0,1-2.251.129c-.9,0-1.608-.032-3.152-.129l-.064-3.281a24.151,24.151,0,0,0,3.892.289c.9,0,1.447-.032,2.669-.129a35.7,35.7,0,0,0,1.672-6.11ZM272.5,509.14c-1,.675-1.254,1.061-1.254,2.026a17.856,17.856,0,0,0,.225,2.605c.1.675.129.869.225,1.865.032.386.064.515.064.643a31.152,31.152,0,0,1,7.139,4.342,10.412,10.412,0,0,0-2.284,2.54,21.432,21.432,0,0,0-4.792-3.538c-.289,3.185-2.155,4.664-5.982,4.664-3.505,0-5.789-1.769-5.789-4.535s2.347-4.728,5.789-4.728a8.86,8.86,0,0,1,2.637.354c-.1-.772-.1-1-.193-1.833-.1-.74-.161-2.091-.161-2.477,0-1.768.611-2.8,2.348-3.988Zm-6.883,8.683c-1.479,0-2.509.74-2.509,1.833s.965,1.7,2.831,1.7a2.64,2.64,0,0,0,2.347-.9,4.108,4.108,0,0,0,.354-2.123,9.036,9.036,0,0,0-3.023-.515m5.114-14.762a21.229,21.229,0,0,1,8.49,3.184l-1.7,2.9a17.788,17.788,0,0,0-7.686-3.281Z" transform="translate(4691.6 2818.119)" fill="#fff"/>
    <path id="パス_806" data-name="パス 806" d="M259.177,559.019c.418.064.708.257.708.546,0,.258-.161.386-.74.612a40.816,40.816,0,0,0-.289,6.432,15.875,15.875,0,0,0,1.383,7.2c.515,1.062,1.351,1.833,1.962,1.833.547,0,.933-1.158,1.512-4.47a17.127,17.127,0,0,0,2.991,1.833c-1.158,5.017-2.155,6.529-4.342,6.529-1.9,0-3.6-1.19-4.985-3.537a17.1,17.1,0,0,1-1.8-5.146,28.892,28.892,0,0,1-.289-4.728c0-1.576.129-5.307.225-6.754a4.836,4.836,0,0,0,.032-.9Zm14.665,1.447a26.281,26.281,0,0,1,7.558,12.06l-3.441,1.608a21.464,21.464,0,0,0-2.83-6.754,25.6,25.6,0,0,0-3.763-4.728Z" transform="translate(4690.291 2788.889)" fill="#fff"/>
    <path id="パス_807" data-name="パス 807" d="M265.141,608.34c.289.064.482.257.482.45,0,.257-.193.418-.74.579-.708,2.284-1.094,3.667-1.608,5.275a19.318,19.318,0,0,1,2.541-.258,4.536,4.536,0,0,1,3.055,1.255,4.034,4.034,0,0,1,1.223,3.216,31.2,31.2,0,0,1-2.219,11,4.982,4.982,0,0,1-5.082,3.409,15.47,15.47,0,0,1-3.634-.482c.129-.869.257-2.606.289-3.506a10.6,10.6,0,0,0,3.313.644c1.415,0,2.091-.74,2.766-3.12a30.1,30.1,0,0,0,1.19-7.461c0-1.351-.482-1.994-1.512-1.994a17.978,17.978,0,0,0-2.927.385,64.153,64.153,0,0,1-3.313,8.169,55.1,55.1,0,0,1-4.6,7.75,7.429,7.429,0,0,0-2.862-1.9,42.129,42.129,0,0,0,4.921-7.783c.643-1.351,1.865-4.213,2.348-5.628-1.9.354-3.988.74-6.175,1.158l-.45-3.473c2.091-.129,4.76-.419,7.718-.868a60.229,60.229,0,0,0,1.9-7.462Zm7.751,5.5a23.879,23.879,0,0,1,8.234,7.461l-2.734,2.477a21.893,21.893,0,0,0-7.429-7.43Zm.225-4.921a21.706,21.706,0,0,1,4.085,3.216l-1.608,1.736a18.694,18.694,0,0,0-3.892-3.312Zm2.509-2.927a21.706,21.706,0,0,1,4.085,3.216l-1.608,1.769a19.718,19.718,0,0,0-3.892-3.344Z" transform="translate(4692.045 2766.842)" fill="#fff"/>
  </g>
</svg>
