<svg xmlns="http://www.w3.org/2000/svg" width="39.081" height="379.111" viewBox="0 0 39.081 379.111">
  <g id="グループ_203" data-name="グループ 203" transform="translate(-4233.563 -2993)">
    <rect id="長方形_260" data-name="長方形 260" width="39.081" height="379.111" transform="translate(4233.563 2993)"/>
    <path id="パス_775" data-name="パス 775" d="M513.218,36.955c1.415,0,2.412,0,3.538-.064-.064.579-.1,1.833-.1,2.862v6.529c0,1.512.032,2.6.1,3.345H513.6V48.6H501.511v1.351H498.36c.032-.74.064-1.833.064-3.409V39.753a46.749,46.749,0,0,1-6.721,3.281,9.561,9.561,0,0,0-1.608-2.959,55.281,55.281,0,0,0,12.35-6.335,28.451,28.451,0,0,0-2.927-2.637c-.45-.354-1.094-.837-1.447-1.062a33.235,33.235,0,0,1-6.175,5.113,7.92,7.92,0,0,0-2.058-2.476A30.342,30.342,0,0,0,501.415,19.91l2.766.965c.354.129.547.321.547.482,0,.257-.1.322-.933.579-.225.45-.45.868-.675,1.286h8.555l.579-.644,2.219,2.155a.719.719,0,0,1,.289.482c0,.225-.129.354-.579.483l-.611.192a30.85,30.85,0,0,1-5.307,6.85,31.632,31.632,0,0,1-5.242,4.214ZM501.286,26.117c-.418.579-.836,1.126-1.287,1.672a23.7,23.7,0,0,1,3.152,2.155,24.638,24.638,0,0,1,1.93,1.736,30.912,30.912,0,0,0,4.856-5.564Zm12.318,13.8H501.511v5.725H513.6Z" transform="translate(3747.764 2983.762)" fill="#fff"/>
    <path id="パス_776" data-name="パス 776" d="M500.267,85.47a22.465,22.465,0,0,0-2.476-4.052L500.2,79.97a19.823,19.823,0,0,1,3.184,4.535l-1.769.965h6.272A30.6,30.6,0,0,0,510.366,80l3.152,1.415c.193.1.322.225.322.354,0,.225-.161.322-.868.45a30.245,30.245,0,0,1-1.8,3.248h3.184c2.026,0,4.759-.064,6.4-.129v3.216c-1.7-.1-4.438-.129-6.4-.129H497.437c-1.769,0-4.664.065-6.4.129V85.341c1.672.065,4.567.129,6.4.129Zm-3.891,17.078c0,2.347.064,6.11.1,7.461h-3.248c.064-1.254.1-4.245.1-6.271V96.372c0-4.052,0-5.178-.032-6.207.868.033,2.412.065,3.8.065h3.892c1.319,0,2.733-.032,3.57-.065-.032,1.062-.064,1.833-.064,6.207v5.017c0,.74,0,2.058.064,3.441.032.386.032,1.158.032,1.543,0,2.766-1.029,3.409-5.339,3.474a17.047,17.047,0,0,0-.611-3.409c1.125.1,1.447.129,1.7.129.9,0,1.093-.226,1.093-1.351v-2.669ZM501.425,93h-5.049v1.9h5.049Zm-5.049,6.851h5.049V97.594h-5.049Zm14.569-9.231c.322.033.547.129.547.322s-.193.354-.611.644c-.065,1.479-.065,2.284-.065,3.634v4.406c0,2.09.033,3.731.1,4.727h-3.248c.064-1.125.1-2.669.1-4.727V95.214c0-2.541-.032-3.891-.129-4.824Zm7.107,15.662c0,1.962-.45,2.83-1.8,3.345-.8.322-1.769.386-4.374.386a10.334,10.334,0,0,0-.643-3.377c1.093.064,1.576.1,2.38.1,1.125,0,1.254-.16,1.254-1.254V97.048c0-3.409-.1-6.754-.225-7.59l3.505.258c.289.032.482.129.482.321s-.161.386-.579.612c-.1,1.19-.1,2.444-.1,6.4v3.409c0,1.125.032,1.833.064,4.085,0,.45.032,1.479.032,1.736" transform="translate(3747.208 2955.897)" fill="#fff"/>
    <path id="パス_777" data-name="パス 777" d="M497.382,160.9a96.579,96.579,0,0,0,9.745-4.759l.772,2.8c-4.535,2.509-5.564,3.088-7.655,4.021-5.757,2.573-6.335,2.8-7.686,3.376l-.064.289c-.1.386-.225.515-.418.515-.257,0-.482-.225-.675-.611l-1.383-2.83c1.447-.515,2.8-1,4.085-1.479V149.069c0-3.8-.064-6.819-.161-7.591l3.569.225c.289.033.482.129.482.322s-.161.354-.578.612c0,.675-.032,2.572-.032,6.432Zm18.492-12.414c0,5.757-.354,9.069-1.319,11.61a18.064,18.064,0,0,1,6.336,6.143l-2.509,2.669a21.864,21.864,0,0,0-5.307-6.014c-2.347,3.313-6.271,5.338-12.511,6.528a7.268,7.268,0,0,0-1.512-3.216c4.535-.9,5.21-1.061,7.076-1.962a10.187,10.187,0,0,0,5.724-6.3c.643-2.187.9-5.049.9-10.356,0-3.12-.032-4.857-.1-6.239l3.345.386c.289.032.579.257.579.418,0,.258-.129.386-.708.643Zm-13.733-5.6a28.989,28.989,0,0,1,7.044,6.142l-2.348,2.284a31.627,31.627,0,0,0-6.561-6.3Z" transform="translate(3747.681 2927.419)" fill="#fff"/>
    <path id="パス_778" data-name="パス 778" d="M505.946,205.559a.708.708,0,0,1,.193.482c0,.225,0,.289-.611.482-.836,5.95-1.93,9.391-4.052,12.929a26.841,26.841,0,0,1-5.049,5.982,29.928,29.928,0,0,1-4.213,3.023,9.126,9.126,0,0,0-1.962-2.476,21.833,21.833,0,0,0,6.111-4.921,23.029,23.029,0,0,0,3.474-5.017,37.056,37.056,0,0,0-4.535-2.862,28.975,28.975,0,0,1-3.023,4.728,8.466,8.466,0,0,0-2.379-2.187,25.038,25.038,0,0,0,4.116-7.462,38.538,38.538,0,0,0,2.091-8.941l2.959.547c.418.064.643.257.643.45,0,.225-.161.354-.708.643-.161,1.093-.386,2.187-.611,3.216h5.146l.385-.482Zm-8.265,1.415a39.156,39.156,0,0,1-1.254,3.731,31.259,31.259,0,0,1,4.6,2.412,39.6,39.6,0,0,0,1.415-6.143Zm13.218,1.673c0-5.275-.1-8.459-.225-9.456l3.506.226c.289.032.482.161.482.322,0,.193-.161.354-.579.611-.032,1.126-.064,2.7-.064,8.3v5.146a27.92,27.92,0,0,0,6.914,3.955,8.149,8.149,0,0,0-1.769,2.958,24.4,24.4,0,0,1-5.145-2.958v1.672c0,4.213.064,7.332.161,9.39h-3.441c.1-2.09.161-5.242.161-9.39v-4.5a22.249,22.249,0,0,1-4.7-7.462l2.058-1.479a27.888,27.888,0,0,0,2.637,4.406Z" transform="translate(3747.736 2900.583)" fill="#fff"/>
    <path id="パス_779" data-name="パス 779" d="M500.678,263.162c.322.064.547.225.547.45,0,.322-.257.515-.868.708a57.82,57.82,0,0,0-1.544,13.637,26.262,26.262,0,0,0,1.608,9.68,15.216,15.216,0,0,0-3.184,1.448,33.369,33.369,0,0,1-1.64-11,83.647,83.647,0,0,1,1.351-13.7,13.4,13.4,0,0,0,.225-1.8Zm15.083-.418a.474.474,0,0,1,.515.418c0,.225-.064.354-.515.675,0,.612.032,2.284.161,4.985a41.766,41.766,0,0,0,5.757-.643l.1,3.281a47.306,47.306,0,0,1-5.821.547c.161,4.921.257,7.558.29,7.976a8.291,8.291,0,0,0,.032.9,25.3,25.3,0,0,1,6.336,3.924,10.678,10.678,0,0,0-2.091,2.83,27.562,27.562,0,0,0-4.406-3.409c-.289,2.959-2.155,4.278-6.046,4.278-2.348,0-3.924-.419-5.082-1.319a4.44,4.44,0,0,1-1.544-3.313c0-2.637,2.348-4.374,5.886-4.374a17.407,17.407,0,0,1,3.569.418c-.032-1.994-.1-2.991-.225-7.815-1.736.032-2.187.032-2.7.032-1.672,0-4.149,0-5.178-.032l-.032-3.345c1.962.161,3.377.225,5.821.225.8,0,1,0,2.026-.032l-.032-1.319a29.682,29.682,0,0,0-.419-5.081Zm-6.5,19.586c-1.64,0-2.573.547-2.573,1.544,0,1.158,1.126,1.769,3.184,1.769,1.64,0,2.508-.45,2.8-1.415a6.7,6.7,0,0,0,.161-1.158l-.032-.1a10.06,10.06,0,0,0-3.538-.643" transform="translate(3745.092 2871.186)" fill="#fff"/>
    <path id="パス_780" data-name="パス 780" d="M500.638,322.928c.386.064.579.257.579.482,0,.289-.257.482-.868.675a58.427,58.427,0,0,0-1.319,12.285,33.906,33.906,0,0,0,1.576,11.257,20.217,20.217,0,0,0-3.313,1.19c-1.158-3.506-1.575-6.882-1.575-12.736a75.388,75.388,0,0,1,.932-10.291c.322-2.412.418-3.056.45-3.538ZM515.883,340.2a23.635,23.635,0,0,1,6.046,3.923,11.89,11.89,0,0,0-2.155,2.509,22.377,22.377,0,0,0-3.923-3.088c-.225,3.088-2.284,4.6-6.24,4.6-4.148,0-6.432-1.7-6.432-4.727,0-2.67,2.412-4.407,6.175-4.407a24.4,24.4,0,0,1,3.281.354c.032-.45.032-.643.032-.933,0-.45-.064-2.347-.129-3.473a14.473,14.473,0,0,1-2.412.16c-2.155,0-3.151-.225-3.8-.932a3.552,3.552,0,0,1-.9-2.412,4.507,4.507,0,0,1,1.447-3.216l2.316,1.511c-.515.515-.708.836-.708,1.222,0,.547.386.739,1.351.739.611,0,1.415-.064,2.637-.192-.064-1.641-.257-4.245-.354-4.856l3.409.161a.458.458,0,0,1,.514.45c0,.257-.1.322-.257.45l-.225.193c.032.772.129,2.509.129,3.281a43.217,43.217,0,0,0,4.728-1.061l.675,3.12a42.081,42.081,0,0,1-5.338,1.061Zm-12.028-15.6a45.771,45.771,0,0,1,10.581-1.157c1.319,0,2.669,0,4.985.032l-.1,3.249c-1.705-.129-2.959-.161-4.567-.161a39.316,39.316,0,0,0-10.131,1.029Zm5.5,17.174c-1.93,0-3.023.612-3.023,1.7,0,1.029,1.158,1.672,3.055,1.672a4.32,4.32,0,0,0,2.251-.515,1.792,1.792,0,0,0,.8-1.383c.064-.515.1-.675.129-1a11,11,0,0,0-3.216-.482" transform="translate(3745.036 2843.486)" fill="#fff"/>
    <path id="パス_781" data-name="パス 781" d="M500.637,380.171c.386.064.579.257.579.482,0,.289-.257.482-.868.675a58.434,58.434,0,0,0-1.319,12.286,33.92,33.92,0,0,0,1.575,11.256,20.234,20.234,0,0,0-3.312,1.19c-1.158-3.506-1.576-6.883-1.576-12.736a75.415,75.415,0,0,1,.933-10.291c.322-2.412.418-3.055.45-3.538Zm15.244,17.271a23.639,23.639,0,0,1,6.046,3.923,11.917,11.917,0,0,0-2.155,2.509,22.4,22.4,0,0,0-3.924-3.088c-.225,3.088-2.283,4.6-6.239,4.6-4.149,0-6.432-1.7-6.432-4.728,0-2.669,2.412-4.406,6.175-4.406a24.361,24.361,0,0,1,3.281.353c.032-.45.032-.643.032-.932,0-.45-.064-2.348-.129-3.474a14.469,14.469,0,0,1-2.412.161c-2.155,0-3.152-.225-3.8-.933a3.552,3.552,0,0,1-.9-2.412,4.509,4.509,0,0,1,1.447-3.216l2.316,1.512c-.515.514-.708.836-.708,1.222,0,.547.386.74,1.351.74.611,0,1.415-.064,2.637-.194-.064-1.64-.257-4.245-.354-4.856l3.409.161a.459.459,0,0,1,.515.45c0,.258-.1.322-.257.45l-.226.193c.032.771.129,2.508.129,3.281a43.347,43.347,0,0,0,4.727-1.062l.675,3.12a42.087,42.087,0,0,1-5.338,1.061Zm1.512-18.235a21.727,21.727,0,0,1,4.085,3.216l-1.608,1.769a18.54,18.54,0,0,0-3.344-2.958l-.032,2.637c-.772-.032-1.191-.032-1.8-.032a33.468,33.468,0,0,0-10.259,1.286l-.676-3.055a41.9,41.9,0,0,1,10.678-1.351h1.672Zm-8.04,19.811c-1.93,0-3.023.611-3.023,1.7,0,1.029,1.158,1.672,3.055,1.672a4.315,4.315,0,0,0,2.251-.515,1.79,1.79,0,0,0,.8-1.383c.065-.515.1-.675.129-1a11,11,0,0,0-3.216-.483m10.324-22.705a21.706,21.706,0,0,1,4.085,3.216l-1.608,1.769a18.7,18.7,0,0,0-3.892-3.344Z" transform="translate(3745.036 2818.405)" fill="#fff"/>
    <path id="パス_782" data-name="パス 782" d="M500.542,449.564c0,.675,0,1.319-.032,1.93h2.444c1.254,0,2.895-.032,3.859-.1v3.12c-.965-.032-2.8-.064-3.859-.064h-2.637l-.29,1.833a22.411,22.411,0,0,1,6.465,6.561l-2.669,2.315a24.8,24.8,0,0,0-4.727-5.725,15.725,15.725,0,0,1-1.447,2.7c-1.319,1.994-2.669,3.248-5.918,5.5a12.339,12.339,0,0,0-1.8-2.7c2.8-1.833,4.117-3.119,5.339-5.21a14.365,14.365,0,0,0,1.769-5.274H494.3c-1.061,0-2.862.032-3.827.064V451.4c.965.064,2.605.1,3.827.1h2.991c.032-.74.064-1.511.064-2.348v-3.088h-2.605a27.248,27.248,0,0,1-2.959,4.76,9.375,9.375,0,0,0-1.9-2.379,22.262,22.262,0,0,0,2.8-4.953,29.178,29.178,0,0,0,1.865-5.854l2.862.644c.419.1.612.257.612.482,0,.193,0,.258-.74.482a39.509,39.509,0,0,1-1.286,3.892H501.8c1.254,0,2.895-.032,3.859-.1v3.12c-1-.033-2.8-.1-3.859-.1h-1.254Zm10.485,17.078h-3.313c.064-1.286.1-3.151.1-5.628V447.57c0-1.93-.064-4.085-.1-5.114.579.032,1.126.064,1.9.064h7.654c.74,0,1.287-.032,1.9-.064-.1,1.029-.1,2.7-.1,5.114v11.867c0,2.541.032,4.438.1,5.628h-3.345v-2.123h-4.792Zm4.792-21.194h-4.792v14.537h4.792Z" transform="translate(3747.737 2789.955)" fill="#fff"/>
    <path id="パス_783" data-name="パス 783" d="M504.979,507.312a.509.509,0,0,1,.45.482c0,.225-.193.386-.708.546a62.49,62.49,0,0,0-.836,8.073h.161a13.156,13.156,0,0,1,10.645-5.692c4.6,0,7.4,2.444,7.4,6.5,0,3.827-2.316,6.786-6.625,8.491a38.889,38.889,0,0,1-7.976,1.9,15.172,15.172,0,0,0-.933-3.538,28.1,28.1,0,0,0,7.718-1.608c2.7-1.094,4.31-3.055,4.31-5.339,0-2.154-1.415-3.377-3.859-3.377-2.83,0-5.275,1.094-7.783,3.506a10.274,10.274,0,0,0-2.959,4.824l-3.313-.064c-.032-1.64-.032-1.994-.032-2.734,0-2.348.161-5.113.547-9.069.1-.965.1-1.254.193-2.444a9.486,9.486,0,0,1,.129-1.286Zm-.579-6.979a23,23,0,0,1,7.879,3.73l-1.929,2.927a21.166,21.166,0,0,0-7.494-3.8Z" transform="translate(3742.753 2760.864)" fill="#fff"/>
    <path id="パス_784" data-name="パス 784" d="M506.642,559.741c.257.064.418.225.418.418,0,.226-.161.354-.643.579-.772,2.091-1.157,3.185-1.382,3.667a17.047,17.047,0,0,0,3.891-1.415l1.319,2.862a23.16,23.16,0,0,1-6.368,1.865c-.579,1.576-1.576,4.02-2.734,6.528a48.084,48.084,0,0,1-3.184,6.014c-.643,1.094-1.126,1.865-1.415,2.348a8.332,8.332,0,0,0-2.927-1.833,56.087,56.087,0,0,0,6.851-12.832,14.375,14.375,0,0,1-2.251.129c-.9,0-1.608-.032-3.152-.129L495,564.661a24.147,24.147,0,0,0,3.892.289c.9,0,1.447-.032,2.669-.129a35.709,35.709,0,0,0,1.672-6.11Zm7.011,12.639c-1,.675-1.254,1.061-1.254,2.026a17.84,17.84,0,0,0,.225,2.605c.1.675.129.869.225,1.865.032.386.064.515.064.643a31.155,31.155,0,0,1,7.139,4.342,10.411,10.411,0,0,0-2.283,2.54,21.438,21.438,0,0,0-4.792-3.538c-.29,3.185-2.155,4.664-5.982,4.664-3.505,0-5.789-1.769-5.789-4.535s2.347-4.728,5.789-4.728a8.859,8.859,0,0,1,2.637.354c-.1-.772-.1-1-.193-1.833-.1-.74-.161-2.091-.161-2.477,0-1.768.611-2.8,2.348-3.988Zm-6.883,8.683c-1.479,0-2.509.74-2.509,1.833s.965,1.7,2.831,1.7a2.64,2.64,0,0,0,2.347-.9,4.107,4.107,0,0,0,.354-2.123,9.038,9.038,0,0,0-3.023-.515m5.114-14.762a21.231,21.231,0,0,1,8.49,3.184l-1.7,2.9a17.788,17.788,0,0,0-7.686-3.281Z" transform="translate(3746.01 2733.778)" fill="#fff"/>
    <path id="パス_785" data-name="パス 785" d="M500.328,622.259c.418.064.708.257.708.546,0,.258-.161.386-.74.612a40.816,40.816,0,0,0-.289,6.432,15.874,15.874,0,0,0,1.383,7.2c.515,1.062,1.351,1.833,1.962,1.833.547,0,.933-1.158,1.512-4.47a17.116,17.116,0,0,0,2.991,1.833c-1.158,5.017-2.155,6.529-4.342,6.529-1.9,0-3.6-1.19-4.985-3.537a17.1,17.1,0,0,1-1.8-5.146,28.9,28.9,0,0,1-.289-4.728c0-1.576.129-5.307.225-6.754a4.833,4.833,0,0,0,.032-.9Zm14.665,1.447a26.282,26.282,0,0,1,7.558,12.06l-3.441,1.608a21.462,21.462,0,0,0-2.83-6.754,25.6,25.6,0,0,0-3.763-4.728Z" transform="translate(3744.703 2704.548)" fill="#fff"/>
  </g>
</svg>
